G04 #@! TF.GenerationSoftware,KiCad,Pcbnew,5.1.4-e60b266~84~ubuntu18.04.1*
G04 #@! TF.CreationDate,2019-10-23T15:59:47+01:00*
G04 #@! TF.ProjectId,trans_switch_volt_amp,7472616e-735f-4737-9769-7463685f766f,rev?*
G04 #@! TF.SameCoordinates,Original*
G04 #@! TF.FileFunction,Legend,Bot*
G04 #@! TF.FilePolarity,Positive*
%FSLAX46Y46*%
G04 Gerber Fmt 4.6, Leading zero omitted, Abs format (unit mm)*
G04 Created by KiCad (PCBNEW 5.1.4-e60b266~84~ubuntu18.04.1) date 2019-10-23 15:59:47*
%MOMM*%
%LPD*%
G04 APERTURE LIST*
%ADD10C,0.120000*%
%ADD11C,0.150000*%
%ADD12C,0.450000*%
G04 APERTURE END LIST*
D10*
X190338000Y-149466000D02*
X190338000Y-119266000D01*
X135838000Y-149466000D02*
X190338000Y-149466000D01*
X135838000Y-119266000D02*
X135838000Y-149466000D01*
X190338000Y-119266000D02*
X135838000Y-119266000D01*
X134458000Y-119266000D02*
X79958000Y-119266000D01*
X79958000Y-119266000D02*
X79958000Y-149466000D01*
X79958000Y-149466000D02*
X134458000Y-149466000D01*
X134458000Y-149466000D02*
X134458000Y-119266000D01*
D11*
X163853714Y-116514571D02*
X163710857Y-116562190D01*
X163663238Y-116609809D01*
X163615619Y-116705047D01*
X163615619Y-116847904D01*
X163663238Y-116943142D01*
X163710857Y-116990761D01*
X163806095Y-117038380D01*
X164187047Y-117038380D01*
X164187047Y-116038380D01*
X163853714Y-116038380D01*
X163758476Y-116086000D01*
X163710857Y-116133619D01*
X163663238Y-116228857D01*
X163663238Y-116324095D01*
X163710857Y-116419333D01*
X163758476Y-116466952D01*
X163853714Y-116514571D01*
X164187047Y-116514571D01*
X163329904Y-116038380D02*
X162758476Y-116038380D01*
X163044190Y-117038380D02*
X163044190Y-116038380D01*
X161901333Y-117038380D02*
X162472761Y-117038380D01*
X162187047Y-117038380D02*
X162187047Y-116038380D01*
X162282285Y-116181238D01*
X162377523Y-116276476D01*
X162472761Y-116324095D01*
X167472857Y-134310380D02*
X167282380Y-134310380D01*
X167187142Y-134262761D01*
X167139523Y-134215142D01*
X167044285Y-134072285D01*
X166996666Y-133881809D01*
X166996666Y-133500857D01*
X167044285Y-133405619D01*
X167091904Y-133358000D01*
X167187142Y-133310380D01*
X167377619Y-133310380D01*
X167472857Y-133358000D01*
X167520476Y-133405619D01*
X167568095Y-133500857D01*
X167568095Y-133738952D01*
X167520476Y-133834190D01*
X167472857Y-133881809D01*
X167377619Y-133929428D01*
X167187142Y-133929428D01*
X167091904Y-133881809D01*
X167044285Y-133834190D01*
X166996666Y-133738952D01*
X166710952Y-133310380D02*
X166377619Y-134310380D01*
X166044285Y-133310380D01*
X164615714Y-133786571D02*
X164472857Y-133834190D01*
X164425238Y-133881809D01*
X164377619Y-133977047D01*
X164377619Y-134119904D01*
X164425238Y-134215142D01*
X164472857Y-134262761D01*
X164568095Y-134310380D01*
X164949047Y-134310380D01*
X164949047Y-133310380D01*
X164615714Y-133310380D01*
X164520476Y-133358000D01*
X164472857Y-133405619D01*
X164425238Y-133500857D01*
X164425238Y-133596095D01*
X164472857Y-133691333D01*
X164520476Y-133738952D01*
X164615714Y-133786571D01*
X164949047Y-133786571D01*
X163520476Y-134310380D02*
X163520476Y-133786571D01*
X163568095Y-133691333D01*
X163663333Y-133643714D01*
X163853809Y-133643714D01*
X163949047Y-133691333D01*
X163520476Y-134262761D02*
X163615714Y-134310380D01*
X163853809Y-134310380D01*
X163949047Y-134262761D01*
X163996666Y-134167523D01*
X163996666Y-134072285D01*
X163949047Y-133977047D01*
X163853809Y-133929428D01*
X163615714Y-133929428D01*
X163520476Y-133881809D01*
X163187142Y-133643714D02*
X162806190Y-133643714D01*
X163044285Y-133310380D02*
X163044285Y-134167523D01*
X162996666Y-134262761D01*
X162901428Y-134310380D01*
X162806190Y-134310380D01*
X162615714Y-133643714D02*
X162234761Y-133643714D01*
X162472857Y-133310380D02*
X162472857Y-134167523D01*
X162425238Y-134262761D01*
X162330000Y-134310380D01*
X162234761Y-134310380D01*
X161520476Y-134262761D02*
X161615714Y-134310380D01*
X161806190Y-134310380D01*
X161901428Y-134262761D01*
X161949047Y-134167523D01*
X161949047Y-133786571D01*
X161901428Y-133691333D01*
X161806190Y-133643714D01*
X161615714Y-133643714D01*
X161520476Y-133691333D01*
X161472857Y-133786571D01*
X161472857Y-133881809D01*
X161949047Y-133977047D01*
X161044285Y-134310380D02*
X161044285Y-133643714D01*
X161044285Y-133834190D02*
X160996666Y-133738952D01*
X160949047Y-133691333D01*
X160853809Y-133643714D01*
X160758571Y-133643714D01*
X160520476Y-133643714D02*
X160282380Y-134310380D01*
X160044285Y-133643714D02*
X160282380Y-134310380D01*
X160377619Y-134548476D01*
X160425238Y-134596095D01*
X160520476Y-134643714D01*
D12*
X147080857Y-128230285D02*
X144795142Y-128230285D01*
X147080857Y-140930285D02*
X144795142Y-140930285D01*
X145938000Y-142073142D02*
X145938000Y-139787428D01*
D11*
X107973714Y-116514571D02*
X107830857Y-116562190D01*
X107783238Y-116609809D01*
X107735619Y-116705047D01*
X107735619Y-116847904D01*
X107783238Y-116943142D01*
X107830857Y-116990761D01*
X107926095Y-117038380D01*
X108307047Y-117038380D01*
X108307047Y-116038380D01*
X107973714Y-116038380D01*
X107878476Y-116086000D01*
X107830857Y-116133619D01*
X107783238Y-116228857D01*
X107783238Y-116324095D01*
X107830857Y-116419333D01*
X107878476Y-116466952D01*
X107973714Y-116514571D01*
X108307047Y-116514571D01*
X107449904Y-116038380D02*
X106878476Y-116038380D01*
X107164190Y-117038380D02*
X107164190Y-116038380D01*
X106592761Y-116133619D02*
X106545142Y-116086000D01*
X106449904Y-116038380D01*
X106211809Y-116038380D01*
X106116571Y-116086000D01*
X106068952Y-116133619D01*
X106021333Y-116228857D01*
X106021333Y-116324095D01*
X106068952Y-116466952D01*
X106640380Y-117038380D01*
X106021333Y-117038380D01*
X112608857Y-135072380D02*
X112418380Y-135072380D01*
X112323142Y-135024761D01*
X112275523Y-134977142D01*
X112180285Y-134834285D01*
X112132666Y-134643809D01*
X112132666Y-134262857D01*
X112180285Y-134167619D01*
X112227904Y-134120000D01*
X112323142Y-134072380D01*
X112513619Y-134072380D01*
X112608857Y-134120000D01*
X112656476Y-134167619D01*
X112704095Y-134262857D01*
X112704095Y-134500952D01*
X112656476Y-134596190D01*
X112608857Y-134643809D01*
X112513619Y-134691428D01*
X112323142Y-134691428D01*
X112227904Y-134643809D01*
X112180285Y-134596190D01*
X112132666Y-134500952D01*
X111846952Y-134072380D02*
X111513619Y-135072380D01*
X111180285Y-134072380D01*
X109751714Y-134548571D02*
X109608857Y-134596190D01*
X109561238Y-134643809D01*
X109513619Y-134739047D01*
X109513619Y-134881904D01*
X109561238Y-134977142D01*
X109608857Y-135024761D01*
X109704095Y-135072380D01*
X110085047Y-135072380D01*
X110085047Y-134072380D01*
X109751714Y-134072380D01*
X109656476Y-134120000D01*
X109608857Y-134167619D01*
X109561238Y-134262857D01*
X109561238Y-134358095D01*
X109608857Y-134453333D01*
X109656476Y-134500952D01*
X109751714Y-134548571D01*
X110085047Y-134548571D01*
X108656476Y-135072380D02*
X108656476Y-134548571D01*
X108704095Y-134453333D01*
X108799333Y-134405714D01*
X108989809Y-134405714D01*
X109085047Y-134453333D01*
X108656476Y-135024761D02*
X108751714Y-135072380D01*
X108989809Y-135072380D01*
X109085047Y-135024761D01*
X109132666Y-134929523D01*
X109132666Y-134834285D01*
X109085047Y-134739047D01*
X108989809Y-134691428D01*
X108751714Y-134691428D01*
X108656476Y-134643809D01*
X108323142Y-134405714D02*
X107942190Y-134405714D01*
X108180285Y-134072380D02*
X108180285Y-134929523D01*
X108132666Y-135024761D01*
X108037428Y-135072380D01*
X107942190Y-135072380D01*
X107751714Y-134405714D02*
X107370761Y-134405714D01*
X107608857Y-134072380D02*
X107608857Y-134929523D01*
X107561238Y-135024761D01*
X107466000Y-135072380D01*
X107370761Y-135072380D01*
X106656476Y-135024761D02*
X106751714Y-135072380D01*
X106942190Y-135072380D01*
X107037428Y-135024761D01*
X107085047Y-134929523D01*
X107085047Y-134548571D01*
X107037428Y-134453333D01*
X106942190Y-134405714D01*
X106751714Y-134405714D01*
X106656476Y-134453333D01*
X106608857Y-134548571D01*
X106608857Y-134643809D01*
X107085047Y-134739047D01*
X106180285Y-135072380D02*
X106180285Y-134405714D01*
X106180285Y-134596190D02*
X106132666Y-134500952D01*
X106085047Y-134453333D01*
X105989809Y-134405714D01*
X105894571Y-134405714D01*
X105656476Y-134405714D02*
X105418380Y-135072380D01*
X105180285Y-134405714D02*
X105418380Y-135072380D01*
X105513619Y-135310476D01*
X105561238Y-135358095D01*
X105656476Y-135405714D01*
D12*
X91200857Y-140930285D02*
X88915142Y-140930285D01*
X90058000Y-142073142D02*
X90058000Y-139787428D01*
X91200857Y-128230285D02*
X88915142Y-128230285D01*
M02*
