G04 #@! TF.GenerationSoftware,KiCad,Pcbnew,5.1.4-e60b266~84~ubuntu18.04.1*
G04 #@! TF.CreationDate,2019-10-23T15:59:47+01:00*
G04 #@! TF.ProjectId,trans_switch_volt_amp,7472616e-735f-4737-9769-7463685f766f,rev?*
G04 #@! TF.SameCoordinates,Original*
G04 #@! TF.FileFunction,Legend,Top*
G04 #@! TF.FilePolarity,Positive*
%FSLAX46Y46*%
G04 Gerber Fmt 4.6, Leading zero omitted, Abs format (unit mm)*
G04 Created by KiCad (PCBNEW 5.1.4-e60b266~84~ubuntu18.04.1) date 2019-10-23 15:59:47*
%MOMM*%
%LPD*%
G04 APERTURE LIST*
%ADD10C,0.400000*%
%ADD11C,0.300000*%
%ADD12C,0.150000*%
%ADD13C,0.120000*%
G04 APERTURE END LIST*
D10*
X86270761Y-147939142D02*
X86556476Y-148034380D01*
X86651714Y-148129619D01*
X86746952Y-148320095D01*
X86746952Y-148605809D01*
X86651714Y-148796285D01*
X86556476Y-148891523D01*
X86366000Y-148986761D01*
X85604095Y-148986761D01*
X85604095Y-146986761D01*
X86270761Y-146986761D01*
X86461238Y-147082000D01*
X86556476Y-147177238D01*
X86651714Y-147367714D01*
X86651714Y-147558190D01*
X86556476Y-147748666D01*
X86461238Y-147843904D01*
X86270761Y-147939142D01*
X85604095Y-147939142D01*
X88461238Y-148986761D02*
X88461238Y-147939142D01*
X88366000Y-147748666D01*
X88175523Y-147653428D01*
X87794571Y-147653428D01*
X87604095Y-147748666D01*
X88461238Y-148891523D02*
X88270761Y-148986761D01*
X87794571Y-148986761D01*
X87604095Y-148891523D01*
X87508857Y-148701047D01*
X87508857Y-148510571D01*
X87604095Y-148320095D01*
X87794571Y-148224857D01*
X88270761Y-148224857D01*
X88461238Y-148129619D01*
X89127904Y-147653428D02*
X89889809Y-147653428D01*
X89413619Y-146986761D02*
X89413619Y-148701047D01*
X89508857Y-148891523D01*
X89699333Y-148986761D01*
X89889809Y-148986761D01*
X90270761Y-147653428D02*
X91032666Y-147653428D01*
X90556476Y-146986761D02*
X90556476Y-148701047D01*
X90651714Y-148891523D01*
X90842190Y-148986761D01*
X91032666Y-148986761D01*
X92461238Y-148891523D02*
X92270761Y-148986761D01*
X91889809Y-148986761D01*
X91699333Y-148891523D01*
X91604095Y-148701047D01*
X91604095Y-147939142D01*
X91699333Y-147748666D01*
X91889809Y-147653428D01*
X92270761Y-147653428D01*
X92461238Y-147748666D01*
X92556476Y-147939142D01*
X92556476Y-148129619D01*
X91604095Y-148320095D01*
X93413619Y-148986761D02*
X93413619Y-147653428D01*
X93413619Y-148034380D02*
X93508857Y-147843904D01*
X93604095Y-147748666D01*
X93794571Y-147653428D01*
X93985047Y-147653428D01*
X94461238Y-147653428D02*
X94937428Y-148986761D01*
X95413619Y-147653428D02*
X94937428Y-148986761D01*
X94746952Y-149462952D01*
X94651714Y-149558190D01*
X94461238Y-149653428D01*
X97699333Y-148986761D02*
X97699333Y-146986761D01*
X98556476Y-148986761D02*
X98556476Y-147939142D01*
X98461238Y-147748666D01*
X98270761Y-147653428D01*
X97985047Y-147653428D01*
X97794571Y-147748666D01*
X97699333Y-147843904D01*
X99794571Y-148986761D02*
X99604095Y-148891523D01*
X99508857Y-148796285D01*
X99413619Y-148605809D01*
X99413619Y-148034380D01*
X99508857Y-147843904D01*
X99604095Y-147748666D01*
X99794571Y-147653428D01*
X100080285Y-147653428D01*
X100270761Y-147748666D01*
X100366000Y-147843904D01*
X100461238Y-148034380D01*
X100461238Y-148605809D01*
X100366000Y-148796285D01*
X100270761Y-148891523D01*
X100080285Y-148986761D01*
X99794571Y-148986761D01*
X101604095Y-148986761D02*
X101413619Y-148891523D01*
X101318380Y-148701047D01*
X101318380Y-146986761D01*
X103223142Y-148986761D02*
X103223142Y-146986761D01*
X103223142Y-148891523D02*
X103032666Y-148986761D01*
X102651714Y-148986761D01*
X102461238Y-148891523D01*
X102366000Y-148796285D01*
X102270761Y-148605809D01*
X102270761Y-148034380D01*
X102366000Y-147843904D01*
X102461238Y-147748666D01*
X102651714Y-147653428D01*
X103032666Y-147653428D01*
X103223142Y-147748666D01*
X104937428Y-148891523D02*
X104746952Y-148986761D01*
X104366000Y-148986761D01*
X104175523Y-148891523D01*
X104080285Y-148701047D01*
X104080285Y-147939142D01*
X104175523Y-147748666D01*
X104366000Y-147653428D01*
X104746952Y-147653428D01*
X104937428Y-147748666D01*
X105032666Y-147939142D01*
X105032666Y-148129619D01*
X104080285Y-148320095D01*
X105889809Y-148986761D02*
X105889809Y-147653428D01*
X105889809Y-148034380D02*
X105985047Y-147843904D01*
X106080285Y-147748666D01*
X106270761Y-147653428D01*
X106461238Y-147653428D01*
X107032666Y-148891523D02*
X107223142Y-148986761D01*
X107604095Y-148986761D01*
X107794571Y-148891523D01*
X107889809Y-148701047D01*
X107889809Y-148605809D01*
X107794571Y-148415333D01*
X107604095Y-148320095D01*
X107318380Y-148320095D01*
X107127904Y-148224857D01*
X107032666Y-148034380D01*
X107032666Y-147939142D01*
X107127904Y-147748666D01*
X107318380Y-147653428D01*
X107604095Y-147653428D01*
X107794571Y-147748666D01*
X109985047Y-147653428D02*
X110746952Y-147653428D01*
X110270761Y-146986761D02*
X110270761Y-148701047D01*
X110366000Y-148891523D01*
X110556476Y-148986761D01*
X110746952Y-148986761D01*
X111699333Y-148986761D02*
X111508857Y-148891523D01*
X111413619Y-148796285D01*
X111318380Y-148605809D01*
X111318380Y-148034380D01*
X111413619Y-147843904D01*
X111508857Y-147748666D01*
X111699333Y-147653428D01*
X111985047Y-147653428D01*
X112175523Y-147748666D01*
X112270761Y-147843904D01*
X112366000Y-148034380D01*
X112366000Y-148605809D01*
X112270761Y-148796285D01*
X112175523Y-148891523D01*
X111985047Y-148986761D01*
X111699333Y-148986761D01*
X114746952Y-148986761D02*
X114746952Y-146986761D01*
X114746952Y-147748666D02*
X114937428Y-147653428D01*
X115318380Y-147653428D01*
X115508857Y-147748666D01*
X115604095Y-147843904D01*
X115699333Y-148034380D01*
X115699333Y-148605809D01*
X115604095Y-148796285D01*
X115508857Y-148891523D01*
X115318380Y-148986761D01*
X114937428Y-148986761D01*
X114746952Y-148891523D01*
X117318380Y-148891523D02*
X117127904Y-148986761D01*
X116746952Y-148986761D01*
X116556476Y-148891523D01*
X116461238Y-148701047D01*
X116461238Y-147939142D01*
X116556476Y-147748666D01*
X116746952Y-147653428D01*
X117127904Y-147653428D01*
X117318380Y-147748666D01*
X117413619Y-147939142D01*
X117413619Y-148129619D01*
X116461238Y-148320095D01*
X119699333Y-148891523D02*
X119889809Y-148986761D01*
X120270761Y-148986761D01*
X120461238Y-148891523D01*
X120556476Y-148701047D01*
X120556476Y-148605809D01*
X120461238Y-148415333D01*
X120270761Y-148320095D01*
X119985047Y-148320095D01*
X119794571Y-148224857D01*
X119699333Y-148034380D01*
X119699333Y-147939142D01*
X119794571Y-147748666D01*
X119985047Y-147653428D01*
X120270761Y-147653428D01*
X120461238Y-147748666D01*
X121699333Y-148986761D02*
X121508857Y-148891523D01*
X121413619Y-148796285D01*
X121318380Y-148605809D01*
X121318380Y-148034380D01*
X121413619Y-147843904D01*
X121508857Y-147748666D01*
X121699333Y-147653428D01*
X121985047Y-147653428D01*
X122175523Y-147748666D01*
X122270761Y-147843904D01*
X122366000Y-148034380D01*
X122366000Y-148605809D01*
X122270761Y-148796285D01*
X122175523Y-148891523D01*
X121985047Y-148986761D01*
X121699333Y-148986761D01*
X123508857Y-148986761D02*
X123318380Y-148891523D01*
X123223142Y-148701047D01*
X123223142Y-146986761D01*
X125127904Y-148986761D02*
X125127904Y-146986761D01*
X125127904Y-148891523D02*
X124937428Y-148986761D01*
X124556476Y-148986761D01*
X124366000Y-148891523D01*
X124270761Y-148796285D01*
X124175523Y-148605809D01*
X124175523Y-148034380D01*
X124270761Y-147843904D01*
X124366000Y-147748666D01*
X124556476Y-147653428D01*
X124937428Y-147653428D01*
X125127904Y-147748666D01*
X126842190Y-148891523D02*
X126651714Y-148986761D01*
X126270761Y-148986761D01*
X126080285Y-148891523D01*
X125985047Y-148701047D01*
X125985047Y-147939142D01*
X126080285Y-147748666D01*
X126270761Y-147653428D01*
X126651714Y-147653428D01*
X126842190Y-147748666D01*
X126937428Y-147939142D01*
X126937428Y-148129619D01*
X125985047Y-148320095D01*
X127794571Y-148986761D02*
X127794571Y-147653428D01*
X127794571Y-148034380D02*
X127889809Y-147843904D01*
X127985047Y-147748666D01*
X128175523Y-147653428D01*
X128366000Y-147653428D01*
X129794571Y-148891523D02*
X129604095Y-148986761D01*
X129223142Y-148986761D01*
X129032666Y-148891523D01*
X128937428Y-148701047D01*
X128937428Y-147939142D01*
X129032666Y-147748666D01*
X129223142Y-147653428D01*
X129604095Y-147653428D01*
X129794571Y-147748666D01*
X129889809Y-147939142D01*
X129889809Y-148129619D01*
X128937428Y-148320095D01*
X131604095Y-148986761D02*
X131604095Y-146986761D01*
X131604095Y-148891523D02*
X131413619Y-148986761D01*
X131032666Y-148986761D01*
X130842190Y-148891523D01*
X130746952Y-148796285D01*
X130651714Y-148605809D01*
X130651714Y-148034380D01*
X130746952Y-147843904D01*
X130842190Y-147748666D01*
X131032666Y-147653428D01*
X131413619Y-147653428D01*
X131604095Y-147748666D01*
X134366000Y-148986761D02*
X134175523Y-148891523D01*
X134080285Y-148796285D01*
X133985047Y-148605809D01*
X133985047Y-148034380D01*
X134080285Y-147843904D01*
X134175523Y-147748666D01*
X134366000Y-147653428D01*
X134651714Y-147653428D01*
X134842190Y-147748666D01*
X134937428Y-147843904D01*
X135032666Y-148034380D01*
X135032666Y-148605809D01*
X134937428Y-148796285D01*
X134842190Y-148891523D01*
X134651714Y-148986761D01*
X134366000Y-148986761D01*
X135889809Y-147653428D02*
X135889809Y-148986761D01*
X135889809Y-147843904D02*
X135985047Y-147748666D01*
X136175523Y-147653428D01*
X136461238Y-147653428D01*
X136651714Y-147748666D01*
X136746952Y-147939142D01*
X136746952Y-148986761D01*
X138937428Y-147653428D02*
X139699333Y-147653428D01*
X139223142Y-146986761D02*
X139223142Y-148701047D01*
X139318380Y-148891523D01*
X139508857Y-148986761D01*
X139699333Y-148986761D01*
X140366000Y-148986761D02*
X140366000Y-146986761D01*
X141223142Y-148986761D02*
X141223142Y-147939142D01*
X141127904Y-147748666D01*
X140937428Y-147653428D01*
X140651714Y-147653428D01*
X140461238Y-147748666D01*
X140366000Y-147843904D01*
X142937428Y-148891523D02*
X142746952Y-148986761D01*
X142366000Y-148986761D01*
X142175523Y-148891523D01*
X142080285Y-148701047D01*
X142080285Y-147939142D01*
X142175523Y-147748666D01*
X142366000Y-147653428D01*
X142746952Y-147653428D01*
X142937428Y-147748666D01*
X143032666Y-147939142D01*
X143032666Y-148129619D01*
X142080285Y-148320095D01*
X145413619Y-148986761D02*
X145413619Y-146986761D01*
X145413619Y-147748666D02*
X145604095Y-147653428D01*
X145985047Y-147653428D01*
X146175523Y-147748666D01*
X146270761Y-147843904D01*
X146366000Y-148034380D01*
X146366000Y-148605809D01*
X146270761Y-148796285D01*
X146175523Y-148891523D01*
X145985047Y-148986761D01*
X145604095Y-148986761D01*
X145413619Y-148891523D01*
X147508857Y-148986761D02*
X147318380Y-148891523D01*
X147223142Y-148796285D01*
X147127904Y-148605809D01*
X147127904Y-148034380D01*
X147223142Y-147843904D01*
X147318380Y-147748666D01*
X147508857Y-147653428D01*
X147794571Y-147653428D01*
X147985047Y-147748666D01*
X148080285Y-147843904D01*
X148175523Y-148034380D01*
X148175523Y-148605809D01*
X148080285Y-148796285D01*
X147985047Y-148891523D01*
X147794571Y-148986761D01*
X147508857Y-148986761D01*
X148746952Y-147653428D02*
X149508857Y-147653428D01*
X149032666Y-146986761D02*
X149032666Y-148701047D01*
X149127904Y-148891523D01*
X149318380Y-148986761D01*
X149508857Y-148986761D01*
X149889809Y-147653428D02*
X150651714Y-147653428D01*
X150175523Y-146986761D02*
X150175523Y-148701047D01*
X150270761Y-148891523D01*
X150461238Y-148986761D01*
X150651714Y-148986761D01*
X151604095Y-148986761D02*
X151413619Y-148891523D01*
X151318380Y-148796285D01*
X151223142Y-148605809D01*
X151223142Y-148034380D01*
X151318380Y-147843904D01*
X151413619Y-147748666D01*
X151604095Y-147653428D01*
X151889809Y-147653428D01*
X152080285Y-147748666D01*
X152175523Y-147843904D01*
X152270761Y-148034380D01*
X152270761Y-148605809D01*
X152175523Y-148796285D01*
X152080285Y-148891523D01*
X151889809Y-148986761D01*
X151604095Y-148986761D01*
X153127904Y-148986761D02*
X153127904Y-147653428D01*
X153127904Y-147843904D02*
X153223142Y-147748666D01*
X153413619Y-147653428D01*
X153699333Y-147653428D01*
X153889809Y-147748666D01*
X153985047Y-147939142D01*
X153985047Y-148986761D01*
X153985047Y-147939142D02*
X154080285Y-147748666D01*
X154270761Y-147653428D01*
X154556476Y-147653428D01*
X154746952Y-147748666D01*
X154842190Y-147939142D01*
X154842190Y-148986761D01*
X157223142Y-148891523D02*
X157413619Y-148986761D01*
X157794571Y-148986761D01*
X157985047Y-148891523D01*
X158080285Y-148701047D01*
X158080285Y-148605809D01*
X157985047Y-148415333D01*
X157794571Y-148320095D01*
X157508857Y-148320095D01*
X157318380Y-148224857D01*
X157223142Y-148034380D01*
X157223142Y-147939142D01*
X157318380Y-147748666D01*
X157508857Y-147653428D01*
X157794571Y-147653428D01*
X157985047Y-147748666D01*
X158937428Y-148986761D02*
X158937428Y-147653428D01*
X158937428Y-146986761D02*
X158842190Y-147082000D01*
X158937428Y-147177238D01*
X159032666Y-147082000D01*
X158937428Y-146986761D01*
X158937428Y-147177238D01*
X160746952Y-148986761D02*
X160746952Y-146986761D01*
X160746952Y-148891523D02*
X160556476Y-148986761D01*
X160175523Y-148986761D01*
X159985047Y-148891523D01*
X159889809Y-148796285D01*
X159794571Y-148605809D01*
X159794571Y-148034380D01*
X159889809Y-147843904D01*
X159985047Y-147748666D01*
X160175523Y-147653428D01*
X160556476Y-147653428D01*
X160746952Y-147748666D01*
X162461238Y-148891523D02*
X162270761Y-148986761D01*
X161889809Y-148986761D01*
X161699333Y-148891523D01*
X161604095Y-148701047D01*
X161604095Y-147939142D01*
X161699333Y-147748666D01*
X161889809Y-147653428D01*
X162270761Y-147653428D01*
X162461238Y-147748666D01*
X162556476Y-147939142D01*
X162556476Y-148129619D01*
X161604095Y-148320095D01*
X165223142Y-148986761D02*
X165032666Y-148891523D01*
X164937428Y-148796285D01*
X164842190Y-148605809D01*
X164842190Y-148034380D01*
X164937428Y-147843904D01*
X165032666Y-147748666D01*
X165223142Y-147653428D01*
X165508857Y-147653428D01*
X165699333Y-147748666D01*
X165794571Y-147843904D01*
X165889809Y-148034380D01*
X165889809Y-148605809D01*
X165794571Y-148796285D01*
X165699333Y-148891523D01*
X165508857Y-148986761D01*
X165223142Y-148986761D01*
X166461238Y-147653428D02*
X167223142Y-147653428D01*
X166746952Y-148986761D02*
X166746952Y-147272476D01*
X166842190Y-147082000D01*
X167032666Y-146986761D01*
X167223142Y-146986761D01*
X169127904Y-147653428D02*
X169889809Y-147653428D01*
X169413619Y-146986761D02*
X169413619Y-148701047D01*
X169508857Y-148891523D01*
X169699333Y-148986761D01*
X169889809Y-148986761D01*
X170556476Y-148986761D02*
X170556476Y-146986761D01*
X171413619Y-148986761D02*
X171413619Y-147939142D01*
X171318380Y-147748666D01*
X171127904Y-147653428D01*
X170842190Y-147653428D01*
X170651714Y-147748666D01*
X170556476Y-147843904D01*
X173127904Y-148891523D02*
X172937428Y-148986761D01*
X172556476Y-148986761D01*
X172366000Y-148891523D01*
X172270761Y-148701047D01*
X172270761Y-147939142D01*
X172366000Y-147748666D01*
X172556476Y-147653428D01*
X172937428Y-147653428D01*
X173127904Y-147748666D01*
X173223142Y-147939142D01*
X173223142Y-148129619D01*
X172270761Y-148320095D01*
X175604095Y-148986761D02*
X175604095Y-146986761D01*
X175604095Y-147748666D02*
X175794571Y-147653428D01*
X176175523Y-147653428D01*
X176366000Y-147748666D01*
X176461238Y-147843904D01*
X176556476Y-148034380D01*
X176556476Y-148605809D01*
X176461238Y-148796285D01*
X176366000Y-148891523D01*
X176175523Y-148986761D01*
X175794571Y-148986761D01*
X175604095Y-148891523D01*
X177699333Y-148986761D02*
X177508857Y-148891523D01*
X177413619Y-148796285D01*
X177318380Y-148605809D01*
X177318380Y-148034380D01*
X177413619Y-147843904D01*
X177508857Y-147748666D01*
X177699333Y-147653428D01*
X177985047Y-147653428D01*
X178175523Y-147748666D01*
X178270761Y-147843904D01*
X178366000Y-148034380D01*
X178366000Y-148605809D01*
X178270761Y-148796285D01*
X178175523Y-148891523D01*
X177985047Y-148986761D01*
X177699333Y-148986761D01*
X180080285Y-148986761D02*
X180080285Y-147939142D01*
X179985047Y-147748666D01*
X179794571Y-147653428D01*
X179413619Y-147653428D01*
X179223142Y-147748666D01*
X180080285Y-148891523D02*
X179889809Y-148986761D01*
X179413619Y-148986761D01*
X179223142Y-148891523D01*
X179127904Y-148701047D01*
X179127904Y-148510571D01*
X179223142Y-148320095D01*
X179413619Y-148224857D01*
X179889809Y-148224857D01*
X180080285Y-148129619D01*
X181032666Y-148986761D02*
X181032666Y-147653428D01*
X181032666Y-148034380D02*
X181127904Y-147843904D01*
X181223142Y-147748666D01*
X181413619Y-147653428D01*
X181604095Y-147653428D01*
X183127904Y-148986761D02*
X183127904Y-146986761D01*
X183127904Y-148891523D02*
X182937428Y-148986761D01*
X182556476Y-148986761D01*
X182365999Y-148891523D01*
X182270761Y-148796285D01*
X182175523Y-148605809D01*
X182175523Y-148034380D01*
X182270761Y-147843904D01*
X182365999Y-147748666D01*
X182556476Y-147653428D01*
X182937428Y-147653428D01*
X183127904Y-147748666D01*
X86746952Y-128043523D02*
X87032666Y-128138761D01*
X87508857Y-128138761D01*
X87699333Y-128043523D01*
X87794571Y-127948285D01*
X87889809Y-127757809D01*
X87889809Y-127567333D01*
X87794571Y-127376857D01*
X87699333Y-127281619D01*
X87508857Y-127186380D01*
X87127904Y-127091142D01*
X86937428Y-126995904D01*
X86842190Y-126900666D01*
X86746952Y-126710190D01*
X86746952Y-126519714D01*
X86842190Y-126329238D01*
X86937428Y-126234000D01*
X87127904Y-126138761D01*
X87604095Y-126138761D01*
X87889809Y-126234000D01*
X89604095Y-128138761D02*
X89604095Y-127091142D01*
X89508857Y-126900666D01*
X89318380Y-126805428D01*
X88937428Y-126805428D01*
X88746952Y-126900666D01*
X89604095Y-128043523D02*
X89413619Y-128138761D01*
X88937428Y-128138761D01*
X88746952Y-128043523D01*
X88651714Y-127853047D01*
X88651714Y-127662571D01*
X88746952Y-127472095D01*
X88937428Y-127376857D01*
X89413619Y-127376857D01*
X89604095Y-127281619D01*
X90270761Y-126805428D02*
X91032666Y-126805428D01*
X90556476Y-128138761D02*
X90556476Y-126424476D01*
X90651714Y-126234000D01*
X90842190Y-126138761D01*
X91032666Y-126138761D01*
X92461238Y-128043523D02*
X92270761Y-128138761D01*
X91889809Y-128138761D01*
X91699333Y-128043523D01*
X91604095Y-127853047D01*
X91604095Y-127091142D01*
X91699333Y-126900666D01*
X91889809Y-126805428D01*
X92270761Y-126805428D01*
X92461238Y-126900666D01*
X92556476Y-127091142D01*
X92556476Y-127281619D01*
X91604095Y-127472095D01*
X93127904Y-126805428D02*
X93889809Y-126805428D01*
X93413619Y-126138761D02*
X93413619Y-127853047D01*
X93508857Y-128043523D01*
X93699333Y-128138761D01*
X93889809Y-128138761D01*
X94366000Y-126805428D02*
X94842190Y-128138761D01*
X95318380Y-126805428D02*
X94842190Y-128138761D01*
X94651714Y-128614952D01*
X94556476Y-128710190D01*
X94366000Y-128805428D01*
X97604095Y-126805428D02*
X97604095Y-128138761D01*
X97604095Y-126995904D02*
X97699333Y-126900666D01*
X97889809Y-126805428D01*
X98175523Y-126805428D01*
X98366000Y-126900666D01*
X98461238Y-127091142D01*
X98461238Y-128138761D01*
X99699333Y-128138761D02*
X99508857Y-128043523D01*
X99413619Y-127948285D01*
X99318380Y-127757809D01*
X99318380Y-127186380D01*
X99413619Y-126995904D01*
X99508857Y-126900666D01*
X99699333Y-126805428D01*
X99985047Y-126805428D01*
X100175523Y-126900666D01*
X100270761Y-126995904D01*
X100366000Y-127186380D01*
X100366000Y-127757809D01*
X100270761Y-127948285D01*
X100175523Y-128043523D01*
X99985047Y-128138761D01*
X99699333Y-128138761D01*
X100937428Y-126805428D02*
X101699333Y-126805428D01*
X101223142Y-126138761D02*
X101223142Y-127853047D01*
X101318380Y-128043523D01*
X101508857Y-128138761D01*
X101699333Y-128138761D01*
X102366000Y-128138761D02*
X102366000Y-126805428D01*
X102366000Y-126138761D02*
X102270761Y-126234000D01*
X102366000Y-126329238D01*
X102461238Y-126234000D01*
X102366000Y-126138761D01*
X102366000Y-126329238D01*
X104175523Y-128043523D02*
X103985047Y-128138761D01*
X103604095Y-128138761D01*
X103413619Y-128043523D01*
X103318380Y-127948285D01*
X103223142Y-127757809D01*
X103223142Y-127186380D01*
X103318380Y-126995904D01*
X103413619Y-126900666D01*
X103604095Y-126805428D01*
X103985047Y-126805428D01*
X104175523Y-126900666D01*
X105794571Y-128043523D02*
X105604095Y-128138761D01*
X105223142Y-128138761D01*
X105032666Y-128043523D01*
X104937428Y-127853047D01*
X104937428Y-127091142D01*
X105032666Y-126900666D01*
X105223142Y-126805428D01*
X105604095Y-126805428D01*
X105794571Y-126900666D01*
X105889809Y-127091142D01*
X105889809Y-127281619D01*
X104937428Y-127472095D01*
X106746952Y-127948285D02*
X106842190Y-128043523D01*
X106746952Y-128138761D01*
X106651714Y-128043523D01*
X106746952Y-127948285D01*
X106746952Y-128138761D01*
X106746952Y-126900666D02*
X106842190Y-126995904D01*
X106746952Y-127091142D01*
X106651714Y-126995904D01*
X106746952Y-126900666D01*
X106746952Y-127091142D01*
X86556476Y-129538761D02*
X87699333Y-129538761D01*
X87127904Y-131538761D02*
X87127904Y-129538761D01*
X88366000Y-131538761D02*
X88366000Y-129538761D01*
X89223142Y-131538761D02*
X89223142Y-130491142D01*
X89127904Y-130300666D01*
X88937428Y-130205428D01*
X88651714Y-130205428D01*
X88461238Y-130300666D01*
X88366000Y-130395904D01*
X90175523Y-131538761D02*
X90175523Y-130205428D01*
X90175523Y-129538761D02*
X90080285Y-129634000D01*
X90175523Y-129729238D01*
X90270761Y-129634000D01*
X90175523Y-129538761D01*
X90175523Y-129729238D01*
X91032666Y-131443523D02*
X91223142Y-131538761D01*
X91604095Y-131538761D01*
X91794571Y-131443523D01*
X91889809Y-131253047D01*
X91889809Y-131157809D01*
X91794571Y-130967333D01*
X91604095Y-130872095D01*
X91318380Y-130872095D01*
X91127904Y-130776857D01*
X91032666Y-130586380D01*
X91032666Y-130491142D01*
X91127904Y-130300666D01*
X91318380Y-130205428D01*
X91604095Y-130205428D01*
X91794571Y-130300666D01*
X94175523Y-131443523D02*
X94366000Y-131538761D01*
X94746952Y-131538761D01*
X94937428Y-131443523D01*
X95032666Y-131253047D01*
X95032666Y-131157809D01*
X94937428Y-130967333D01*
X94746952Y-130872095D01*
X94461238Y-130872095D01*
X94270761Y-130776857D01*
X94175523Y-130586380D01*
X94175523Y-130491142D01*
X94270761Y-130300666D01*
X94461238Y-130205428D01*
X94746952Y-130205428D01*
X94937428Y-130300666D01*
X95699333Y-130205428D02*
X96175523Y-131538761D01*
X96651714Y-130205428D02*
X96175523Y-131538761D01*
X95985047Y-132014952D01*
X95889809Y-132110190D01*
X95699333Y-132205428D01*
X97318380Y-131443523D02*
X97508857Y-131538761D01*
X97889809Y-131538761D01*
X98080285Y-131443523D01*
X98175523Y-131253047D01*
X98175523Y-131157809D01*
X98080285Y-130967333D01*
X97889809Y-130872095D01*
X97604095Y-130872095D01*
X97413619Y-130776857D01*
X97318380Y-130586380D01*
X97318380Y-130491142D01*
X97413619Y-130300666D01*
X97604095Y-130205428D01*
X97889809Y-130205428D01*
X98080285Y-130300666D01*
X98746952Y-130205428D02*
X99508857Y-130205428D01*
X99032666Y-129538761D02*
X99032666Y-131253047D01*
X99127904Y-131443523D01*
X99318380Y-131538761D01*
X99508857Y-131538761D01*
X100937428Y-131443523D02*
X100746952Y-131538761D01*
X100366000Y-131538761D01*
X100175523Y-131443523D01*
X100080285Y-131253047D01*
X100080285Y-130491142D01*
X100175523Y-130300666D01*
X100366000Y-130205428D01*
X100746952Y-130205428D01*
X100937428Y-130300666D01*
X101032666Y-130491142D01*
X101032666Y-130681619D01*
X100080285Y-130872095D01*
X101889809Y-131538761D02*
X101889809Y-130205428D01*
X101889809Y-130395904D02*
X101985047Y-130300666D01*
X102175523Y-130205428D01*
X102461238Y-130205428D01*
X102651714Y-130300666D01*
X102746952Y-130491142D01*
X102746952Y-131538761D01*
X102746952Y-130491142D02*
X102842190Y-130300666D01*
X103032666Y-130205428D01*
X103318380Y-130205428D01*
X103508857Y-130300666D01*
X103604095Y-130491142D01*
X103604095Y-131538761D01*
X106937428Y-131443523D02*
X106746952Y-131538761D01*
X106366000Y-131538761D01*
X106175523Y-131443523D01*
X106080285Y-131348285D01*
X105985047Y-131157809D01*
X105985047Y-130586380D01*
X106080285Y-130395904D01*
X106175523Y-130300666D01*
X106366000Y-130205428D01*
X106746952Y-130205428D01*
X106937428Y-130300666D01*
X108651714Y-131538761D02*
X108651714Y-130491142D01*
X108556476Y-130300666D01*
X108366000Y-130205428D01*
X107985047Y-130205428D01*
X107794571Y-130300666D01*
X108651714Y-131443523D02*
X108461238Y-131538761D01*
X107985047Y-131538761D01*
X107794571Y-131443523D01*
X107699333Y-131253047D01*
X107699333Y-131062571D01*
X107794571Y-130872095D01*
X107985047Y-130776857D01*
X108461238Y-130776857D01*
X108651714Y-130681619D01*
X109604095Y-130205428D02*
X109604095Y-131538761D01*
X109604095Y-130395904D02*
X109699333Y-130300666D01*
X109889809Y-130205428D01*
X110175523Y-130205428D01*
X110366000Y-130300666D01*
X110461238Y-130491142D01*
X110461238Y-131538761D01*
X113794571Y-130205428D02*
X113794571Y-131824476D01*
X113699333Y-132014952D01*
X113604095Y-132110190D01*
X113413619Y-132205428D01*
X113127904Y-132205428D01*
X112937428Y-132110190D01*
X113794571Y-131443523D02*
X113604095Y-131538761D01*
X113223142Y-131538761D01*
X113032666Y-131443523D01*
X112937428Y-131348285D01*
X112842190Y-131157809D01*
X112842190Y-130586380D01*
X112937428Y-130395904D01*
X113032666Y-130300666D01*
X113223142Y-130205428D01*
X113604095Y-130205428D01*
X113794571Y-130300666D01*
X115508857Y-131443523D02*
X115318380Y-131538761D01*
X114937428Y-131538761D01*
X114746952Y-131443523D01*
X114651714Y-131253047D01*
X114651714Y-130491142D01*
X114746952Y-130300666D01*
X114937428Y-130205428D01*
X115318380Y-130205428D01*
X115508857Y-130300666D01*
X115604095Y-130491142D01*
X115604095Y-130681619D01*
X114651714Y-130872095D01*
X116461238Y-130205428D02*
X116461238Y-131538761D01*
X116461238Y-130395904D02*
X116556476Y-130300666D01*
X116746952Y-130205428D01*
X117032666Y-130205428D01*
X117223142Y-130300666D01*
X117318380Y-130491142D01*
X117318380Y-131538761D01*
X119032666Y-131443523D02*
X118842190Y-131538761D01*
X118461238Y-131538761D01*
X118270761Y-131443523D01*
X118175523Y-131253047D01*
X118175523Y-130491142D01*
X118270761Y-130300666D01*
X118461238Y-130205428D01*
X118842190Y-130205428D01*
X119032666Y-130300666D01*
X119127904Y-130491142D01*
X119127904Y-130681619D01*
X118175523Y-130872095D01*
X119985047Y-131538761D02*
X119985047Y-130205428D01*
X119985047Y-130586380D02*
X120080285Y-130395904D01*
X120175523Y-130300666D01*
X120366000Y-130205428D01*
X120556476Y-130205428D01*
X122080285Y-131538761D02*
X122080285Y-130491142D01*
X121985047Y-130300666D01*
X121794571Y-130205428D01*
X121413619Y-130205428D01*
X121223142Y-130300666D01*
X122080285Y-131443523D02*
X121889809Y-131538761D01*
X121413619Y-131538761D01*
X121223142Y-131443523D01*
X121127904Y-131253047D01*
X121127904Y-131062571D01*
X121223142Y-130872095D01*
X121413619Y-130776857D01*
X121889809Y-130776857D01*
X122080285Y-130681619D01*
X122746952Y-130205428D02*
X123508857Y-130205428D01*
X123032666Y-129538761D02*
X123032666Y-131253047D01*
X123127904Y-131443523D01*
X123318380Y-131538761D01*
X123508857Y-131538761D01*
X124937428Y-131443523D02*
X124746952Y-131538761D01*
X124365999Y-131538761D01*
X124175523Y-131443523D01*
X124080285Y-131253047D01*
X124080285Y-130491142D01*
X124175523Y-130300666D01*
X124365999Y-130205428D01*
X124746952Y-130205428D01*
X124937428Y-130300666D01*
X125032666Y-130491142D01*
X125032666Y-130681619D01*
X124080285Y-130872095D01*
X127413619Y-131538761D02*
X127413619Y-129538761D01*
X128270761Y-131538761D02*
X128270761Y-130491142D01*
X128175523Y-130300666D01*
X127985047Y-130205428D01*
X127699333Y-130205428D01*
X127508857Y-130300666D01*
X127413619Y-130395904D01*
X129223142Y-131538761D02*
X129223142Y-130205428D01*
X129223142Y-129538761D02*
X129127904Y-129634000D01*
X129223142Y-129729238D01*
X129318380Y-129634000D01*
X129223142Y-129538761D01*
X129223142Y-129729238D01*
X131032666Y-130205428D02*
X131032666Y-131824476D01*
X130937428Y-132014952D01*
X130842190Y-132110190D01*
X130651714Y-132205428D01*
X130365999Y-132205428D01*
X130175523Y-132110190D01*
X131032666Y-131443523D02*
X130842190Y-131538761D01*
X130461238Y-131538761D01*
X130270761Y-131443523D01*
X130175523Y-131348285D01*
X130080285Y-131157809D01*
X130080285Y-130586380D01*
X130175523Y-130395904D01*
X130270761Y-130300666D01*
X130461238Y-130205428D01*
X130842190Y-130205428D01*
X131032666Y-130300666D01*
X131985047Y-131538761D02*
X131985047Y-129538761D01*
X132842190Y-131538761D02*
X132842190Y-130491142D01*
X132746952Y-130300666D01*
X132556476Y-130205428D01*
X132270761Y-130205428D01*
X132080285Y-130300666D01*
X131985047Y-130395904D01*
X135127904Y-130205428D02*
X135604095Y-131538761D01*
X136080285Y-130205428D01*
X137127904Y-131538761D02*
X136937428Y-131443523D01*
X136842190Y-131348285D01*
X136746952Y-131157809D01*
X136746952Y-130586380D01*
X136842190Y-130395904D01*
X136937428Y-130300666D01*
X137127904Y-130205428D01*
X137413619Y-130205428D01*
X137604095Y-130300666D01*
X137699333Y-130395904D01*
X137794571Y-130586380D01*
X137794571Y-131157809D01*
X137699333Y-131348285D01*
X137604095Y-131443523D01*
X137413619Y-131538761D01*
X137127904Y-131538761D01*
X138937428Y-131538761D02*
X138746952Y-131443523D01*
X138651714Y-131253047D01*
X138651714Y-129538761D01*
X139413619Y-130205428D02*
X140175523Y-130205428D01*
X139699333Y-129538761D02*
X139699333Y-131253047D01*
X139794571Y-131443523D01*
X139985047Y-131538761D01*
X140175523Y-131538761D01*
X141699333Y-131538761D02*
X141699333Y-130491142D01*
X141604095Y-130300666D01*
X141413619Y-130205428D01*
X141032666Y-130205428D01*
X140842190Y-130300666D01*
X141699333Y-131443523D02*
X141508857Y-131538761D01*
X141032666Y-131538761D01*
X140842190Y-131443523D01*
X140746952Y-131253047D01*
X140746952Y-131062571D01*
X140842190Y-130872095D01*
X141032666Y-130776857D01*
X141508857Y-130776857D01*
X141699333Y-130681619D01*
X143508857Y-130205428D02*
X143508857Y-131824476D01*
X143413619Y-132014952D01*
X143318380Y-132110190D01*
X143127904Y-132205428D01*
X142842190Y-132205428D01*
X142651714Y-132110190D01*
X143508857Y-131443523D02*
X143318380Y-131538761D01*
X142937428Y-131538761D01*
X142746952Y-131443523D01*
X142651714Y-131348285D01*
X142556476Y-131157809D01*
X142556476Y-130586380D01*
X142651714Y-130395904D01*
X142746952Y-130300666D01*
X142937428Y-130205428D01*
X143318380Y-130205428D01*
X143508857Y-130300666D01*
X145223142Y-131443523D02*
X145032666Y-131538761D01*
X144651714Y-131538761D01*
X144461238Y-131443523D01*
X144365999Y-131253047D01*
X144365999Y-130491142D01*
X144461238Y-130300666D01*
X144651714Y-130205428D01*
X145032666Y-130205428D01*
X145223142Y-130300666D01*
X145318380Y-130491142D01*
X145318380Y-130681619D01*
X144365999Y-130872095D01*
X146080285Y-131443523D02*
X146270761Y-131538761D01*
X146651714Y-131538761D01*
X146842190Y-131443523D01*
X146937428Y-131253047D01*
X146937428Y-131157809D01*
X146842190Y-130967333D01*
X146651714Y-130872095D01*
X146365999Y-130872095D01*
X146175523Y-130776857D01*
X146080285Y-130586380D01*
X146080285Y-130491142D01*
X146175523Y-130300666D01*
X146365999Y-130205428D01*
X146651714Y-130205428D01*
X146842190Y-130300666D01*
X149032666Y-130205428D02*
X149794571Y-130205428D01*
X149318380Y-129538761D02*
X149318380Y-131253047D01*
X149413619Y-131443523D01*
X149604095Y-131538761D01*
X149794571Y-131538761D01*
X150461238Y-131538761D02*
X150461238Y-129538761D01*
X151318380Y-131538761D02*
X151318380Y-130491142D01*
X151223142Y-130300666D01*
X151032666Y-130205428D01*
X150746952Y-130205428D01*
X150556476Y-130300666D01*
X150461238Y-130395904D01*
X153127904Y-131538761D02*
X153127904Y-130491142D01*
X153032666Y-130300666D01*
X152842190Y-130205428D01*
X152461238Y-130205428D01*
X152270761Y-130300666D01*
X153127904Y-131443523D02*
X152937428Y-131538761D01*
X152461238Y-131538761D01*
X152270761Y-131443523D01*
X152175523Y-131253047D01*
X152175523Y-131062571D01*
X152270761Y-130872095D01*
X152461238Y-130776857D01*
X152937428Y-130776857D01*
X153127904Y-130681619D01*
X153794571Y-130205428D02*
X154556476Y-130205428D01*
X154080285Y-129538761D02*
X154080285Y-131253047D01*
X154175523Y-131443523D01*
X154365999Y-131538761D01*
X154556476Y-131538761D01*
X157604095Y-131443523D02*
X157413619Y-131538761D01*
X157032666Y-131538761D01*
X156842190Y-131443523D01*
X156746952Y-131348285D01*
X156651714Y-131157809D01*
X156651714Y-130586380D01*
X156746952Y-130395904D01*
X156842190Y-130300666D01*
X157032666Y-130205428D01*
X157413619Y-130205428D01*
X157604095Y-130300666D01*
X159318380Y-131538761D02*
X159318380Y-130491142D01*
X159223142Y-130300666D01*
X159032666Y-130205428D01*
X158651714Y-130205428D01*
X158461238Y-130300666D01*
X159318380Y-131443523D02*
X159127904Y-131538761D01*
X158651714Y-131538761D01*
X158461238Y-131443523D01*
X158365999Y-131253047D01*
X158365999Y-131062571D01*
X158461238Y-130872095D01*
X158651714Y-130776857D01*
X159127904Y-130776857D01*
X159318380Y-130681619D01*
X160270761Y-130205428D02*
X160270761Y-131538761D01*
X160270761Y-130395904D02*
X160365999Y-130300666D01*
X160556476Y-130205428D01*
X160842190Y-130205428D01*
X161032666Y-130300666D01*
X161127904Y-130491142D01*
X161127904Y-131538761D01*
X163604095Y-131538761D02*
X163604095Y-129538761D01*
X163604095Y-130300666D02*
X163794571Y-130205428D01*
X164175523Y-130205428D01*
X164365999Y-130300666D01*
X164461238Y-130395904D01*
X164556476Y-130586380D01*
X164556476Y-131157809D01*
X164461238Y-131348285D01*
X164365999Y-131443523D01*
X164175523Y-131538761D01*
X163794571Y-131538761D01*
X163604095Y-131443523D01*
X166175523Y-131443523D02*
X165985047Y-131538761D01*
X165604095Y-131538761D01*
X165413619Y-131443523D01*
X165318380Y-131253047D01*
X165318380Y-130491142D01*
X165413619Y-130300666D01*
X165604095Y-130205428D01*
X165985047Y-130205428D01*
X166175523Y-130300666D01*
X166270761Y-130491142D01*
X166270761Y-130681619D01*
X165318380Y-130872095D01*
X169508857Y-131538761D02*
X169508857Y-129538761D01*
X169508857Y-131443523D02*
X169318380Y-131538761D01*
X168937428Y-131538761D01*
X168746952Y-131443523D01*
X168651714Y-131348285D01*
X168556476Y-131157809D01*
X168556476Y-130586380D01*
X168651714Y-130395904D01*
X168746952Y-130300666D01*
X168937428Y-130205428D01*
X169318380Y-130205428D01*
X169508857Y-130300666D01*
X171318380Y-131538761D02*
X171318380Y-130491142D01*
X171223142Y-130300666D01*
X171032666Y-130205428D01*
X170651714Y-130205428D01*
X170461238Y-130300666D01*
X171318380Y-131443523D02*
X171127904Y-131538761D01*
X170651714Y-131538761D01*
X170461238Y-131443523D01*
X170365999Y-131253047D01*
X170365999Y-131062571D01*
X170461238Y-130872095D01*
X170651714Y-130776857D01*
X171127904Y-130776857D01*
X171318380Y-130681619D01*
X172270761Y-130205428D02*
X172270761Y-131538761D01*
X172270761Y-130395904D02*
X172365999Y-130300666D01*
X172556476Y-130205428D01*
X172842190Y-130205428D01*
X173032666Y-130300666D01*
X173127904Y-130491142D01*
X173127904Y-131538761D01*
X174937428Y-130205428D02*
X174937428Y-131824476D01*
X174842190Y-132014952D01*
X174746952Y-132110190D01*
X174556476Y-132205428D01*
X174270761Y-132205428D01*
X174080285Y-132110190D01*
X174937428Y-131443523D02*
X174746952Y-131538761D01*
X174365999Y-131538761D01*
X174175523Y-131443523D01*
X174080285Y-131348285D01*
X173985047Y-131157809D01*
X173985047Y-130586380D01*
X174080285Y-130395904D01*
X174175523Y-130300666D01*
X174365999Y-130205428D01*
X174746952Y-130205428D01*
X174937428Y-130300666D01*
X176651714Y-131443523D02*
X176461238Y-131538761D01*
X176080285Y-131538761D01*
X175889809Y-131443523D01*
X175794571Y-131253047D01*
X175794571Y-130491142D01*
X175889809Y-130300666D01*
X176080285Y-130205428D01*
X176461238Y-130205428D01*
X176651714Y-130300666D01*
X176746952Y-130491142D01*
X176746952Y-130681619D01*
X175794571Y-130872095D01*
X177604095Y-131538761D02*
X177604095Y-130205428D01*
X177604095Y-130586380D02*
X177699333Y-130395904D01*
X177794571Y-130300666D01*
X177985047Y-130205428D01*
X178175523Y-130205428D01*
X179127904Y-131538761D02*
X178937428Y-131443523D01*
X178842190Y-131348285D01*
X178746952Y-131157809D01*
X178746952Y-130586380D01*
X178842190Y-130395904D01*
X178937428Y-130300666D01*
X179127904Y-130205428D01*
X179413619Y-130205428D01*
X179604095Y-130300666D01*
X179699333Y-130395904D01*
X179794571Y-130586380D01*
X179794571Y-131157809D01*
X179699333Y-131348285D01*
X179604095Y-131443523D01*
X179413619Y-131538761D01*
X179127904Y-131538761D01*
X181508857Y-130205428D02*
X181508857Y-131538761D01*
X180651714Y-130205428D02*
X180651714Y-131253047D01*
X180746952Y-131443523D01*
X180937428Y-131538761D01*
X181223142Y-131538761D01*
X181413619Y-131443523D01*
X181508857Y-131348285D01*
X182365999Y-131443523D02*
X182556476Y-131538761D01*
X182937428Y-131538761D01*
X183127904Y-131443523D01*
X183223142Y-131253047D01*
X183223142Y-131157809D01*
X183127904Y-130967333D01*
X182937428Y-130872095D01*
X182651714Y-130872095D01*
X182461238Y-130776857D01*
X182365999Y-130586380D01*
X182365999Y-130491142D01*
X182461238Y-130300666D01*
X182651714Y-130205428D01*
X182937428Y-130205428D01*
X183127904Y-130300666D01*
X184080285Y-131348285D02*
X184175523Y-131443523D01*
X184080285Y-131538761D01*
X183985047Y-131443523D01*
X184080285Y-131348285D01*
X184080285Y-131538761D01*
X184080285Y-130776857D02*
X183985047Y-129634000D01*
X184080285Y-129538761D01*
X184175523Y-129634000D01*
X184080285Y-130776857D01*
X184080285Y-129538761D01*
X86842190Y-134938761D02*
X86842190Y-132938761D01*
X87508857Y-134367333D01*
X88175523Y-132938761D01*
X88175523Y-134938761D01*
X89985047Y-134938761D02*
X89985047Y-133891142D01*
X89889809Y-133700666D01*
X89699333Y-133605428D01*
X89318380Y-133605428D01*
X89127904Y-133700666D01*
X89985047Y-134843523D02*
X89794571Y-134938761D01*
X89318380Y-134938761D01*
X89127904Y-134843523D01*
X89032666Y-134653047D01*
X89032666Y-134462571D01*
X89127904Y-134272095D01*
X89318380Y-134176857D01*
X89794571Y-134176857D01*
X89985047Y-134081619D01*
X90937428Y-134938761D02*
X90937428Y-132938761D01*
X91127904Y-134176857D02*
X91699333Y-134938761D01*
X91699333Y-133605428D02*
X90937428Y-134367333D01*
X93318380Y-134843523D02*
X93127904Y-134938761D01*
X92746952Y-134938761D01*
X92556476Y-134843523D01*
X92461238Y-134653047D01*
X92461238Y-133891142D01*
X92556476Y-133700666D01*
X92746952Y-133605428D01*
X93127904Y-133605428D01*
X93318380Y-133700666D01*
X93413619Y-133891142D01*
X93413619Y-134081619D01*
X92461238Y-134272095D01*
X95699333Y-134843523D02*
X95889809Y-134938761D01*
X96270761Y-134938761D01*
X96461238Y-134843523D01*
X96556476Y-134653047D01*
X96556476Y-134557809D01*
X96461238Y-134367333D01*
X96270761Y-134272095D01*
X95985047Y-134272095D01*
X95794571Y-134176857D01*
X95699333Y-133986380D01*
X95699333Y-133891142D01*
X95794571Y-133700666D01*
X95985047Y-133605428D01*
X96270761Y-133605428D01*
X96461238Y-133700666D01*
X98270761Y-133605428D02*
X98270761Y-134938761D01*
X97413619Y-133605428D02*
X97413619Y-134653047D01*
X97508857Y-134843523D01*
X97699333Y-134938761D01*
X97985047Y-134938761D01*
X98175523Y-134843523D01*
X98270761Y-134748285D01*
X99223142Y-134938761D02*
X99223142Y-133605428D01*
X99223142Y-133986380D02*
X99318380Y-133795904D01*
X99413619Y-133700666D01*
X99604095Y-133605428D01*
X99794571Y-133605428D01*
X101223142Y-134843523D02*
X101032666Y-134938761D01*
X100651714Y-134938761D01*
X100461238Y-134843523D01*
X100366000Y-134653047D01*
X100366000Y-133891142D01*
X100461238Y-133700666D01*
X100651714Y-133605428D01*
X101032666Y-133605428D01*
X101223142Y-133700666D01*
X101318380Y-133891142D01*
X101318380Y-134081619D01*
X100366000Y-134272095D01*
X103508857Y-133605428D02*
X103985047Y-134938761D01*
X104461238Y-133605428D02*
X103985047Y-134938761D01*
X103794571Y-135414952D01*
X103699333Y-135510190D01*
X103508857Y-135605428D01*
X105508857Y-134938761D02*
X105318380Y-134843523D01*
X105223142Y-134748285D01*
X105127904Y-134557809D01*
X105127904Y-133986380D01*
X105223142Y-133795904D01*
X105318380Y-133700666D01*
X105508857Y-133605428D01*
X105794571Y-133605428D01*
X105985047Y-133700666D01*
X106080285Y-133795904D01*
X106175523Y-133986380D01*
X106175523Y-134557809D01*
X106080285Y-134748285D01*
X105985047Y-134843523D01*
X105794571Y-134938761D01*
X105508857Y-134938761D01*
X107889809Y-133605428D02*
X107889809Y-134938761D01*
X107032666Y-133605428D02*
X107032666Y-134653047D01*
X107127904Y-134843523D01*
X107318380Y-134938761D01*
X107604095Y-134938761D01*
X107794571Y-134843523D01*
X107889809Y-134748285D01*
X110366000Y-134938761D02*
X110366000Y-132938761D01*
X110556476Y-134176857D02*
X111127904Y-134938761D01*
X111127904Y-133605428D02*
X110366000Y-134367333D01*
X111985047Y-133605428D02*
X111985047Y-134938761D01*
X111985047Y-133795904D02*
X112080285Y-133700666D01*
X112270761Y-133605428D01*
X112556476Y-133605428D01*
X112746952Y-133700666D01*
X112842190Y-133891142D01*
X112842190Y-134938761D01*
X114080285Y-134938761D02*
X113889809Y-134843523D01*
X113794571Y-134748285D01*
X113699333Y-134557809D01*
X113699333Y-133986380D01*
X113794571Y-133795904D01*
X113889809Y-133700666D01*
X114080285Y-133605428D01*
X114366000Y-133605428D01*
X114556476Y-133700666D01*
X114651714Y-133795904D01*
X114746952Y-133986380D01*
X114746952Y-134557809D01*
X114651714Y-134748285D01*
X114556476Y-134843523D01*
X114366000Y-134938761D01*
X114080285Y-134938761D01*
X115413619Y-133605428D02*
X115794571Y-134938761D01*
X116175523Y-133986380D01*
X116556476Y-134938761D01*
X116937428Y-133605428D01*
X119032666Y-133605428D02*
X119413619Y-134938761D01*
X119794571Y-133986380D01*
X120175523Y-134938761D01*
X120556476Y-133605428D01*
X121318380Y-134938761D02*
X121318380Y-132938761D01*
X122175523Y-134938761D02*
X122175523Y-133891142D01*
X122080285Y-133700666D01*
X121889809Y-133605428D01*
X121604095Y-133605428D01*
X121413619Y-133700666D01*
X121318380Y-133795904D01*
X123985047Y-134938761D02*
X123985047Y-133891142D01*
X123889809Y-133700666D01*
X123699333Y-133605428D01*
X123318380Y-133605428D01*
X123127904Y-133700666D01*
X123985047Y-134843523D02*
X123794571Y-134938761D01*
X123318380Y-134938761D01*
X123127904Y-134843523D01*
X123032666Y-134653047D01*
X123032666Y-134462571D01*
X123127904Y-134272095D01*
X123318380Y-134176857D01*
X123794571Y-134176857D01*
X123985047Y-134081619D01*
X124651714Y-133605428D02*
X125413619Y-133605428D01*
X124937428Y-132938761D02*
X124937428Y-134653047D01*
X125032666Y-134843523D01*
X125223142Y-134938761D01*
X125413619Y-134938761D01*
X127413619Y-133605428D02*
X127889809Y-134938761D01*
X128365999Y-133605428D02*
X127889809Y-134938761D01*
X127699333Y-135414952D01*
X127604095Y-135510190D01*
X127413619Y-135605428D01*
X129413619Y-134938761D02*
X129223142Y-134843523D01*
X129127904Y-134748285D01*
X129032666Y-134557809D01*
X129032666Y-133986380D01*
X129127904Y-133795904D01*
X129223142Y-133700666D01*
X129413619Y-133605428D01*
X129699333Y-133605428D01*
X129889809Y-133700666D01*
X129985047Y-133795904D01*
X130080285Y-133986380D01*
X130080285Y-134557809D01*
X129985047Y-134748285D01*
X129889809Y-134843523D01*
X129699333Y-134938761D01*
X129413619Y-134938761D01*
X131794571Y-133605428D02*
X131794571Y-134938761D01*
X130937428Y-133605428D02*
X130937428Y-134653047D01*
X131032666Y-134843523D01*
X131223142Y-134938761D01*
X131508857Y-134938761D01*
X131699333Y-134843523D01*
X131794571Y-134748285D01*
X135127904Y-134938761D02*
X135127904Y-133891142D01*
X135032666Y-133700666D01*
X134842190Y-133605428D01*
X134461238Y-133605428D01*
X134270761Y-133700666D01*
X135127904Y-134843523D02*
X134937428Y-134938761D01*
X134461238Y-134938761D01*
X134270761Y-134843523D01*
X134175523Y-134653047D01*
X134175523Y-134462571D01*
X134270761Y-134272095D01*
X134461238Y-134176857D01*
X134937428Y-134176857D01*
X135127904Y-134081619D01*
X136080285Y-134938761D02*
X136080285Y-133605428D01*
X136080285Y-133986380D02*
X136175523Y-133795904D01*
X136270761Y-133700666D01*
X136461238Y-133605428D01*
X136651714Y-133605428D01*
X138080285Y-134843523D02*
X137889809Y-134938761D01*
X137508857Y-134938761D01*
X137318380Y-134843523D01*
X137223142Y-134653047D01*
X137223142Y-133891142D01*
X137318380Y-133700666D01*
X137508857Y-133605428D01*
X137889809Y-133605428D01*
X138080285Y-133700666D01*
X138175523Y-133891142D01*
X138175523Y-134081619D01*
X137223142Y-134272095D01*
X141413619Y-134938761D02*
X141413619Y-132938761D01*
X141413619Y-134843523D02*
X141223142Y-134938761D01*
X140842190Y-134938761D01*
X140651714Y-134843523D01*
X140556476Y-134748285D01*
X140461238Y-134557809D01*
X140461238Y-133986380D01*
X140556476Y-133795904D01*
X140651714Y-133700666D01*
X140842190Y-133605428D01*
X141223142Y-133605428D01*
X141413619Y-133700666D01*
X142651714Y-134938761D02*
X142461238Y-134843523D01*
X142365999Y-134748285D01*
X142270761Y-134557809D01*
X142270761Y-133986380D01*
X142365999Y-133795904D01*
X142461238Y-133700666D01*
X142651714Y-133605428D01*
X142937428Y-133605428D01*
X143127904Y-133700666D01*
X143223142Y-133795904D01*
X143318380Y-133986380D01*
X143318380Y-134557809D01*
X143223142Y-134748285D01*
X143127904Y-134843523D01*
X142937428Y-134938761D01*
X142651714Y-134938761D01*
X144175523Y-134938761D02*
X144175523Y-133605428D01*
X144175523Y-132938761D02*
X144080285Y-133034000D01*
X144175523Y-133129238D01*
X144270761Y-133034000D01*
X144175523Y-132938761D01*
X144175523Y-133129238D01*
X145127904Y-133605428D02*
X145127904Y-134938761D01*
X145127904Y-133795904D02*
X145223142Y-133700666D01*
X145413619Y-133605428D01*
X145699333Y-133605428D01*
X145889809Y-133700666D01*
X145985047Y-133891142D01*
X145985047Y-134938761D01*
X147794571Y-133605428D02*
X147794571Y-135224476D01*
X147699333Y-135414952D01*
X147604095Y-135510190D01*
X147413619Y-135605428D01*
X147127904Y-135605428D01*
X146937428Y-135510190D01*
X147794571Y-134843523D02*
X147604095Y-134938761D01*
X147223142Y-134938761D01*
X147032666Y-134843523D01*
X146937428Y-134748285D01*
X146842190Y-134557809D01*
X146842190Y-133986380D01*
X146937428Y-133795904D01*
X147032666Y-133700666D01*
X147223142Y-133605428D01*
X147604095Y-133605428D01*
X147794571Y-133700666D01*
X151127904Y-134938761D02*
X151127904Y-133891142D01*
X151032666Y-133700666D01*
X150842190Y-133605428D01*
X150461238Y-133605428D01*
X150270761Y-133700666D01*
X151127904Y-134843523D02*
X150937428Y-134938761D01*
X150461238Y-134938761D01*
X150270761Y-134843523D01*
X150175523Y-134653047D01*
X150175523Y-134462571D01*
X150270761Y-134272095D01*
X150461238Y-134176857D01*
X150937428Y-134176857D01*
X151127904Y-134081619D01*
X152080285Y-133605428D02*
X152080285Y-134938761D01*
X152080285Y-133795904D02*
X152175523Y-133700666D01*
X152365999Y-133605428D01*
X152651714Y-133605428D01*
X152842190Y-133700666D01*
X152937428Y-133891142D01*
X152937428Y-134938761D01*
X154746952Y-134938761D02*
X154746952Y-132938761D01*
X154746952Y-134843523D02*
X154556476Y-134938761D01*
X154175523Y-134938761D01*
X153985047Y-134843523D01*
X153889809Y-134748285D01*
X153794571Y-134557809D01*
X153794571Y-133986380D01*
X153889809Y-133795904D01*
X153985047Y-133700666D01*
X154175523Y-133605428D01*
X154556476Y-133605428D01*
X154746952Y-133700666D01*
X157223142Y-134938761D02*
X157223142Y-132938761D01*
X158080285Y-134938761D02*
X158080285Y-133891142D01*
X157985047Y-133700666D01*
X157794571Y-133605428D01*
X157508857Y-133605428D01*
X157318380Y-133700666D01*
X157223142Y-133795904D01*
X159318380Y-134938761D02*
X159127904Y-134843523D01*
X159032666Y-134748285D01*
X158937428Y-134557809D01*
X158937428Y-133986380D01*
X159032666Y-133795904D01*
X159127904Y-133700666D01*
X159318380Y-133605428D01*
X159604095Y-133605428D01*
X159794571Y-133700666D01*
X159889809Y-133795904D01*
X159985047Y-133986380D01*
X159985047Y-134557809D01*
X159889809Y-134748285D01*
X159794571Y-134843523D01*
X159604095Y-134938761D01*
X159318380Y-134938761D01*
X160651714Y-133605428D02*
X161032666Y-134938761D01*
X161413619Y-133986380D01*
X161794571Y-134938761D01*
X162175523Y-133605428D01*
X164175523Y-133605428D02*
X164937428Y-133605428D01*
X164461238Y-132938761D02*
X164461238Y-134653047D01*
X164556476Y-134843523D01*
X164746952Y-134938761D01*
X164937428Y-134938761D01*
X165889809Y-134938761D02*
X165699333Y-134843523D01*
X165604095Y-134748285D01*
X165508857Y-134557809D01*
X165508857Y-133986380D01*
X165604095Y-133795904D01*
X165699333Y-133700666D01*
X165889809Y-133605428D01*
X166175523Y-133605428D01*
X166365999Y-133700666D01*
X166461238Y-133795904D01*
X166556476Y-133986380D01*
X166556476Y-134557809D01*
X166461238Y-134748285D01*
X166365999Y-134843523D01*
X166175523Y-134938761D01*
X165889809Y-134938761D01*
X168937428Y-133605428D02*
X168937428Y-135605428D01*
X168937428Y-133700666D02*
X169127904Y-133605428D01*
X169508857Y-133605428D01*
X169699333Y-133700666D01*
X169794571Y-133795904D01*
X169889809Y-133986380D01*
X169889809Y-134557809D01*
X169794571Y-134748285D01*
X169699333Y-134843523D01*
X169508857Y-134938761D01*
X169127904Y-134938761D01*
X168937428Y-134843523D01*
X170746952Y-134938761D02*
X170746952Y-133605428D01*
X170746952Y-133986380D02*
X170842190Y-133795904D01*
X170937428Y-133700666D01*
X171127904Y-133605428D01*
X171318380Y-133605428D01*
X172270761Y-134938761D02*
X172080285Y-134843523D01*
X171985047Y-134748285D01*
X171889809Y-134557809D01*
X171889809Y-133986380D01*
X171985047Y-133795904D01*
X172080285Y-133700666D01*
X172270761Y-133605428D01*
X172556476Y-133605428D01*
X172746952Y-133700666D01*
X172842190Y-133795904D01*
X172937428Y-133986380D01*
X172937428Y-134557809D01*
X172842190Y-134748285D01*
X172746952Y-134843523D01*
X172556476Y-134938761D01*
X172270761Y-134938761D01*
X173794571Y-133605428D02*
X173794571Y-135605428D01*
X173794571Y-133700666D02*
X173985047Y-133605428D01*
X174365999Y-133605428D01*
X174556476Y-133700666D01*
X174651714Y-133795904D01*
X174746952Y-133986380D01*
X174746952Y-134557809D01*
X174651714Y-134748285D01*
X174556476Y-134843523D01*
X174365999Y-134938761D01*
X173985047Y-134938761D01*
X173794571Y-134843523D01*
X176365999Y-134843523D02*
X176175523Y-134938761D01*
X175794571Y-134938761D01*
X175604095Y-134843523D01*
X175508857Y-134653047D01*
X175508857Y-133891142D01*
X175604095Y-133700666D01*
X175794571Y-133605428D01*
X176175523Y-133605428D01*
X176365999Y-133700666D01*
X176461238Y-133891142D01*
X176461238Y-134081619D01*
X175508857Y-134272095D01*
X177318380Y-134938761D02*
X177318380Y-133605428D01*
X177318380Y-133986380D02*
X177413619Y-133795904D01*
X177508857Y-133700666D01*
X177699333Y-133605428D01*
X177889809Y-133605428D01*
X178842190Y-134938761D02*
X178651714Y-134843523D01*
X178556476Y-134653047D01*
X178556476Y-132938761D01*
X179413619Y-133605428D02*
X179889809Y-134938761D01*
X180365999Y-133605428D02*
X179889809Y-134938761D01*
X179699333Y-135414952D01*
X179604095Y-135510190D01*
X179413619Y-135605428D01*
X87127904Y-138338761D02*
X86937428Y-138243523D01*
X86842190Y-138148285D01*
X86746952Y-137957809D01*
X86746952Y-137386380D01*
X86842190Y-137195904D01*
X86937428Y-137100666D01*
X87127904Y-137005428D01*
X87413619Y-137005428D01*
X87604095Y-137100666D01*
X87699333Y-137195904D01*
X87794571Y-137386380D01*
X87794571Y-137957809D01*
X87699333Y-138148285D01*
X87604095Y-138243523D01*
X87413619Y-138338761D01*
X87127904Y-138338761D01*
X88651714Y-137005428D02*
X88651714Y-139005428D01*
X88651714Y-137100666D02*
X88842190Y-137005428D01*
X89223142Y-137005428D01*
X89413619Y-137100666D01*
X89508857Y-137195904D01*
X89604095Y-137386380D01*
X89604095Y-137957809D01*
X89508857Y-138148285D01*
X89413619Y-138243523D01*
X89223142Y-138338761D01*
X88842190Y-138338761D01*
X88651714Y-138243523D01*
X91223142Y-138243523D02*
X91032666Y-138338761D01*
X90651714Y-138338761D01*
X90461238Y-138243523D01*
X90366000Y-138053047D01*
X90366000Y-137291142D01*
X90461238Y-137100666D01*
X90651714Y-137005428D01*
X91032666Y-137005428D01*
X91223142Y-137100666D01*
X91318380Y-137291142D01*
X91318380Y-137481619D01*
X90366000Y-137672095D01*
X92175523Y-138338761D02*
X92175523Y-137005428D01*
X92175523Y-137386380D02*
X92270761Y-137195904D01*
X92366000Y-137100666D01*
X92556476Y-137005428D01*
X92746952Y-137005428D01*
X94270761Y-138338761D02*
X94270761Y-137291142D01*
X94175523Y-137100666D01*
X93985047Y-137005428D01*
X93604095Y-137005428D01*
X93413619Y-137100666D01*
X94270761Y-138243523D02*
X94080285Y-138338761D01*
X93604095Y-138338761D01*
X93413619Y-138243523D01*
X93318380Y-138053047D01*
X93318380Y-137862571D01*
X93413619Y-137672095D01*
X93604095Y-137576857D01*
X94080285Y-137576857D01*
X94270761Y-137481619D01*
X94937428Y-137005428D02*
X95699333Y-137005428D01*
X95223142Y-136338761D02*
X95223142Y-138053047D01*
X95318380Y-138243523D01*
X95508857Y-138338761D01*
X95699333Y-138338761D01*
X97127904Y-138243523D02*
X96937428Y-138338761D01*
X96556476Y-138338761D01*
X96366000Y-138243523D01*
X96270761Y-138053047D01*
X96270761Y-137291142D01*
X96366000Y-137100666D01*
X96556476Y-137005428D01*
X96937428Y-137005428D01*
X97127904Y-137100666D01*
X97223142Y-137291142D01*
X97223142Y-137481619D01*
X96270761Y-137672095D01*
X99604095Y-138338761D02*
X99604095Y-137005428D01*
X99604095Y-136338761D02*
X99508857Y-136434000D01*
X99604095Y-136529238D01*
X99699333Y-136434000D01*
X99604095Y-136338761D01*
X99604095Y-136529238D01*
X100270761Y-137005428D02*
X101032666Y-137005428D01*
X100556476Y-136338761D02*
X100556476Y-138053047D01*
X100651714Y-138243523D01*
X100842190Y-138338761D01*
X101032666Y-138338761D01*
X101699333Y-138148285D02*
X101794571Y-138243523D01*
X101699333Y-138338761D01*
X101604095Y-138243523D01*
X101699333Y-138148285D01*
X101699333Y-138338761D01*
X101699333Y-137576857D02*
X101604095Y-136434000D01*
X101699333Y-136338761D01*
X101794571Y-136434000D01*
X101699333Y-137576857D01*
X101699333Y-136338761D01*
D11*
X100533428Y-111417571D02*
X100533428Y-109917571D01*
X100533428Y-111346142D02*
X100390571Y-111417571D01*
X100104857Y-111417571D01*
X99962000Y-111346142D01*
X99890571Y-111274714D01*
X99819142Y-111131857D01*
X99819142Y-110703285D01*
X99890571Y-110560428D01*
X99962000Y-110489000D01*
X100104857Y-110417571D01*
X100390571Y-110417571D01*
X100533428Y-110489000D01*
X101462000Y-111417571D02*
X101319142Y-111346142D01*
X101247714Y-111274714D01*
X101176285Y-111131857D01*
X101176285Y-110703285D01*
X101247714Y-110560428D01*
X101319142Y-110489000D01*
X101462000Y-110417571D01*
X101676285Y-110417571D01*
X101819142Y-110489000D01*
X101890571Y-110560428D01*
X101962000Y-110703285D01*
X101962000Y-111131857D01*
X101890571Y-111274714D01*
X101819142Y-111346142D01*
X101676285Y-111417571D01*
X101462000Y-111417571D01*
X103247714Y-111346142D02*
X103104857Y-111417571D01*
X102819142Y-111417571D01*
X102676285Y-111346142D01*
X102604857Y-111274714D01*
X102533428Y-111131857D01*
X102533428Y-110703285D01*
X102604857Y-110560428D01*
X102676285Y-110489000D01*
X102819142Y-110417571D01*
X103104857Y-110417571D01*
X103247714Y-110489000D01*
X104533428Y-110417571D02*
X104533428Y-111417571D01*
X103890571Y-110417571D02*
X103890571Y-111203285D01*
X103962000Y-111346142D01*
X104104857Y-111417571D01*
X104319142Y-111417571D01*
X104462000Y-111346142D01*
X104533428Y-111274714D01*
X105247714Y-111417571D02*
X105247714Y-110417571D01*
X105247714Y-110560428D02*
X105319142Y-110489000D01*
X105462000Y-110417571D01*
X105676285Y-110417571D01*
X105819142Y-110489000D01*
X105890571Y-110631857D01*
X105890571Y-111417571D01*
X105890571Y-110631857D02*
X105962000Y-110489000D01*
X106104857Y-110417571D01*
X106319142Y-110417571D01*
X106462000Y-110489000D01*
X106533428Y-110631857D01*
X106533428Y-111417571D01*
X107819142Y-111346142D02*
X107676285Y-111417571D01*
X107390571Y-111417571D01*
X107247714Y-111346142D01*
X107176285Y-111203285D01*
X107176285Y-110631857D01*
X107247714Y-110489000D01*
X107390571Y-110417571D01*
X107676285Y-110417571D01*
X107819142Y-110489000D01*
X107890571Y-110631857D01*
X107890571Y-110774714D01*
X107176285Y-110917571D01*
X108533428Y-110417571D02*
X108533428Y-111417571D01*
X108533428Y-110560428D02*
X108604857Y-110489000D01*
X108747714Y-110417571D01*
X108962000Y-110417571D01*
X109104857Y-110489000D01*
X109176285Y-110631857D01*
X109176285Y-111417571D01*
X109676285Y-110417571D02*
X110247714Y-110417571D01*
X109890571Y-109917571D02*
X109890571Y-111203285D01*
X109962000Y-111346142D01*
X110104857Y-111417571D01*
X110247714Y-111417571D01*
X111390571Y-111417571D02*
X111390571Y-110631857D01*
X111319142Y-110489000D01*
X111176285Y-110417571D01*
X110890571Y-110417571D01*
X110747714Y-110489000D01*
X111390571Y-111346142D02*
X111247714Y-111417571D01*
X110890571Y-111417571D01*
X110747714Y-111346142D01*
X110676285Y-111203285D01*
X110676285Y-111060428D01*
X110747714Y-110917571D01*
X110890571Y-110846142D01*
X111247714Y-110846142D01*
X111390571Y-110774714D01*
X111890571Y-110417571D02*
X112462000Y-110417571D01*
X112104857Y-109917571D02*
X112104857Y-111203285D01*
X112176285Y-111346142D01*
X112319142Y-111417571D01*
X112462000Y-111417571D01*
X112962000Y-111417571D02*
X112962000Y-110417571D01*
X112962000Y-109917571D02*
X112890571Y-109989000D01*
X112962000Y-110060428D01*
X113033428Y-109989000D01*
X112962000Y-109917571D01*
X112962000Y-110060428D01*
X113890571Y-111417571D02*
X113747714Y-111346142D01*
X113676285Y-111274714D01*
X113604857Y-111131857D01*
X113604857Y-110703285D01*
X113676285Y-110560428D01*
X113747714Y-110489000D01*
X113890571Y-110417571D01*
X114104857Y-110417571D01*
X114247714Y-110489000D01*
X114319142Y-110560428D01*
X114390571Y-110703285D01*
X114390571Y-111131857D01*
X114319142Y-111274714D01*
X114247714Y-111346142D01*
X114104857Y-111417571D01*
X113890571Y-111417571D01*
X115033428Y-110417571D02*
X115033428Y-111417571D01*
X115033428Y-110560428D02*
X115104857Y-110489000D01*
X115247714Y-110417571D01*
X115462000Y-110417571D01*
X115604857Y-110489000D01*
X115676285Y-110631857D01*
X115676285Y-111417571D01*
X116390571Y-111274714D02*
X116462000Y-111346142D01*
X116390571Y-111417571D01*
X116319142Y-111346142D01*
X116390571Y-111274714D01*
X116390571Y-111417571D01*
X116390571Y-110489000D02*
X116462000Y-110560428D01*
X116390571Y-110631857D01*
X116319142Y-110560428D01*
X116390571Y-110489000D01*
X116390571Y-110631857D01*
X81962000Y-112967571D02*
X82247714Y-113967571D01*
X82533428Y-113253285D01*
X82819142Y-113967571D01*
X83104857Y-112967571D01*
X83533428Y-112967571D02*
X83819142Y-113967571D01*
X84104857Y-113253285D01*
X84390571Y-113967571D01*
X84676285Y-112967571D01*
X85104857Y-112967571D02*
X85390571Y-113967571D01*
X85676285Y-113253285D01*
X85962000Y-113967571D01*
X86247714Y-112967571D01*
X86819142Y-113824714D02*
X86890571Y-113896142D01*
X86819142Y-113967571D01*
X86747714Y-113896142D01*
X86819142Y-113824714D01*
X86819142Y-113967571D01*
X88176285Y-112967571D02*
X88176285Y-114181857D01*
X88104857Y-114324714D01*
X88033428Y-114396142D01*
X87890571Y-114467571D01*
X87676285Y-114467571D01*
X87533428Y-114396142D01*
X88176285Y-113896142D02*
X88033428Y-113967571D01*
X87747714Y-113967571D01*
X87604857Y-113896142D01*
X87533428Y-113824714D01*
X87462000Y-113681857D01*
X87462000Y-113253285D01*
X87533428Y-113110428D01*
X87604857Y-113039000D01*
X87747714Y-112967571D01*
X88033428Y-112967571D01*
X88176285Y-113039000D01*
X88890571Y-113967571D02*
X88890571Y-112967571D01*
X88890571Y-112467571D02*
X88819142Y-112539000D01*
X88890571Y-112610428D01*
X88962000Y-112539000D01*
X88890571Y-112467571D01*
X88890571Y-112610428D01*
X89390571Y-112967571D02*
X89962000Y-112967571D01*
X89604857Y-112467571D02*
X89604857Y-113753285D01*
X89676285Y-113896142D01*
X89819142Y-113967571D01*
X89962000Y-113967571D01*
X90462000Y-113967571D02*
X90462000Y-112467571D01*
X91104857Y-113967571D02*
X91104857Y-113181857D01*
X91033428Y-113039000D01*
X90890571Y-112967571D01*
X90676285Y-112967571D01*
X90533428Y-113039000D01*
X90462000Y-113110428D01*
X92462000Y-112967571D02*
X92462000Y-113967571D01*
X91819142Y-112967571D02*
X91819142Y-113753285D01*
X91890571Y-113896142D01*
X92033428Y-113967571D01*
X92247714Y-113967571D01*
X92390571Y-113896142D01*
X92462000Y-113824714D01*
X93176285Y-113967571D02*
X93176285Y-112467571D01*
X93176285Y-113039000D02*
X93319142Y-112967571D01*
X93604857Y-112967571D01*
X93747714Y-113039000D01*
X93819142Y-113110428D01*
X93890571Y-113253285D01*
X93890571Y-113681857D01*
X93819142Y-113824714D01*
X93747714Y-113896142D01*
X93604857Y-113967571D01*
X93319142Y-113967571D01*
X93176285Y-113896142D01*
X94533428Y-113824714D02*
X94604857Y-113896142D01*
X94533428Y-113967571D01*
X94462000Y-113896142D01*
X94533428Y-113824714D01*
X94533428Y-113967571D01*
X95890571Y-113896142D02*
X95747714Y-113967571D01*
X95462000Y-113967571D01*
X95319142Y-113896142D01*
X95247714Y-113824714D01*
X95176285Y-113681857D01*
X95176285Y-113253285D01*
X95247714Y-113110428D01*
X95319142Y-113039000D01*
X95462000Y-112967571D01*
X95747714Y-112967571D01*
X95890571Y-113039000D01*
X96747714Y-113967571D02*
X96604857Y-113896142D01*
X96533428Y-113824714D01*
X96462000Y-113681857D01*
X96462000Y-113253285D01*
X96533428Y-113110428D01*
X96604857Y-113039000D01*
X96747714Y-112967571D01*
X96962000Y-112967571D01*
X97104857Y-113039000D01*
X97176285Y-113110428D01*
X97247714Y-113253285D01*
X97247714Y-113681857D01*
X97176285Y-113824714D01*
X97104857Y-113896142D01*
X96962000Y-113967571D01*
X96747714Y-113967571D01*
X97890571Y-113967571D02*
X97890571Y-112967571D01*
X97890571Y-113110428D02*
X97962000Y-113039000D01*
X98104857Y-112967571D01*
X98319142Y-112967571D01*
X98462000Y-113039000D01*
X98533428Y-113181857D01*
X98533428Y-113967571D01*
X98533428Y-113181857D02*
X98604857Y-113039000D01*
X98747714Y-112967571D01*
X98962000Y-112967571D01*
X99104857Y-113039000D01*
X99176285Y-113181857D01*
X99176285Y-113967571D01*
X100962000Y-112396142D02*
X99676285Y-114324714D01*
X102104857Y-113967571D02*
X102104857Y-113181857D01*
X102033428Y-113039000D01*
X101890571Y-112967571D01*
X101604857Y-112967571D01*
X101462000Y-113039000D01*
X102104857Y-113896142D02*
X101962000Y-113967571D01*
X101604857Y-113967571D01*
X101462000Y-113896142D01*
X101390571Y-113753285D01*
X101390571Y-113610428D01*
X101462000Y-113467571D01*
X101604857Y-113396142D01*
X101962000Y-113396142D01*
X102104857Y-113324714D01*
X102819142Y-113967571D02*
X102819142Y-112967571D01*
X102819142Y-113110428D02*
X102890571Y-113039000D01*
X103033428Y-112967571D01*
X103247714Y-112967571D01*
X103390571Y-113039000D01*
X103462000Y-113181857D01*
X103462000Y-113967571D01*
X103462000Y-113181857D02*
X103533428Y-113039000D01*
X103676285Y-112967571D01*
X103890571Y-112967571D01*
X104033428Y-113039000D01*
X104104857Y-113181857D01*
X104104857Y-113967571D01*
X105462000Y-113896142D02*
X105319142Y-113967571D01*
X105033428Y-113967571D01*
X104890571Y-113896142D01*
X104819142Y-113824714D01*
X104747714Y-113681857D01*
X104747714Y-113253285D01*
X104819142Y-113110428D01*
X104890571Y-113039000D01*
X105033428Y-112967571D01*
X105319142Y-112967571D01*
X105462000Y-113039000D01*
X106104857Y-113967571D02*
X106104857Y-112467571D01*
X106747714Y-113967571D02*
X106747714Y-113181857D01*
X106676285Y-113039000D01*
X106533428Y-112967571D01*
X106319142Y-112967571D01*
X106176285Y-113039000D01*
X106104857Y-113110428D01*
X108104857Y-113967571D02*
X108104857Y-113181857D01*
X108033428Y-113039000D01*
X107890571Y-112967571D01*
X107604857Y-112967571D01*
X107462000Y-113039000D01*
X108104857Y-113896142D02*
X107962000Y-113967571D01*
X107604857Y-113967571D01*
X107462000Y-113896142D01*
X107390571Y-113753285D01*
X107390571Y-113610428D01*
X107462000Y-113467571D01*
X107604857Y-113396142D01*
X107962000Y-113396142D01*
X108104857Y-113324714D01*
X109462000Y-112967571D02*
X109462000Y-114181857D01*
X109390571Y-114324714D01*
X109319142Y-114396142D01*
X109176285Y-114467571D01*
X108962000Y-114467571D01*
X108819142Y-114396142D01*
X109462000Y-113896142D02*
X109319142Y-113967571D01*
X109033428Y-113967571D01*
X108890571Y-113896142D01*
X108819142Y-113824714D01*
X108747714Y-113681857D01*
X108747714Y-113253285D01*
X108819142Y-113110428D01*
X108890571Y-113039000D01*
X109033428Y-112967571D01*
X109319142Y-112967571D01*
X109462000Y-113039000D01*
X110819142Y-113967571D02*
X110819142Y-113181857D01*
X110747714Y-113039000D01*
X110604857Y-112967571D01*
X110319142Y-112967571D01*
X110176285Y-113039000D01*
X110819142Y-113896142D02*
X110676285Y-113967571D01*
X110319142Y-113967571D01*
X110176285Y-113896142D01*
X110104857Y-113753285D01*
X110104857Y-113610428D01*
X110176285Y-113467571D01*
X110319142Y-113396142D01*
X110676285Y-113396142D01*
X110819142Y-113324714D01*
X111462000Y-113896142D02*
X111604857Y-113967571D01*
X111890571Y-113967571D01*
X112033428Y-113896142D01*
X112104857Y-113753285D01*
X112104857Y-113681857D01*
X112033428Y-113539000D01*
X111890571Y-113467571D01*
X111676285Y-113467571D01*
X111533428Y-113396142D01*
X111462000Y-113253285D01*
X111462000Y-113181857D01*
X111533428Y-113039000D01*
X111676285Y-112967571D01*
X111890571Y-112967571D01*
X112033428Y-113039000D01*
X113819142Y-112396142D02*
X112533428Y-114324714D01*
X114890571Y-113896142D02*
X114747714Y-113967571D01*
X114462000Y-113967571D01*
X114319142Y-113896142D01*
X114247714Y-113753285D01*
X114247714Y-113181857D01*
X114319142Y-113039000D01*
X114462000Y-112967571D01*
X114747714Y-112967571D01*
X114890571Y-113039000D01*
X114962000Y-113181857D01*
X114962000Y-113324714D01*
X114247714Y-113467571D01*
X115819142Y-113967571D02*
X115676285Y-113896142D01*
X115604857Y-113753285D01*
X115604857Y-112467571D01*
X116962000Y-113896142D02*
X116819142Y-113967571D01*
X116533428Y-113967571D01*
X116390571Y-113896142D01*
X116319142Y-113753285D01*
X116319142Y-113181857D01*
X116390571Y-113039000D01*
X116533428Y-112967571D01*
X116819142Y-112967571D01*
X116962000Y-113039000D01*
X117033428Y-113181857D01*
X117033428Y-113324714D01*
X116319142Y-113467571D01*
X118319142Y-113896142D02*
X118176285Y-113967571D01*
X117890571Y-113967571D01*
X117747714Y-113896142D01*
X117676285Y-113824714D01*
X117604857Y-113681857D01*
X117604857Y-113253285D01*
X117676285Y-113110428D01*
X117747714Y-113039000D01*
X117890571Y-112967571D01*
X118176285Y-112967571D01*
X118319142Y-113039000D01*
X118747714Y-112967571D02*
X119319142Y-112967571D01*
X118962000Y-112467571D02*
X118962000Y-113753285D01*
X119033428Y-113896142D01*
X119176285Y-113967571D01*
X119319142Y-113967571D01*
X119819142Y-113967571D02*
X119819142Y-112967571D01*
X119819142Y-113253285D02*
X119890571Y-113110428D01*
X119962000Y-113039000D01*
X120104857Y-112967571D01*
X120247714Y-112967571D01*
X120747714Y-113967571D02*
X120747714Y-112967571D01*
X120747714Y-112467571D02*
X120676285Y-112539000D01*
X120747714Y-112610428D01*
X120819142Y-112539000D01*
X120747714Y-112467571D01*
X120747714Y-112610428D01*
X122104857Y-113896142D02*
X121962000Y-113967571D01*
X121676285Y-113967571D01*
X121533428Y-113896142D01*
X121462000Y-113824714D01*
X121390571Y-113681857D01*
X121390571Y-113253285D01*
X121462000Y-113110428D01*
X121533428Y-113039000D01*
X121676285Y-112967571D01*
X121962000Y-112967571D01*
X122104857Y-113039000D01*
X122747714Y-113396142D02*
X123890571Y-113396142D01*
X124533428Y-113896142D02*
X124676285Y-113967571D01*
X124962000Y-113967571D01*
X125104857Y-113896142D01*
X125176285Y-113753285D01*
X125176285Y-113681857D01*
X125104857Y-113539000D01*
X124962000Y-113467571D01*
X124747714Y-113467571D01*
X124604857Y-113396142D01*
X124533428Y-113253285D01*
X124533428Y-113181857D01*
X124604857Y-113039000D01*
X124747714Y-112967571D01*
X124962000Y-112967571D01*
X125104857Y-113039000D01*
X125604857Y-112967571D02*
X126176285Y-112967571D01*
X125819142Y-112467571D02*
X125819142Y-113753285D01*
X125890571Y-113896142D01*
X126033428Y-113967571D01*
X126176285Y-113967571D01*
X126676285Y-113967571D02*
X126676285Y-112967571D01*
X126676285Y-112467571D02*
X126604857Y-112539000D01*
X126676285Y-112610428D01*
X126747714Y-112539000D01*
X126676285Y-112467571D01*
X126676285Y-112610428D01*
X127390571Y-113967571D02*
X127390571Y-112967571D01*
X127390571Y-113110428D02*
X127462000Y-113039000D01*
X127604857Y-112967571D01*
X127819142Y-112967571D01*
X127962000Y-113039000D01*
X128033428Y-113181857D01*
X128033428Y-113967571D01*
X128033428Y-113181857D02*
X128104857Y-113039000D01*
X128247714Y-112967571D01*
X128462000Y-112967571D01*
X128604857Y-113039000D01*
X128676285Y-113181857D01*
X128676285Y-113967571D01*
X130033428Y-112967571D02*
X130033428Y-113967571D01*
X129390571Y-112967571D02*
X129390571Y-113753285D01*
X129462000Y-113896142D01*
X129604857Y-113967571D01*
X129819142Y-113967571D01*
X129962000Y-113896142D01*
X130033428Y-113824714D01*
X130962000Y-113967571D02*
X130819142Y-113896142D01*
X130747714Y-113753285D01*
X130747714Y-112467571D01*
X132176285Y-113967571D02*
X132176285Y-113181857D01*
X132104857Y-113039000D01*
X131962000Y-112967571D01*
X131676285Y-112967571D01*
X131533428Y-113039000D01*
X132176285Y-113896142D02*
X132033428Y-113967571D01*
X131676285Y-113967571D01*
X131533428Y-113896142D01*
X131462000Y-113753285D01*
X131462000Y-113610428D01*
X131533428Y-113467571D01*
X131676285Y-113396142D01*
X132033428Y-113396142D01*
X132176285Y-113324714D01*
X132676285Y-112967571D02*
X133247714Y-112967571D01*
X132890571Y-112467571D02*
X132890571Y-113753285D01*
X132962000Y-113896142D01*
X133104857Y-113967571D01*
X133247714Y-113967571D01*
X133962000Y-113967571D02*
X133819142Y-113896142D01*
X133747714Y-113824714D01*
X133676285Y-113681857D01*
X133676285Y-113253285D01*
X133747714Y-113110428D01*
X133819142Y-113039000D01*
X133962000Y-112967571D01*
X134176285Y-112967571D01*
X134319142Y-113039000D01*
X134390571Y-113110428D01*
X134462000Y-113253285D01*
X134462000Y-113681857D01*
X134390571Y-113824714D01*
X134319142Y-113896142D01*
X134176285Y-113967571D01*
X133962000Y-113967571D01*
X135104857Y-113967571D02*
X135104857Y-112967571D01*
X135104857Y-113253285D02*
X135176285Y-113110428D01*
X135247714Y-113039000D01*
X135390571Y-112967571D01*
X135533428Y-112967571D01*
X98081428Y-88632000D02*
X98795714Y-88632000D01*
X97938571Y-89060571D02*
X98438571Y-87560571D01*
X98938571Y-89060571D01*
X99438571Y-88060571D02*
X99438571Y-89060571D01*
X99438571Y-88203428D02*
X99510000Y-88132000D01*
X99652857Y-88060571D01*
X99867142Y-88060571D01*
X100010000Y-88132000D01*
X100081428Y-88274857D01*
X100081428Y-89060571D01*
X101438571Y-89060571D02*
X101438571Y-88274857D01*
X101367142Y-88132000D01*
X101224285Y-88060571D01*
X100938571Y-88060571D01*
X100795714Y-88132000D01*
X101438571Y-88989142D02*
X101295714Y-89060571D01*
X100938571Y-89060571D01*
X100795714Y-88989142D01*
X100724285Y-88846285D01*
X100724285Y-88703428D01*
X100795714Y-88560571D01*
X100938571Y-88489142D01*
X101295714Y-88489142D01*
X101438571Y-88417714D01*
X102367142Y-89060571D02*
X102224285Y-88989142D01*
X102152857Y-88846285D01*
X102152857Y-87560571D01*
X103152857Y-89060571D02*
X103010000Y-88989142D01*
X102938571Y-88917714D01*
X102867142Y-88774857D01*
X102867142Y-88346285D01*
X102938571Y-88203428D01*
X103010000Y-88132000D01*
X103152857Y-88060571D01*
X103367142Y-88060571D01*
X103510000Y-88132000D01*
X103581428Y-88203428D01*
X103652857Y-88346285D01*
X103652857Y-88774857D01*
X103581428Y-88917714D01*
X103510000Y-88989142D01*
X103367142Y-89060571D01*
X103152857Y-89060571D01*
X104938571Y-88060571D02*
X104938571Y-89274857D01*
X104867142Y-89417714D01*
X104795714Y-89489142D01*
X104652857Y-89560571D01*
X104438571Y-89560571D01*
X104295714Y-89489142D01*
X104938571Y-88989142D02*
X104795714Y-89060571D01*
X104510000Y-89060571D01*
X104367142Y-88989142D01*
X104295714Y-88917714D01*
X104224285Y-88774857D01*
X104224285Y-88346285D01*
X104295714Y-88203428D01*
X104367142Y-88132000D01*
X104510000Y-88060571D01*
X104795714Y-88060571D01*
X104938571Y-88132000D01*
X106652857Y-88060571D02*
X107010000Y-89060571D01*
X107367142Y-88060571D01*
X108152857Y-89060571D02*
X108010000Y-88989142D01*
X107938571Y-88917714D01*
X107867142Y-88774857D01*
X107867142Y-88346285D01*
X107938571Y-88203428D01*
X108010000Y-88132000D01*
X108152857Y-88060571D01*
X108367142Y-88060571D01*
X108510000Y-88132000D01*
X108581428Y-88203428D01*
X108652857Y-88346285D01*
X108652857Y-88774857D01*
X108581428Y-88917714D01*
X108510000Y-88989142D01*
X108367142Y-89060571D01*
X108152857Y-89060571D01*
X109510000Y-89060571D02*
X109367142Y-88989142D01*
X109295714Y-88846285D01*
X109295714Y-87560571D01*
X109867142Y-88060571D02*
X110438571Y-88060571D01*
X110081428Y-87560571D02*
X110081428Y-88846285D01*
X110152857Y-88989142D01*
X110295714Y-89060571D01*
X110438571Y-89060571D01*
X111581428Y-89060571D02*
X111581428Y-88274857D01*
X111510000Y-88132000D01*
X111367142Y-88060571D01*
X111081428Y-88060571D01*
X110938571Y-88132000D01*
X111581428Y-88989142D02*
X111438571Y-89060571D01*
X111081428Y-89060571D01*
X110938571Y-88989142D01*
X110867142Y-88846285D01*
X110867142Y-88703428D01*
X110938571Y-88560571D01*
X111081428Y-88489142D01*
X111438571Y-88489142D01*
X111581428Y-88417714D01*
X112938571Y-88060571D02*
X112938571Y-89274857D01*
X112867142Y-89417714D01*
X112795714Y-89489142D01*
X112652857Y-89560571D01*
X112438571Y-89560571D01*
X112295714Y-89489142D01*
X112938571Y-88989142D02*
X112795714Y-89060571D01*
X112510000Y-89060571D01*
X112367142Y-88989142D01*
X112295714Y-88917714D01*
X112224285Y-88774857D01*
X112224285Y-88346285D01*
X112295714Y-88203428D01*
X112367142Y-88132000D01*
X112510000Y-88060571D01*
X112795714Y-88060571D01*
X112938571Y-88132000D01*
X114224285Y-88989142D02*
X114081428Y-89060571D01*
X113795714Y-89060571D01*
X113652857Y-88989142D01*
X113581428Y-88846285D01*
X113581428Y-88274857D01*
X113652857Y-88132000D01*
X113795714Y-88060571D01*
X114081428Y-88060571D01*
X114224285Y-88132000D01*
X114295714Y-88274857D01*
X114295714Y-88417714D01*
X113581428Y-88560571D01*
X116724285Y-89060571D02*
X116724285Y-88274857D01*
X116652857Y-88132000D01*
X116510000Y-88060571D01*
X116224285Y-88060571D01*
X116081428Y-88132000D01*
X116724285Y-88989142D02*
X116581428Y-89060571D01*
X116224285Y-89060571D01*
X116081428Y-88989142D01*
X116010000Y-88846285D01*
X116010000Y-88703428D01*
X116081428Y-88560571D01*
X116224285Y-88489142D01*
X116581428Y-88489142D01*
X116724285Y-88417714D01*
X117438571Y-89060571D02*
X117438571Y-88060571D01*
X117438571Y-88203428D02*
X117510000Y-88132000D01*
X117652857Y-88060571D01*
X117867142Y-88060571D01*
X118010000Y-88132000D01*
X118081428Y-88274857D01*
X118081428Y-89060571D01*
X118081428Y-88274857D02*
X118152857Y-88132000D01*
X118295714Y-88060571D01*
X118510000Y-88060571D01*
X118652857Y-88132000D01*
X118724285Y-88274857D01*
X118724285Y-89060571D01*
X119438571Y-88060571D02*
X119438571Y-89560571D01*
X119438571Y-88132000D02*
X119581428Y-88060571D01*
X119867142Y-88060571D01*
X120010000Y-88132000D01*
X120081428Y-88203428D01*
X120152857Y-88346285D01*
X120152857Y-88774857D01*
X120081428Y-88917714D01*
X120010000Y-88989142D01*
X119867142Y-89060571D01*
X119581428Y-89060571D01*
X119438571Y-88989142D01*
X121010000Y-89060571D02*
X120867142Y-88989142D01*
X120795714Y-88846285D01*
X120795714Y-87560571D01*
X121581428Y-89060571D02*
X121581428Y-88060571D01*
X121581428Y-87560571D02*
X121510000Y-87632000D01*
X121581428Y-87703428D01*
X121652857Y-87632000D01*
X121581428Y-87560571D01*
X121581428Y-87703428D01*
X122081428Y-88060571D02*
X122652857Y-88060571D01*
X122295714Y-89060571D02*
X122295714Y-87774857D01*
X122367142Y-87632000D01*
X122510000Y-87560571D01*
X122652857Y-87560571D01*
X123152857Y-89060571D02*
X123152857Y-88060571D01*
X123152857Y-87560571D02*
X123081428Y-87632000D01*
X123152857Y-87703428D01*
X123224285Y-87632000D01*
X123152857Y-87560571D01*
X123152857Y-87703428D01*
X124438571Y-88989142D02*
X124295714Y-89060571D01*
X124010000Y-89060571D01*
X123867142Y-88989142D01*
X123795714Y-88846285D01*
X123795714Y-88274857D01*
X123867142Y-88132000D01*
X124010000Y-88060571D01*
X124295714Y-88060571D01*
X124438571Y-88132000D01*
X124510000Y-88274857D01*
X124510000Y-88417714D01*
X123795714Y-88560571D01*
X125152857Y-89060571D02*
X125152857Y-88060571D01*
X125152857Y-88346285D02*
X125224285Y-88203428D01*
X125295714Y-88132000D01*
X125438571Y-88060571D01*
X125581428Y-88060571D01*
X100831428Y-91467714D02*
X100760000Y-91539142D01*
X100545714Y-91610571D01*
X100402857Y-91610571D01*
X100188571Y-91539142D01*
X100045714Y-91396285D01*
X99974285Y-91253428D01*
X99902857Y-90967714D01*
X99902857Y-90753428D01*
X99974285Y-90467714D01*
X100045714Y-90324857D01*
X100188571Y-90182000D01*
X100402857Y-90110571D01*
X100545714Y-90110571D01*
X100760000Y-90182000D01*
X100831428Y-90253428D01*
X101474285Y-91610571D02*
X101474285Y-90610571D01*
X101474285Y-90896285D02*
X101545714Y-90753428D01*
X101617142Y-90682000D01*
X101760000Y-90610571D01*
X101902857Y-90610571D01*
X102974285Y-91539142D02*
X102831428Y-91610571D01*
X102545714Y-91610571D01*
X102402857Y-91539142D01*
X102331428Y-91396285D01*
X102331428Y-90824857D01*
X102402857Y-90682000D01*
X102545714Y-90610571D01*
X102831428Y-90610571D01*
X102974285Y-90682000D01*
X103045714Y-90824857D01*
X103045714Y-90967714D01*
X102331428Y-91110571D01*
X104331428Y-91610571D02*
X104331428Y-90824857D01*
X104260000Y-90682000D01*
X104117142Y-90610571D01*
X103831428Y-90610571D01*
X103688571Y-90682000D01*
X104331428Y-91539142D02*
X104188571Y-91610571D01*
X103831428Y-91610571D01*
X103688571Y-91539142D01*
X103617142Y-91396285D01*
X103617142Y-91253428D01*
X103688571Y-91110571D01*
X103831428Y-91039142D01*
X104188571Y-91039142D01*
X104331428Y-90967714D01*
X104831428Y-90610571D02*
X105402857Y-90610571D01*
X105045714Y-90110571D02*
X105045714Y-91396285D01*
X105117142Y-91539142D01*
X105260000Y-91610571D01*
X105402857Y-91610571D01*
X106474285Y-91539142D02*
X106331428Y-91610571D01*
X106045714Y-91610571D01*
X105902857Y-91539142D01*
X105831428Y-91396285D01*
X105831428Y-90824857D01*
X105902857Y-90682000D01*
X106045714Y-90610571D01*
X106331428Y-90610571D01*
X106474285Y-90682000D01*
X106545714Y-90824857D01*
X106545714Y-90967714D01*
X105831428Y-91110571D01*
X108331428Y-91610571D02*
X108331428Y-90110571D01*
X108331428Y-90682000D02*
X108474285Y-90610571D01*
X108760000Y-90610571D01*
X108902857Y-90682000D01*
X108974285Y-90753428D01*
X109045714Y-90896285D01*
X109045714Y-91324857D01*
X108974285Y-91467714D01*
X108902857Y-91539142D01*
X108760000Y-91610571D01*
X108474285Y-91610571D01*
X108331428Y-91539142D01*
X109545714Y-90610571D02*
X109902857Y-91610571D01*
X110260000Y-90610571D02*
X109902857Y-91610571D01*
X109760000Y-91967714D01*
X109688571Y-92039142D01*
X109545714Y-92110571D01*
X112831428Y-91467714D02*
X112760000Y-91539142D01*
X112545714Y-91610571D01*
X112402857Y-91610571D01*
X112188571Y-91539142D01*
X112045714Y-91396285D01*
X111974285Y-91253428D01*
X111902857Y-90967714D01*
X111902857Y-90753428D01*
X111974285Y-90467714D01*
X112045714Y-90324857D01*
X112188571Y-90182000D01*
X112402857Y-90110571D01*
X112545714Y-90110571D01*
X112760000Y-90182000D01*
X112831428Y-90253428D01*
X113474285Y-91610571D02*
X113474285Y-90110571D01*
X114117142Y-91610571D02*
X114117142Y-90824857D01*
X114045714Y-90682000D01*
X113902857Y-90610571D01*
X113688571Y-90610571D01*
X113545714Y-90682000D01*
X113474285Y-90753428D01*
X115474285Y-91610571D02*
X115474285Y-90824857D01*
X115402857Y-90682000D01*
X115260000Y-90610571D01*
X114974285Y-90610571D01*
X114831428Y-90682000D01*
X115474285Y-91539142D02*
X115331428Y-91610571D01*
X114974285Y-91610571D01*
X114831428Y-91539142D01*
X114760000Y-91396285D01*
X114760000Y-91253428D01*
X114831428Y-91110571D01*
X114974285Y-91039142D01*
X115331428Y-91039142D01*
X115474285Y-90967714D01*
X116831428Y-90610571D02*
X116831428Y-91824857D01*
X116760000Y-91967714D01*
X116688571Y-92039142D01*
X116545714Y-92110571D01*
X116331428Y-92110571D01*
X116188571Y-92039142D01*
X116831428Y-91539142D02*
X116688571Y-91610571D01*
X116402857Y-91610571D01*
X116260000Y-91539142D01*
X116188571Y-91467714D01*
X116117142Y-91324857D01*
X116117142Y-90896285D01*
X116188571Y-90753428D01*
X116260000Y-90682000D01*
X116402857Y-90610571D01*
X116688571Y-90610571D01*
X116831428Y-90682000D01*
X118188571Y-91610571D02*
X118188571Y-90824857D01*
X118117142Y-90682000D01*
X117974285Y-90610571D01*
X117688571Y-90610571D01*
X117545714Y-90682000D01*
X118188571Y-91539142D02*
X118045714Y-91610571D01*
X117688571Y-91610571D01*
X117545714Y-91539142D01*
X117474285Y-91396285D01*
X117474285Y-91253428D01*
X117545714Y-91110571D01*
X117688571Y-91039142D01*
X118045714Y-91039142D01*
X118188571Y-90967714D01*
X118831428Y-91539142D02*
X118974285Y-91610571D01*
X119260000Y-91610571D01*
X119402857Y-91539142D01*
X119474285Y-91396285D01*
X119474285Y-91324857D01*
X119402857Y-91182000D01*
X119260000Y-91110571D01*
X119045714Y-91110571D01*
X118902857Y-91039142D01*
X118831428Y-90896285D01*
X118831428Y-90824857D01*
X118902857Y-90682000D01*
X119045714Y-90610571D01*
X119260000Y-90610571D01*
X119402857Y-90682000D01*
X121188571Y-91182000D02*
X121902857Y-91182000D01*
X121045714Y-91610571D02*
X121545714Y-90110571D01*
X122045714Y-91610571D01*
X122545714Y-91610571D02*
X122545714Y-90110571D01*
X123045714Y-91182000D01*
X123545714Y-90110571D01*
X123545714Y-91610571D01*
X98617142Y-94017714D02*
X98545714Y-94089142D01*
X98331428Y-94160571D01*
X98188571Y-94160571D01*
X97974285Y-94089142D01*
X97831428Y-93946285D01*
X97760000Y-93803428D01*
X97688571Y-93517714D01*
X97688571Y-93303428D01*
X97760000Y-93017714D01*
X97831428Y-92874857D01*
X97974285Y-92732000D01*
X98188571Y-92660571D01*
X98331428Y-92660571D01*
X98545714Y-92732000D01*
X98617142Y-92803428D01*
X99260000Y-93374857D02*
X99760000Y-93374857D01*
X99974285Y-94160571D02*
X99260000Y-94160571D01*
X99260000Y-92660571D01*
X99974285Y-92660571D01*
X101474285Y-94160571D02*
X100974285Y-93446285D01*
X100617142Y-94160571D02*
X100617142Y-92660571D01*
X101188571Y-92660571D01*
X101331428Y-92732000D01*
X101402857Y-92803428D01*
X101474285Y-92946285D01*
X101474285Y-93160571D01*
X101402857Y-93303428D01*
X101331428Y-93374857D01*
X101188571Y-93446285D01*
X100617142Y-93446285D01*
X102117142Y-94160571D02*
X102117142Y-92660571D01*
X102974285Y-94160571D01*
X102974285Y-92660571D01*
X105117142Y-92660571D02*
X105402857Y-92660571D01*
X105545714Y-92732000D01*
X105688571Y-92874857D01*
X105760000Y-93160571D01*
X105760000Y-93660571D01*
X105688571Y-93946285D01*
X105545714Y-94089142D01*
X105402857Y-94160571D01*
X105117142Y-94160571D01*
X104974285Y-94089142D01*
X104831428Y-93946285D01*
X104760000Y-93660571D01*
X104760000Y-93160571D01*
X104831428Y-92874857D01*
X104974285Y-92732000D01*
X105117142Y-92660571D01*
X106402857Y-94160571D02*
X106402857Y-92660571D01*
X106402857Y-93374857D02*
X107260000Y-93374857D01*
X107260000Y-94160571D02*
X107260000Y-92660571D01*
X108688571Y-94160571D02*
X107974285Y-94160571D01*
X107974285Y-92660571D01*
X111117142Y-94160571D02*
X110260000Y-94160571D01*
X110688571Y-94160571D02*
X110688571Y-92660571D01*
X110545714Y-92874857D01*
X110402857Y-93017714D01*
X110260000Y-93089142D01*
X111760000Y-94017714D02*
X111831428Y-94089142D01*
X111760000Y-94160571D01*
X111688571Y-94089142D01*
X111760000Y-94017714D01*
X111760000Y-94160571D01*
X112402857Y-92803428D02*
X112474285Y-92732000D01*
X112617142Y-92660571D01*
X112974285Y-92660571D01*
X113117142Y-92732000D01*
X113188571Y-92803428D01*
X113260000Y-92946285D01*
X113260000Y-93089142D01*
X113188571Y-93303428D01*
X112331428Y-94160571D01*
X113260000Y-94160571D01*
X114974285Y-92803428D02*
X115045714Y-92732000D01*
X115188571Y-92660571D01*
X115545714Y-92660571D01*
X115688571Y-92732000D01*
X115760000Y-92803428D01*
X115831428Y-92946285D01*
X115831428Y-93089142D01*
X115760000Y-93303428D01*
X114902857Y-94160571D01*
X115831428Y-94160571D01*
X116760000Y-92660571D02*
X116902857Y-92660571D01*
X117045714Y-92732000D01*
X117117142Y-92803428D01*
X117188571Y-92946285D01*
X117260000Y-93232000D01*
X117260000Y-93589142D01*
X117188571Y-93874857D01*
X117117142Y-94017714D01*
X117045714Y-94089142D01*
X116902857Y-94160571D01*
X116760000Y-94160571D01*
X116617142Y-94089142D01*
X116545714Y-94017714D01*
X116474285Y-93874857D01*
X116402857Y-93589142D01*
X116402857Y-93232000D01*
X116474285Y-92946285D01*
X116545714Y-92803428D01*
X116617142Y-92732000D01*
X116760000Y-92660571D01*
X118688571Y-94160571D02*
X117831428Y-94160571D01*
X118260000Y-94160571D02*
X118260000Y-92660571D01*
X118117142Y-92874857D01*
X117974285Y-93017714D01*
X117831428Y-93089142D01*
X119402857Y-94160571D02*
X119688571Y-94160571D01*
X119831428Y-94089142D01*
X119902857Y-94017714D01*
X120045714Y-93803428D01*
X120117142Y-93517714D01*
X120117142Y-92946285D01*
X120045714Y-92803428D01*
X119974285Y-92732000D01*
X119831428Y-92660571D01*
X119545714Y-92660571D01*
X119402857Y-92732000D01*
X119331428Y-92803428D01*
X119260000Y-92946285D01*
X119260000Y-93303428D01*
X119331428Y-93446285D01*
X119402857Y-93517714D01*
X119545714Y-93589142D01*
X119831428Y-93589142D01*
X119974285Y-93517714D01*
X120045714Y-93446285D01*
X120117142Y-93303428D01*
X121545714Y-94160571D02*
X120688571Y-94160571D01*
X121117142Y-94160571D02*
X121117142Y-92660571D01*
X120974285Y-92874857D01*
X120831428Y-93017714D01*
X120688571Y-93089142D01*
X122474285Y-92660571D02*
X122617142Y-92660571D01*
X122760000Y-92732000D01*
X122831428Y-92803428D01*
X122902857Y-92946285D01*
X122974285Y-93232000D01*
X122974285Y-93589142D01*
X122902857Y-93874857D01*
X122831428Y-94017714D01*
X122760000Y-94089142D01*
X122617142Y-94160571D01*
X122474285Y-94160571D01*
X122331428Y-94089142D01*
X122260000Y-94017714D01*
X122188571Y-93874857D01*
X122117142Y-93589142D01*
X122117142Y-93232000D01*
X122188571Y-92946285D01*
X122260000Y-92803428D01*
X122331428Y-92732000D01*
X122474285Y-92660571D01*
X123545714Y-92803428D02*
X123617142Y-92732000D01*
X123760000Y-92660571D01*
X124117142Y-92660571D01*
X124260000Y-92732000D01*
X124331428Y-92803428D01*
X124402857Y-92946285D01*
X124402857Y-93089142D01*
X124331428Y-93303428D01*
X123474285Y-94160571D01*
X124402857Y-94160571D01*
X124902857Y-92660571D02*
X125831428Y-92660571D01*
X125331428Y-93232000D01*
X125545714Y-93232000D01*
X125688571Y-93303428D01*
X125760000Y-93374857D01*
X125831428Y-93517714D01*
X125831428Y-93874857D01*
X125760000Y-94017714D01*
X125688571Y-94089142D01*
X125545714Y-94160571D01*
X125117142Y-94160571D01*
X124974285Y-94089142D01*
X124902857Y-94017714D01*
D12*
X80085001Y-66115001D02*
X80085001Y-119455001D01*
X179145001Y-78815001D02*
X179145001Y-67639001D01*
X181685001Y-81355001D02*
X179145001Y-78815001D01*
X181685001Y-115645001D02*
X181685001Y-81355001D01*
X179145001Y-118185001D02*
X181685001Y-115645001D01*
X179145001Y-119455001D02*
X179145001Y-118185001D01*
X177621001Y-66115001D02*
X179145001Y-67639001D01*
X80085001Y-119455001D02*
X179145001Y-119455001D01*
X80085001Y-66115001D02*
X177621001Y-66115001D01*
D13*
X110324000Y-86812000D02*
X106084000Y-86812000D01*
X110324000Y-73572000D02*
X106084000Y-73572000D01*
X106084000Y-73572000D02*
X106084000Y-86812000D01*
X110324000Y-73572000D02*
X110324000Y-86812000D01*
X80264000Y-109100000D02*
X80264000Y-94100000D01*
X80264000Y-94100000D02*
X95264000Y-94100000D01*
X95264000Y-94100000D02*
X95264000Y-109100000D01*
X95264000Y-109100000D02*
X80264000Y-109100000D01*
X80464000Y-101600000D02*
X81464000Y-102600000D01*
X80464000Y-101600000D02*
X81464000Y-100600000D01*
X80464000Y-80772000D02*
X81464000Y-79772000D01*
X80464000Y-80772000D02*
X81464000Y-81772000D01*
X95264000Y-88272000D02*
X80264000Y-88272000D01*
X95264000Y-73272000D02*
X95264000Y-88272000D01*
X80264000Y-73272000D02*
X95264000Y-73272000D01*
X80264000Y-88272000D02*
X80264000Y-73272000D01*
X169260264Y-101329617D02*
G75*
G02X169848000Y-101722000I-1112264J-2302383D01*
G01*
X167058487Y-101295537D02*
G75*
G03X165798000Y-102572000I1089513J-2336463D01*
G01*
X167053214Y-105979775D02*
G75*
G02X165798000Y-104722000I1094786J2347775D01*
G01*
X169270045Y-105954631D02*
G75*
G03X169848000Y-105572000I-1122045J2322631D01*
G01*
X169848000Y-105572000D02*
X169848000Y-101722000D01*
X169848000Y-81696000D02*
X169848000Y-77846000D01*
X169270045Y-82078631D02*
G75*
G03X169848000Y-81696000I-1122045J2322631D01*
G01*
X167053214Y-82103775D02*
G75*
G02X165798000Y-80846000I1094786J2347775D01*
G01*
X167058487Y-77419537D02*
G75*
G03X165798000Y-78696000I1089513J-2336463D01*
G01*
X169260264Y-77453617D02*
G75*
G02X169848000Y-77846000I-1112264J-2302383D01*
G01*
X157900000Y-97592000D02*
X162140000Y-97592000D01*
X157900000Y-110832000D02*
X162140000Y-110832000D01*
X162140000Y-110832000D02*
X162140000Y-97592000D01*
X157900000Y-110832000D02*
X157900000Y-97592000D01*
X113704000Y-108292000D02*
X113704000Y-95052000D01*
X117944000Y-108292000D02*
X117944000Y-95052000D01*
X113704000Y-108292000D02*
X117944000Y-108292000D01*
X113704000Y-95052000D02*
X117944000Y-95052000D01*
X150026000Y-97592000D02*
X154266000Y-97592000D01*
X150026000Y-110832000D02*
X154266000Y-110832000D01*
X154266000Y-110832000D02*
X154266000Y-97592000D01*
X150026000Y-110832000D02*
X150026000Y-97592000D01*
X98464000Y-108292000D02*
X98464000Y-95052000D01*
X102704000Y-108292000D02*
X102704000Y-95052000D01*
X98464000Y-108292000D02*
X102704000Y-108292000D01*
X98464000Y-95052000D02*
X102704000Y-95052000D01*
X110578000Y-95162000D02*
X110578000Y-108402000D01*
X106338000Y-95162000D02*
X106338000Y-108402000D01*
X110578000Y-95162000D02*
X106338000Y-95162000D01*
X110578000Y-108402000D02*
X106338000Y-108402000D01*
X154520000Y-73572000D02*
X154520000Y-86812000D01*
X150280000Y-73572000D02*
X150280000Y-86812000D01*
X154520000Y-73572000D02*
X150280000Y-73572000D01*
X154520000Y-86812000D02*
X150280000Y-86812000D01*
X98464000Y-73716000D02*
X102704000Y-73716000D01*
X98464000Y-86956000D02*
X102704000Y-86956000D01*
X102704000Y-86956000D02*
X102704000Y-73716000D01*
X98464000Y-86956000D02*
X98464000Y-73716000D01*
X117944000Y-86812000D02*
X113704000Y-86812000D01*
X117944000Y-73572000D02*
X113704000Y-73572000D01*
X113704000Y-73572000D02*
X113704000Y-86812000D01*
X117944000Y-73572000D02*
X117944000Y-86812000D01*
X157900000Y-86956000D02*
X157900000Y-73716000D01*
X162140000Y-86956000D02*
X162140000Y-73716000D01*
X157900000Y-86956000D02*
X162140000Y-86956000D01*
X157900000Y-73716000D02*
X162140000Y-73716000D01*
X123638000Y-100854000D02*
G75*
G02X123638000Y-102854000I0J-1000000D01*
G01*
X123638000Y-102854000D02*
X123638000Y-104504000D01*
X123638000Y-104504000D02*
X133918000Y-104504000D01*
X133918000Y-104504000D02*
X133918000Y-99204000D01*
X133918000Y-99204000D02*
X123638000Y-99204000D01*
X123638000Y-99204000D02*
X123638000Y-100854000D01*
X123638000Y-77360000D02*
X123638000Y-79010000D01*
X133918000Y-77360000D02*
X123638000Y-77360000D01*
X133918000Y-82660000D02*
X133918000Y-77360000D01*
X123638000Y-82660000D02*
X133918000Y-82660000D01*
X123638000Y-81010000D02*
X123638000Y-82660000D01*
X123638000Y-79010000D02*
G75*
G02X123638000Y-81010000I0J-1000000D01*
G01*
D12*
X177736666Y-132786380D02*
X177403333Y-132310190D01*
X177165238Y-132786380D02*
X177165238Y-131786380D01*
X177546190Y-131786380D01*
X177641428Y-131834000D01*
X177689047Y-131881619D01*
X177736666Y-131976857D01*
X177736666Y-132119714D01*
X177689047Y-132214952D01*
X177641428Y-132262571D01*
X177546190Y-132310190D01*
X177165238Y-132310190D01*
X178165238Y-132262571D02*
X178498571Y-132262571D01*
X178641428Y-132786380D02*
X178165238Y-132786380D01*
X178165238Y-131786380D01*
X178641428Y-131786380D01*
X179403333Y-132262571D02*
X179070000Y-132262571D01*
X179070000Y-132786380D02*
X179070000Y-131786380D01*
X179546190Y-131786380D01*
X180070000Y-131786380D02*
X180070000Y-132024476D01*
X179831904Y-131929238D02*
X180070000Y-132024476D01*
X180308095Y-131929238D01*
X179927142Y-132214952D02*
X180070000Y-132024476D01*
X180212857Y-132214952D01*
X180831904Y-131786380D02*
X180831904Y-132024476D01*
X180593809Y-131929238D02*
X180831904Y-132024476D01*
X181070000Y-131929238D01*
X180689047Y-132214952D02*
X180831904Y-132024476D01*
X180974761Y-132214952D01*
X81386905Y-64551381D02*
X82053572Y-65551381D01*
X82053572Y-64551381D02*
X81386905Y-65551381D01*
X82386905Y-65265667D02*
X82863096Y-65265667D01*
X82291667Y-65551381D02*
X82625001Y-64551381D01*
X82958334Y-65551381D01*
X83815477Y-65551381D02*
X83244048Y-65551381D01*
X83529762Y-65551381D02*
X83529762Y-64551381D01*
X83434524Y-64694239D01*
X83339286Y-64789477D01*
X83244048Y-64837096D01*
X142569001Y-87808143D02*
X142616620Y-87855762D01*
X142569001Y-87903381D01*
X142521381Y-87855762D01*
X142569001Y-87808143D01*
X142569001Y-87903381D01*
X111906380Y-77128666D02*
X111430190Y-77462000D01*
X111906380Y-77700095D02*
X110906380Y-77700095D01*
X110906380Y-77319142D01*
X110954000Y-77223904D01*
X111001619Y-77176285D01*
X111096857Y-77128666D01*
X111239714Y-77128666D01*
X111334952Y-77176285D01*
X111382571Y-77223904D01*
X111430190Y-77319142D01*
X111430190Y-77700095D01*
X111334952Y-76557238D02*
X111287333Y-76652476D01*
X111239714Y-76700095D01*
X111144476Y-76747714D01*
X111096857Y-76747714D01*
X111001619Y-76700095D01*
X110954000Y-76652476D01*
X110906380Y-76557238D01*
X110906380Y-76366761D01*
X110954000Y-76271523D01*
X111001619Y-76223904D01*
X111096857Y-76176285D01*
X111144476Y-76176285D01*
X111239714Y-76223904D01*
X111287333Y-76271523D01*
X111334952Y-76366761D01*
X111334952Y-76557238D01*
X111382571Y-76652476D01*
X111430190Y-76700095D01*
X111525428Y-76747714D01*
X111715904Y-76747714D01*
X111811142Y-76700095D01*
X111858761Y-76652476D01*
X111906380Y-76557238D01*
X111906380Y-76366761D01*
X111858761Y-76271523D01*
X111811142Y-76223904D01*
X111715904Y-76176285D01*
X111525428Y-76176285D01*
X111430190Y-76223904D01*
X111382571Y-76271523D01*
X111334952Y-76366761D01*
X111958380Y-74541047D02*
X111958380Y-75112476D01*
X111958380Y-74826761D02*
X110958380Y-74826761D01*
X111101238Y-74922000D01*
X111196476Y-75017238D01*
X111244095Y-75112476D01*
X111958380Y-74112476D02*
X110958380Y-74112476D01*
X111577428Y-74017238D02*
X111958380Y-73731523D01*
X111291714Y-73731523D02*
X111672666Y-74112476D01*
X94408666Y-92162380D02*
X94408666Y-92876666D01*
X94361047Y-93019523D01*
X94265809Y-93114761D01*
X94122952Y-93162380D01*
X94027714Y-93162380D01*
X95408666Y-93162380D02*
X94837238Y-93162380D01*
X95122952Y-93162380D02*
X95122952Y-92162380D01*
X95027714Y-92305238D01*
X94932476Y-92400476D01*
X94837238Y-92448095D01*
X81121904Y-110593142D02*
X81074285Y-110640761D01*
X80931428Y-110688380D01*
X80836190Y-110688380D01*
X80693333Y-110640761D01*
X80598095Y-110545523D01*
X80550476Y-110450285D01*
X80502857Y-110259809D01*
X80502857Y-110116952D01*
X80550476Y-109926476D01*
X80598095Y-109831238D01*
X80693333Y-109736000D01*
X80836190Y-109688380D01*
X80931428Y-109688380D01*
X81074285Y-109736000D01*
X81121904Y-109783619D01*
X81550476Y-110688380D02*
X81550476Y-109688380D01*
X81979047Y-110688380D02*
X81979047Y-110164571D01*
X81931428Y-110069333D01*
X81836190Y-110021714D01*
X81693333Y-110021714D01*
X81598095Y-110069333D01*
X81550476Y-110116952D01*
X82883809Y-110688380D02*
X82883809Y-110164571D01*
X82836190Y-110069333D01*
X82740952Y-110021714D01*
X82550476Y-110021714D01*
X82455238Y-110069333D01*
X82883809Y-110640761D02*
X82788571Y-110688380D01*
X82550476Y-110688380D01*
X82455238Y-110640761D01*
X82407619Y-110545523D01*
X82407619Y-110450285D01*
X82455238Y-110355047D01*
X82550476Y-110307428D01*
X82788571Y-110307428D01*
X82883809Y-110259809D01*
X83360000Y-110021714D02*
X83360000Y-110688380D01*
X83360000Y-110116952D02*
X83407619Y-110069333D01*
X83502857Y-110021714D01*
X83645714Y-110021714D01*
X83740952Y-110069333D01*
X83788571Y-110164571D01*
X83788571Y-110688380D01*
X85550476Y-110688380D02*
X84979047Y-110688380D01*
X85264761Y-110688380D02*
X85264761Y-109688380D01*
X85169523Y-109831238D01*
X85074285Y-109926476D01*
X84979047Y-109974095D01*
X87026666Y-111069333D02*
X86979047Y-111021714D01*
X86883809Y-110878857D01*
X86836190Y-110783619D01*
X86788571Y-110640761D01*
X86740952Y-110402666D01*
X86740952Y-110212190D01*
X86788571Y-109974095D01*
X86836190Y-109831238D01*
X86883809Y-109736000D01*
X86979047Y-109593142D01*
X87026666Y-109545523D01*
X87407619Y-110688380D02*
X87407619Y-109688380D01*
X87645714Y-109688380D01*
X87788571Y-109736000D01*
X87883809Y-109831238D01*
X87931428Y-109926476D01*
X87979047Y-110116952D01*
X87979047Y-110259809D01*
X87931428Y-110450285D01*
X87883809Y-110545523D01*
X87788571Y-110640761D01*
X87645714Y-110688380D01*
X87407619Y-110688380D01*
X88360000Y-110402666D02*
X88836190Y-110402666D01*
X88264761Y-110688380D02*
X88598095Y-109688380D01*
X88931428Y-110688380D01*
X89836190Y-110593142D02*
X89788571Y-110640761D01*
X89645714Y-110688380D01*
X89550476Y-110688380D01*
X89407619Y-110640761D01*
X89312380Y-110545523D01*
X89264761Y-110450285D01*
X89217142Y-110259809D01*
X89217142Y-110116952D01*
X89264761Y-109926476D01*
X89312380Y-109831238D01*
X89407619Y-109736000D01*
X89550476Y-109688380D01*
X89645714Y-109688380D01*
X89788571Y-109736000D01*
X89836190Y-109783619D01*
X91217142Y-109688380D02*
X91312380Y-109688380D01*
X91407619Y-109736000D01*
X91455238Y-109783619D01*
X91502857Y-109878857D01*
X91550476Y-110069333D01*
X91550476Y-110307428D01*
X91502857Y-110497904D01*
X91455238Y-110593142D01*
X91407619Y-110640761D01*
X91312380Y-110688380D01*
X91217142Y-110688380D01*
X91121904Y-110640761D01*
X91074285Y-110593142D01*
X91026666Y-110497904D01*
X90979047Y-110307428D01*
X90979047Y-110069333D01*
X91026666Y-109878857D01*
X91074285Y-109783619D01*
X91121904Y-109736000D01*
X91217142Y-109688380D01*
X91883809Y-111069333D02*
X91931428Y-111021714D01*
X92026666Y-110878857D01*
X92074285Y-110783619D01*
X92121904Y-110640761D01*
X92169523Y-110402666D01*
X92169523Y-110212190D01*
X92121904Y-109974095D01*
X92074285Y-109831238D01*
X92026666Y-109736000D01*
X91931428Y-109593142D01*
X91883809Y-109545523D01*
X94408666Y-71588380D02*
X94408666Y-72302666D01*
X94361047Y-72445523D01*
X94265809Y-72540761D01*
X94122952Y-72588380D01*
X94027714Y-72588380D01*
X94837238Y-71683619D02*
X94884857Y-71636000D01*
X94980095Y-71588380D01*
X95218190Y-71588380D01*
X95313428Y-71636000D01*
X95361047Y-71683619D01*
X95408666Y-71778857D01*
X95408666Y-71874095D01*
X95361047Y-72016952D01*
X94789619Y-72588380D01*
X95408666Y-72588380D01*
X81121904Y-89765142D02*
X81074285Y-89812761D01*
X80931428Y-89860380D01*
X80836190Y-89860380D01*
X80693333Y-89812761D01*
X80598095Y-89717523D01*
X80550476Y-89622285D01*
X80502857Y-89431809D01*
X80502857Y-89288952D01*
X80550476Y-89098476D01*
X80598095Y-89003238D01*
X80693333Y-88908000D01*
X80836190Y-88860380D01*
X80931428Y-88860380D01*
X81074285Y-88908000D01*
X81121904Y-88955619D01*
X81550476Y-89860380D02*
X81550476Y-88860380D01*
X81979047Y-89860380D02*
X81979047Y-89336571D01*
X81931428Y-89241333D01*
X81836190Y-89193714D01*
X81693333Y-89193714D01*
X81598095Y-89241333D01*
X81550476Y-89288952D01*
X82883809Y-89860380D02*
X82883809Y-89336571D01*
X82836190Y-89241333D01*
X82740952Y-89193714D01*
X82550476Y-89193714D01*
X82455238Y-89241333D01*
X82883809Y-89812761D02*
X82788571Y-89860380D01*
X82550476Y-89860380D01*
X82455238Y-89812761D01*
X82407619Y-89717523D01*
X82407619Y-89622285D01*
X82455238Y-89527047D01*
X82550476Y-89479428D01*
X82788571Y-89479428D01*
X82883809Y-89431809D01*
X83360000Y-89193714D02*
X83360000Y-89860380D01*
X83360000Y-89288952D02*
X83407619Y-89241333D01*
X83502857Y-89193714D01*
X83645714Y-89193714D01*
X83740952Y-89241333D01*
X83788571Y-89336571D01*
X83788571Y-89860380D01*
X84979047Y-88955619D02*
X85026666Y-88908000D01*
X85121904Y-88860380D01*
X85360000Y-88860380D01*
X85455238Y-88908000D01*
X85502857Y-88955619D01*
X85550476Y-89050857D01*
X85550476Y-89146095D01*
X85502857Y-89288952D01*
X84931428Y-89860380D01*
X85550476Y-89860380D01*
X87026666Y-90241333D02*
X86979047Y-90193714D01*
X86883809Y-90050857D01*
X86836190Y-89955619D01*
X86788571Y-89812761D01*
X86740952Y-89574666D01*
X86740952Y-89384190D01*
X86788571Y-89146095D01*
X86836190Y-89003238D01*
X86883809Y-88908000D01*
X86979047Y-88765142D01*
X87026666Y-88717523D01*
X87407619Y-89860380D02*
X87407619Y-88860380D01*
X87645714Y-88860380D01*
X87788571Y-88908000D01*
X87883809Y-89003238D01*
X87931428Y-89098476D01*
X87979047Y-89288952D01*
X87979047Y-89431809D01*
X87931428Y-89622285D01*
X87883809Y-89717523D01*
X87788571Y-89812761D01*
X87645714Y-89860380D01*
X87407619Y-89860380D01*
X88360000Y-89574666D02*
X88836190Y-89574666D01*
X88264761Y-89860380D02*
X88598095Y-88860380D01*
X88931428Y-89860380D01*
X89836190Y-89765142D02*
X89788571Y-89812761D01*
X89645714Y-89860380D01*
X89550476Y-89860380D01*
X89407619Y-89812761D01*
X89312380Y-89717523D01*
X89264761Y-89622285D01*
X89217142Y-89431809D01*
X89217142Y-89288952D01*
X89264761Y-89098476D01*
X89312380Y-89003238D01*
X89407619Y-88908000D01*
X89550476Y-88860380D01*
X89645714Y-88860380D01*
X89788571Y-88908000D01*
X89836190Y-88955619D01*
X91550476Y-89860380D02*
X90979047Y-89860380D01*
X91264761Y-89860380D02*
X91264761Y-88860380D01*
X91169523Y-89003238D01*
X91074285Y-89098476D01*
X90979047Y-89146095D01*
X91883809Y-90241333D02*
X91931428Y-90193714D01*
X92026666Y-90050857D01*
X92074285Y-89955619D01*
X92121904Y-89812761D01*
X92169523Y-89574666D01*
X92169523Y-89384190D01*
X92121904Y-89146095D01*
X92074285Y-89003238D01*
X92026666Y-88908000D01*
X91931428Y-88765142D01*
X91883809Y-88717523D01*
X169965619Y-98901238D02*
X169918000Y-98996476D01*
X169822761Y-99091714D01*
X169679904Y-99234571D01*
X169632285Y-99329809D01*
X169632285Y-99425047D01*
X169870380Y-99377428D02*
X169822761Y-99472666D01*
X169727523Y-99567904D01*
X169537047Y-99615523D01*
X169203714Y-99615523D01*
X169013238Y-99567904D01*
X168918000Y-99472666D01*
X168870380Y-99377428D01*
X168870380Y-99186952D01*
X168918000Y-99091714D01*
X169013238Y-98996476D01*
X169203714Y-98948857D01*
X169537047Y-98948857D01*
X169727523Y-98996476D01*
X169822761Y-99091714D01*
X169870380Y-99186952D01*
X169870380Y-99377428D01*
X169870380Y-97996476D02*
X169870380Y-98567904D01*
X169870380Y-98282190D02*
X168870380Y-98282190D01*
X169013238Y-98377428D01*
X169108476Y-98472666D01*
X169156095Y-98567904D01*
X170866571Y-107822476D02*
X170914190Y-107679619D01*
X170961809Y-107632000D01*
X171057047Y-107584380D01*
X171199904Y-107584380D01*
X171295142Y-107632000D01*
X171342761Y-107679619D01*
X171390380Y-107774857D01*
X171390380Y-108155809D01*
X170390380Y-108155809D01*
X170390380Y-107822476D01*
X170438000Y-107727238D01*
X170485619Y-107679619D01*
X170580857Y-107632000D01*
X170676095Y-107632000D01*
X170771333Y-107679619D01*
X170818952Y-107727238D01*
X170866571Y-107822476D01*
X170866571Y-108155809D01*
X171295142Y-106584380D02*
X171342761Y-106632000D01*
X171390380Y-106774857D01*
X171390380Y-106870095D01*
X171342761Y-107012952D01*
X171247523Y-107108190D01*
X171152285Y-107155809D01*
X170961809Y-107203428D01*
X170818952Y-107203428D01*
X170628476Y-107155809D01*
X170533238Y-107108190D01*
X170438000Y-107012952D01*
X170390380Y-106870095D01*
X170390380Y-106774857D01*
X170438000Y-106632000D01*
X170485619Y-106584380D01*
X171390380Y-105632000D02*
X171390380Y-106203428D01*
X171390380Y-105917714D02*
X170390380Y-105917714D01*
X170533238Y-106012952D01*
X170628476Y-106108190D01*
X170676095Y-106203428D01*
X170818952Y-105060571D02*
X170771333Y-105155809D01*
X170723714Y-105203428D01*
X170628476Y-105251047D01*
X170580857Y-105251047D01*
X170485619Y-105203428D01*
X170438000Y-105155809D01*
X170390380Y-105060571D01*
X170390380Y-104870095D01*
X170438000Y-104774857D01*
X170485619Y-104727238D01*
X170580857Y-104679619D01*
X170628476Y-104679619D01*
X170723714Y-104727238D01*
X170771333Y-104774857D01*
X170818952Y-104870095D01*
X170818952Y-105060571D01*
X170866571Y-105155809D01*
X170914190Y-105203428D01*
X171009428Y-105251047D01*
X171199904Y-105251047D01*
X171295142Y-105203428D01*
X171342761Y-105155809D01*
X171390380Y-105060571D01*
X171390380Y-104870095D01*
X171342761Y-104774857D01*
X171295142Y-104727238D01*
X171199904Y-104679619D01*
X171009428Y-104679619D01*
X170914190Y-104727238D01*
X170866571Y-104774857D01*
X170818952Y-104870095D01*
X170485619Y-104298666D02*
X170438000Y-104251047D01*
X170390380Y-104155809D01*
X170390380Y-103917714D01*
X170438000Y-103822476D01*
X170485619Y-103774857D01*
X170580857Y-103727238D01*
X170676095Y-103727238D01*
X170818952Y-103774857D01*
X171390380Y-104346285D01*
X171390380Y-103727238D01*
X171390380Y-102822476D02*
X171390380Y-103298666D01*
X170390380Y-103298666D01*
X171485619Y-102727238D02*
X171485619Y-101965333D01*
X171390380Y-101727238D02*
X170390380Y-101727238D01*
X171390380Y-101155809D01*
X170390380Y-101155809D01*
X171390380Y-100679619D02*
X170390380Y-100679619D01*
X170390380Y-100298666D01*
X170438000Y-100203428D01*
X170485619Y-100155809D01*
X170580857Y-100108190D01*
X170723714Y-100108190D01*
X170818952Y-100155809D01*
X170866571Y-100203428D01*
X170914190Y-100298666D01*
X170914190Y-100679619D01*
X171390380Y-99679619D02*
X170390380Y-99679619D01*
X171390380Y-99108190D01*
X170390380Y-99108190D01*
X169711619Y-75025238D02*
X169664000Y-75120476D01*
X169568761Y-75215714D01*
X169425904Y-75358571D01*
X169378285Y-75453809D01*
X169378285Y-75549047D01*
X169616380Y-75501428D02*
X169568761Y-75596666D01*
X169473523Y-75691904D01*
X169283047Y-75739523D01*
X168949714Y-75739523D01*
X168759238Y-75691904D01*
X168664000Y-75596666D01*
X168616380Y-75501428D01*
X168616380Y-75310952D01*
X168664000Y-75215714D01*
X168759238Y-75120476D01*
X168949714Y-75072857D01*
X169283047Y-75072857D01*
X169473523Y-75120476D01*
X169568761Y-75215714D01*
X169616380Y-75310952D01*
X169616380Y-75501428D01*
X168711619Y-74691904D02*
X168664000Y-74644285D01*
X168616380Y-74549047D01*
X168616380Y-74310952D01*
X168664000Y-74215714D01*
X168711619Y-74168095D01*
X168806857Y-74120476D01*
X168902095Y-74120476D01*
X169044952Y-74168095D01*
X169616380Y-74739523D01*
X169616380Y-74120476D01*
X170866571Y-83946476D02*
X170914190Y-83803619D01*
X170961809Y-83756000D01*
X171057047Y-83708380D01*
X171199904Y-83708380D01*
X171295142Y-83756000D01*
X171342761Y-83803619D01*
X171390380Y-83898857D01*
X171390380Y-84279809D01*
X170390380Y-84279809D01*
X170390380Y-83946476D01*
X170438000Y-83851238D01*
X170485619Y-83803619D01*
X170580857Y-83756000D01*
X170676095Y-83756000D01*
X170771333Y-83803619D01*
X170818952Y-83851238D01*
X170866571Y-83946476D01*
X170866571Y-84279809D01*
X171295142Y-82708380D02*
X171342761Y-82756000D01*
X171390380Y-82898857D01*
X171390380Y-82994095D01*
X171342761Y-83136952D01*
X171247523Y-83232190D01*
X171152285Y-83279809D01*
X170961809Y-83327428D01*
X170818952Y-83327428D01*
X170628476Y-83279809D01*
X170533238Y-83232190D01*
X170438000Y-83136952D01*
X170390380Y-82994095D01*
X170390380Y-82898857D01*
X170438000Y-82756000D01*
X170485619Y-82708380D01*
X171390380Y-81756000D02*
X171390380Y-82327428D01*
X171390380Y-82041714D02*
X170390380Y-82041714D01*
X170533238Y-82136952D01*
X170628476Y-82232190D01*
X170676095Y-82327428D01*
X170818952Y-81184571D02*
X170771333Y-81279809D01*
X170723714Y-81327428D01*
X170628476Y-81375047D01*
X170580857Y-81375047D01*
X170485619Y-81327428D01*
X170438000Y-81279809D01*
X170390380Y-81184571D01*
X170390380Y-80994095D01*
X170438000Y-80898857D01*
X170485619Y-80851238D01*
X170580857Y-80803619D01*
X170628476Y-80803619D01*
X170723714Y-80851238D01*
X170771333Y-80898857D01*
X170818952Y-80994095D01*
X170818952Y-81184571D01*
X170866571Y-81279809D01*
X170914190Y-81327428D01*
X171009428Y-81375047D01*
X171199904Y-81375047D01*
X171295142Y-81327428D01*
X171342761Y-81279809D01*
X171390380Y-81184571D01*
X171390380Y-80994095D01*
X171342761Y-80898857D01*
X171295142Y-80851238D01*
X171199904Y-80803619D01*
X171009428Y-80803619D01*
X170914190Y-80851238D01*
X170866571Y-80898857D01*
X170818952Y-80994095D01*
X170485619Y-80422666D02*
X170438000Y-80375047D01*
X170390380Y-80279809D01*
X170390380Y-80041714D01*
X170438000Y-79946476D01*
X170485619Y-79898857D01*
X170580857Y-79851238D01*
X170676095Y-79851238D01*
X170818952Y-79898857D01*
X171390380Y-80470285D01*
X171390380Y-79851238D01*
X171390380Y-78946476D02*
X171390380Y-79422666D01*
X170390380Y-79422666D01*
X171485619Y-78851238D02*
X171485619Y-78089333D01*
X171390380Y-77851238D02*
X170390380Y-77851238D01*
X171390380Y-77279809D01*
X170390380Y-77279809D01*
X171390380Y-76803619D02*
X170390380Y-76803619D01*
X170390380Y-76422666D01*
X170438000Y-76327428D01*
X170485619Y-76279809D01*
X170580857Y-76232190D01*
X170723714Y-76232190D01*
X170818952Y-76279809D01*
X170866571Y-76327428D01*
X170914190Y-76422666D01*
X170914190Y-76803619D01*
X171390380Y-75803619D02*
X170390380Y-75803619D01*
X171390380Y-75232190D01*
X170390380Y-75232190D01*
X163520380Y-102020666D02*
X163044190Y-102354000D01*
X163520380Y-102592095D02*
X162520380Y-102592095D01*
X162520380Y-102211142D01*
X162568000Y-102115904D01*
X162615619Y-102068285D01*
X162710857Y-102020666D01*
X162853714Y-102020666D01*
X162948952Y-102068285D01*
X162996571Y-102115904D01*
X163044190Y-102211142D01*
X163044190Y-102592095D01*
X163520380Y-101068285D02*
X163520380Y-101639714D01*
X163520380Y-101354000D02*
X162520380Y-101354000D01*
X162663238Y-101449238D01*
X162758476Y-101544476D01*
X162806095Y-101639714D01*
X162615619Y-100044095D02*
X162568000Y-99996476D01*
X162520380Y-99901238D01*
X162520380Y-99663142D01*
X162568000Y-99567904D01*
X162615619Y-99520285D01*
X162710857Y-99472666D01*
X162806095Y-99472666D01*
X162948952Y-99520285D01*
X163520380Y-100091714D01*
X163520380Y-99472666D01*
X162520380Y-99139333D02*
X162520380Y-98472666D01*
X163520380Y-98901238D01*
X162520380Y-97901238D02*
X162520380Y-97806000D01*
X162568000Y-97710761D01*
X162615619Y-97663142D01*
X162710857Y-97615523D01*
X162901333Y-97567904D01*
X163139428Y-97567904D01*
X163329904Y-97615523D01*
X163425142Y-97663142D01*
X163472761Y-97710761D01*
X163520380Y-97806000D01*
X163520380Y-97901238D01*
X163472761Y-97996476D01*
X163425142Y-98044095D01*
X163329904Y-98091714D01*
X163139428Y-98139333D01*
X162901333Y-98139333D01*
X162710857Y-98091714D01*
X162615619Y-98044095D01*
X162568000Y-97996476D01*
X162520380Y-97901238D01*
X119578380Y-100750666D02*
X119102190Y-101084000D01*
X119578380Y-101322095D02*
X118578380Y-101322095D01*
X118578380Y-100941142D01*
X118626000Y-100845904D01*
X118673619Y-100798285D01*
X118768857Y-100750666D01*
X118911714Y-100750666D01*
X119006952Y-100798285D01*
X119054571Y-100845904D01*
X119102190Y-100941142D01*
X119102190Y-101322095D01*
X118673619Y-100369714D02*
X118626000Y-100322095D01*
X118578380Y-100226857D01*
X118578380Y-99988761D01*
X118626000Y-99893523D01*
X118673619Y-99845904D01*
X118768857Y-99798285D01*
X118864095Y-99798285D01*
X119006952Y-99845904D01*
X119578380Y-100417333D01*
X119578380Y-99798285D01*
X119526380Y-98099428D02*
X119526380Y-98670857D01*
X119526380Y-98385142D02*
X118526380Y-98385142D01*
X118669238Y-98480380D01*
X118764476Y-98575619D01*
X118812095Y-98670857D01*
X118526380Y-97480380D02*
X118526380Y-97385142D01*
X118574000Y-97289904D01*
X118621619Y-97242285D01*
X118716857Y-97194666D01*
X118907333Y-97147047D01*
X119145428Y-97147047D01*
X119335904Y-97194666D01*
X119431142Y-97242285D01*
X119478761Y-97289904D01*
X119526380Y-97385142D01*
X119526380Y-97480380D01*
X119478761Y-97575619D01*
X119431142Y-97623238D01*
X119335904Y-97670857D01*
X119145428Y-97718476D01*
X118907333Y-97718476D01*
X118716857Y-97670857D01*
X118621619Y-97623238D01*
X118574000Y-97575619D01*
X118526380Y-97480380D01*
X118526380Y-96528000D02*
X118526380Y-96432761D01*
X118574000Y-96337523D01*
X118621619Y-96289904D01*
X118716857Y-96242285D01*
X118907333Y-96194666D01*
X119145428Y-96194666D01*
X119335904Y-96242285D01*
X119431142Y-96289904D01*
X119478761Y-96337523D01*
X119526380Y-96432761D01*
X119526380Y-96528000D01*
X119478761Y-96623238D01*
X119431142Y-96670857D01*
X119335904Y-96718476D01*
X119145428Y-96766095D01*
X118907333Y-96766095D01*
X118716857Y-96718476D01*
X118621619Y-96670857D01*
X118574000Y-96623238D01*
X118526380Y-96528000D01*
X119526380Y-95766095D02*
X118526380Y-95766095D01*
X119145428Y-95670857D02*
X119526380Y-95385142D01*
X118859714Y-95385142D02*
X119240666Y-95766095D01*
X155900380Y-101258666D02*
X155424190Y-101592000D01*
X155900380Y-101830095D02*
X154900380Y-101830095D01*
X154900380Y-101449142D01*
X154948000Y-101353904D01*
X154995619Y-101306285D01*
X155090857Y-101258666D01*
X155233714Y-101258666D01*
X155328952Y-101306285D01*
X155376571Y-101353904D01*
X155424190Y-101449142D01*
X155424190Y-101830095D01*
X154900380Y-100925333D02*
X154900380Y-100306285D01*
X155281333Y-100639619D01*
X155281333Y-100496761D01*
X155328952Y-100401523D01*
X155376571Y-100353904D01*
X155471809Y-100306285D01*
X155709904Y-100306285D01*
X155805142Y-100353904D01*
X155852761Y-100401523D01*
X155900380Y-100496761D01*
X155900380Y-100782476D01*
X155852761Y-100877714D01*
X155805142Y-100925333D01*
X155848380Y-98671047D02*
X155848380Y-99242476D01*
X155848380Y-98956761D02*
X154848380Y-98956761D01*
X154991238Y-99052000D01*
X155086476Y-99147238D01*
X155134095Y-99242476D01*
X155848380Y-98242476D02*
X154848380Y-98242476D01*
X155467428Y-98147238D02*
X155848380Y-97861523D01*
X155181714Y-97861523D02*
X155562666Y-98242476D01*
X104338380Y-99988666D02*
X103862190Y-100322000D01*
X104338380Y-100560095D02*
X103338380Y-100560095D01*
X103338380Y-100179142D01*
X103386000Y-100083904D01*
X103433619Y-100036285D01*
X103528857Y-99988666D01*
X103671714Y-99988666D01*
X103766952Y-100036285D01*
X103814571Y-100083904D01*
X103862190Y-100179142D01*
X103862190Y-100560095D01*
X103671714Y-99131523D02*
X104338380Y-99131523D01*
X103290761Y-99369619D02*
X104005047Y-99607714D01*
X104005047Y-98988666D01*
X103381619Y-98178761D02*
X103334000Y-98131142D01*
X103286380Y-98035904D01*
X103286380Y-97797809D01*
X103334000Y-97702571D01*
X103381619Y-97654952D01*
X103476857Y-97607333D01*
X103572095Y-97607333D01*
X103714952Y-97654952D01*
X104286380Y-98226380D01*
X104286380Y-97607333D01*
X104191142Y-97178761D02*
X104238761Y-97131142D01*
X104286380Y-97178761D01*
X104238761Y-97226380D01*
X104191142Y-97178761D01*
X104286380Y-97178761D01*
X103381619Y-96750190D02*
X103334000Y-96702571D01*
X103286380Y-96607333D01*
X103286380Y-96369238D01*
X103334000Y-96274000D01*
X103381619Y-96226380D01*
X103476857Y-96178761D01*
X103572095Y-96178761D01*
X103714952Y-96226380D01*
X104286380Y-96797809D01*
X104286380Y-96178761D01*
X104286380Y-95750190D02*
X103286380Y-95750190D01*
X103905428Y-95654952D02*
X104286380Y-95369238D01*
X103619714Y-95369238D02*
X104000666Y-95750190D01*
X111958380Y-99226666D02*
X111482190Y-99560000D01*
X111958380Y-99798095D02*
X110958380Y-99798095D01*
X110958380Y-99417142D01*
X111006000Y-99321904D01*
X111053619Y-99274285D01*
X111148857Y-99226666D01*
X111291714Y-99226666D01*
X111386952Y-99274285D01*
X111434571Y-99321904D01*
X111482190Y-99417142D01*
X111482190Y-99798095D01*
X110958380Y-98321904D02*
X110958380Y-98798095D01*
X111434571Y-98845714D01*
X111386952Y-98798095D01*
X111339333Y-98702857D01*
X111339333Y-98464761D01*
X111386952Y-98369523D01*
X111434571Y-98321904D01*
X111529809Y-98274285D01*
X111767904Y-98274285D01*
X111863142Y-98321904D01*
X111910761Y-98369523D01*
X111958380Y-98464761D01*
X111958380Y-98702857D01*
X111910761Y-98798095D01*
X111863142Y-98845714D01*
X111958380Y-96639047D02*
X111958380Y-97210476D01*
X111958380Y-96924761D02*
X110958380Y-96924761D01*
X111101238Y-97020000D01*
X111196476Y-97115238D01*
X111244095Y-97210476D01*
X111958380Y-96210476D02*
X110958380Y-96210476D01*
X111577428Y-96115238D02*
X111958380Y-95829523D01*
X111291714Y-95829523D02*
X111672666Y-96210476D01*
X155900380Y-77382666D02*
X155424190Y-77716000D01*
X155900380Y-77954095D02*
X154900380Y-77954095D01*
X154900380Y-77573142D01*
X154948000Y-77477904D01*
X154995619Y-77430285D01*
X155090857Y-77382666D01*
X155233714Y-77382666D01*
X155328952Y-77430285D01*
X155376571Y-77477904D01*
X155424190Y-77573142D01*
X155424190Y-77954095D01*
X154900380Y-76525523D02*
X154900380Y-76716000D01*
X154948000Y-76811238D01*
X154995619Y-76858857D01*
X155138476Y-76954095D01*
X155328952Y-77001714D01*
X155709904Y-77001714D01*
X155805142Y-76954095D01*
X155852761Y-76906476D01*
X155900380Y-76811238D01*
X155900380Y-76620761D01*
X155852761Y-76525523D01*
X155805142Y-76477904D01*
X155709904Y-76430285D01*
X155471809Y-76430285D01*
X155376571Y-76477904D01*
X155328952Y-76525523D01*
X155281333Y-76620761D01*
X155281333Y-76811238D01*
X155328952Y-76906476D01*
X155376571Y-76954095D01*
X155471809Y-77001714D01*
X155900380Y-74795047D02*
X155900380Y-75366476D01*
X155900380Y-75080761D02*
X154900380Y-75080761D01*
X155043238Y-75176000D01*
X155138476Y-75271238D01*
X155186095Y-75366476D01*
X155900380Y-74366476D02*
X154900380Y-74366476D01*
X155519428Y-74271238D02*
X155900380Y-73985523D01*
X155233714Y-73985523D02*
X155614666Y-74366476D01*
X104338380Y-78906666D02*
X103862190Y-79240000D01*
X104338380Y-79478095D02*
X103338380Y-79478095D01*
X103338380Y-79097142D01*
X103386000Y-79001904D01*
X103433619Y-78954285D01*
X103528857Y-78906666D01*
X103671714Y-78906666D01*
X103766952Y-78954285D01*
X103814571Y-79001904D01*
X103862190Y-79097142D01*
X103862190Y-79478095D01*
X103338380Y-78573333D02*
X103338380Y-77906666D01*
X104338380Y-78335238D01*
X103179619Y-76842761D02*
X103132000Y-76795142D01*
X103084380Y-76699904D01*
X103084380Y-76461809D01*
X103132000Y-76366571D01*
X103179619Y-76318952D01*
X103274857Y-76271333D01*
X103370095Y-76271333D01*
X103512952Y-76318952D01*
X104084380Y-76890380D01*
X104084380Y-76271333D01*
X103989142Y-75842761D02*
X104036761Y-75795142D01*
X104084380Y-75842761D01*
X104036761Y-75890380D01*
X103989142Y-75842761D01*
X104084380Y-75842761D01*
X103179619Y-75414190D02*
X103132000Y-75366571D01*
X103084380Y-75271333D01*
X103084380Y-75033238D01*
X103132000Y-74938000D01*
X103179619Y-74890380D01*
X103274857Y-74842761D01*
X103370095Y-74842761D01*
X103512952Y-74890380D01*
X104084380Y-75461809D01*
X104084380Y-74842761D01*
X104084380Y-74414190D02*
X103084380Y-74414190D01*
X103703428Y-74318952D02*
X104084380Y-74033238D01*
X103417714Y-74033238D02*
X103798666Y-74414190D01*
X119526380Y-79160666D02*
X119050190Y-79494000D01*
X119526380Y-79732095D02*
X118526380Y-79732095D01*
X118526380Y-79351142D01*
X118574000Y-79255904D01*
X118621619Y-79208285D01*
X118716857Y-79160666D01*
X118859714Y-79160666D01*
X118954952Y-79208285D01*
X119002571Y-79255904D01*
X119050190Y-79351142D01*
X119050190Y-79732095D01*
X119526380Y-78684476D02*
X119526380Y-78494000D01*
X119478761Y-78398761D01*
X119431142Y-78351142D01*
X119288285Y-78255904D01*
X119097809Y-78208285D01*
X118716857Y-78208285D01*
X118621619Y-78255904D01*
X118574000Y-78303523D01*
X118526380Y-78398761D01*
X118526380Y-78589238D01*
X118574000Y-78684476D01*
X118621619Y-78732095D01*
X118716857Y-78779714D01*
X118954952Y-78779714D01*
X119050190Y-78732095D01*
X119097809Y-78684476D01*
X119145428Y-78589238D01*
X119145428Y-78398761D01*
X119097809Y-78303523D01*
X119050190Y-78255904D01*
X118954952Y-78208285D01*
X119578380Y-76763428D02*
X119578380Y-77334857D01*
X119578380Y-77049142D02*
X118578380Y-77049142D01*
X118721238Y-77144380D01*
X118816476Y-77239619D01*
X118864095Y-77334857D01*
X118578380Y-76144380D02*
X118578380Y-76049142D01*
X118626000Y-75953904D01*
X118673619Y-75906285D01*
X118768857Y-75858666D01*
X118959333Y-75811047D01*
X119197428Y-75811047D01*
X119387904Y-75858666D01*
X119483142Y-75906285D01*
X119530761Y-75953904D01*
X119578380Y-76049142D01*
X119578380Y-76144380D01*
X119530761Y-76239619D01*
X119483142Y-76287238D01*
X119387904Y-76334857D01*
X119197428Y-76382476D01*
X118959333Y-76382476D01*
X118768857Y-76334857D01*
X118673619Y-76287238D01*
X118626000Y-76239619D01*
X118578380Y-76144380D01*
X118578380Y-75192000D02*
X118578380Y-75096761D01*
X118626000Y-75001523D01*
X118673619Y-74953904D01*
X118768857Y-74906285D01*
X118959333Y-74858666D01*
X119197428Y-74858666D01*
X119387904Y-74906285D01*
X119483142Y-74953904D01*
X119530761Y-75001523D01*
X119578380Y-75096761D01*
X119578380Y-75192000D01*
X119530761Y-75287238D01*
X119483142Y-75334857D01*
X119387904Y-75382476D01*
X119197428Y-75430095D01*
X118959333Y-75430095D01*
X118768857Y-75382476D01*
X118673619Y-75334857D01*
X118626000Y-75287238D01*
X118578380Y-75192000D01*
X119578380Y-74430095D02*
X118578380Y-74430095D01*
X119197428Y-74334857D02*
X119578380Y-74049142D01*
X118911714Y-74049142D02*
X119292666Y-74430095D01*
X163774380Y-79382857D02*
X163298190Y-79716190D01*
X163774380Y-79954285D02*
X162774380Y-79954285D01*
X162774380Y-79573333D01*
X162822000Y-79478095D01*
X162869619Y-79430476D01*
X162964857Y-79382857D01*
X163107714Y-79382857D01*
X163202952Y-79430476D01*
X163250571Y-79478095D01*
X163298190Y-79573333D01*
X163298190Y-79954285D01*
X163774380Y-78430476D02*
X163774380Y-79001904D01*
X163774380Y-78716190D02*
X162774380Y-78716190D01*
X162917238Y-78811428D01*
X163012476Y-78906666D01*
X163060095Y-79001904D01*
X162774380Y-77811428D02*
X162774380Y-77716190D01*
X162822000Y-77620952D01*
X162869619Y-77573333D01*
X162964857Y-77525714D01*
X163155333Y-77478095D01*
X163393428Y-77478095D01*
X163583904Y-77525714D01*
X163679142Y-77573333D01*
X163726761Y-77620952D01*
X163774380Y-77716190D01*
X163774380Y-77811428D01*
X163726761Y-77906666D01*
X163679142Y-77954285D01*
X163583904Y-78001904D01*
X163393428Y-78049523D01*
X163155333Y-78049523D01*
X162964857Y-78001904D01*
X162869619Y-77954285D01*
X162822000Y-77906666D01*
X162774380Y-77811428D01*
X162817619Y-76676095D02*
X162770000Y-76628476D01*
X162722380Y-76533238D01*
X162722380Y-76295142D01*
X162770000Y-76199904D01*
X162817619Y-76152285D01*
X162912857Y-76104666D01*
X163008095Y-76104666D01*
X163150952Y-76152285D01*
X163722380Y-76723714D01*
X163722380Y-76104666D01*
X162722380Y-75771333D02*
X162722380Y-75104666D01*
X163722380Y-75533238D01*
X162722380Y-74533238D02*
X162722380Y-74438000D01*
X162770000Y-74342761D01*
X162817619Y-74295142D01*
X162912857Y-74247523D01*
X163103333Y-74199904D01*
X163341428Y-74199904D01*
X163531904Y-74247523D01*
X163627142Y-74295142D01*
X163674761Y-74342761D01*
X163722380Y-74438000D01*
X163722380Y-74533238D01*
X163674761Y-74628476D01*
X163627142Y-74676095D01*
X163531904Y-74723714D01*
X163341428Y-74771333D01*
X163103333Y-74771333D01*
X162912857Y-74723714D01*
X162817619Y-74676095D01*
X162770000Y-74628476D01*
X162722380Y-74533238D01*
X122090380Y-102615904D02*
X122899904Y-102615904D01*
X122995142Y-102568285D01*
X123042761Y-102520666D01*
X123090380Y-102425428D01*
X123090380Y-102234952D01*
X123042761Y-102139714D01*
X122995142Y-102092095D01*
X122899904Y-102044476D01*
X122090380Y-102044476D01*
X123090380Y-101044476D02*
X123090380Y-101615904D01*
X123090380Y-101330190D02*
X122090380Y-101330190D01*
X122233238Y-101425428D01*
X122328476Y-101520666D01*
X122376095Y-101615904D01*
X135370380Y-103544476D02*
X135370380Y-104020666D01*
X134370380Y-104020666D01*
X135370380Y-103211142D02*
X134370380Y-103211142D01*
X135084666Y-102877809D01*
X134370380Y-102544476D01*
X135370380Y-102544476D01*
X134370380Y-102163523D02*
X134370380Y-101496857D01*
X135370380Y-101925428D01*
X134703714Y-100687333D02*
X135370380Y-100687333D01*
X134322761Y-100925428D02*
X135037047Y-101163523D01*
X135037047Y-100544476D01*
X135370380Y-99639714D02*
X135370380Y-100211142D01*
X135370380Y-99925428D02*
X134370380Y-99925428D01*
X134513238Y-100020666D01*
X134608476Y-100115904D01*
X134656095Y-100211142D01*
X122090380Y-80771904D02*
X122899904Y-80771904D01*
X122995142Y-80724285D01*
X123042761Y-80676666D01*
X123090380Y-80581428D01*
X123090380Y-80390952D01*
X123042761Y-80295714D01*
X122995142Y-80248095D01*
X122899904Y-80200476D01*
X122090380Y-80200476D01*
X122185619Y-79771904D02*
X122138000Y-79724285D01*
X122090380Y-79629047D01*
X122090380Y-79390952D01*
X122138000Y-79295714D01*
X122185619Y-79248095D01*
X122280857Y-79200476D01*
X122376095Y-79200476D01*
X122518952Y-79248095D01*
X123090380Y-79819523D01*
X123090380Y-79200476D01*
X135370380Y-81700476D02*
X135370380Y-82176666D01*
X134370380Y-82176666D01*
X135370380Y-81367142D02*
X134370380Y-81367142D01*
X135084666Y-81033809D01*
X134370380Y-80700476D01*
X135370380Y-80700476D01*
X134370380Y-80319523D02*
X134370380Y-79652857D01*
X135370380Y-80081428D01*
X134703714Y-78843333D02*
X135370380Y-78843333D01*
X134322761Y-79081428D02*
X135037047Y-79319523D01*
X135037047Y-78700476D01*
X135370380Y-77795714D02*
X135370380Y-78367142D01*
X135370380Y-78081428D02*
X134370380Y-78081428D01*
X134513238Y-78176666D01*
X134608476Y-78271904D01*
X134656095Y-78367142D01*
M02*
