G04 #@! TF.GenerationSoftware,KiCad,Pcbnew,5.1.4-e60b266~84~ubuntu18.04.1*
G04 #@! TF.CreationDate,2019-10-23T15:59:47+01:00*
G04 #@! TF.ProjectId,trans_switch_volt_amp,7472616e-735f-4737-9769-7463685f766f,rev?*
G04 #@! TF.SameCoordinates,Original*
G04 #@! TF.FileFunction,Soldermask,Bot*
G04 #@! TF.FilePolarity,Negative*
%FSLAX46Y46*%
G04 Gerber Fmt 4.6, Leading zero omitted, Abs format (unit mm)*
G04 Created by KiCad (PCBNEW 5.1.4-e60b266~84~ubuntu18.04.1) date 2019-10-23 15:59:47*
%MOMM*%
%LPD*%
G04 APERTURE LIST*
%ADD10C,0.100000*%
G04 APERTURE END LIST*
D10*
G36*
X164232072Y-144166918D02*
G01*
X164477939Y-144268759D01*
X164699212Y-144416610D01*
X164887390Y-144604788D01*
X165035241Y-144826061D01*
X165137082Y-145071928D01*
X165189000Y-145332938D01*
X165189000Y-145599062D01*
X165137082Y-145860072D01*
X165035241Y-146105939D01*
X164887390Y-146327212D01*
X164699212Y-146515390D01*
X164477939Y-146663241D01*
X164477938Y-146663242D01*
X164477937Y-146663242D01*
X164232072Y-146765082D01*
X163971063Y-146817000D01*
X163704937Y-146817000D01*
X163443928Y-146765082D01*
X163198063Y-146663242D01*
X163198062Y-146663242D01*
X163198061Y-146663241D01*
X162976788Y-146515390D01*
X162788610Y-146327212D01*
X162640759Y-146105939D01*
X162538918Y-145860072D01*
X162487000Y-145599062D01*
X162487000Y-145332938D01*
X162538918Y-145071928D01*
X162640759Y-144826061D01*
X162788610Y-144604788D01*
X162976788Y-144416610D01*
X163198061Y-144268759D01*
X163443928Y-144166918D01*
X163704937Y-144115000D01*
X163971063Y-144115000D01*
X164232072Y-144166918D01*
X164232072Y-144166918D01*
G37*
G36*
X108352072Y-144166918D02*
G01*
X108597939Y-144268759D01*
X108819212Y-144416610D01*
X109007390Y-144604788D01*
X109155241Y-144826061D01*
X109257082Y-145071928D01*
X109309000Y-145332938D01*
X109309000Y-145599062D01*
X109257082Y-145860072D01*
X109155241Y-146105939D01*
X109007390Y-146327212D01*
X108819212Y-146515390D01*
X108597939Y-146663241D01*
X108597938Y-146663242D01*
X108597937Y-146663242D01*
X108352072Y-146765082D01*
X108091063Y-146817000D01*
X107824937Y-146817000D01*
X107563928Y-146765082D01*
X107318063Y-146663242D01*
X107318062Y-146663242D01*
X107318061Y-146663241D01*
X107096788Y-146515390D01*
X106908610Y-146327212D01*
X106760759Y-146105939D01*
X106658918Y-145860072D01*
X106607000Y-145599062D01*
X106607000Y-145332938D01*
X106658918Y-145071928D01*
X106760759Y-144826061D01*
X106908610Y-144604788D01*
X107096788Y-144416610D01*
X107318061Y-144268759D01*
X107563928Y-144166918D01*
X107824937Y-144115000D01*
X108091063Y-144115000D01*
X108352072Y-144166918D01*
X108352072Y-144166918D01*
G37*
G36*
X140489000Y-142267000D02*
G01*
X137387000Y-142267000D01*
X137387000Y-139165000D01*
X140489000Y-139165000D01*
X140489000Y-142267000D01*
X140489000Y-142267000D01*
G37*
G36*
X84609000Y-142267000D02*
G01*
X81507000Y-142267000D01*
X81507000Y-139165000D01*
X84609000Y-139165000D01*
X84609000Y-142267000D01*
X84609000Y-142267000D01*
G37*
G36*
X139240585Y-126494802D02*
G01*
X139390410Y-126524604D01*
X139672674Y-126641521D01*
X139926705Y-126811259D01*
X140142741Y-127027295D01*
X140312479Y-127281326D01*
X140429396Y-127563590D01*
X140489000Y-127863240D01*
X140489000Y-128168760D01*
X140429396Y-128468410D01*
X140312479Y-128750674D01*
X140142741Y-129004705D01*
X139926705Y-129220741D01*
X139672674Y-129390479D01*
X139390410Y-129507396D01*
X139240585Y-129537198D01*
X139090761Y-129567000D01*
X138785239Y-129567000D01*
X138635415Y-129537198D01*
X138485590Y-129507396D01*
X138203326Y-129390479D01*
X137949295Y-129220741D01*
X137733259Y-129004705D01*
X137563521Y-128750674D01*
X137446604Y-128468410D01*
X137387000Y-128168760D01*
X137387000Y-127863240D01*
X137446604Y-127563590D01*
X137563521Y-127281326D01*
X137733259Y-127027295D01*
X137949295Y-126811259D01*
X138203326Y-126641521D01*
X138485590Y-126524604D01*
X138635415Y-126494802D01*
X138785239Y-126465000D01*
X139090761Y-126465000D01*
X139240585Y-126494802D01*
X139240585Y-126494802D01*
G37*
G36*
X83360585Y-126494802D02*
G01*
X83510410Y-126524604D01*
X83792674Y-126641521D01*
X84046705Y-126811259D01*
X84262741Y-127027295D01*
X84432479Y-127281326D01*
X84549396Y-127563590D01*
X84609000Y-127863240D01*
X84609000Y-128168760D01*
X84549396Y-128468410D01*
X84432479Y-128750674D01*
X84262741Y-129004705D01*
X84046705Y-129220741D01*
X83792674Y-129390479D01*
X83510410Y-129507396D01*
X83360585Y-129537198D01*
X83210761Y-129567000D01*
X82905239Y-129567000D01*
X82755415Y-129537198D01*
X82605590Y-129507396D01*
X82323326Y-129390479D01*
X82069295Y-129220741D01*
X81853259Y-129004705D01*
X81683521Y-128750674D01*
X81566604Y-128468410D01*
X81507000Y-128168760D01*
X81507000Y-127863240D01*
X81566604Y-127563590D01*
X81683521Y-127281326D01*
X81853259Y-127027295D01*
X82069295Y-126811259D01*
X82323326Y-126641521D01*
X82605590Y-126524604D01*
X82755415Y-126494802D01*
X82905239Y-126465000D01*
X83210761Y-126465000D01*
X83360585Y-126494802D01*
X83360585Y-126494802D01*
G37*
G36*
X178232072Y-121966918D02*
G01*
X178477939Y-122068759D01*
X178699212Y-122216610D01*
X178887390Y-122404788D01*
X179035241Y-122626061D01*
X179137082Y-122871928D01*
X179189000Y-123132938D01*
X179189000Y-123399062D01*
X179137082Y-123660072D01*
X179035241Y-123905939D01*
X178887390Y-124127212D01*
X178699212Y-124315390D01*
X178477939Y-124463241D01*
X178477938Y-124463242D01*
X178477937Y-124463242D01*
X178232072Y-124565082D01*
X177971063Y-124617000D01*
X177704937Y-124617000D01*
X177443928Y-124565082D01*
X177198063Y-124463242D01*
X177198062Y-124463242D01*
X177198061Y-124463241D01*
X176976788Y-124315390D01*
X176788610Y-124127212D01*
X176640759Y-123905939D01*
X176538918Y-123660072D01*
X176487000Y-123399062D01*
X176487000Y-123132938D01*
X176538918Y-122871928D01*
X176640759Y-122626061D01*
X176788610Y-122404788D01*
X176976788Y-122216610D01*
X177198061Y-122068759D01*
X177443928Y-121966918D01*
X177704937Y-121915000D01*
X177971063Y-121915000D01*
X178232072Y-121966918D01*
X178232072Y-121966918D01*
G37*
G36*
X122352072Y-121966918D02*
G01*
X122597939Y-122068759D01*
X122819212Y-122216610D01*
X123007390Y-122404788D01*
X123155241Y-122626061D01*
X123257082Y-122871928D01*
X123309000Y-123132938D01*
X123309000Y-123399062D01*
X123257082Y-123660072D01*
X123155241Y-123905939D01*
X123007390Y-124127212D01*
X122819212Y-124315390D01*
X122597939Y-124463241D01*
X122597938Y-124463242D01*
X122597937Y-124463242D01*
X122352072Y-124565082D01*
X122091063Y-124617000D01*
X121824937Y-124617000D01*
X121563928Y-124565082D01*
X121318063Y-124463242D01*
X121318062Y-124463242D01*
X121318061Y-124463241D01*
X121096788Y-124315390D01*
X120908610Y-124127212D01*
X120760759Y-123905939D01*
X120658918Y-123660072D01*
X120607000Y-123399062D01*
X120607000Y-123132938D01*
X120658918Y-122871928D01*
X120760759Y-122626061D01*
X120908610Y-122404788D01*
X121096788Y-122216610D01*
X121318061Y-122068759D01*
X121563928Y-121966918D01*
X121824937Y-121915000D01*
X122091063Y-121915000D01*
X122352072Y-121966918D01*
X122352072Y-121966918D01*
G37*
G36*
X94352072Y-121966918D02*
G01*
X94597939Y-122068759D01*
X94819212Y-122216610D01*
X95007390Y-122404788D01*
X95155241Y-122626061D01*
X95257082Y-122871928D01*
X95309000Y-123132938D01*
X95309000Y-123399062D01*
X95257082Y-123660072D01*
X95155241Y-123905939D01*
X95007390Y-124127212D01*
X94819212Y-124315390D01*
X94597939Y-124463241D01*
X94597938Y-124463242D01*
X94597937Y-124463242D01*
X94352072Y-124565082D01*
X94091063Y-124617000D01*
X93824937Y-124617000D01*
X93563928Y-124565082D01*
X93318063Y-124463242D01*
X93318062Y-124463242D01*
X93318061Y-124463241D01*
X93096788Y-124315390D01*
X92908610Y-124127212D01*
X92760759Y-123905939D01*
X92658918Y-123660072D01*
X92607000Y-123399062D01*
X92607000Y-123132938D01*
X92658918Y-122871928D01*
X92760759Y-122626061D01*
X92908610Y-122404788D01*
X93096788Y-122216610D01*
X93318061Y-122068759D01*
X93563928Y-121966918D01*
X93824937Y-121915000D01*
X94091063Y-121915000D01*
X94352072Y-121966918D01*
X94352072Y-121966918D01*
G37*
G36*
X150232072Y-121966918D02*
G01*
X150477939Y-122068759D01*
X150699212Y-122216610D01*
X150887390Y-122404788D01*
X151035241Y-122626061D01*
X151137082Y-122871928D01*
X151189000Y-123132938D01*
X151189000Y-123399062D01*
X151137082Y-123660072D01*
X151035241Y-123905939D01*
X150887390Y-124127212D01*
X150699212Y-124315390D01*
X150477939Y-124463241D01*
X150477938Y-124463242D01*
X150477937Y-124463242D01*
X150232072Y-124565082D01*
X149971063Y-124617000D01*
X149704937Y-124617000D01*
X149443928Y-124565082D01*
X149198063Y-124463242D01*
X149198062Y-124463242D01*
X149198061Y-124463241D01*
X148976788Y-124315390D01*
X148788610Y-124127212D01*
X148640759Y-123905939D01*
X148538918Y-123660072D01*
X148487000Y-123399062D01*
X148487000Y-123132938D01*
X148538918Y-122871928D01*
X148640759Y-122626061D01*
X148788610Y-122404788D01*
X148976788Y-122216610D01*
X149198061Y-122068759D01*
X149443928Y-121966918D01*
X149704937Y-121915000D01*
X149971063Y-121915000D01*
X150232072Y-121966918D01*
X150232072Y-121966918D01*
G37*
G36*
X94430257Y-115306299D02*
G01*
X94536580Y-115327448D01*
X94837043Y-115451904D01*
X95107452Y-115632586D01*
X95337416Y-115862550D01*
X95518098Y-116132959D01*
X95518099Y-116132961D01*
X95642554Y-116433423D01*
X95706001Y-116752390D01*
X95706001Y-117077612D01*
X95642554Y-117396579D01*
X95525513Y-117679143D01*
X95518098Y-117697043D01*
X95337416Y-117967452D01*
X95107452Y-118197416D01*
X94837043Y-118378098D01*
X94536580Y-118502554D01*
X94430257Y-118523703D01*
X94217612Y-118566001D01*
X93892390Y-118566001D01*
X93679745Y-118523703D01*
X93573422Y-118502554D01*
X93272959Y-118378098D01*
X93002550Y-118197416D01*
X92772586Y-117967452D01*
X92591904Y-117697043D01*
X92584490Y-117679143D01*
X92467448Y-117396579D01*
X92404001Y-117077612D01*
X92404001Y-116752390D01*
X92467448Y-116433423D01*
X92591903Y-116132961D01*
X92591904Y-116132959D01*
X92772586Y-115862550D01*
X93002550Y-115632586D01*
X93272959Y-115451904D01*
X93573422Y-115327448D01*
X93679745Y-115306299D01*
X93892390Y-115264001D01*
X94217612Y-115264001D01*
X94430257Y-115306299D01*
X94430257Y-115306299D01*
G37*
G36*
X176980257Y-115306299D02*
G01*
X177086580Y-115327448D01*
X177387043Y-115451904D01*
X177657452Y-115632586D01*
X177887416Y-115862550D01*
X178068098Y-116132959D01*
X178068099Y-116132961D01*
X178192554Y-116433423D01*
X178256001Y-116752390D01*
X178256001Y-117077612D01*
X178192554Y-117396579D01*
X178075513Y-117679143D01*
X178068098Y-117697043D01*
X177887416Y-117967452D01*
X177657452Y-118197416D01*
X177387043Y-118378098D01*
X177086580Y-118502554D01*
X176980257Y-118523703D01*
X176767612Y-118566001D01*
X176442390Y-118566001D01*
X176229745Y-118523703D01*
X176123422Y-118502554D01*
X175822959Y-118378098D01*
X175552550Y-118197416D01*
X175322586Y-117967452D01*
X175141904Y-117697043D01*
X175134490Y-117679143D01*
X175017448Y-117396579D01*
X174954001Y-117077612D01*
X174954001Y-116752390D01*
X175017448Y-116433423D01*
X175141903Y-116132961D01*
X175141904Y-116132959D01*
X175322586Y-115862550D01*
X175552550Y-115632586D01*
X175822959Y-115451904D01*
X176123422Y-115327448D01*
X176229745Y-115306299D01*
X176442390Y-115264001D01*
X176767612Y-115264001D01*
X176980257Y-115306299D01*
X176980257Y-115306299D01*
G37*
G36*
X136144295Y-116013634D02*
G01*
X136316696Y-116065932D01*
X136475584Y-116150859D01*
X136614850Y-116265152D01*
X136729143Y-116404418D01*
X136814070Y-116563306D01*
X136866368Y-116735707D01*
X136884026Y-116915001D01*
X136866368Y-117094295D01*
X136814070Y-117266696D01*
X136729143Y-117425584D01*
X136614850Y-117564850D01*
X136475584Y-117679143D01*
X136316696Y-117764070D01*
X136144295Y-117816368D01*
X136009932Y-117829601D01*
X135920070Y-117829601D01*
X135785707Y-117816368D01*
X135613306Y-117764070D01*
X135454418Y-117679143D01*
X135315152Y-117564850D01*
X135200859Y-117425584D01*
X135115932Y-117266696D01*
X135063634Y-117094295D01*
X135045976Y-116915001D01*
X135063634Y-116735707D01*
X135115932Y-116563306D01*
X135200859Y-116404418D01*
X135315152Y-116265152D01*
X135454418Y-116150859D01*
X135613306Y-116065932D01*
X135785707Y-116013634D01*
X135920070Y-116000401D01*
X136009932Y-116000401D01*
X136144295Y-116013634D01*
X136144295Y-116013634D01*
G37*
G36*
X123444295Y-116013634D02*
G01*
X123616696Y-116065932D01*
X123775584Y-116150859D01*
X123914850Y-116265152D01*
X124029143Y-116404418D01*
X124114070Y-116563306D01*
X124166368Y-116735707D01*
X124184026Y-116915001D01*
X124166368Y-117094295D01*
X124114070Y-117266696D01*
X124029143Y-117425584D01*
X123914850Y-117564850D01*
X123775584Y-117679143D01*
X123616696Y-117764070D01*
X123444295Y-117816368D01*
X123309932Y-117829601D01*
X123220070Y-117829601D01*
X123085707Y-117816368D01*
X122913306Y-117764070D01*
X122754418Y-117679143D01*
X122615152Y-117564850D01*
X122500859Y-117425584D01*
X122415932Y-117266696D01*
X122363634Y-117094295D01*
X122345976Y-116915001D01*
X122363634Y-116735707D01*
X122415932Y-116563306D01*
X122500859Y-116404418D01*
X122615152Y-116265152D01*
X122754418Y-116150859D01*
X122913306Y-116065932D01*
X123085707Y-116013634D01*
X123220070Y-116000401D01*
X123309932Y-116000401D01*
X123444295Y-116013634D01*
X123444295Y-116013634D01*
G37*
G36*
X138684295Y-116013634D02*
G01*
X138856696Y-116065932D01*
X139015584Y-116150859D01*
X139154850Y-116265152D01*
X139269143Y-116404418D01*
X139354070Y-116563306D01*
X139406368Y-116735707D01*
X139424026Y-116915001D01*
X139406368Y-117094295D01*
X139354070Y-117266696D01*
X139269143Y-117425584D01*
X139154850Y-117564850D01*
X139015584Y-117679143D01*
X138856696Y-117764070D01*
X138684295Y-117816368D01*
X138549932Y-117829601D01*
X138460070Y-117829601D01*
X138325707Y-117816368D01*
X138153306Y-117764070D01*
X137994418Y-117679143D01*
X137855152Y-117564850D01*
X137740859Y-117425584D01*
X137655932Y-117266696D01*
X137603634Y-117094295D01*
X137585976Y-116915001D01*
X137603634Y-116735707D01*
X137655932Y-116563306D01*
X137740859Y-116404418D01*
X137855152Y-116265152D01*
X137994418Y-116150859D01*
X138153306Y-116065932D01*
X138325707Y-116013634D01*
X138460070Y-116000401D01*
X138549932Y-116000401D01*
X138684295Y-116013634D01*
X138684295Y-116013634D01*
G37*
G36*
X146304295Y-116013634D02*
G01*
X146476696Y-116065932D01*
X146635584Y-116150859D01*
X146774850Y-116265152D01*
X146889143Y-116404418D01*
X146974070Y-116563306D01*
X147026368Y-116735707D01*
X147044026Y-116915001D01*
X147026368Y-117094295D01*
X146974070Y-117266696D01*
X146889143Y-117425584D01*
X146774850Y-117564850D01*
X146635584Y-117679143D01*
X146476696Y-117764070D01*
X146304295Y-117816368D01*
X146169932Y-117829601D01*
X146080070Y-117829601D01*
X145945707Y-117816368D01*
X145773306Y-117764070D01*
X145614418Y-117679143D01*
X145475152Y-117564850D01*
X145360859Y-117425584D01*
X145275932Y-117266696D01*
X145223634Y-117094295D01*
X145205976Y-116915001D01*
X145223634Y-116735707D01*
X145275932Y-116563306D01*
X145360859Y-116404418D01*
X145475152Y-116265152D01*
X145614418Y-116150859D01*
X145773306Y-116065932D01*
X145945707Y-116013634D01*
X146080070Y-116000401D01*
X146169932Y-116000401D01*
X146304295Y-116013634D01*
X146304295Y-116013634D01*
G37*
G36*
X118364295Y-116013634D02*
G01*
X118536696Y-116065932D01*
X118695584Y-116150859D01*
X118834850Y-116265152D01*
X118949143Y-116404418D01*
X119034070Y-116563306D01*
X119086368Y-116735707D01*
X119104026Y-116915001D01*
X119086368Y-117094295D01*
X119034070Y-117266696D01*
X118949143Y-117425584D01*
X118834850Y-117564850D01*
X118695584Y-117679143D01*
X118536696Y-117764070D01*
X118364295Y-117816368D01*
X118229932Y-117829601D01*
X118140070Y-117829601D01*
X118005707Y-117816368D01*
X117833306Y-117764070D01*
X117674418Y-117679143D01*
X117535152Y-117564850D01*
X117420859Y-117425584D01*
X117335932Y-117266696D01*
X117283634Y-117094295D01*
X117265976Y-116915001D01*
X117283634Y-116735707D01*
X117335932Y-116563306D01*
X117420859Y-116404418D01*
X117535152Y-116265152D01*
X117674418Y-116150859D01*
X117833306Y-116065932D01*
X118005707Y-116013634D01*
X118140070Y-116000401D01*
X118229932Y-116000401D01*
X118364295Y-116013634D01*
X118364295Y-116013634D01*
G37*
G36*
X115824295Y-116013634D02*
G01*
X115996696Y-116065932D01*
X116155584Y-116150859D01*
X116294850Y-116265152D01*
X116409143Y-116404418D01*
X116494070Y-116563306D01*
X116546368Y-116735707D01*
X116564026Y-116915001D01*
X116546368Y-117094295D01*
X116494070Y-117266696D01*
X116409143Y-117425584D01*
X116294850Y-117564850D01*
X116155584Y-117679143D01*
X115996696Y-117764070D01*
X115824295Y-117816368D01*
X115689932Y-117829601D01*
X115600070Y-117829601D01*
X115465707Y-117816368D01*
X115293306Y-117764070D01*
X115134418Y-117679143D01*
X114995152Y-117564850D01*
X114880859Y-117425584D01*
X114795932Y-117266696D01*
X114743634Y-117094295D01*
X114725976Y-116915001D01*
X114743634Y-116735707D01*
X114795932Y-116563306D01*
X114880859Y-116404418D01*
X114995152Y-116265152D01*
X115134418Y-116150859D01*
X115293306Y-116065932D01*
X115465707Y-116013634D01*
X115600070Y-116000401D01*
X115689932Y-116000401D01*
X115824295Y-116013634D01*
X115824295Y-116013634D01*
G37*
G36*
X113284295Y-116013634D02*
G01*
X113456696Y-116065932D01*
X113615584Y-116150859D01*
X113754850Y-116265152D01*
X113869143Y-116404418D01*
X113954070Y-116563306D01*
X114006368Y-116735707D01*
X114024026Y-116915001D01*
X114006368Y-117094295D01*
X113954070Y-117266696D01*
X113869143Y-117425584D01*
X113754850Y-117564850D01*
X113615584Y-117679143D01*
X113456696Y-117764070D01*
X113284295Y-117816368D01*
X113149932Y-117829601D01*
X113060070Y-117829601D01*
X112925707Y-117816368D01*
X112753306Y-117764070D01*
X112594418Y-117679143D01*
X112455152Y-117564850D01*
X112340859Y-117425584D01*
X112255932Y-117266696D01*
X112203634Y-117094295D01*
X112185976Y-116915001D01*
X112203634Y-116735707D01*
X112255932Y-116563306D01*
X112340859Y-116404418D01*
X112455152Y-116265152D01*
X112594418Y-116150859D01*
X112753306Y-116065932D01*
X112925707Y-116013634D01*
X113060070Y-116000401D01*
X113149932Y-116000401D01*
X113284295Y-116013634D01*
X113284295Y-116013634D01*
G37*
G36*
X110744295Y-116013634D02*
G01*
X110916696Y-116065932D01*
X111075584Y-116150859D01*
X111214850Y-116265152D01*
X111329143Y-116404418D01*
X111414070Y-116563306D01*
X111466368Y-116735707D01*
X111484026Y-116915001D01*
X111466368Y-117094295D01*
X111414070Y-117266696D01*
X111329143Y-117425584D01*
X111214850Y-117564850D01*
X111075584Y-117679143D01*
X110916696Y-117764070D01*
X110744295Y-117816368D01*
X110609932Y-117829601D01*
X110520070Y-117829601D01*
X110385707Y-117816368D01*
X110213306Y-117764070D01*
X110054418Y-117679143D01*
X109915152Y-117564850D01*
X109800859Y-117425584D01*
X109715932Y-117266696D01*
X109663634Y-117094295D01*
X109645976Y-116915001D01*
X109663634Y-116735707D01*
X109715932Y-116563306D01*
X109800859Y-116404418D01*
X109915152Y-116265152D01*
X110054418Y-116150859D01*
X110213306Y-116065932D01*
X110385707Y-116013634D01*
X110520070Y-116000401D01*
X110609932Y-116000401D01*
X110744295Y-116013634D01*
X110744295Y-116013634D01*
G37*
G36*
X143764295Y-116013634D02*
G01*
X143936696Y-116065932D01*
X144095584Y-116150859D01*
X144234850Y-116265152D01*
X144349143Y-116404418D01*
X144434070Y-116563306D01*
X144486368Y-116735707D01*
X144504026Y-116915001D01*
X144486368Y-117094295D01*
X144434070Y-117266696D01*
X144349143Y-117425584D01*
X144234850Y-117564850D01*
X144095584Y-117679143D01*
X143936696Y-117764070D01*
X143764295Y-117816368D01*
X143629932Y-117829601D01*
X143540070Y-117829601D01*
X143405707Y-117816368D01*
X143233306Y-117764070D01*
X143074418Y-117679143D01*
X142935152Y-117564850D01*
X142820859Y-117425584D01*
X142735932Y-117266696D01*
X142683634Y-117094295D01*
X142665976Y-116915001D01*
X142683634Y-116735707D01*
X142735932Y-116563306D01*
X142820859Y-116404418D01*
X142935152Y-116265152D01*
X143074418Y-116150859D01*
X143233306Y-116065932D01*
X143405707Y-116013634D01*
X143540070Y-116000401D01*
X143629932Y-116000401D01*
X143764295Y-116013634D01*
X143764295Y-116013634D01*
G37*
G36*
X156464295Y-116013634D02*
G01*
X156636696Y-116065932D01*
X156795584Y-116150859D01*
X156934850Y-116265152D01*
X157049143Y-116404418D01*
X157134070Y-116563306D01*
X157186368Y-116735707D01*
X157204026Y-116915001D01*
X157186368Y-117094295D01*
X157134070Y-117266696D01*
X157049143Y-117425584D01*
X156934850Y-117564850D01*
X156795584Y-117679143D01*
X156636696Y-117764070D01*
X156464295Y-117816368D01*
X156329932Y-117829601D01*
X156240070Y-117829601D01*
X156105707Y-117816368D01*
X155933306Y-117764070D01*
X155774418Y-117679143D01*
X155635152Y-117564850D01*
X155520859Y-117425584D01*
X155435932Y-117266696D01*
X155383634Y-117094295D01*
X155365976Y-116915001D01*
X155383634Y-116735707D01*
X155435932Y-116563306D01*
X155520859Y-116404418D01*
X155635152Y-116265152D01*
X155774418Y-116150859D01*
X155933306Y-116065932D01*
X156105707Y-116013634D01*
X156240070Y-116000401D01*
X156329932Y-116000401D01*
X156464295Y-116013634D01*
X156464295Y-116013634D01*
G37*
G36*
X153924295Y-116013634D02*
G01*
X154096696Y-116065932D01*
X154255584Y-116150859D01*
X154394850Y-116265152D01*
X154509143Y-116404418D01*
X154594070Y-116563306D01*
X154646368Y-116735707D01*
X154664026Y-116915001D01*
X154646368Y-117094295D01*
X154594070Y-117266696D01*
X154509143Y-117425584D01*
X154394850Y-117564850D01*
X154255584Y-117679143D01*
X154096696Y-117764070D01*
X153924295Y-117816368D01*
X153789932Y-117829601D01*
X153700070Y-117829601D01*
X153565707Y-117816368D01*
X153393306Y-117764070D01*
X153234418Y-117679143D01*
X153095152Y-117564850D01*
X152980859Y-117425584D01*
X152895932Y-117266696D01*
X152843634Y-117094295D01*
X152825976Y-116915001D01*
X152843634Y-116735707D01*
X152895932Y-116563306D01*
X152980859Y-116404418D01*
X153095152Y-116265152D01*
X153234418Y-116150859D01*
X153393306Y-116065932D01*
X153565707Y-116013634D01*
X153700070Y-116000401D01*
X153789932Y-116000401D01*
X153924295Y-116013634D01*
X153924295Y-116013634D01*
G37*
G36*
X148844295Y-116013634D02*
G01*
X149016696Y-116065932D01*
X149175584Y-116150859D01*
X149314850Y-116265152D01*
X149429143Y-116404418D01*
X149514070Y-116563306D01*
X149566368Y-116735707D01*
X149584026Y-116915001D01*
X149566368Y-117094295D01*
X149514070Y-117266696D01*
X149429143Y-117425584D01*
X149314850Y-117564850D01*
X149175584Y-117679143D01*
X149016696Y-117764070D01*
X148844295Y-117816368D01*
X148709932Y-117829601D01*
X148620070Y-117829601D01*
X148485707Y-117816368D01*
X148313306Y-117764070D01*
X148154418Y-117679143D01*
X148015152Y-117564850D01*
X147900859Y-117425584D01*
X147815932Y-117266696D01*
X147763634Y-117094295D01*
X147745976Y-116915001D01*
X147763634Y-116735707D01*
X147815932Y-116563306D01*
X147900859Y-116404418D01*
X148015152Y-116265152D01*
X148154418Y-116150859D01*
X148313306Y-116065932D01*
X148485707Y-116013634D01*
X148620070Y-116000401D01*
X148709932Y-116000401D01*
X148844295Y-116013634D01*
X148844295Y-116013634D01*
G37*
G36*
X133604295Y-116013634D02*
G01*
X133776696Y-116065932D01*
X133935584Y-116150859D01*
X134074850Y-116265152D01*
X134189143Y-116404418D01*
X134274070Y-116563306D01*
X134326368Y-116735707D01*
X134344026Y-116915001D01*
X134326368Y-117094295D01*
X134274070Y-117266696D01*
X134189143Y-117425584D01*
X134074850Y-117564850D01*
X133935584Y-117679143D01*
X133776696Y-117764070D01*
X133604295Y-117816368D01*
X133469932Y-117829601D01*
X133380070Y-117829601D01*
X133245707Y-117816368D01*
X133073306Y-117764070D01*
X132914418Y-117679143D01*
X132775152Y-117564850D01*
X132660859Y-117425584D01*
X132575932Y-117266696D01*
X132523634Y-117094295D01*
X132505976Y-116915001D01*
X132523634Y-116735707D01*
X132575932Y-116563306D01*
X132660859Y-116404418D01*
X132775152Y-116265152D01*
X132914418Y-116150859D01*
X133073306Y-116065932D01*
X133245707Y-116013634D01*
X133380070Y-116000401D01*
X133469932Y-116000401D01*
X133604295Y-116013634D01*
X133604295Y-116013634D01*
G37*
G36*
X108204295Y-116013634D02*
G01*
X108376696Y-116065932D01*
X108535584Y-116150859D01*
X108674850Y-116265152D01*
X108789143Y-116404418D01*
X108874070Y-116563306D01*
X108926368Y-116735707D01*
X108944026Y-116915001D01*
X108926368Y-117094295D01*
X108874070Y-117266696D01*
X108789143Y-117425584D01*
X108674850Y-117564850D01*
X108535584Y-117679143D01*
X108376696Y-117764070D01*
X108204295Y-117816368D01*
X108069932Y-117829601D01*
X107980070Y-117829601D01*
X107845707Y-117816368D01*
X107673306Y-117764070D01*
X107514418Y-117679143D01*
X107375152Y-117564850D01*
X107260859Y-117425584D01*
X107175932Y-117266696D01*
X107123634Y-117094295D01*
X107105976Y-116915001D01*
X107123634Y-116735707D01*
X107175932Y-116563306D01*
X107260859Y-116404418D01*
X107375152Y-116265152D01*
X107514418Y-116150859D01*
X107673306Y-116065932D01*
X107845707Y-116013634D01*
X107980070Y-116000401D01*
X108069932Y-116000401D01*
X108204295Y-116013634D01*
X108204295Y-116013634D01*
G37*
G36*
X120904295Y-116013634D02*
G01*
X121076696Y-116065932D01*
X121235584Y-116150859D01*
X121374850Y-116265152D01*
X121489143Y-116404418D01*
X121574070Y-116563306D01*
X121626368Y-116735707D01*
X121644026Y-116915001D01*
X121626368Y-117094295D01*
X121574070Y-117266696D01*
X121489143Y-117425584D01*
X121374850Y-117564850D01*
X121235584Y-117679143D01*
X121076696Y-117764070D01*
X120904295Y-117816368D01*
X120769932Y-117829601D01*
X120680070Y-117829601D01*
X120545707Y-117816368D01*
X120373306Y-117764070D01*
X120214418Y-117679143D01*
X120075152Y-117564850D01*
X119960859Y-117425584D01*
X119875932Y-117266696D01*
X119823634Y-117094295D01*
X119805976Y-116915001D01*
X119823634Y-116735707D01*
X119875932Y-116563306D01*
X119960859Y-116404418D01*
X120075152Y-116265152D01*
X120214418Y-116150859D01*
X120373306Y-116065932D01*
X120545707Y-116013634D01*
X120680070Y-116000401D01*
X120769932Y-116000401D01*
X120904295Y-116013634D01*
X120904295Y-116013634D01*
G37*
G36*
X125984295Y-116013634D02*
G01*
X126156696Y-116065932D01*
X126315584Y-116150859D01*
X126454850Y-116265152D01*
X126569143Y-116404418D01*
X126654070Y-116563306D01*
X126706368Y-116735707D01*
X126724026Y-116915001D01*
X126706368Y-117094295D01*
X126654070Y-117266696D01*
X126569143Y-117425584D01*
X126454850Y-117564850D01*
X126315584Y-117679143D01*
X126156696Y-117764070D01*
X125984295Y-117816368D01*
X125849932Y-117829601D01*
X125760070Y-117829601D01*
X125625707Y-117816368D01*
X125453306Y-117764070D01*
X125294418Y-117679143D01*
X125155152Y-117564850D01*
X125040859Y-117425584D01*
X124955932Y-117266696D01*
X124903634Y-117094295D01*
X124885976Y-116915001D01*
X124903634Y-116735707D01*
X124955932Y-116563306D01*
X125040859Y-116404418D01*
X125155152Y-116265152D01*
X125294418Y-116150859D01*
X125453306Y-116065932D01*
X125625707Y-116013634D01*
X125760070Y-116000401D01*
X125849932Y-116000401D01*
X125984295Y-116013634D01*
X125984295Y-116013634D01*
G37*
G36*
X131064295Y-116013634D02*
G01*
X131236696Y-116065932D01*
X131395584Y-116150859D01*
X131534850Y-116265152D01*
X131649143Y-116404418D01*
X131734070Y-116563306D01*
X131786368Y-116735707D01*
X131804026Y-116915001D01*
X131786368Y-117094295D01*
X131734070Y-117266696D01*
X131649143Y-117425584D01*
X131534850Y-117564850D01*
X131395584Y-117679143D01*
X131236696Y-117764070D01*
X131064295Y-117816368D01*
X130929932Y-117829601D01*
X130840070Y-117829601D01*
X130705707Y-117816368D01*
X130533306Y-117764070D01*
X130374418Y-117679143D01*
X130235152Y-117564850D01*
X130120859Y-117425584D01*
X130035932Y-117266696D01*
X129983634Y-117094295D01*
X129965976Y-116915001D01*
X129983634Y-116735707D01*
X130035932Y-116563306D01*
X130120859Y-116404418D01*
X130235152Y-116265152D01*
X130374418Y-116150859D01*
X130533306Y-116065932D01*
X130705707Y-116013634D01*
X130840070Y-116000401D01*
X130929932Y-116000401D01*
X131064295Y-116013634D01*
X131064295Y-116013634D01*
G37*
G36*
X161544295Y-116013634D02*
G01*
X161716696Y-116065932D01*
X161875584Y-116150859D01*
X162014850Y-116265152D01*
X162129143Y-116404418D01*
X162214070Y-116563306D01*
X162266368Y-116735707D01*
X162284026Y-116915001D01*
X162266368Y-117094295D01*
X162214070Y-117266696D01*
X162129143Y-117425584D01*
X162014850Y-117564850D01*
X161875584Y-117679143D01*
X161716696Y-117764070D01*
X161544295Y-117816368D01*
X161409932Y-117829601D01*
X161320070Y-117829601D01*
X161185707Y-117816368D01*
X161013306Y-117764070D01*
X160854418Y-117679143D01*
X160715152Y-117564850D01*
X160600859Y-117425584D01*
X160515932Y-117266696D01*
X160463634Y-117094295D01*
X160445976Y-116915001D01*
X160463634Y-116735707D01*
X160515932Y-116563306D01*
X160600859Y-116404418D01*
X160715152Y-116265152D01*
X160854418Y-116150859D01*
X161013306Y-116065932D01*
X161185707Y-116013634D01*
X161320070Y-116000401D01*
X161409932Y-116000401D01*
X161544295Y-116013634D01*
X161544295Y-116013634D01*
G37*
G36*
X164084295Y-116013634D02*
G01*
X164256696Y-116065932D01*
X164415584Y-116150859D01*
X164554850Y-116265152D01*
X164669143Y-116404418D01*
X164754070Y-116563306D01*
X164806368Y-116735707D01*
X164824026Y-116915001D01*
X164806368Y-117094295D01*
X164754070Y-117266696D01*
X164669143Y-117425584D01*
X164554850Y-117564850D01*
X164415584Y-117679143D01*
X164256696Y-117764070D01*
X164084295Y-117816368D01*
X163949932Y-117829601D01*
X163860070Y-117829601D01*
X163725707Y-117816368D01*
X163553306Y-117764070D01*
X163394418Y-117679143D01*
X163255152Y-117564850D01*
X163140859Y-117425584D01*
X163055932Y-117266696D01*
X163003634Y-117094295D01*
X162985976Y-116915001D01*
X163003634Y-116735707D01*
X163055932Y-116563306D01*
X163140859Y-116404418D01*
X163255152Y-116265152D01*
X163394418Y-116150859D01*
X163553306Y-116065932D01*
X163725707Y-116013634D01*
X163860070Y-116000401D01*
X163949932Y-116000401D01*
X164084295Y-116013634D01*
X164084295Y-116013634D01*
G37*
G36*
X166624295Y-116013634D02*
G01*
X166796696Y-116065932D01*
X166955584Y-116150859D01*
X167094850Y-116265152D01*
X167209143Y-116404418D01*
X167294070Y-116563306D01*
X167346368Y-116735707D01*
X167364026Y-116915001D01*
X167346368Y-117094295D01*
X167294070Y-117266696D01*
X167209143Y-117425584D01*
X167094850Y-117564850D01*
X166955584Y-117679143D01*
X166796696Y-117764070D01*
X166624295Y-117816368D01*
X166489932Y-117829601D01*
X166400070Y-117829601D01*
X166265707Y-117816368D01*
X166093306Y-117764070D01*
X165934418Y-117679143D01*
X165795152Y-117564850D01*
X165680859Y-117425584D01*
X165595932Y-117266696D01*
X165543634Y-117094295D01*
X165525976Y-116915001D01*
X165543634Y-116735707D01*
X165595932Y-116563306D01*
X165680859Y-116404418D01*
X165795152Y-116265152D01*
X165934418Y-116150859D01*
X166093306Y-116065932D01*
X166265707Y-116013634D01*
X166400070Y-116000401D01*
X166489932Y-116000401D01*
X166624295Y-116013634D01*
X166624295Y-116013634D01*
G37*
G36*
X169164295Y-116013634D02*
G01*
X169336696Y-116065932D01*
X169495584Y-116150859D01*
X169634850Y-116265152D01*
X169749143Y-116404418D01*
X169834070Y-116563306D01*
X169886368Y-116735707D01*
X169904026Y-116915001D01*
X169886368Y-117094295D01*
X169834070Y-117266696D01*
X169749143Y-117425584D01*
X169634850Y-117564850D01*
X169495584Y-117679143D01*
X169336696Y-117764070D01*
X169164295Y-117816368D01*
X169029932Y-117829601D01*
X168940070Y-117829601D01*
X168805707Y-117816368D01*
X168633306Y-117764070D01*
X168474418Y-117679143D01*
X168335152Y-117564850D01*
X168220859Y-117425584D01*
X168135932Y-117266696D01*
X168083634Y-117094295D01*
X168065976Y-116915001D01*
X168083634Y-116735707D01*
X168135932Y-116563306D01*
X168220859Y-116404418D01*
X168335152Y-116265152D01*
X168474418Y-116150859D01*
X168633306Y-116065932D01*
X168805707Y-116013634D01*
X168940070Y-116000401D01*
X169029932Y-116000401D01*
X169164295Y-116013634D01*
X169164295Y-116013634D01*
G37*
G36*
X171704295Y-116013634D02*
G01*
X171876696Y-116065932D01*
X172035584Y-116150859D01*
X172174850Y-116265152D01*
X172289143Y-116404418D01*
X172374070Y-116563306D01*
X172426368Y-116735707D01*
X172444026Y-116915001D01*
X172426368Y-117094295D01*
X172374070Y-117266696D01*
X172289143Y-117425584D01*
X172174850Y-117564850D01*
X172035584Y-117679143D01*
X171876696Y-117764070D01*
X171704295Y-117816368D01*
X171569932Y-117829601D01*
X171480070Y-117829601D01*
X171345707Y-117816368D01*
X171173306Y-117764070D01*
X171014418Y-117679143D01*
X170875152Y-117564850D01*
X170760859Y-117425584D01*
X170675932Y-117266696D01*
X170623634Y-117094295D01*
X170605976Y-116915001D01*
X170623634Y-116735707D01*
X170675932Y-116563306D01*
X170760859Y-116404418D01*
X170875152Y-116265152D01*
X171014418Y-116150859D01*
X171173306Y-116065932D01*
X171345707Y-116013634D01*
X171480070Y-116000401D01*
X171569932Y-116000401D01*
X171704295Y-116013634D01*
X171704295Y-116013634D01*
G37*
G36*
X159004295Y-116013634D02*
G01*
X159176696Y-116065932D01*
X159335584Y-116150859D01*
X159474850Y-116265152D01*
X159589143Y-116404418D01*
X159674070Y-116563306D01*
X159726368Y-116735707D01*
X159744026Y-116915001D01*
X159726368Y-117094295D01*
X159674070Y-117266696D01*
X159589143Y-117425584D01*
X159474850Y-117564850D01*
X159335584Y-117679143D01*
X159176696Y-117764070D01*
X159004295Y-117816368D01*
X158869932Y-117829601D01*
X158780070Y-117829601D01*
X158645707Y-117816368D01*
X158473306Y-117764070D01*
X158314418Y-117679143D01*
X158175152Y-117564850D01*
X158060859Y-117425584D01*
X157975932Y-117266696D01*
X157923634Y-117094295D01*
X157905976Y-116915001D01*
X157923634Y-116735707D01*
X157975932Y-116563306D01*
X158060859Y-116404418D01*
X158175152Y-116265152D01*
X158314418Y-116150859D01*
X158473306Y-116065932D01*
X158645707Y-116013634D01*
X158780070Y-116000401D01*
X158869932Y-116000401D01*
X159004295Y-116013634D01*
X159004295Y-116013634D01*
G37*
G36*
X141224295Y-116013634D02*
G01*
X141396696Y-116065932D01*
X141555584Y-116150859D01*
X141694850Y-116265152D01*
X141809143Y-116404418D01*
X141894070Y-116563306D01*
X141946368Y-116735707D01*
X141964026Y-116915001D01*
X141946368Y-117094295D01*
X141894070Y-117266696D01*
X141809143Y-117425584D01*
X141694850Y-117564850D01*
X141555584Y-117679143D01*
X141396696Y-117764070D01*
X141224295Y-117816368D01*
X141089932Y-117829601D01*
X141000070Y-117829601D01*
X140865707Y-117816368D01*
X140693306Y-117764070D01*
X140534418Y-117679143D01*
X140395152Y-117564850D01*
X140280859Y-117425584D01*
X140195932Y-117266696D01*
X140143634Y-117094295D01*
X140125976Y-116915001D01*
X140143634Y-116735707D01*
X140195932Y-116563306D01*
X140280859Y-116404418D01*
X140395152Y-116265152D01*
X140534418Y-116150859D01*
X140693306Y-116065932D01*
X140865707Y-116013634D01*
X141000070Y-116000401D01*
X141089932Y-116000401D01*
X141224295Y-116013634D01*
X141224295Y-116013634D01*
G37*
G36*
X146500257Y-110226299D02*
G01*
X146606580Y-110247448D01*
X146907043Y-110371904D01*
X147177452Y-110552586D01*
X147407416Y-110782550D01*
X147588098Y-111052959D01*
X147588099Y-111052961D01*
X147712554Y-111353423D01*
X147776001Y-111672390D01*
X147776001Y-111997612D01*
X147712554Y-112316579D01*
X147595513Y-112599143D01*
X147588098Y-112617043D01*
X147407416Y-112887452D01*
X147177452Y-113117416D01*
X146907043Y-113298098D01*
X146606580Y-113422554D01*
X146500257Y-113443703D01*
X146287612Y-113486001D01*
X145962390Y-113486001D01*
X145749745Y-113443703D01*
X145643422Y-113422554D01*
X145342959Y-113298098D01*
X145072550Y-113117416D01*
X144842586Y-112887452D01*
X144661904Y-112617043D01*
X144654490Y-112599143D01*
X144537448Y-112316579D01*
X144474001Y-111997612D01*
X144474001Y-111672390D01*
X144537448Y-111353423D01*
X144661903Y-111052961D01*
X144661904Y-111052959D01*
X144842586Y-110782550D01*
X145072550Y-110552586D01*
X145342959Y-110371904D01*
X145643422Y-110247448D01*
X145749745Y-110226299D01*
X145962390Y-110184001D01*
X146287612Y-110184001D01*
X146500257Y-110226299D01*
X146500257Y-110226299D01*
G37*
G36*
X174244295Y-110933634D02*
G01*
X174416696Y-110985932D01*
X174575584Y-111070859D01*
X174714850Y-111185152D01*
X174829143Y-111324418D01*
X174914070Y-111483306D01*
X174966368Y-111655707D01*
X174984026Y-111835001D01*
X174966368Y-112014295D01*
X174914070Y-112186696D01*
X174829143Y-112345584D01*
X174714850Y-112484850D01*
X174575584Y-112599143D01*
X174416696Y-112684070D01*
X174244295Y-112736368D01*
X174109932Y-112749601D01*
X174020070Y-112749601D01*
X173885707Y-112736368D01*
X173713306Y-112684070D01*
X173554418Y-112599143D01*
X173415152Y-112484850D01*
X173300859Y-112345584D01*
X173215932Y-112186696D01*
X173163634Y-112014295D01*
X173145976Y-111835001D01*
X173163634Y-111655707D01*
X173215932Y-111483306D01*
X173300859Y-111324418D01*
X173415152Y-111185152D01*
X173554418Y-111070859D01*
X173713306Y-110985932D01*
X173885707Y-110933634D01*
X174020070Y-110920401D01*
X174109932Y-110920401D01*
X174244295Y-110933634D01*
X174244295Y-110933634D01*
G37*
G36*
X176784295Y-110933634D02*
G01*
X176956696Y-110985932D01*
X177115584Y-111070859D01*
X177254850Y-111185152D01*
X177369143Y-111324418D01*
X177454070Y-111483306D01*
X177506368Y-111655707D01*
X177524026Y-111835001D01*
X177506368Y-112014295D01*
X177454070Y-112186696D01*
X177369143Y-112345584D01*
X177254850Y-112484850D01*
X177115584Y-112599143D01*
X176956696Y-112684070D01*
X176784295Y-112736368D01*
X176649932Y-112749601D01*
X176560070Y-112749601D01*
X176425707Y-112736368D01*
X176253306Y-112684070D01*
X176094418Y-112599143D01*
X175955152Y-112484850D01*
X175840859Y-112345584D01*
X175755932Y-112186696D01*
X175703634Y-112014295D01*
X175685976Y-111835001D01*
X175703634Y-111655707D01*
X175755932Y-111483306D01*
X175840859Y-111324418D01*
X175955152Y-111185152D01*
X176094418Y-111070859D01*
X176253306Y-110985932D01*
X176425707Y-110933634D01*
X176560070Y-110920401D01*
X176649932Y-110920401D01*
X176784295Y-110933634D01*
X176784295Y-110933634D01*
G37*
G36*
X174244295Y-108393634D02*
G01*
X174416696Y-108445932D01*
X174575584Y-108530859D01*
X174714850Y-108645152D01*
X174829143Y-108784418D01*
X174914070Y-108943306D01*
X174966368Y-109115707D01*
X174984026Y-109295001D01*
X174966368Y-109474295D01*
X174914070Y-109646696D01*
X174829143Y-109805584D01*
X174714850Y-109944850D01*
X174575584Y-110059143D01*
X174416696Y-110144070D01*
X174244295Y-110196368D01*
X174109932Y-110209601D01*
X174020070Y-110209601D01*
X173885707Y-110196368D01*
X173713306Y-110144070D01*
X173554418Y-110059143D01*
X173415152Y-109944850D01*
X173300859Y-109805584D01*
X173215932Y-109646696D01*
X173163634Y-109474295D01*
X173145976Y-109295001D01*
X173163634Y-109115707D01*
X173215932Y-108943306D01*
X173300859Y-108784418D01*
X173415152Y-108645152D01*
X173554418Y-108530859D01*
X173713306Y-108445932D01*
X173885707Y-108393634D01*
X174020070Y-108380401D01*
X174109932Y-108380401D01*
X174244295Y-108393634D01*
X174244295Y-108393634D01*
G37*
G36*
X176784295Y-108393634D02*
G01*
X176956696Y-108445932D01*
X177115584Y-108530859D01*
X177254850Y-108645152D01*
X177369143Y-108784418D01*
X177454070Y-108943306D01*
X177506368Y-109115707D01*
X177524026Y-109295001D01*
X177506368Y-109474295D01*
X177454070Y-109646696D01*
X177369143Y-109805584D01*
X177254850Y-109944850D01*
X177115584Y-110059143D01*
X176956696Y-110144070D01*
X176784295Y-110196368D01*
X176649932Y-110209601D01*
X176560070Y-110209601D01*
X176425707Y-110196368D01*
X176253306Y-110144070D01*
X176094418Y-110059143D01*
X175955152Y-109944850D01*
X175840859Y-109805584D01*
X175755932Y-109646696D01*
X175703634Y-109474295D01*
X175685976Y-109295001D01*
X175703634Y-109115707D01*
X175755932Y-108943306D01*
X175840859Y-108784418D01*
X175955152Y-108645152D01*
X176094418Y-108530859D01*
X176253306Y-108445932D01*
X176425707Y-108393634D01*
X176560070Y-108380401D01*
X176649932Y-108380401D01*
X176784295Y-108393634D01*
X176784295Y-108393634D01*
G37*
G36*
X152452564Y-107701389D02*
G01*
X152643833Y-107780615D01*
X152643835Y-107780616D01*
X152815973Y-107895635D01*
X152962365Y-108042027D01*
X153077385Y-108214167D01*
X153156611Y-108405436D01*
X153197000Y-108608484D01*
X153197000Y-108815516D01*
X153156611Y-109018564D01*
X153077385Y-109209833D01*
X153077384Y-109209835D01*
X152962365Y-109381973D01*
X152815973Y-109528365D01*
X152643835Y-109643384D01*
X152643834Y-109643385D01*
X152643833Y-109643385D01*
X152452564Y-109722611D01*
X152249516Y-109763000D01*
X152042484Y-109763000D01*
X151839436Y-109722611D01*
X151648167Y-109643385D01*
X151648166Y-109643385D01*
X151648165Y-109643384D01*
X151476027Y-109528365D01*
X151329635Y-109381973D01*
X151214616Y-109209835D01*
X151214615Y-109209833D01*
X151135389Y-109018564D01*
X151095000Y-108815516D01*
X151095000Y-108608484D01*
X151135389Y-108405436D01*
X151214615Y-108214167D01*
X151329635Y-108042027D01*
X151476027Y-107895635D01*
X151648165Y-107780616D01*
X151648167Y-107780615D01*
X151839436Y-107701389D01*
X152042484Y-107661000D01*
X152249516Y-107661000D01*
X152452564Y-107701389D01*
X152452564Y-107701389D01*
G37*
G36*
X160326564Y-107701389D02*
G01*
X160517833Y-107780615D01*
X160517835Y-107780616D01*
X160689973Y-107895635D01*
X160836365Y-108042027D01*
X160951385Y-108214167D01*
X161030611Y-108405436D01*
X161071000Y-108608484D01*
X161071000Y-108815516D01*
X161030611Y-109018564D01*
X160951385Y-109209833D01*
X160951384Y-109209835D01*
X160836365Y-109381973D01*
X160689973Y-109528365D01*
X160517835Y-109643384D01*
X160517834Y-109643385D01*
X160517833Y-109643385D01*
X160326564Y-109722611D01*
X160123516Y-109763000D01*
X159916484Y-109763000D01*
X159713436Y-109722611D01*
X159522167Y-109643385D01*
X159522166Y-109643385D01*
X159522165Y-109643384D01*
X159350027Y-109528365D01*
X159203635Y-109381973D01*
X159088616Y-109209835D01*
X159088615Y-109209833D01*
X159009389Y-109018564D01*
X158969000Y-108815516D01*
X158969000Y-108608484D01*
X159009389Y-108405436D01*
X159088615Y-108214167D01*
X159203635Y-108042027D01*
X159350027Y-107895635D01*
X159522165Y-107780616D01*
X159522167Y-107780615D01*
X159713436Y-107701389D01*
X159916484Y-107661000D01*
X160123516Y-107661000D01*
X160326564Y-107701389D01*
X160326564Y-107701389D01*
G37*
G36*
X89810669Y-104887686D02*
G01*
X89987058Y-104905059D01*
X90326548Y-105008042D01*
X90326550Y-105008043D01*
X90639422Y-105175277D01*
X90913661Y-105400339D01*
X91138723Y-105674578D01*
X91262385Y-105905933D01*
X91305958Y-105987452D01*
X91408941Y-106326942D01*
X91443714Y-106680000D01*
X91408941Y-107033058D01*
X91305958Y-107372548D01*
X91305957Y-107372550D01*
X91138723Y-107685422D01*
X90913661Y-107959661D01*
X90639422Y-108184723D01*
X90584336Y-108214167D01*
X90326548Y-108351958D01*
X89987058Y-108454941D01*
X89810669Y-108472314D01*
X89722476Y-108481000D01*
X86045524Y-108481000D01*
X85957331Y-108472314D01*
X85780942Y-108454941D01*
X85441452Y-108351958D01*
X85183664Y-108214167D01*
X85128578Y-108184723D01*
X84854339Y-107959661D01*
X84629277Y-107685422D01*
X84462043Y-107372550D01*
X84462042Y-107372548D01*
X84359059Y-107033058D01*
X84324286Y-106680000D01*
X84359059Y-106326942D01*
X84462042Y-105987452D01*
X84505615Y-105905933D01*
X84629277Y-105674578D01*
X84854339Y-105400339D01*
X85128578Y-105175277D01*
X85441450Y-105008043D01*
X85441452Y-105008042D01*
X85780942Y-104905059D01*
X85957331Y-104887686D01*
X86045524Y-104879000D01*
X89722476Y-104879000D01*
X89810669Y-104887686D01*
X89810669Y-104887686D01*
G37*
G36*
X176784295Y-105853634D02*
G01*
X176956696Y-105905932D01*
X177115584Y-105990859D01*
X177254850Y-106105152D01*
X177369143Y-106244418D01*
X177454070Y-106403306D01*
X177506368Y-106575707D01*
X177524026Y-106755001D01*
X177506368Y-106934295D01*
X177454070Y-107106696D01*
X177369143Y-107265584D01*
X177254850Y-107404850D01*
X177115584Y-107519143D01*
X176956696Y-107604070D01*
X176784295Y-107656368D01*
X176649932Y-107669601D01*
X176560070Y-107669601D01*
X176425707Y-107656368D01*
X176253306Y-107604070D01*
X176094418Y-107519143D01*
X175955152Y-107404850D01*
X175840859Y-107265584D01*
X175755932Y-107106696D01*
X175703634Y-106934295D01*
X175685976Y-106755001D01*
X175703634Y-106575707D01*
X175755932Y-106403306D01*
X175840859Y-106244418D01*
X175955152Y-106105152D01*
X176094418Y-105990859D01*
X176253306Y-105905932D01*
X176425707Y-105853634D01*
X176560070Y-105840401D01*
X176649932Y-105840401D01*
X176784295Y-105853634D01*
X176784295Y-105853634D01*
G37*
G36*
X174244295Y-105853634D02*
G01*
X174416696Y-105905932D01*
X174575584Y-105990859D01*
X174714850Y-106105152D01*
X174829143Y-106244418D01*
X174914070Y-106403306D01*
X174966368Y-106575707D01*
X174984026Y-106755001D01*
X174966368Y-106934295D01*
X174914070Y-107106696D01*
X174829143Y-107265584D01*
X174714850Y-107404850D01*
X174575584Y-107519143D01*
X174416696Y-107604070D01*
X174244295Y-107656368D01*
X174109932Y-107669601D01*
X174020070Y-107669601D01*
X173885707Y-107656368D01*
X173713306Y-107604070D01*
X173554418Y-107519143D01*
X173415152Y-107404850D01*
X173300859Y-107265584D01*
X173215932Y-107106696D01*
X173163634Y-106934295D01*
X173145976Y-106755001D01*
X173163634Y-106575707D01*
X173215932Y-106403306D01*
X173300859Y-106244418D01*
X173415152Y-106105152D01*
X173554418Y-105990859D01*
X173713306Y-105905932D01*
X173885707Y-105853634D01*
X174020070Y-105840401D01*
X174109932Y-105840401D01*
X174244295Y-105853634D01*
X174244295Y-105853634D01*
G37*
G36*
X108764564Y-105271389D02*
G01*
X108922379Y-105336758D01*
X108955835Y-105350616D01*
X109127973Y-105465635D01*
X109274365Y-105612027D01*
X109316160Y-105674577D01*
X109389385Y-105784167D01*
X109468611Y-105975436D01*
X109509000Y-106178484D01*
X109509000Y-106385516D01*
X109468611Y-106588564D01*
X109389385Y-106779833D01*
X109389384Y-106779835D01*
X109274365Y-106951973D01*
X109127973Y-107098365D01*
X108955835Y-107213384D01*
X108955834Y-107213385D01*
X108955833Y-107213385D01*
X108764564Y-107292611D01*
X108561516Y-107333000D01*
X108354484Y-107333000D01*
X108151436Y-107292611D01*
X107960167Y-107213385D01*
X107960166Y-107213385D01*
X107960165Y-107213384D01*
X107788027Y-107098365D01*
X107641635Y-106951973D01*
X107526616Y-106779835D01*
X107526615Y-106779833D01*
X107447389Y-106588564D01*
X107407000Y-106385516D01*
X107407000Y-106178484D01*
X107447389Y-105975436D01*
X107526615Y-105784167D01*
X107599841Y-105674577D01*
X107641635Y-105612027D01*
X107788027Y-105465635D01*
X107960165Y-105350616D01*
X107993621Y-105336758D01*
X108151436Y-105271389D01*
X108354484Y-105231000D01*
X108561516Y-105231000D01*
X108764564Y-105271389D01*
X108764564Y-105271389D01*
G37*
G36*
X100890564Y-105161389D02*
G01*
X101058620Y-105231000D01*
X101081835Y-105240616D01*
X101253973Y-105355635D01*
X101400365Y-105502027D01*
X101473865Y-105612027D01*
X101515385Y-105674167D01*
X101594611Y-105865436D01*
X101635000Y-106068484D01*
X101635000Y-106275516D01*
X101594611Y-106478564D01*
X101549047Y-106588565D01*
X101515384Y-106669835D01*
X101400365Y-106841973D01*
X101253973Y-106988365D01*
X101081835Y-107103384D01*
X101081834Y-107103385D01*
X101081833Y-107103385D01*
X100890564Y-107182611D01*
X100687516Y-107223000D01*
X100480484Y-107223000D01*
X100277436Y-107182611D01*
X100086167Y-107103385D01*
X100086166Y-107103385D01*
X100086165Y-107103384D01*
X99914027Y-106988365D01*
X99767635Y-106841973D01*
X99652616Y-106669835D01*
X99618953Y-106588565D01*
X99573389Y-106478564D01*
X99533000Y-106275516D01*
X99533000Y-106068484D01*
X99573389Y-105865436D01*
X99652615Y-105674167D01*
X99694136Y-105612027D01*
X99767635Y-105502027D01*
X99914027Y-105355635D01*
X100086165Y-105240616D01*
X100109380Y-105231000D01*
X100277436Y-105161389D01*
X100480484Y-105121000D01*
X100687516Y-105121000D01*
X100890564Y-105161389D01*
X100890564Y-105161389D01*
G37*
G36*
X116130564Y-105161389D02*
G01*
X116298620Y-105231000D01*
X116321835Y-105240616D01*
X116493973Y-105355635D01*
X116640365Y-105502027D01*
X116713865Y-105612027D01*
X116755385Y-105674167D01*
X116834611Y-105865436D01*
X116875000Y-106068484D01*
X116875000Y-106275516D01*
X116834611Y-106478564D01*
X116789047Y-106588565D01*
X116755384Y-106669835D01*
X116640365Y-106841973D01*
X116493973Y-106988365D01*
X116321835Y-107103384D01*
X116321834Y-107103385D01*
X116321833Y-107103385D01*
X116130564Y-107182611D01*
X115927516Y-107223000D01*
X115720484Y-107223000D01*
X115517436Y-107182611D01*
X115326167Y-107103385D01*
X115326166Y-107103385D01*
X115326165Y-107103384D01*
X115154027Y-106988365D01*
X115007635Y-106841973D01*
X114892616Y-106669835D01*
X114858953Y-106588565D01*
X114813389Y-106478564D01*
X114773000Y-106275516D01*
X114773000Y-106068484D01*
X114813389Y-105865436D01*
X114892615Y-105674167D01*
X114934136Y-105612027D01*
X115007635Y-105502027D01*
X115154027Y-105355635D01*
X115326165Y-105240616D01*
X115349380Y-105231000D01*
X115517436Y-105161389D01*
X115720484Y-105121000D01*
X115927516Y-105121000D01*
X116130564Y-105161389D01*
X116130564Y-105161389D01*
G37*
G36*
X168949000Y-106973000D02*
G01*
X167347000Y-106973000D01*
X167347000Y-105371000D01*
X168949000Y-105371000D01*
X168949000Y-106973000D01*
X168949000Y-106973000D01*
G37*
G36*
X130214823Y-104825313D02*
G01*
X130375242Y-104873976D01*
X130433394Y-104905059D01*
X130523078Y-104952996D01*
X130652659Y-105059341D01*
X130759004Y-105188922D01*
X130759005Y-105188924D01*
X130838024Y-105336758D01*
X130886687Y-105497177D01*
X130903117Y-105664000D01*
X130886687Y-105830823D01*
X130838024Y-105991242D01*
X130796737Y-106068484D01*
X130759004Y-106139078D01*
X130652659Y-106268659D01*
X130523078Y-106375004D01*
X130523076Y-106375005D01*
X130375242Y-106454024D01*
X130214823Y-106502687D01*
X130089804Y-106515000D01*
X130006196Y-106515000D01*
X129881177Y-106502687D01*
X129720758Y-106454024D01*
X129572924Y-106375005D01*
X129572922Y-106375004D01*
X129443341Y-106268659D01*
X129336996Y-106139078D01*
X129299263Y-106068484D01*
X129257976Y-105991242D01*
X129209313Y-105830823D01*
X129192883Y-105664000D01*
X129209313Y-105497177D01*
X129257976Y-105336758D01*
X129336995Y-105188924D01*
X129336996Y-105188922D01*
X129443341Y-105059341D01*
X129572922Y-104952996D01*
X129662606Y-104905059D01*
X129720758Y-104873976D01*
X129881177Y-104825313D01*
X130006196Y-104813000D01*
X130089804Y-104813000D01*
X130214823Y-104825313D01*
X130214823Y-104825313D01*
G37*
G36*
X125819000Y-106515000D02*
G01*
X124117000Y-106515000D01*
X124117000Y-104813000D01*
X125819000Y-104813000D01*
X125819000Y-106515000D01*
X125819000Y-106515000D01*
G37*
G36*
X127674823Y-104825313D02*
G01*
X127835242Y-104873976D01*
X127893394Y-104905059D01*
X127983078Y-104952996D01*
X128112659Y-105059341D01*
X128219004Y-105188922D01*
X128219005Y-105188924D01*
X128298024Y-105336758D01*
X128346687Y-105497177D01*
X128363117Y-105664000D01*
X128346687Y-105830823D01*
X128298024Y-105991242D01*
X128256737Y-106068484D01*
X128219004Y-106139078D01*
X128112659Y-106268659D01*
X127983078Y-106375004D01*
X127983076Y-106375005D01*
X127835242Y-106454024D01*
X127674823Y-106502687D01*
X127549804Y-106515000D01*
X127466196Y-106515000D01*
X127341177Y-106502687D01*
X127180758Y-106454024D01*
X127032924Y-106375005D01*
X127032922Y-106375004D01*
X126903341Y-106268659D01*
X126796996Y-106139078D01*
X126759263Y-106068484D01*
X126717976Y-105991242D01*
X126669313Y-105830823D01*
X126652883Y-105664000D01*
X126669313Y-105497177D01*
X126717976Y-105336758D01*
X126796995Y-105188924D01*
X126796996Y-105188922D01*
X126903341Y-105059341D01*
X127032922Y-104952996D01*
X127122606Y-104905059D01*
X127180758Y-104873976D01*
X127341177Y-104825313D01*
X127466196Y-104813000D01*
X127549804Y-104813000D01*
X127674823Y-104825313D01*
X127674823Y-104825313D01*
G37*
G36*
X132754823Y-104825313D02*
G01*
X132915242Y-104873976D01*
X132973394Y-104905059D01*
X133063078Y-104952996D01*
X133192659Y-105059341D01*
X133299004Y-105188922D01*
X133299005Y-105188924D01*
X133378024Y-105336758D01*
X133426687Y-105497177D01*
X133443117Y-105664000D01*
X133426687Y-105830823D01*
X133378024Y-105991242D01*
X133336737Y-106068484D01*
X133299004Y-106139078D01*
X133192659Y-106268659D01*
X133063078Y-106375004D01*
X133063076Y-106375005D01*
X132915242Y-106454024D01*
X132754823Y-106502687D01*
X132629804Y-106515000D01*
X132546196Y-106515000D01*
X132421177Y-106502687D01*
X132260758Y-106454024D01*
X132112924Y-106375005D01*
X132112922Y-106375004D01*
X131983341Y-106268659D01*
X131876996Y-106139078D01*
X131839263Y-106068484D01*
X131797976Y-105991242D01*
X131749313Y-105830823D01*
X131732883Y-105664000D01*
X131749313Y-105497177D01*
X131797976Y-105336758D01*
X131876995Y-105188924D01*
X131876996Y-105188922D01*
X131983341Y-105059341D01*
X132112922Y-104952996D01*
X132202606Y-104905059D01*
X132260758Y-104873976D01*
X132421177Y-104825313D01*
X132546196Y-104813000D01*
X132629804Y-104813000D01*
X132754823Y-104825313D01*
X132754823Y-104825313D01*
G37*
G36*
X176784295Y-103313634D02*
G01*
X176956696Y-103365932D01*
X177115584Y-103450859D01*
X177254850Y-103565152D01*
X177369143Y-103704418D01*
X177454070Y-103863306D01*
X177506368Y-104035707D01*
X177524026Y-104215001D01*
X177506368Y-104394295D01*
X177454070Y-104566696D01*
X177369143Y-104725584D01*
X177254850Y-104864850D01*
X177115584Y-104979143D01*
X176956696Y-105064070D01*
X176784295Y-105116368D01*
X176649932Y-105129601D01*
X176560070Y-105129601D01*
X176425707Y-105116368D01*
X176253306Y-105064070D01*
X176094418Y-104979143D01*
X175955152Y-104864850D01*
X175840859Y-104725584D01*
X175755932Y-104566696D01*
X175703634Y-104394295D01*
X175685976Y-104215001D01*
X175703634Y-104035707D01*
X175755932Y-103863306D01*
X175840859Y-103704418D01*
X175955152Y-103565152D01*
X176094418Y-103450859D01*
X176253306Y-103365932D01*
X176425707Y-103313634D01*
X176560070Y-103300401D01*
X176649932Y-103300401D01*
X176784295Y-103313634D01*
X176784295Y-103313634D01*
G37*
G36*
X174244295Y-103313634D02*
G01*
X174416696Y-103365932D01*
X174575584Y-103450859D01*
X174714850Y-103565152D01*
X174829143Y-103704418D01*
X174914070Y-103863306D01*
X174966368Y-104035707D01*
X174984026Y-104215001D01*
X174966368Y-104394295D01*
X174914070Y-104566696D01*
X174829143Y-104725584D01*
X174714850Y-104864850D01*
X174575584Y-104979143D01*
X174416696Y-105064070D01*
X174244295Y-105116368D01*
X174109932Y-105129601D01*
X174020070Y-105129601D01*
X173885707Y-105116368D01*
X173713306Y-105064070D01*
X173554418Y-104979143D01*
X173415152Y-104864850D01*
X173300859Y-104725584D01*
X173215932Y-104566696D01*
X173163634Y-104394295D01*
X173145976Y-104215001D01*
X173163634Y-104035707D01*
X173215932Y-103863306D01*
X173300859Y-103704418D01*
X173415152Y-103565152D01*
X173554418Y-103450859D01*
X173713306Y-103365932D01*
X173885707Y-103313634D01*
X174020070Y-103300401D01*
X174109932Y-103300401D01*
X174244295Y-103313634D01*
X174244295Y-103313634D01*
G37*
G36*
X93580823Y-103301313D02*
G01*
X93741242Y-103349976D01*
X93771095Y-103365933D01*
X93889078Y-103428996D01*
X94018659Y-103535341D01*
X94125004Y-103664922D01*
X94125005Y-103664924D01*
X94204024Y-103812758D01*
X94252687Y-103973177D01*
X94269117Y-104140000D01*
X94252687Y-104306823D01*
X94204024Y-104467242D01*
X94150865Y-104566696D01*
X94125004Y-104615078D01*
X94018659Y-104744659D01*
X93889078Y-104851004D01*
X93889076Y-104851005D01*
X93741242Y-104930024D01*
X93580823Y-104978687D01*
X93455804Y-104991000D01*
X92472196Y-104991000D01*
X92347177Y-104978687D01*
X92186758Y-104930024D01*
X92038924Y-104851005D01*
X92038922Y-104851004D01*
X91909341Y-104744659D01*
X91802996Y-104615078D01*
X91777135Y-104566696D01*
X91723976Y-104467242D01*
X91675313Y-104306823D01*
X91658883Y-104140000D01*
X91675313Y-103973177D01*
X91723976Y-103812758D01*
X91802995Y-103664924D01*
X91802996Y-103664922D01*
X91909341Y-103535341D01*
X92038922Y-103428996D01*
X92156905Y-103365933D01*
X92186758Y-103349976D01*
X92347177Y-103301313D01*
X92472196Y-103289000D01*
X93455804Y-103289000D01*
X93580823Y-103301313D01*
X93580823Y-103301313D01*
G37*
G36*
X165841642Y-102861781D02*
G01*
X165987414Y-102922162D01*
X165987416Y-102922163D01*
X166118608Y-103009822D01*
X166230178Y-103121392D01*
X166317837Y-103252584D01*
X166317838Y-103252586D01*
X166378219Y-103398358D01*
X166409000Y-103553107D01*
X166409000Y-103710893D01*
X166378219Y-103865642D01*
X166333677Y-103973175D01*
X166317837Y-104011416D01*
X166230178Y-104142608D01*
X166118608Y-104254178D01*
X165987416Y-104341837D01*
X165987415Y-104341838D01*
X165987414Y-104341838D01*
X165841642Y-104402219D01*
X165686893Y-104433000D01*
X165529107Y-104433000D01*
X165374358Y-104402219D01*
X165228586Y-104341838D01*
X165228585Y-104341838D01*
X165228584Y-104341837D01*
X165097392Y-104254178D01*
X164985822Y-104142608D01*
X164898163Y-104011416D01*
X164882323Y-103973175D01*
X164837781Y-103865642D01*
X164807000Y-103710893D01*
X164807000Y-103553107D01*
X164837781Y-103398358D01*
X164898162Y-103252586D01*
X164898163Y-103252584D01*
X164985822Y-103121392D01*
X165097392Y-103009822D01*
X165228584Y-102922163D01*
X165228586Y-102922162D01*
X165374358Y-102861781D01*
X165529107Y-102831000D01*
X165686893Y-102831000D01*
X165841642Y-102861781D01*
X165841642Y-102861781D01*
G37*
G36*
X176784295Y-100773634D02*
G01*
X176956696Y-100825932D01*
X177115584Y-100910859D01*
X177254850Y-101025152D01*
X177369143Y-101164418D01*
X177454070Y-101323306D01*
X177506368Y-101495707D01*
X177524026Y-101675001D01*
X177506368Y-101854295D01*
X177454070Y-102026696D01*
X177369143Y-102185584D01*
X177254850Y-102324850D01*
X177115584Y-102439143D01*
X176956696Y-102524070D01*
X176784295Y-102576368D01*
X176649932Y-102589601D01*
X176560070Y-102589601D01*
X176425707Y-102576368D01*
X176253306Y-102524070D01*
X176094418Y-102439143D01*
X175955152Y-102324850D01*
X175840859Y-102185584D01*
X175755932Y-102026696D01*
X175703634Y-101854295D01*
X175685976Y-101675001D01*
X175703634Y-101495707D01*
X175755932Y-101323306D01*
X175840859Y-101164418D01*
X175955152Y-101025152D01*
X176094418Y-100910859D01*
X176253306Y-100825932D01*
X176425707Y-100773634D01*
X176560070Y-100760401D01*
X176649932Y-100760401D01*
X176784295Y-100773634D01*
X176784295Y-100773634D01*
G37*
G36*
X174244295Y-100773634D02*
G01*
X174416696Y-100825932D01*
X174575584Y-100910859D01*
X174714850Y-101025152D01*
X174829143Y-101164418D01*
X174914070Y-101323306D01*
X174966368Y-101495707D01*
X174984026Y-101675001D01*
X174966368Y-101854295D01*
X174914070Y-102026696D01*
X174829143Y-102185584D01*
X174714850Y-102324850D01*
X174575584Y-102439143D01*
X174416696Y-102524070D01*
X174244295Y-102576368D01*
X174109932Y-102589601D01*
X174020070Y-102589601D01*
X173885707Y-102576368D01*
X173713306Y-102524070D01*
X173554418Y-102439143D01*
X173415152Y-102324850D01*
X173300859Y-102185584D01*
X173215932Y-102026696D01*
X173163634Y-101854295D01*
X173145976Y-101675001D01*
X173163634Y-101495707D01*
X173215932Y-101323306D01*
X173300859Y-101164418D01*
X173415152Y-101025152D01*
X173554418Y-100910859D01*
X173713306Y-100825932D01*
X173885707Y-100773634D01*
X174020070Y-100760401D01*
X174109932Y-100760401D01*
X174244295Y-100773634D01*
X174244295Y-100773634D01*
G37*
G36*
X93580823Y-100761313D02*
G01*
X93741242Y-100809976D01*
X93771095Y-100825933D01*
X93889078Y-100888996D01*
X94018659Y-100995341D01*
X94125004Y-101124922D01*
X94125005Y-101124924D01*
X94204024Y-101272758D01*
X94252687Y-101433177D01*
X94269117Y-101600000D01*
X94252687Y-101766823D01*
X94204024Y-101927242D01*
X94150865Y-102026696D01*
X94125004Y-102075078D01*
X94018659Y-102204659D01*
X93889078Y-102311004D01*
X93889076Y-102311005D01*
X93741242Y-102390024D01*
X93580823Y-102438687D01*
X93455804Y-102451000D01*
X92472196Y-102451000D01*
X92347177Y-102438687D01*
X92186758Y-102390024D01*
X92038924Y-102311005D01*
X92038922Y-102311004D01*
X91909341Y-102204659D01*
X91802996Y-102075078D01*
X91777135Y-102026696D01*
X91723976Y-101927242D01*
X91675313Y-101766823D01*
X91658883Y-101600000D01*
X91675313Y-101433177D01*
X91723976Y-101272758D01*
X91802995Y-101124924D01*
X91802996Y-101124922D01*
X91909341Y-100995341D01*
X92038922Y-100888996D01*
X92156905Y-100825933D01*
X92186758Y-100809976D01*
X92347177Y-100761313D01*
X92472196Y-100749000D01*
X93455804Y-100749000D01*
X93580823Y-100761313D01*
X93580823Y-100761313D01*
G37*
G36*
X168381642Y-100321781D02*
G01*
X168527414Y-100382162D01*
X168527416Y-100382163D01*
X168658608Y-100469822D01*
X168770178Y-100581392D01*
X168811599Y-100643384D01*
X168857838Y-100712586D01*
X168918219Y-100858358D01*
X168949000Y-101013107D01*
X168949000Y-101170893D01*
X168918219Y-101325642D01*
X168873677Y-101433175D01*
X168857837Y-101471416D01*
X168770178Y-101602608D01*
X168658608Y-101714178D01*
X168527416Y-101801837D01*
X168527415Y-101801838D01*
X168527414Y-101801838D01*
X168381642Y-101862219D01*
X168226893Y-101893000D01*
X168069107Y-101893000D01*
X167914358Y-101862219D01*
X167768586Y-101801838D01*
X167768585Y-101801838D01*
X167768584Y-101801837D01*
X167637392Y-101714178D01*
X167525822Y-101602608D01*
X167438163Y-101471416D01*
X167422323Y-101433175D01*
X167377781Y-101325642D01*
X167347000Y-101170893D01*
X167347000Y-101013107D01*
X167377781Y-100858358D01*
X167438162Y-100712586D01*
X167484401Y-100643384D01*
X167525822Y-100581392D01*
X167637392Y-100469822D01*
X167768584Y-100382163D01*
X167768586Y-100382162D01*
X167914358Y-100321781D01*
X168069107Y-100291000D01*
X168226893Y-100291000D01*
X168381642Y-100321781D01*
X168381642Y-100321781D01*
G37*
G36*
X160326564Y-98701389D02*
G01*
X160517833Y-98780615D01*
X160517835Y-98780616D01*
X160597767Y-98834025D01*
X160689973Y-98895635D01*
X160836365Y-99042027D01*
X160951385Y-99214167D01*
X161030611Y-99405436D01*
X161071000Y-99608484D01*
X161071000Y-99815516D01*
X161030611Y-100018564D01*
X161023236Y-100036368D01*
X160951384Y-100209835D01*
X160836365Y-100381973D01*
X160689973Y-100528365D01*
X160517835Y-100643384D01*
X160517834Y-100643385D01*
X160517833Y-100643385D01*
X160326564Y-100722611D01*
X160123516Y-100763000D01*
X159916484Y-100763000D01*
X159713436Y-100722611D01*
X159522167Y-100643385D01*
X159522166Y-100643385D01*
X159522165Y-100643384D01*
X159350027Y-100528365D01*
X159203635Y-100381973D01*
X159088616Y-100209835D01*
X159016764Y-100036368D01*
X159009389Y-100018564D01*
X158969000Y-99815516D01*
X158969000Y-99608484D01*
X159009389Y-99405436D01*
X159088615Y-99214167D01*
X159203635Y-99042027D01*
X159350027Y-98895635D01*
X159442233Y-98834025D01*
X159522165Y-98780616D01*
X159522167Y-98780615D01*
X159713436Y-98701389D01*
X159916484Y-98661000D01*
X160123516Y-98661000D01*
X160326564Y-98701389D01*
X160326564Y-98701389D01*
G37*
G36*
X152452564Y-98701389D02*
G01*
X152643833Y-98780615D01*
X152643835Y-98780616D01*
X152723767Y-98834025D01*
X152815973Y-98895635D01*
X152962365Y-99042027D01*
X153077385Y-99214167D01*
X153156611Y-99405436D01*
X153197000Y-99608484D01*
X153197000Y-99815516D01*
X153156611Y-100018564D01*
X153149236Y-100036368D01*
X153077384Y-100209835D01*
X152962365Y-100381973D01*
X152815973Y-100528365D01*
X152643835Y-100643384D01*
X152643834Y-100643385D01*
X152643833Y-100643385D01*
X152452564Y-100722611D01*
X152249516Y-100763000D01*
X152042484Y-100763000D01*
X151839436Y-100722611D01*
X151648167Y-100643385D01*
X151648166Y-100643385D01*
X151648165Y-100643384D01*
X151476027Y-100528365D01*
X151329635Y-100381973D01*
X151214616Y-100209835D01*
X151142764Y-100036368D01*
X151135389Y-100018564D01*
X151095000Y-99815516D01*
X151095000Y-99608484D01*
X151135389Y-99405436D01*
X151214615Y-99214167D01*
X151329635Y-99042027D01*
X151476027Y-98895635D01*
X151568233Y-98834025D01*
X151648165Y-98780616D01*
X151648167Y-98780615D01*
X151839436Y-98701389D01*
X152042484Y-98661000D01*
X152249516Y-98661000D01*
X152452564Y-98701389D01*
X152452564Y-98701389D01*
G37*
G36*
X176784295Y-98233634D02*
G01*
X176956696Y-98285932D01*
X177115584Y-98370859D01*
X177254850Y-98485152D01*
X177369143Y-98624418D01*
X177454070Y-98783306D01*
X177506368Y-98955707D01*
X177524026Y-99135001D01*
X177506368Y-99314295D01*
X177454070Y-99486696D01*
X177369143Y-99645584D01*
X177254850Y-99784850D01*
X177115584Y-99899143D01*
X176956696Y-99984070D01*
X176784295Y-100036368D01*
X176649932Y-100049601D01*
X176560070Y-100049601D01*
X176425707Y-100036368D01*
X176253306Y-99984070D01*
X176094418Y-99899143D01*
X175955152Y-99784850D01*
X175840859Y-99645584D01*
X175755932Y-99486696D01*
X175703634Y-99314295D01*
X175685976Y-99135001D01*
X175703634Y-98955707D01*
X175755932Y-98783306D01*
X175840859Y-98624418D01*
X175955152Y-98485152D01*
X176094418Y-98370859D01*
X176253306Y-98285932D01*
X176425707Y-98233634D01*
X176560070Y-98220401D01*
X176649932Y-98220401D01*
X176784295Y-98233634D01*
X176784295Y-98233634D01*
G37*
G36*
X174244295Y-98233634D02*
G01*
X174416696Y-98285932D01*
X174575584Y-98370859D01*
X174714850Y-98485152D01*
X174829143Y-98624418D01*
X174914070Y-98783306D01*
X174966368Y-98955707D01*
X174984026Y-99135001D01*
X174966368Y-99314295D01*
X174914070Y-99486696D01*
X174829143Y-99645584D01*
X174714850Y-99784850D01*
X174575584Y-99899143D01*
X174416696Y-99984070D01*
X174244295Y-100036368D01*
X174109932Y-100049601D01*
X174020070Y-100049601D01*
X173885707Y-100036368D01*
X173713306Y-99984070D01*
X173554418Y-99899143D01*
X173415152Y-99784850D01*
X173300859Y-99645584D01*
X173215932Y-99486696D01*
X173163634Y-99314295D01*
X173145976Y-99135001D01*
X173163634Y-98955707D01*
X173215932Y-98783306D01*
X173300859Y-98624418D01*
X173415152Y-98485152D01*
X173554418Y-98370859D01*
X173713306Y-98285932D01*
X173885707Y-98233634D01*
X174020070Y-98220401D01*
X174109932Y-98220401D01*
X174244295Y-98233634D01*
X174244295Y-98233634D01*
G37*
G36*
X130214823Y-97205313D02*
G01*
X130375242Y-97253976D01*
X130415540Y-97275516D01*
X130523078Y-97332996D01*
X130652659Y-97439341D01*
X130759004Y-97568922D01*
X130759005Y-97568924D01*
X130838024Y-97716758D01*
X130886687Y-97877177D01*
X130903117Y-98044000D01*
X130886687Y-98210823D01*
X130838024Y-98371242D01*
X130777138Y-98485152D01*
X130759004Y-98519078D01*
X130652659Y-98648659D01*
X130523078Y-98755004D01*
X130523076Y-98755005D01*
X130375242Y-98834024D01*
X130214823Y-98882687D01*
X130089804Y-98895000D01*
X130006196Y-98895000D01*
X129881177Y-98882687D01*
X129720758Y-98834024D01*
X129572924Y-98755005D01*
X129572922Y-98755004D01*
X129443341Y-98648659D01*
X129336996Y-98519078D01*
X129318862Y-98485152D01*
X129257976Y-98371242D01*
X129209313Y-98210823D01*
X129192883Y-98044000D01*
X129209313Y-97877177D01*
X129257976Y-97716758D01*
X129336995Y-97568924D01*
X129336996Y-97568922D01*
X129443341Y-97439341D01*
X129572922Y-97332996D01*
X129680460Y-97275516D01*
X129720758Y-97253976D01*
X129881177Y-97205313D01*
X130006196Y-97193000D01*
X130089804Y-97193000D01*
X130214823Y-97205313D01*
X130214823Y-97205313D01*
G37*
G36*
X132754823Y-97205313D02*
G01*
X132915242Y-97253976D01*
X132955540Y-97275516D01*
X133063078Y-97332996D01*
X133192659Y-97439341D01*
X133299004Y-97568922D01*
X133299005Y-97568924D01*
X133378024Y-97716758D01*
X133426687Y-97877177D01*
X133443117Y-98044000D01*
X133426687Y-98210823D01*
X133378024Y-98371242D01*
X133317138Y-98485152D01*
X133299004Y-98519078D01*
X133192659Y-98648659D01*
X133063078Y-98755004D01*
X133063076Y-98755005D01*
X132915242Y-98834024D01*
X132754823Y-98882687D01*
X132629804Y-98895000D01*
X132546196Y-98895000D01*
X132421177Y-98882687D01*
X132260758Y-98834024D01*
X132112924Y-98755005D01*
X132112922Y-98755004D01*
X131983341Y-98648659D01*
X131876996Y-98519078D01*
X131858862Y-98485152D01*
X131797976Y-98371242D01*
X131749313Y-98210823D01*
X131732883Y-98044000D01*
X131749313Y-97877177D01*
X131797976Y-97716758D01*
X131876995Y-97568924D01*
X131876996Y-97568922D01*
X131983341Y-97439341D01*
X132112922Y-97332996D01*
X132220460Y-97275516D01*
X132260758Y-97253976D01*
X132421177Y-97205313D01*
X132546196Y-97193000D01*
X132629804Y-97193000D01*
X132754823Y-97205313D01*
X132754823Y-97205313D01*
G37*
G36*
X127674823Y-97205313D02*
G01*
X127835242Y-97253976D01*
X127875540Y-97275516D01*
X127983078Y-97332996D01*
X128112659Y-97439341D01*
X128219004Y-97568922D01*
X128219005Y-97568924D01*
X128298024Y-97716758D01*
X128346687Y-97877177D01*
X128363117Y-98044000D01*
X128346687Y-98210823D01*
X128298024Y-98371242D01*
X128237138Y-98485152D01*
X128219004Y-98519078D01*
X128112659Y-98648659D01*
X127983078Y-98755004D01*
X127983076Y-98755005D01*
X127835242Y-98834024D01*
X127674823Y-98882687D01*
X127549804Y-98895000D01*
X127466196Y-98895000D01*
X127341177Y-98882687D01*
X127180758Y-98834024D01*
X127032924Y-98755005D01*
X127032922Y-98755004D01*
X126903341Y-98648659D01*
X126796996Y-98519078D01*
X126778862Y-98485152D01*
X126717976Y-98371242D01*
X126669313Y-98210823D01*
X126652883Y-98044000D01*
X126669313Y-97877177D01*
X126717976Y-97716758D01*
X126796995Y-97568924D01*
X126796996Y-97568922D01*
X126903341Y-97439341D01*
X127032922Y-97332996D01*
X127140460Y-97275516D01*
X127180758Y-97253976D01*
X127341177Y-97205313D01*
X127466196Y-97193000D01*
X127549804Y-97193000D01*
X127674823Y-97205313D01*
X127674823Y-97205313D01*
G37*
G36*
X125134823Y-97205313D02*
G01*
X125295242Y-97253976D01*
X125335540Y-97275516D01*
X125443078Y-97332996D01*
X125572659Y-97439341D01*
X125679004Y-97568922D01*
X125679005Y-97568924D01*
X125758024Y-97716758D01*
X125806687Y-97877177D01*
X125823117Y-98044000D01*
X125806687Y-98210823D01*
X125758024Y-98371242D01*
X125697138Y-98485152D01*
X125679004Y-98519078D01*
X125572659Y-98648659D01*
X125443078Y-98755004D01*
X125443076Y-98755005D01*
X125295242Y-98834024D01*
X125134823Y-98882687D01*
X125009804Y-98895000D01*
X124926196Y-98895000D01*
X124801177Y-98882687D01*
X124640758Y-98834024D01*
X124492924Y-98755005D01*
X124492922Y-98755004D01*
X124363341Y-98648659D01*
X124256996Y-98519078D01*
X124238862Y-98485152D01*
X124177976Y-98371242D01*
X124129313Y-98210823D01*
X124112883Y-98044000D01*
X124129313Y-97877177D01*
X124177976Y-97716758D01*
X124256995Y-97568924D01*
X124256996Y-97568922D01*
X124363341Y-97439341D01*
X124492922Y-97332996D01*
X124600460Y-97275516D01*
X124640758Y-97253976D01*
X124801177Y-97205313D01*
X124926196Y-97193000D01*
X125009804Y-97193000D01*
X125134823Y-97205313D01*
X125134823Y-97205313D01*
G37*
G36*
X108764564Y-96271389D02*
G01*
X108955833Y-96350615D01*
X108955835Y-96350616D01*
X109053252Y-96415708D01*
X109127973Y-96465635D01*
X109274365Y-96612027D01*
X109389385Y-96784167D01*
X109468611Y-96975436D01*
X109509000Y-97178484D01*
X109509000Y-97385516D01*
X109468611Y-97588564D01*
X109415511Y-97716758D01*
X109389384Y-97779835D01*
X109274365Y-97951973D01*
X109127973Y-98098365D01*
X108955835Y-98213384D01*
X108955834Y-98213385D01*
X108955833Y-98213385D01*
X108764564Y-98292611D01*
X108561516Y-98333000D01*
X108354484Y-98333000D01*
X108151436Y-98292611D01*
X107960167Y-98213385D01*
X107960166Y-98213385D01*
X107960165Y-98213384D01*
X107788027Y-98098365D01*
X107641635Y-97951973D01*
X107526616Y-97779835D01*
X107500489Y-97716758D01*
X107447389Y-97588564D01*
X107407000Y-97385516D01*
X107407000Y-97178484D01*
X107447389Y-96975436D01*
X107526615Y-96784167D01*
X107641635Y-96612027D01*
X107788027Y-96465635D01*
X107862748Y-96415708D01*
X107960165Y-96350616D01*
X107960167Y-96350615D01*
X108151436Y-96271389D01*
X108354484Y-96231000D01*
X108561516Y-96231000D01*
X108764564Y-96271389D01*
X108764564Y-96271389D01*
G37*
G36*
X89810669Y-94727686D02*
G01*
X89987058Y-94745059D01*
X90326548Y-94848042D01*
X90326550Y-94848043D01*
X90639422Y-95015277D01*
X90913661Y-95240339D01*
X91138723Y-95514578D01*
X91262385Y-95745933D01*
X91305958Y-95827452D01*
X91408941Y-96166942D01*
X91443714Y-96520000D01*
X91408941Y-96873058D01*
X91308152Y-97205314D01*
X91305957Y-97212550D01*
X91138723Y-97525422D01*
X90913661Y-97799661D01*
X90639422Y-98024723D01*
X90492256Y-98103385D01*
X90326548Y-98191958D01*
X89987058Y-98294941D01*
X89810669Y-98312314D01*
X89722476Y-98321000D01*
X86045524Y-98321000D01*
X85957331Y-98312314D01*
X85780942Y-98294941D01*
X85441452Y-98191958D01*
X85275744Y-98103385D01*
X85128578Y-98024723D01*
X84854339Y-97799661D01*
X84629277Y-97525422D01*
X84462043Y-97212550D01*
X84459848Y-97205314D01*
X84359059Y-96873058D01*
X84324286Y-96520000D01*
X84359059Y-96166942D01*
X84462042Y-95827452D01*
X84505615Y-95745933D01*
X84629277Y-95514578D01*
X84854339Y-95240339D01*
X85128578Y-95015277D01*
X85441450Y-94848043D01*
X85441452Y-94848042D01*
X85780942Y-94745059D01*
X85957331Y-94727686D01*
X86045524Y-94719000D01*
X89722476Y-94719000D01*
X89810669Y-94727686D01*
X89810669Y-94727686D01*
G37*
G36*
X100890564Y-96161389D02*
G01*
X101058620Y-96231000D01*
X101081835Y-96240616D01*
X101253973Y-96355635D01*
X101400365Y-96502027D01*
X101473865Y-96612027D01*
X101515385Y-96674167D01*
X101594611Y-96865436D01*
X101635000Y-97068484D01*
X101635000Y-97275516D01*
X101594611Y-97478564D01*
X101549047Y-97588565D01*
X101515384Y-97669835D01*
X101400365Y-97841973D01*
X101253973Y-97988365D01*
X101081835Y-98103384D01*
X101081834Y-98103385D01*
X101081833Y-98103385D01*
X100890564Y-98182611D01*
X100687516Y-98223000D01*
X100480484Y-98223000D01*
X100277436Y-98182611D01*
X100086167Y-98103385D01*
X100086166Y-98103385D01*
X100086165Y-98103384D01*
X99914027Y-97988365D01*
X99767635Y-97841973D01*
X99652616Y-97669835D01*
X99618953Y-97588565D01*
X99573389Y-97478564D01*
X99533000Y-97275516D01*
X99533000Y-97068484D01*
X99573389Y-96865436D01*
X99652615Y-96674167D01*
X99694136Y-96612027D01*
X99767635Y-96502027D01*
X99914027Y-96355635D01*
X100086165Y-96240616D01*
X100109380Y-96231000D01*
X100277436Y-96161389D01*
X100480484Y-96121000D01*
X100687516Y-96121000D01*
X100890564Y-96161389D01*
X100890564Y-96161389D01*
G37*
G36*
X116130564Y-96161389D02*
G01*
X116298620Y-96231000D01*
X116321835Y-96240616D01*
X116493973Y-96355635D01*
X116640365Y-96502027D01*
X116713865Y-96612027D01*
X116755385Y-96674167D01*
X116834611Y-96865436D01*
X116875000Y-97068484D01*
X116875000Y-97275516D01*
X116834611Y-97478564D01*
X116789047Y-97588565D01*
X116755384Y-97669835D01*
X116640365Y-97841973D01*
X116493973Y-97988365D01*
X116321835Y-98103384D01*
X116321834Y-98103385D01*
X116321833Y-98103385D01*
X116130564Y-98182611D01*
X115927516Y-98223000D01*
X115720484Y-98223000D01*
X115517436Y-98182611D01*
X115326167Y-98103385D01*
X115326166Y-98103385D01*
X115326165Y-98103384D01*
X115154027Y-97988365D01*
X115007635Y-97841973D01*
X114892616Y-97669835D01*
X114858953Y-97588565D01*
X114813389Y-97478564D01*
X114773000Y-97275516D01*
X114773000Y-97068484D01*
X114813389Y-96865436D01*
X114892615Y-96674167D01*
X114934136Y-96612027D01*
X115007635Y-96502027D01*
X115154027Y-96355635D01*
X115326165Y-96240616D01*
X115349380Y-96231000D01*
X115517436Y-96161389D01*
X115720484Y-96121000D01*
X115927516Y-96121000D01*
X116130564Y-96161389D01*
X116130564Y-96161389D01*
G37*
G36*
X174244295Y-95693634D02*
G01*
X174416696Y-95745932D01*
X174575584Y-95830859D01*
X174714850Y-95945152D01*
X174829143Y-96084418D01*
X174914070Y-96243306D01*
X174966368Y-96415707D01*
X174984026Y-96595001D01*
X174966368Y-96774295D01*
X174914070Y-96946696D01*
X174829143Y-97105584D01*
X174714850Y-97244850D01*
X174575584Y-97359143D01*
X174416696Y-97444070D01*
X174244295Y-97496368D01*
X174109932Y-97509601D01*
X174020070Y-97509601D01*
X173885707Y-97496368D01*
X173713306Y-97444070D01*
X173554418Y-97359143D01*
X173415152Y-97244850D01*
X173300859Y-97105584D01*
X173215932Y-96946696D01*
X173163634Y-96774295D01*
X173145976Y-96595001D01*
X173163634Y-96415707D01*
X173215932Y-96243306D01*
X173300859Y-96084418D01*
X173415152Y-95945152D01*
X173554418Y-95830859D01*
X173713306Y-95745932D01*
X173885707Y-95693634D01*
X174020070Y-95680401D01*
X174109932Y-95680401D01*
X174244295Y-95693634D01*
X174244295Y-95693634D01*
G37*
G36*
X176784295Y-95693634D02*
G01*
X176956696Y-95745932D01*
X177115584Y-95830859D01*
X177254850Y-95945152D01*
X177369143Y-96084418D01*
X177454070Y-96243306D01*
X177506368Y-96415707D01*
X177524026Y-96595001D01*
X177506368Y-96774295D01*
X177454070Y-96946696D01*
X177369143Y-97105584D01*
X177254850Y-97244850D01*
X177115584Y-97359143D01*
X176956696Y-97444070D01*
X176784295Y-97496368D01*
X176649932Y-97509601D01*
X176560070Y-97509601D01*
X176425707Y-97496368D01*
X176253306Y-97444070D01*
X176094418Y-97359143D01*
X175955152Y-97244850D01*
X175840859Y-97105584D01*
X175755932Y-96946696D01*
X175703634Y-96774295D01*
X175685976Y-96595001D01*
X175703634Y-96415707D01*
X175755932Y-96243306D01*
X175840859Y-96084418D01*
X175955152Y-95945152D01*
X176094418Y-95830859D01*
X176253306Y-95745932D01*
X176425707Y-95693634D01*
X176560070Y-95680401D01*
X176649932Y-95680401D01*
X176784295Y-95693634D01*
X176784295Y-95693634D01*
G37*
G36*
X174244295Y-93153634D02*
G01*
X174416696Y-93205932D01*
X174575584Y-93290859D01*
X174714850Y-93405152D01*
X174829143Y-93544418D01*
X174914070Y-93703306D01*
X174966368Y-93875707D01*
X174984026Y-94055001D01*
X174966368Y-94234295D01*
X174914070Y-94406696D01*
X174829143Y-94565584D01*
X174714850Y-94704850D01*
X174575584Y-94819143D01*
X174416696Y-94904070D01*
X174244295Y-94956368D01*
X174109932Y-94969601D01*
X174020070Y-94969601D01*
X173885707Y-94956368D01*
X173713306Y-94904070D01*
X173554418Y-94819143D01*
X173415152Y-94704850D01*
X173300859Y-94565584D01*
X173215932Y-94406696D01*
X173163634Y-94234295D01*
X173145976Y-94055001D01*
X173163634Y-93875707D01*
X173215932Y-93703306D01*
X173300859Y-93544418D01*
X173415152Y-93405152D01*
X173554418Y-93290859D01*
X173713306Y-93205932D01*
X173885707Y-93153634D01*
X174020070Y-93140401D01*
X174109932Y-93140401D01*
X174244295Y-93153634D01*
X174244295Y-93153634D01*
G37*
G36*
X176784295Y-93153634D02*
G01*
X176956696Y-93205932D01*
X177115584Y-93290859D01*
X177254850Y-93405152D01*
X177369143Y-93544418D01*
X177454070Y-93703306D01*
X177506368Y-93875707D01*
X177524026Y-94055001D01*
X177506368Y-94234295D01*
X177454070Y-94406696D01*
X177369143Y-94565584D01*
X177254850Y-94704850D01*
X177115584Y-94819143D01*
X176956696Y-94904070D01*
X176784295Y-94956368D01*
X176649932Y-94969601D01*
X176560070Y-94969601D01*
X176425707Y-94956368D01*
X176253306Y-94904070D01*
X176094418Y-94819143D01*
X175955152Y-94704850D01*
X175840859Y-94565584D01*
X175755932Y-94406696D01*
X175703634Y-94234295D01*
X175685976Y-94055001D01*
X175703634Y-93875707D01*
X175755932Y-93703306D01*
X175840859Y-93544418D01*
X175955152Y-93405152D01*
X176094418Y-93290859D01*
X176253306Y-93205932D01*
X176425707Y-93153634D01*
X176560070Y-93140401D01*
X176649932Y-93140401D01*
X176784295Y-93153634D01*
X176784295Y-93153634D01*
G37*
G36*
X146431295Y-93153634D02*
G01*
X146603696Y-93205932D01*
X146762584Y-93290859D01*
X146901850Y-93405152D01*
X147016143Y-93544418D01*
X147101070Y-93703306D01*
X147153368Y-93875707D01*
X147171026Y-94055001D01*
X147153368Y-94234295D01*
X147101070Y-94406696D01*
X147016143Y-94565584D01*
X146901850Y-94704850D01*
X146762584Y-94819143D01*
X146603696Y-94904070D01*
X146431295Y-94956368D01*
X146296932Y-94969601D01*
X146207070Y-94969601D01*
X146072707Y-94956368D01*
X145900306Y-94904070D01*
X145741418Y-94819143D01*
X145602152Y-94704850D01*
X145487859Y-94565584D01*
X145402932Y-94406696D01*
X145350634Y-94234295D01*
X145332976Y-94055001D01*
X145350634Y-93875707D01*
X145402932Y-93703306D01*
X145487859Y-93544418D01*
X145602152Y-93405152D01*
X145741418Y-93290859D01*
X145900306Y-93205932D01*
X146072707Y-93153634D01*
X146207070Y-93140401D01*
X146296932Y-93140401D01*
X146431295Y-93153634D01*
X146431295Y-93153634D01*
G37*
G36*
X143891295Y-93153634D02*
G01*
X144063696Y-93205932D01*
X144222584Y-93290859D01*
X144361850Y-93405152D01*
X144476143Y-93544418D01*
X144561070Y-93703306D01*
X144613368Y-93875707D01*
X144631026Y-94055001D01*
X144613368Y-94234295D01*
X144561070Y-94406696D01*
X144476143Y-94565584D01*
X144361850Y-94704850D01*
X144222584Y-94819143D01*
X144063696Y-94904070D01*
X143891295Y-94956368D01*
X143756932Y-94969601D01*
X143667070Y-94969601D01*
X143532707Y-94956368D01*
X143360306Y-94904070D01*
X143201418Y-94819143D01*
X143062152Y-94704850D01*
X142947859Y-94565584D01*
X142862932Y-94406696D01*
X142810634Y-94234295D01*
X142792976Y-94055001D01*
X142810634Y-93875707D01*
X142862932Y-93703306D01*
X142947859Y-93544418D01*
X143062152Y-93405152D01*
X143201418Y-93290859D01*
X143360306Y-93205932D01*
X143532707Y-93153634D01*
X143667070Y-93140401D01*
X143756932Y-93140401D01*
X143891295Y-93153634D01*
X143891295Y-93153634D01*
G37*
G36*
X174244295Y-90613634D02*
G01*
X174416696Y-90665932D01*
X174575584Y-90750859D01*
X174714850Y-90865152D01*
X174829143Y-91004418D01*
X174914070Y-91163306D01*
X174966368Y-91335707D01*
X174984026Y-91515001D01*
X174966368Y-91694295D01*
X174914070Y-91866696D01*
X174829143Y-92025584D01*
X174714850Y-92164850D01*
X174575584Y-92279143D01*
X174416696Y-92364070D01*
X174244295Y-92416368D01*
X174109932Y-92429601D01*
X174020070Y-92429601D01*
X173885707Y-92416368D01*
X173713306Y-92364070D01*
X173554418Y-92279143D01*
X173415152Y-92164850D01*
X173300859Y-92025584D01*
X173215932Y-91866696D01*
X173163634Y-91694295D01*
X173145976Y-91515001D01*
X173163634Y-91335707D01*
X173215932Y-91163306D01*
X173300859Y-91004418D01*
X173415152Y-90865152D01*
X173554418Y-90750859D01*
X173713306Y-90665932D01*
X173885707Y-90613634D01*
X174020070Y-90600401D01*
X174109932Y-90600401D01*
X174244295Y-90613634D01*
X174244295Y-90613634D01*
G37*
G36*
X143891295Y-90613634D02*
G01*
X144063696Y-90665932D01*
X144222584Y-90750859D01*
X144361850Y-90865152D01*
X144476143Y-91004418D01*
X144561070Y-91163306D01*
X144613368Y-91335707D01*
X144631026Y-91515001D01*
X144613368Y-91694295D01*
X144561070Y-91866696D01*
X144476143Y-92025584D01*
X144361850Y-92164850D01*
X144222584Y-92279143D01*
X144063696Y-92364070D01*
X143891295Y-92416368D01*
X143756932Y-92429601D01*
X143667070Y-92429601D01*
X143532707Y-92416368D01*
X143360306Y-92364070D01*
X143201418Y-92279143D01*
X143062152Y-92164850D01*
X142947859Y-92025584D01*
X142862932Y-91866696D01*
X142810634Y-91694295D01*
X142792976Y-91515001D01*
X142810634Y-91335707D01*
X142862932Y-91163306D01*
X142947859Y-91004418D01*
X143062152Y-90865152D01*
X143201418Y-90750859D01*
X143360306Y-90665932D01*
X143532707Y-90613634D01*
X143667070Y-90600401D01*
X143756932Y-90600401D01*
X143891295Y-90613634D01*
X143891295Y-90613634D01*
G37*
G36*
X176784295Y-90613634D02*
G01*
X176956696Y-90665932D01*
X177115584Y-90750859D01*
X177254850Y-90865152D01*
X177369143Y-91004418D01*
X177454070Y-91163306D01*
X177506368Y-91335707D01*
X177524026Y-91515001D01*
X177506368Y-91694295D01*
X177454070Y-91866696D01*
X177369143Y-92025584D01*
X177254850Y-92164850D01*
X177115584Y-92279143D01*
X176956696Y-92364070D01*
X176784295Y-92416368D01*
X176649932Y-92429601D01*
X176560070Y-92429601D01*
X176425707Y-92416368D01*
X176253306Y-92364070D01*
X176094418Y-92279143D01*
X175955152Y-92164850D01*
X175840859Y-92025584D01*
X175755932Y-91866696D01*
X175703634Y-91694295D01*
X175685976Y-91515001D01*
X175703634Y-91335707D01*
X175755932Y-91163306D01*
X175840859Y-91004418D01*
X175955152Y-90865152D01*
X176094418Y-90750859D01*
X176253306Y-90665932D01*
X176425707Y-90613634D01*
X176560070Y-90600401D01*
X176649932Y-90600401D01*
X176784295Y-90613634D01*
X176784295Y-90613634D01*
G37*
G36*
X146431295Y-90613634D02*
G01*
X146603696Y-90665932D01*
X146762584Y-90750859D01*
X146901850Y-90865152D01*
X147016143Y-91004418D01*
X147101070Y-91163306D01*
X147153368Y-91335707D01*
X147171026Y-91515001D01*
X147153368Y-91694295D01*
X147101070Y-91866696D01*
X147016143Y-92025584D01*
X146901850Y-92164850D01*
X146762584Y-92279143D01*
X146603696Y-92364070D01*
X146431295Y-92416368D01*
X146296932Y-92429601D01*
X146207070Y-92429601D01*
X146072707Y-92416368D01*
X145900306Y-92364070D01*
X145741418Y-92279143D01*
X145602152Y-92164850D01*
X145487859Y-92025584D01*
X145402932Y-91866696D01*
X145350634Y-91694295D01*
X145332976Y-91515001D01*
X145350634Y-91335707D01*
X145402932Y-91163306D01*
X145487859Y-91004418D01*
X145602152Y-90865152D01*
X145741418Y-90750859D01*
X145900306Y-90665932D01*
X146072707Y-90613634D01*
X146207070Y-90600401D01*
X146296932Y-90600401D01*
X146431295Y-90613634D01*
X146431295Y-90613634D01*
G37*
G36*
X143891295Y-88073634D02*
G01*
X144063696Y-88125932D01*
X144222584Y-88210859D01*
X144361850Y-88325152D01*
X144476143Y-88464418D01*
X144561070Y-88623306D01*
X144613368Y-88795707D01*
X144631026Y-88975001D01*
X144613368Y-89154295D01*
X144561070Y-89326696D01*
X144476143Y-89485584D01*
X144361850Y-89624850D01*
X144222584Y-89739143D01*
X144063696Y-89824070D01*
X143891295Y-89876368D01*
X143756932Y-89889601D01*
X143667070Y-89889601D01*
X143532707Y-89876368D01*
X143360306Y-89824070D01*
X143201418Y-89739143D01*
X143062152Y-89624850D01*
X142947859Y-89485584D01*
X142862932Y-89326696D01*
X142810634Y-89154295D01*
X142792976Y-88975001D01*
X142810634Y-88795707D01*
X142862932Y-88623306D01*
X142947859Y-88464418D01*
X143062152Y-88325152D01*
X143201418Y-88210859D01*
X143360306Y-88125932D01*
X143532707Y-88073634D01*
X143667070Y-88060401D01*
X143756932Y-88060401D01*
X143891295Y-88073634D01*
X143891295Y-88073634D01*
G37*
G36*
X176784295Y-88073634D02*
G01*
X176956696Y-88125932D01*
X177115584Y-88210859D01*
X177254850Y-88325152D01*
X177369143Y-88464418D01*
X177454070Y-88623306D01*
X177506368Y-88795707D01*
X177524026Y-88975001D01*
X177506368Y-89154295D01*
X177454070Y-89326696D01*
X177369143Y-89485584D01*
X177254850Y-89624850D01*
X177115584Y-89739143D01*
X176956696Y-89824070D01*
X176784295Y-89876368D01*
X176649932Y-89889601D01*
X176560070Y-89889601D01*
X176425707Y-89876368D01*
X176253306Y-89824070D01*
X176094418Y-89739143D01*
X175955152Y-89624850D01*
X175840859Y-89485584D01*
X175755932Y-89326696D01*
X175703634Y-89154295D01*
X175685976Y-88975001D01*
X175703634Y-88795707D01*
X175755932Y-88623306D01*
X175840859Y-88464418D01*
X175955152Y-88325152D01*
X176094418Y-88210859D01*
X176253306Y-88125932D01*
X176425707Y-88073634D01*
X176560070Y-88060401D01*
X176649932Y-88060401D01*
X176784295Y-88073634D01*
X176784295Y-88073634D01*
G37*
G36*
X146431295Y-88073634D02*
G01*
X146603696Y-88125932D01*
X146762584Y-88210859D01*
X146901850Y-88325152D01*
X147016143Y-88464418D01*
X147101070Y-88623306D01*
X147153368Y-88795707D01*
X147171026Y-88975001D01*
X147153368Y-89154295D01*
X147101070Y-89326696D01*
X147016143Y-89485584D01*
X146901850Y-89624850D01*
X146762584Y-89739143D01*
X146603696Y-89824070D01*
X146431295Y-89876368D01*
X146296932Y-89889601D01*
X146207070Y-89889601D01*
X146072707Y-89876368D01*
X145900306Y-89824070D01*
X145741418Y-89739143D01*
X145602152Y-89624850D01*
X145487859Y-89485584D01*
X145402932Y-89326696D01*
X145350634Y-89154295D01*
X145332976Y-88975001D01*
X145350634Y-88795707D01*
X145402932Y-88623306D01*
X145487859Y-88464418D01*
X145602152Y-88325152D01*
X145741418Y-88210859D01*
X145900306Y-88125932D01*
X146072707Y-88073634D01*
X146207070Y-88060401D01*
X146296932Y-88060401D01*
X146431295Y-88073634D01*
X146431295Y-88073634D01*
G37*
G36*
X174244295Y-88073634D02*
G01*
X174416696Y-88125932D01*
X174575584Y-88210859D01*
X174714850Y-88325152D01*
X174829143Y-88464418D01*
X174914070Y-88623306D01*
X174966368Y-88795707D01*
X174984026Y-88975001D01*
X174966368Y-89154295D01*
X174914070Y-89326696D01*
X174829143Y-89485584D01*
X174714850Y-89624850D01*
X174575584Y-89739143D01*
X174416696Y-89824070D01*
X174244295Y-89876368D01*
X174109932Y-89889601D01*
X174020070Y-89889601D01*
X173885707Y-89876368D01*
X173713306Y-89824070D01*
X173554418Y-89739143D01*
X173415152Y-89624850D01*
X173300859Y-89485584D01*
X173215932Y-89326696D01*
X173163634Y-89154295D01*
X173145976Y-88975001D01*
X173163634Y-88795707D01*
X173215932Y-88623306D01*
X173300859Y-88464418D01*
X173415152Y-88325152D01*
X173554418Y-88210859D01*
X173713306Y-88125932D01*
X173885707Y-88073634D01*
X174020070Y-88060401D01*
X174109932Y-88060401D01*
X174244295Y-88073634D01*
X174244295Y-88073634D01*
G37*
G36*
X89789588Y-84057610D02*
G01*
X89987058Y-84077059D01*
X90326548Y-84180042D01*
X90326550Y-84180043D01*
X90639422Y-84347277D01*
X90913661Y-84572339D01*
X91138723Y-84846578D01*
X91192640Y-84947450D01*
X91305958Y-85159452D01*
X91408941Y-85498942D01*
X91443714Y-85852000D01*
X91408941Y-86205058D01*
X91305958Y-86544548D01*
X91305957Y-86544550D01*
X91138723Y-86857422D01*
X90913661Y-87131661D01*
X90639422Y-87356723D01*
X90326550Y-87523957D01*
X90326548Y-87523958D01*
X89987058Y-87626941D01*
X89810669Y-87644314D01*
X89722476Y-87653000D01*
X86045524Y-87653000D01*
X85957331Y-87644314D01*
X85780942Y-87626941D01*
X85441452Y-87523958D01*
X85441450Y-87523957D01*
X85128578Y-87356723D01*
X84854339Y-87131661D01*
X84629277Y-86857422D01*
X84462043Y-86544550D01*
X84462042Y-86544548D01*
X84359059Y-86205058D01*
X84324286Y-85852000D01*
X84359059Y-85498942D01*
X84462042Y-85159452D01*
X84575360Y-84947450D01*
X84629277Y-84846578D01*
X84854339Y-84572339D01*
X85128578Y-84347277D01*
X85441450Y-84180043D01*
X85441452Y-84180042D01*
X85780942Y-84077059D01*
X85978412Y-84057610D01*
X86045524Y-84051000D01*
X89722476Y-84051000D01*
X89789588Y-84057610D01*
X89789588Y-84057610D01*
G37*
G36*
X176784295Y-85533634D02*
G01*
X176956696Y-85585932D01*
X177115584Y-85670859D01*
X177254850Y-85785152D01*
X177369143Y-85924418D01*
X177454070Y-86083306D01*
X177506368Y-86255707D01*
X177524026Y-86435001D01*
X177506368Y-86614295D01*
X177454070Y-86786696D01*
X177369143Y-86945584D01*
X177254850Y-87084850D01*
X177115584Y-87199143D01*
X176956696Y-87284070D01*
X176784295Y-87336368D01*
X176649932Y-87349601D01*
X176560070Y-87349601D01*
X176425707Y-87336368D01*
X176253306Y-87284070D01*
X176094418Y-87199143D01*
X175955152Y-87084850D01*
X175840859Y-86945584D01*
X175755932Y-86786696D01*
X175703634Y-86614295D01*
X175685976Y-86435001D01*
X175703634Y-86255707D01*
X175755932Y-86083306D01*
X175840859Y-85924418D01*
X175955152Y-85785152D01*
X176094418Y-85670859D01*
X176253306Y-85585932D01*
X176425707Y-85533634D01*
X176560070Y-85520401D01*
X176649932Y-85520401D01*
X176784295Y-85533634D01*
X176784295Y-85533634D01*
G37*
G36*
X174244295Y-85533634D02*
G01*
X174416696Y-85585932D01*
X174575584Y-85670859D01*
X174714850Y-85785152D01*
X174829143Y-85924418D01*
X174914070Y-86083306D01*
X174966368Y-86255707D01*
X174984026Y-86435001D01*
X174966368Y-86614295D01*
X174914070Y-86786696D01*
X174829143Y-86945584D01*
X174714850Y-87084850D01*
X174575584Y-87199143D01*
X174416696Y-87284070D01*
X174244295Y-87336368D01*
X174109932Y-87349601D01*
X174020070Y-87349601D01*
X173885707Y-87336368D01*
X173713306Y-87284070D01*
X173554418Y-87199143D01*
X173415152Y-87084850D01*
X173300859Y-86945584D01*
X173215932Y-86786696D01*
X173163634Y-86614295D01*
X173145976Y-86435001D01*
X173163634Y-86255707D01*
X173215932Y-86083306D01*
X173300859Y-85924418D01*
X173415152Y-85785152D01*
X173554418Y-85670859D01*
X173713306Y-85585932D01*
X173885707Y-85533634D01*
X174020070Y-85520401D01*
X174109932Y-85520401D01*
X174244295Y-85533634D01*
X174244295Y-85533634D01*
G37*
G36*
X100890564Y-83825389D02*
G01*
X101081833Y-83904615D01*
X101081835Y-83904616D01*
X101204866Y-83986823D01*
X101253973Y-84019635D01*
X101400365Y-84166027D01*
X101515385Y-84338167D01*
X101594611Y-84529436D01*
X101635000Y-84732484D01*
X101635000Y-84939516D01*
X101594611Y-85142564D01*
X101515385Y-85333833D01*
X101515384Y-85333835D01*
X101400365Y-85505973D01*
X101253973Y-85652365D01*
X101081835Y-85767384D01*
X101081834Y-85767385D01*
X101081833Y-85767385D01*
X100890564Y-85846611D01*
X100687516Y-85887000D01*
X100480484Y-85887000D01*
X100277436Y-85846611D01*
X100086167Y-85767385D01*
X100086166Y-85767385D01*
X100086165Y-85767384D01*
X99914027Y-85652365D01*
X99767635Y-85505973D01*
X99652616Y-85333835D01*
X99652615Y-85333833D01*
X99573389Y-85142564D01*
X99533000Y-84939516D01*
X99533000Y-84732484D01*
X99573389Y-84529436D01*
X99652615Y-84338167D01*
X99767635Y-84166027D01*
X99914027Y-84019635D01*
X99963134Y-83986823D01*
X100086165Y-83904616D01*
X100086167Y-83904615D01*
X100277436Y-83825389D01*
X100480484Y-83785000D01*
X100687516Y-83785000D01*
X100890564Y-83825389D01*
X100890564Y-83825389D01*
G37*
G36*
X160326564Y-83825389D02*
G01*
X160517833Y-83904615D01*
X160517835Y-83904616D01*
X160640866Y-83986823D01*
X160689973Y-84019635D01*
X160836365Y-84166027D01*
X160951385Y-84338167D01*
X161030611Y-84529436D01*
X161071000Y-84732484D01*
X161071000Y-84939516D01*
X161030611Y-85142564D01*
X160951385Y-85333833D01*
X160951384Y-85333835D01*
X160836365Y-85505973D01*
X160689973Y-85652365D01*
X160517835Y-85767384D01*
X160517834Y-85767385D01*
X160517833Y-85767385D01*
X160326564Y-85846611D01*
X160123516Y-85887000D01*
X159916484Y-85887000D01*
X159713436Y-85846611D01*
X159522167Y-85767385D01*
X159522166Y-85767385D01*
X159522165Y-85767384D01*
X159350027Y-85652365D01*
X159203635Y-85505973D01*
X159088616Y-85333835D01*
X159088615Y-85333833D01*
X159009389Y-85142564D01*
X158969000Y-84939516D01*
X158969000Y-84732484D01*
X159009389Y-84529436D01*
X159088615Y-84338167D01*
X159203635Y-84166027D01*
X159350027Y-84019635D01*
X159399134Y-83986823D01*
X159522165Y-83904616D01*
X159522167Y-83904615D01*
X159713436Y-83825389D01*
X159916484Y-83785000D01*
X160123516Y-83785000D01*
X160326564Y-83825389D01*
X160326564Y-83825389D01*
G37*
G36*
X116130564Y-83681389D02*
G01*
X116253696Y-83732392D01*
X116321835Y-83760616D01*
X116493973Y-83875635D01*
X116640365Y-84022027D01*
X116736583Y-84166027D01*
X116755385Y-84194167D01*
X116834611Y-84385436D01*
X116875000Y-84588484D01*
X116875000Y-84795516D01*
X116834611Y-84998564D01*
X116774964Y-85142564D01*
X116755384Y-85189835D01*
X116640365Y-85361973D01*
X116493973Y-85508365D01*
X116321835Y-85623384D01*
X116321834Y-85623385D01*
X116321833Y-85623385D01*
X116130564Y-85702611D01*
X115927516Y-85743000D01*
X115720484Y-85743000D01*
X115517436Y-85702611D01*
X115326167Y-85623385D01*
X115326166Y-85623385D01*
X115326165Y-85623384D01*
X115154027Y-85508365D01*
X115007635Y-85361973D01*
X114892616Y-85189835D01*
X114873036Y-85142564D01*
X114813389Y-84998564D01*
X114773000Y-84795516D01*
X114773000Y-84588484D01*
X114813389Y-84385436D01*
X114892615Y-84194167D01*
X114911418Y-84166027D01*
X115007635Y-84022027D01*
X115154027Y-83875635D01*
X115326165Y-83760616D01*
X115394304Y-83732392D01*
X115517436Y-83681389D01*
X115720484Y-83641000D01*
X115927516Y-83641000D01*
X116130564Y-83681389D01*
X116130564Y-83681389D01*
G37*
G36*
X152706564Y-83681389D02*
G01*
X152829696Y-83732392D01*
X152897835Y-83760616D01*
X153069973Y-83875635D01*
X153216365Y-84022027D01*
X153312583Y-84166027D01*
X153331385Y-84194167D01*
X153410611Y-84385436D01*
X153451000Y-84588484D01*
X153451000Y-84795516D01*
X153410611Y-84998564D01*
X153350964Y-85142564D01*
X153331384Y-85189835D01*
X153216365Y-85361973D01*
X153069973Y-85508365D01*
X152897835Y-85623384D01*
X152897834Y-85623385D01*
X152897833Y-85623385D01*
X152706564Y-85702611D01*
X152503516Y-85743000D01*
X152296484Y-85743000D01*
X152093436Y-85702611D01*
X151902167Y-85623385D01*
X151902166Y-85623385D01*
X151902165Y-85623384D01*
X151730027Y-85508365D01*
X151583635Y-85361973D01*
X151468616Y-85189835D01*
X151449036Y-85142564D01*
X151389389Y-84998564D01*
X151349000Y-84795516D01*
X151349000Y-84588484D01*
X151389389Y-84385436D01*
X151468615Y-84194167D01*
X151487418Y-84166027D01*
X151583635Y-84022027D01*
X151730027Y-83875635D01*
X151902165Y-83760616D01*
X151970304Y-83732392D01*
X152093436Y-83681389D01*
X152296484Y-83641000D01*
X152503516Y-83641000D01*
X152706564Y-83681389D01*
X152706564Y-83681389D01*
G37*
G36*
X108510564Y-83681389D02*
G01*
X108633696Y-83732392D01*
X108701835Y-83760616D01*
X108873973Y-83875635D01*
X109020365Y-84022027D01*
X109116583Y-84166027D01*
X109135385Y-84194167D01*
X109214611Y-84385436D01*
X109255000Y-84588484D01*
X109255000Y-84795516D01*
X109214611Y-84998564D01*
X109154964Y-85142564D01*
X109135384Y-85189835D01*
X109020365Y-85361973D01*
X108873973Y-85508365D01*
X108701835Y-85623384D01*
X108701834Y-85623385D01*
X108701833Y-85623385D01*
X108510564Y-85702611D01*
X108307516Y-85743000D01*
X108100484Y-85743000D01*
X107897436Y-85702611D01*
X107706167Y-85623385D01*
X107706166Y-85623385D01*
X107706165Y-85623384D01*
X107534027Y-85508365D01*
X107387635Y-85361973D01*
X107272616Y-85189835D01*
X107253036Y-85142564D01*
X107193389Y-84998564D01*
X107153000Y-84795516D01*
X107153000Y-84588484D01*
X107193389Y-84385436D01*
X107272615Y-84194167D01*
X107291418Y-84166027D01*
X107387635Y-84022027D01*
X107534027Y-83875635D01*
X107706165Y-83760616D01*
X107774304Y-83732392D01*
X107897436Y-83681389D01*
X108100484Y-83641000D01*
X108307516Y-83641000D01*
X108510564Y-83681389D01*
X108510564Y-83681389D01*
G37*
G36*
X146500257Y-82286299D02*
G01*
X146606580Y-82307448D01*
X146907043Y-82431904D01*
X147177452Y-82612586D01*
X147407416Y-82842550D01*
X147585449Y-83108995D01*
X147588099Y-83112961D01*
X147595513Y-83130860D01*
X147670544Y-83312000D01*
X147712554Y-83413423D01*
X147776001Y-83732390D01*
X147776001Y-84057612D01*
X147758173Y-84147239D01*
X147712554Y-84376580D01*
X147700540Y-84405584D01*
X147595513Y-84659143D01*
X147588098Y-84677043D01*
X147407416Y-84947452D01*
X147177452Y-85177416D01*
X146907043Y-85358098D01*
X146606580Y-85482554D01*
X146524192Y-85498942D01*
X146287612Y-85546001D01*
X145962390Y-85546001D01*
X145725810Y-85498942D01*
X145643422Y-85482554D01*
X145342959Y-85358098D01*
X145072550Y-85177416D01*
X144842586Y-84947452D01*
X144661904Y-84677043D01*
X144654490Y-84659143D01*
X144549462Y-84405584D01*
X144537448Y-84376580D01*
X144491829Y-84147239D01*
X144474001Y-84057612D01*
X144474001Y-83732390D01*
X144537448Y-83413423D01*
X144579459Y-83312000D01*
X144654489Y-83130860D01*
X144661903Y-83112961D01*
X144664553Y-83108995D01*
X144842586Y-82842550D01*
X145072550Y-82612586D01*
X145342959Y-82431904D01*
X145643422Y-82307448D01*
X145749745Y-82286299D01*
X145962390Y-82244001D01*
X146287612Y-82244001D01*
X146500257Y-82286299D01*
X146500257Y-82286299D01*
G37*
G36*
X176784295Y-82993634D02*
G01*
X176956696Y-83045932D01*
X177115584Y-83130859D01*
X177254850Y-83245152D01*
X177369143Y-83384418D01*
X177454070Y-83543306D01*
X177506368Y-83715707D01*
X177524026Y-83895001D01*
X177506368Y-84074295D01*
X177454070Y-84246696D01*
X177369143Y-84405584D01*
X177254850Y-84544850D01*
X177115584Y-84659143D01*
X176956696Y-84744070D01*
X176784295Y-84796368D01*
X176649932Y-84809601D01*
X176560070Y-84809601D01*
X176425707Y-84796368D01*
X176253306Y-84744070D01*
X176094418Y-84659143D01*
X175955152Y-84544850D01*
X175840859Y-84405584D01*
X175755932Y-84246696D01*
X175703634Y-84074295D01*
X175685976Y-83895001D01*
X175703634Y-83715707D01*
X175755932Y-83543306D01*
X175840859Y-83384418D01*
X175955152Y-83245152D01*
X176094418Y-83130859D01*
X176253306Y-83045932D01*
X176425707Y-82993634D01*
X176560070Y-82980401D01*
X176649932Y-82980401D01*
X176784295Y-82993634D01*
X176784295Y-82993634D01*
G37*
G36*
X174244295Y-82993634D02*
G01*
X174416696Y-83045932D01*
X174575584Y-83130859D01*
X174714850Y-83245152D01*
X174829143Y-83384418D01*
X174914070Y-83543306D01*
X174966368Y-83715707D01*
X174984026Y-83895001D01*
X174966368Y-84074295D01*
X174914070Y-84246696D01*
X174829143Y-84405584D01*
X174714850Y-84544850D01*
X174575584Y-84659143D01*
X174416696Y-84744070D01*
X174244295Y-84796368D01*
X174109932Y-84809601D01*
X174020070Y-84809601D01*
X173885707Y-84796368D01*
X173713306Y-84744070D01*
X173554418Y-84659143D01*
X173415152Y-84544850D01*
X173300859Y-84405584D01*
X173215932Y-84246696D01*
X173163634Y-84074295D01*
X173145976Y-83895001D01*
X173163634Y-83715707D01*
X173215932Y-83543306D01*
X173300859Y-83384418D01*
X173415152Y-83245152D01*
X173554418Y-83130859D01*
X173713306Y-83045932D01*
X173885707Y-82993634D01*
X174020070Y-82980401D01*
X174109932Y-82980401D01*
X174244295Y-82993634D01*
X174244295Y-82993634D01*
G37*
G36*
X125819000Y-84671000D02*
G01*
X124117000Y-84671000D01*
X124117000Y-82969000D01*
X125819000Y-82969000D01*
X125819000Y-84671000D01*
X125819000Y-84671000D01*
G37*
G36*
X127674823Y-82981313D02*
G01*
X127835242Y-83029976D01*
X127865095Y-83045933D01*
X127983078Y-83108996D01*
X128112659Y-83215341D01*
X128219004Y-83344922D01*
X128219005Y-83344924D01*
X128298024Y-83492758D01*
X128346687Y-83653177D01*
X128363117Y-83820000D01*
X128346687Y-83986823D01*
X128298024Y-84147242D01*
X128289601Y-84163000D01*
X128219004Y-84295078D01*
X128112659Y-84424659D01*
X127983078Y-84531004D01*
X127983076Y-84531005D01*
X127835242Y-84610024D01*
X127674823Y-84658687D01*
X127549804Y-84671000D01*
X127466196Y-84671000D01*
X127341177Y-84658687D01*
X127180758Y-84610024D01*
X127032924Y-84531005D01*
X127032922Y-84531004D01*
X126903341Y-84424659D01*
X126796996Y-84295078D01*
X126726399Y-84163000D01*
X126717976Y-84147242D01*
X126669313Y-83986823D01*
X126652883Y-83820000D01*
X126669313Y-83653177D01*
X126717976Y-83492758D01*
X126796995Y-83344924D01*
X126796996Y-83344922D01*
X126903341Y-83215341D01*
X127032922Y-83108996D01*
X127150905Y-83045933D01*
X127180758Y-83029976D01*
X127341177Y-82981313D01*
X127466196Y-82969000D01*
X127549804Y-82969000D01*
X127674823Y-82981313D01*
X127674823Y-82981313D01*
G37*
G36*
X130214823Y-82981313D02*
G01*
X130375242Y-83029976D01*
X130405095Y-83045933D01*
X130523078Y-83108996D01*
X130652659Y-83215341D01*
X130759004Y-83344922D01*
X130759005Y-83344924D01*
X130838024Y-83492758D01*
X130886687Y-83653177D01*
X130903117Y-83820000D01*
X130886687Y-83986823D01*
X130838024Y-84147242D01*
X130829601Y-84163000D01*
X130759004Y-84295078D01*
X130652659Y-84424659D01*
X130523078Y-84531004D01*
X130523076Y-84531005D01*
X130375242Y-84610024D01*
X130214823Y-84658687D01*
X130089804Y-84671000D01*
X130006196Y-84671000D01*
X129881177Y-84658687D01*
X129720758Y-84610024D01*
X129572924Y-84531005D01*
X129572922Y-84531004D01*
X129443341Y-84424659D01*
X129336996Y-84295078D01*
X129266399Y-84163000D01*
X129257976Y-84147242D01*
X129209313Y-83986823D01*
X129192883Y-83820000D01*
X129209313Y-83653177D01*
X129257976Y-83492758D01*
X129336995Y-83344924D01*
X129336996Y-83344922D01*
X129443341Y-83215341D01*
X129572922Y-83108996D01*
X129690905Y-83045933D01*
X129720758Y-83029976D01*
X129881177Y-82981313D01*
X130006196Y-82969000D01*
X130089804Y-82969000D01*
X130214823Y-82981313D01*
X130214823Y-82981313D01*
G37*
G36*
X132754823Y-82981313D02*
G01*
X132915242Y-83029976D01*
X132945095Y-83045933D01*
X133063078Y-83108996D01*
X133192659Y-83215341D01*
X133299004Y-83344922D01*
X133299005Y-83344924D01*
X133378024Y-83492758D01*
X133426687Y-83653177D01*
X133443117Y-83820000D01*
X133426687Y-83986823D01*
X133378024Y-84147242D01*
X133369601Y-84163000D01*
X133299004Y-84295078D01*
X133192659Y-84424659D01*
X133063078Y-84531004D01*
X133063076Y-84531005D01*
X132915242Y-84610024D01*
X132754823Y-84658687D01*
X132629804Y-84671000D01*
X132546196Y-84671000D01*
X132421177Y-84658687D01*
X132260758Y-84610024D01*
X132112924Y-84531005D01*
X132112922Y-84531004D01*
X131983341Y-84424659D01*
X131876996Y-84295078D01*
X131806399Y-84163000D01*
X131797976Y-84147242D01*
X131749313Y-83986823D01*
X131732883Y-83820000D01*
X131749313Y-83653177D01*
X131797976Y-83492758D01*
X131876995Y-83344924D01*
X131876996Y-83344922D01*
X131983341Y-83215341D01*
X132112922Y-83108996D01*
X132230905Y-83045933D01*
X132260758Y-83029976D01*
X132421177Y-82981313D01*
X132546196Y-82969000D01*
X132629804Y-82969000D01*
X132754823Y-82981313D01*
X132754823Y-82981313D01*
G37*
G36*
X93580823Y-82473313D02*
G01*
X93741242Y-82521976D01*
X93873906Y-82592886D01*
X93889078Y-82600996D01*
X94018659Y-82707341D01*
X94125004Y-82836922D01*
X94125005Y-82836924D01*
X94204024Y-82984758D01*
X94252687Y-83145177D01*
X94269117Y-83312000D01*
X94252687Y-83478823D01*
X94204024Y-83639242D01*
X94163152Y-83715708D01*
X94125004Y-83787078D01*
X94018659Y-83916659D01*
X93889078Y-84023004D01*
X93889076Y-84023005D01*
X93741242Y-84102024D01*
X93580823Y-84150687D01*
X93455804Y-84163000D01*
X92472196Y-84163000D01*
X92347177Y-84150687D01*
X92186758Y-84102024D01*
X92038924Y-84023005D01*
X92038922Y-84023004D01*
X91909341Y-83916659D01*
X91802996Y-83787078D01*
X91764848Y-83715708D01*
X91723976Y-83639242D01*
X91675313Y-83478823D01*
X91658883Y-83312000D01*
X91675313Y-83145177D01*
X91723976Y-82984758D01*
X91802995Y-82836924D01*
X91802996Y-82836922D01*
X91909341Y-82707341D01*
X92038922Y-82600996D01*
X92054094Y-82592886D01*
X92186758Y-82521976D01*
X92347177Y-82473313D01*
X92472196Y-82461000D01*
X93455804Y-82461000D01*
X93580823Y-82473313D01*
X93580823Y-82473313D01*
G37*
G36*
X168949000Y-83097000D02*
G01*
X167347000Y-83097000D01*
X167347000Y-81495000D01*
X168949000Y-81495000D01*
X168949000Y-83097000D01*
X168949000Y-83097000D01*
G37*
G36*
X176784295Y-80453634D02*
G01*
X176956696Y-80505932D01*
X177115584Y-80590859D01*
X177254850Y-80705152D01*
X177369143Y-80844418D01*
X177454070Y-81003306D01*
X177506368Y-81175707D01*
X177524026Y-81355001D01*
X177506368Y-81534295D01*
X177454070Y-81706696D01*
X177369143Y-81865584D01*
X177254850Y-82004850D01*
X177115584Y-82119143D01*
X176956696Y-82204070D01*
X176784295Y-82256368D01*
X176649932Y-82269601D01*
X176560070Y-82269601D01*
X176425707Y-82256368D01*
X176253306Y-82204070D01*
X176094418Y-82119143D01*
X175955152Y-82004850D01*
X175840859Y-81865584D01*
X175755932Y-81706696D01*
X175703634Y-81534295D01*
X175685976Y-81355001D01*
X175703634Y-81175707D01*
X175755932Y-81003306D01*
X175840859Y-80844418D01*
X175955152Y-80705152D01*
X176094418Y-80590859D01*
X176253306Y-80505932D01*
X176425707Y-80453634D01*
X176560070Y-80440401D01*
X176649932Y-80440401D01*
X176784295Y-80453634D01*
X176784295Y-80453634D01*
G37*
G36*
X174244295Y-80453634D02*
G01*
X174416696Y-80505932D01*
X174575584Y-80590859D01*
X174714850Y-80705152D01*
X174829143Y-80844418D01*
X174914070Y-81003306D01*
X174966368Y-81175707D01*
X174984026Y-81355001D01*
X174966368Y-81534295D01*
X174914070Y-81706696D01*
X174829143Y-81865584D01*
X174714850Y-82004850D01*
X174575584Y-82119143D01*
X174416696Y-82204070D01*
X174244295Y-82256368D01*
X174109932Y-82269601D01*
X174020070Y-82269601D01*
X173885707Y-82256368D01*
X173713306Y-82204070D01*
X173554418Y-82119143D01*
X173415152Y-82004850D01*
X173300859Y-81865584D01*
X173215932Y-81706696D01*
X173163634Y-81534295D01*
X173145976Y-81355001D01*
X173163634Y-81175707D01*
X173215932Y-81003306D01*
X173300859Y-80844418D01*
X173415152Y-80705152D01*
X173554418Y-80590859D01*
X173713306Y-80505932D01*
X173885707Y-80453634D01*
X174020070Y-80440401D01*
X174109932Y-80440401D01*
X174244295Y-80453634D01*
X174244295Y-80453634D01*
G37*
G36*
X93580823Y-79933313D02*
G01*
X93741242Y-79981976D01*
X93873906Y-80052886D01*
X93889078Y-80060996D01*
X94018659Y-80167341D01*
X94125004Y-80296922D01*
X94125005Y-80296924D01*
X94204024Y-80444758D01*
X94252687Y-80605177D01*
X94269117Y-80772000D01*
X94252687Y-80938823D01*
X94204024Y-81099242D01*
X94163152Y-81175708D01*
X94125004Y-81247078D01*
X94018659Y-81376659D01*
X93889078Y-81483004D01*
X93889076Y-81483005D01*
X93741242Y-81562024D01*
X93580823Y-81610687D01*
X93455804Y-81623000D01*
X92472196Y-81623000D01*
X92347177Y-81610687D01*
X92186758Y-81562024D01*
X92038924Y-81483005D01*
X92038922Y-81483004D01*
X91909341Y-81376659D01*
X91802996Y-81247078D01*
X91764848Y-81175708D01*
X91723976Y-81099242D01*
X91675313Y-80938823D01*
X91658883Y-80772000D01*
X91675313Y-80605177D01*
X91723976Y-80444758D01*
X91802995Y-80296924D01*
X91802996Y-80296922D01*
X91909341Y-80167341D01*
X92038922Y-80060996D01*
X92054094Y-80052886D01*
X92186758Y-79981976D01*
X92347177Y-79933313D01*
X92472196Y-79921000D01*
X93455804Y-79921000D01*
X93580823Y-79933313D01*
X93580823Y-79933313D01*
G37*
G36*
X165841642Y-78985781D02*
G01*
X165987414Y-79046162D01*
X165987416Y-79046163D01*
X166118608Y-79133822D01*
X166230178Y-79245392D01*
X166283760Y-79325584D01*
X166317838Y-79376586D01*
X166378219Y-79522358D01*
X166409000Y-79677107D01*
X166409000Y-79834893D01*
X166378219Y-79989642D01*
X166348663Y-80060995D01*
X166317837Y-80135416D01*
X166230178Y-80266608D01*
X166118608Y-80378178D01*
X165987416Y-80465837D01*
X165987415Y-80465838D01*
X165987414Y-80465838D01*
X165841642Y-80526219D01*
X165686893Y-80557000D01*
X165529107Y-80557000D01*
X165374358Y-80526219D01*
X165228586Y-80465838D01*
X165228585Y-80465838D01*
X165228584Y-80465837D01*
X165097392Y-80378178D01*
X164985822Y-80266608D01*
X164898163Y-80135416D01*
X164867337Y-80060995D01*
X164837781Y-79989642D01*
X164807000Y-79834893D01*
X164807000Y-79677107D01*
X164837781Y-79522358D01*
X164898162Y-79376586D01*
X164932240Y-79325584D01*
X164985822Y-79245392D01*
X165097392Y-79133822D01*
X165228584Y-79046163D01*
X165228586Y-79046162D01*
X165374358Y-78985781D01*
X165529107Y-78955000D01*
X165686893Y-78955000D01*
X165841642Y-78985781D01*
X165841642Y-78985781D01*
G37*
G36*
X176784295Y-77913634D02*
G01*
X176956696Y-77965932D01*
X177115584Y-78050859D01*
X177254850Y-78165152D01*
X177369143Y-78304418D01*
X177454070Y-78463306D01*
X177506368Y-78635707D01*
X177524026Y-78815001D01*
X177506368Y-78994295D01*
X177454070Y-79166696D01*
X177369143Y-79325584D01*
X177254850Y-79464850D01*
X177115584Y-79579143D01*
X176956696Y-79664070D01*
X176784295Y-79716368D01*
X176649932Y-79729601D01*
X176560070Y-79729601D01*
X176425707Y-79716368D01*
X176253306Y-79664070D01*
X176094418Y-79579143D01*
X175955152Y-79464850D01*
X175840859Y-79325584D01*
X175755932Y-79166696D01*
X175703634Y-78994295D01*
X175685976Y-78815001D01*
X175703634Y-78635707D01*
X175755932Y-78463306D01*
X175840859Y-78304418D01*
X175955152Y-78165152D01*
X176094418Y-78050859D01*
X176253306Y-77965932D01*
X176425707Y-77913634D01*
X176560070Y-77900401D01*
X176649932Y-77900401D01*
X176784295Y-77913634D01*
X176784295Y-77913634D01*
G37*
G36*
X174244295Y-77913634D02*
G01*
X174416696Y-77965932D01*
X174575584Y-78050859D01*
X174714850Y-78165152D01*
X174829143Y-78304418D01*
X174914070Y-78463306D01*
X174966368Y-78635707D01*
X174984026Y-78815001D01*
X174966368Y-78994295D01*
X174914070Y-79166696D01*
X174829143Y-79325584D01*
X174714850Y-79464850D01*
X174575584Y-79579143D01*
X174416696Y-79664070D01*
X174244295Y-79716368D01*
X174109932Y-79729601D01*
X174020070Y-79729601D01*
X173885707Y-79716368D01*
X173713306Y-79664070D01*
X173554418Y-79579143D01*
X173415152Y-79464850D01*
X173300859Y-79325584D01*
X173215932Y-79166696D01*
X173163634Y-78994295D01*
X173145976Y-78815001D01*
X173163634Y-78635707D01*
X173215932Y-78463306D01*
X173300859Y-78304418D01*
X173415152Y-78165152D01*
X173554418Y-78050859D01*
X173713306Y-77965932D01*
X173885707Y-77913634D01*
X174020070Y-77900401D01*
X174109932Y-77900401D01*
X174244295Y-77913634D01*
X174244295Y-77913634D01*
G37*
G36*
X168381642Y-76445781D02*
G01*
X168527414Y-76506162D01*
X168527416Y-76506163D01*
X168658608Y-76593822D01*
X168770178Y-76705392D01*
X168857837Y-76836584D01*
X168857838Y-76836586D01*
X168918219Y-76982358D01*
X168949000Y-77137107D01*
X168949000Y-77294893D01*
X168918219Y-77449642D01*
X168911053Y-77466941D01*
X168857837Y-77595416D01*
X168770178Y-77726608D01*
X168658608Y-77838178D01*
X168527416Y-77925837D01*
X168527415Y-77925838D01*
X168527414Y-77925838D01*
X168381642Y-77986219D01*
X168226893Y-78017000D01*
X168069107Y-78017000D01*
X167914358Y-77986219D01*
X167768586Y-77925838D01*
X167768585Y-77925838D01*
X167768584Y-77925837D01*
X167637392Y-77838178D01*
X167525822Y-77726608D01*
X167438163Y-77595416D01*
X167384947Y-77466941D01*
X167377781Y-77449642D01*
X167347000Y-77294893D01*
X167347000Y-77137107D01*
X167377781Y-76982358D01*
X167438162Y-76836586D01*
X167438163Y-76836584D01*
X167525822Y-76705392D01*
X167637392Y-76593822D01*
X167768584Y-76506163D01*
X167768586Y-76506162D01*
X167914358Y-76445781D01*
X168069107Y-76415000D01*
X168226893Y-76415000D01*
X168381642Y-76445781D01*
X168381642Y-76445781D01*
G37*
G36*
X89810669Y-73899686D02*
G01*
X89987058Y-73917059D01*
X90326548Y-74020042D01*
X90326550Y-74020043D01*
X90639422Y-74187277D01*
X90913661Y-74412339D01*
X91138723Y-74686578D01*
X91255267Y-74904616D01*
X91305958Y-74999452D01*
X91408941Y-75338942D01*
X91443714Y-75692000D01*
X91408941Y-76045058D01*
X91311334Y-76366825D01*
X91305957Y-76384550D01*
X91138723Y-76697422D01*
X90913661Y-76971661D01*
X90639422Y-77196723D01*
X90455761Y-77294892D01*
X90326548Y-77363958D01*
X89987058Y-77466941D01*
X89810669Y-77484314D01*
X89722476Y-77493000D01*
X86045524Y-77493000D01*
X85957331Y-77484314D01*
X85780942Y-77466941D01*
X85441452Y-77363958D01*
X85312239Y-77294892D01*
X85128578Y-77196723D01*
X84854339Y-76971661D01*
X84629277Y-76697422D01*
X84462043Y-76384550D01*
X84456666Y-76366825D01*
X84359059Y-76045058D01*
X84324286Y-75692000D01*
X84359059Y-75338942D01*
X84462042Y-74999452D01*
X84512733Y-74904616D01*
X84629277Y-74686578D01*
X84854339Y-74412339D01*
X85128578Y-74187277D01*
X85441450Y-74020043D01*
X85441452Y-74020042D01*
X85780942Y-73917059D01*
X85957331Y-73899686D01*
X86045524Y-73891000D01*
X89722476Y-73891000D01*
X89810669Y-73899686D01*
X89810669Y-73899686D01*
G37*
G36*
X176784295Y-75373634D02*
G01*
X176956696Y-75425932D01*
X177115584Y-75510859D01*
X177254850Y-75625152D01*
X177369143Y-75764418D01*
X177454070Y-75923306D01*
X177506368Y-76095707D01*
X177524026Y-76275001D01*
X177506368Y-76454295D01*
X177454070Y-76626696D01*
X177369143Y-76785584D01*
X177254850Y-76924850D01*
X177115584Y-77039143D01*
X176956696Y-77124070D01*
X176784295Y-77176368D01*
X176649932Y-77189601D01*
X176560070Y-77189601D01*
X176425707Y-77176368D01*
X176253306Y-77124070D01*
X176094418Y-77039143D01*
X175955152Y-76924850D01*
X175840859Y-76785584D01*
X175755932Y-76626696D01*
X175703634Y-76454295D01*
X175685976Y-76275001D01*
X175703634Y-76095707D01*
X175755932Y-75923306D01*
X175840859Y-75764418D01*
X175955152Y-75625152D01*
X176094418Y-75510859D01*
X176253306Y-75425932D01*
X176425707Y-75373634D01*
X176560070Y-75360401D01*
X176649932Y-75360401D01*
X176784295Y-75373634D01*
X176784295Y-75373634D01*
G37*
G36*
X174244295Y-75373634D02*
G01*
X174416696Y-75425932D01*
X174575584Y-75510859D01*
X174714850Y-75625152D01*
X174829143Y-75764418D01*
X174914070Y-75923306D01*
X174966368Y-76095707D01*
X174984026Y-76275001D01*
X174966368Y-76454295D01*
X174914070Y-76626696D01*
X174829143Y-76785584D01*
X174714850Y-76924850D01*
X174575584Y-77039143D01*
X174416696Y-77124070D01*
X174244295Y-77176368D01*
X174109932Y-77189601D01*
X174020070Y-77189601D01*
X173885707Y-77176368D01*
X173713306Y-77124070D01*
X173554418Y-77039143D01*
X173415152Y-76924850D01*
X173300859Y-76785584D01*
X173215932Y-76626696D01*
X173163634Y-76454295D01*
X173145976Y-76275001D01*
X173163634Y-76095707D01*
X173215932Y-75923306D01*
X173300859Y-75764418D01*
X173415152Y-75625152D01*
X173554418Y-75510859D01*
X173713306Y-75425932D01*
X173885707Y-75373634D01*
X174020070Y-75360401D01*
X174109932Y-75360401D01*
X174244295Y-75373634D01*
X174244295Y-75373634D01*
G37*
G36*
X130214823Y-75361313D02*
G01*
X130375242Y-75409976D01*
X130405095Y-75425933D01*
X130523078Y-75488996D01*
X130652659Y-75595341D01*
X130759004Y-75724922D01*
X130759005Y-75724924D01*
X130838024Y-75872758D01*
X130886687Y-76033177D01*
X130903117Y-76200000D01*
X130886687Y-76366823D01*
X130838024Y-76527242D01*
X130802436Y-76593822D01*
X130759004Y-76675078D01*
X130652659Y-76804659D01*
X130523078Y-76911004D01*
X130523076Y-76911005D01*
X130375242Y-76990024D01*
X130214823Y-77038687D01*
X130089804Y-77051000D01*
X130006196Y-77051000D01*
X129881177Y-77038687D01*
X129720758Y-76990024D01*
X129572924Y-76911005D01*
X129572922Y-76911004D01*
X129443341Y-76804659D01*
X129336996Y-76675078D01*
X129293564Y-76593822D01*
X129257976Y-76527242D01*
X129209313Y-76366823D01*
X129192883Y-76200000D01*
X129209313Y-76033177D01*
X129257976Y-75872758D01*
X129336995Y-75724924D01*
X129336996Y-75724922D01*
X129443341Y-75595341D01*
X129572922Y-75488996D01*
X129690905Y-75425933D01*
X129720758Y-75409976D01*
X129881177Y-75361313D01*
X130006196Y-75349000D01*
X130089804Y-75349000D01*
X130214823Y-75361313D01*
X130214823Y-75361313D01*
G37*
G36*
X127674823Y-75361313D02*
G01*
X127835242Y-75409976D01*
X127865095Y-75425933D01*
X127983078Y-75488996D01*
X128112659Y-75595341D01*
X128219004Y-75724922D01*
X128219005Y-75724924D01*
X128298024Y-75872758D01*
X128346687Y-76033177D01*
X128363117Y-76200000D01*
X128346687Y-76366823D01*
X128298024Y-76527242D01*
X128262436Y-76593822D01*
X128219004Y-76675078D01*
X128112659Y-76804659D01*
X127983078Y-76911004D01*
X127983076Y-76911005D01*
X127835242Y-76990024D01*
X127674823Y-77038687D01*
X127549804Y-77051000D01*
X127466196Y-77051000D01*
X127341177Y-77038687D01*
X127180758Y-76990024D01*
X127032924Y-76911005D01*
X127032922Y-76911004D01*
X126903341Y-76804659D01*
X126796996Y-76675078D01*
X126753564Y-76593822D01*
X126717976Y-76527242D01*
X126669313Y-76366823D01*
X126652883Y-76200000D01*
X126669313Y-76033177D01*
X126717976Y-75872758D01*
X126796995Y-75724924D01*
X126796996Y-75724922D01*
X126903341Y-75595341D01*
X127032922Y-75488996D01*
X127150905Y-75425933D01*
X127180758Y-75409976D01*
X127341177Y-75361313D01*
X127466196Y-75349000D01*
X127549804Y-75349000D01*
X127674823Y-75361313D01*
X127674823Y-75361313D01*
G37*
G36*
X132754823Y-75361313D02*
G01*
X132915242Y-75409976D01*
X132945095Y-75425933D01*
X133063078Y-75488996D01*
X133192659Y-75595341D01*
X133299004Y-75724922D01*
X133299005Y-75724924D01*
X133378024Y-75872758D01*
X133426687Y-76033177D01*
X133443117Y-76200000D01*
X133426687Y-76366823D01*
X133378024Y-76527242D01*
X133342436Y-76593822D01*
X133299004Y-76675078D01*
X133192659Y-76804659D01*
X133063078Y-76911004D01*
X133063076Y-76911005D01*
X132915242Y-76990024D01*
X132754823Y-77038687D01*
X132629804Y-77051000D01*
X132546196Y-77051000D01*
X132421177Y-77038687D01*
X132260758Y-76990024D01*
X132112924Y-76911005D01*
X132112922Y-76911004D01*
X131983341Y-76804659D01*
X131876996Y-76675078D01*
X131833564Y-76593822D01*
X131797976Y-76527242D01*
X131749313Y-76366823D01*
X131732883Y-76200000D01*
X131749313Y-76033177D01*
X131797976Y-75872758D01*
X131876995Y-75724924D01*
X131876996Y-75724922D01*
X131983341Y-75595341D01*
X132112922Y-75488996D01*
X132230905Y-75425933D01*
X132260758Y-75409976D01*
X132421177Y-75361313D01*
X132546196Y-75349000D01*
X132629804Y-75349000D01*
X132754823Y-75361313D01*
X132754823Y-75361313D01*
G37*
G36*
X125134823Y-75361313D02*
G01*
X125295242Y-75409976D01*
X125325095Y-75425933D01*
X125443078Y-75488996D01*
X125572659Y-75595341D01*
X125679004Y-75724922D01*
X125679005Y-75724924D01*
X125758024Y-75872758D01*
X125806687Y-76033177D01*
X125823117Y-76200000D01*
X125806687Y-76366823D01*
X125758024Y-76527242D01*
X125722436Y-76593822D01*
X125679004Y-76675078D01*
X125572659Y-76804659D01*
X125443078Y-76911004D01*
X125443076Y-76911005D01*
X125295242Y-76990024D01*
X125134823Y-77038687D01*
X125009804Y-77051000D01*
X124926196Y-77051000D01*
X124801177Y-77038687D01*
X124640758Y-76990024D01*
X124492924Y-76911005D01*
X124492922Y-76911004D01*
X124363341Y-76804659D01*
X124256996Y-76675078D01*
X124213564Y-76593822D01*
X124177976Y-76527242D01*
X124129313Y-76366823D01*
X124112883Y-76200000D01*
X124129313Y-76033177D01*
X124177976Y-75872758D01*
X124256995Y-75724924D01*
X124256996Y-75724922D01*
X124363341Y-75595341D01*
X124492922Y-75488996D01*
X124610905Y-75425933D01*
X124640758Y-75409976D01*
X124801177Y-75361313D01*
X124926196Y-75349000D01*
X125009804Y-75349000D01*
X125134823Y-75361313D01*
X125134823Y-75361313D01*
G37*
G36*
X160326564Y-74825389D02*
G01*
X160517833Y-74904615D01*
X160517835Y-74904616D01*
X160659764Y-74999450D01*
X160689973Y-75019635D01*
X160836365Y-75166027D01*
X160951385Y-75338167D01*
X161030611Y-75529436D01*
X161071000Y-75732484D01*
X161071000Y-75939516D01*
X161030611Y-76142564D01*
X161006820Y-76200000D01*
X160951384Y-76333835D01*
X160836365Y-76505973D01*
X160689973Y-76652365D01*
X160517835Y-76767384D01*
X160517834Y-76767385D01*
X160517833Y-76767385D01*
X160326564Y-76846611D01*
X160123516Y-76887000D01*
X159916484Y-76887000D01*
X159713436Y-76846611D01*
X159522167Y-76767385D01*
X159522166Y-76767385D01*
X159522165Y-76767384D01*
X159350027Y-76652365D01*
X159203635Y-76505973D01*
X159088616Y-76333835D01*
X159033180Y-76200000D01*
X159009389Y-76142564D01*
X158969000Y-75939516D01*
X158969000Y-75732484D01*
X159009389Y-75529436D01*
X159088615Y-75338167D01*
X159203635Y-75166027D01*
X159350027Y-75019635D01*
X159380236Y-74999450D01*
X159522165Y-74904616D01*
X159522167Y-74904615D01*
X159713436Y-74825389D01*
X159916484Y-74785000D01*
X160123516Y-74785000D01*
X160326564Y-74825389D01*
X160326564Y-74825389D01*
G37*
G36*
X100890564Y-74825389D02*
G01*
X101081833Y-74904615D01*
X101081835Y-74904616D01*
X101223764Y-74999450D01*
X101253973Y-75019635D01*
X101400365Y-75166027D01*
X101515385Y-75338167D01*
X101594611Y-75529436D01*
X101635000Y-75732484D01*
X101635000Y-75939516D01*
X101594611Y-76142564D01*
X101570820Y-76200000D01*
X101515384Y-76333835D01*
X101400365Y-76505973D01*
X101253973Y-76652365D01*
X101081835Y-76767384D01*
X101081834Y-76767385D01*
X101081833Y-76767385D01*
X100890564Y-76846611D01*
X100687516Y-76887000D01*
X100480484Y-76887000D01*
X100277436Y-76846611D01*
X100086167Y-76767385D01*
X100086166Y-76767385D01*
X100086165Y-76767384D01*
X99914027Y-76652365D01*
X99767635Y-76505973D01*
X99652616Y-76333835D01*
X99597180Y-76200000D01*
X99573389Y-76142564D01*
X99533000Y-75939516D01*
X99533000Y-75732484D01*
X99573389Y-75529436D01*
X99652615Y-75338167D01*
X99767635Y-75166027D01*
X99914027Y-75019635D01*
X99944236Y-74999450D01*
X100086165Y-74904616D01*
X100086167Y-74904615D01*
X100277436Y-74825389D01*
X100480484Y-74785000D01*
X100687516Y-74785000D01*
X100890564Y-74825389D01*
X100890564Y-74825389D01*
G37*
G36*
X152706564Y-74681389D02*
G01*
X152897833Y-74760615D01*
X152897835Y-74760616D01*
X153069973Y-74875635D01*
X153216365Y-75022027D01*
X153312583Y-75166027D01*
X153331385Y-75194167D01*
X153410611Y-75385436D01*
X153451000Y-75588484D01*
X153451000Y-75795516D01*
X153410611Y-75998564D01*
X153350964Y-76142564D01*
X153331384Y-76189835D01*
X153216365Y-76361973D01*
X153069973Y-76508365D01*
X152897835Y-76623384D01*
X152897834Y-76623385D01*
X152897833Y-76623385D01*
X152706564Y-76702611D01*
X152503516Y-76743000D01*
X152296484Y-76743000D01*
X152093436Y-76702611D01*
X151902167Y-76623385D01*
X151902166Y-76623385D01*
X151902165Y-76623384D01*
X151730027Y-76508365D01*
X151583635Y-76361973D01*
X151468616Y-76189835D01*
X151449036Y-76142564D01*
X151389389Y-75998564D01*
X151349000Y-75795516D01*
X151349000Y-75588484D01*
X151389389Y-75385436D01*
X151468615Y-75194167D01*
X151487418Y-75166027D01*
X151583635Y-75022027D01*
X151730027Y-74875635D01*
X151902165Y-74760616D01*
X151902167Y-74760615D01*
X152093436Y-74681389D01*
X152296484Y-74641000D01*
X152503516Y-74641000D01*
X152706564Y-74681389D01*
X152706564Y-74681389D01*
G37*
G36*
X116130564Y-74681389D02*
G01*
X116321833Y-74760615D01*
X116321835Y-74760616D01*
X116493973Y-74875635D01*
X116640365Y-75022027D01*
X116736583Y-75166027D01*
X116755385Y-75194167D01*
X116834611Y-75385436D01*
X116875000Y-75588484D01*
X116875000Y-75795516D01*
X116834611Y-75998564D01*
X116774964Y-76142564D01*
X116755384Y-76189835D01*
X116640365Y-76361973D01*
X116493973Y-76508365D01*
X116321835Y-76623384D01*
X116321834Y-76623385D01*
X116321833Y-76623385D01*
X116130564Y-76702611D01*
X115927516Y-76743000D01*
X115720484Y-76743000D01*
X115517436Y-76702611D01*
X115326167Y-76623385D01*
X115326166Y-76623385D01*
X115326165Y-76623384D01*
X115154027Y-76508365D01*
X115007635Y-76361973D01*
X114892616Y-76189835D01*
X114873036Y-76142564D01*
X114813389Y-75998564D01*
X114773000Y-75795516D01*
X114773000Y-75588484D01*
X114813389Y-75385436D01*
X114892615Y-75194167D01*
X114911418Y-75166027D01*
X115007635Y-75022027D01*
X115154027Y-74875635D01*
X115326165Y-74760616D01*
X115326167Y-74760615D01*
X115517436Y-74681389D01*
X115720484Y-74641000D01*
X115927516Y-74641000D01*
X116130564Y-74681389D01*
X116130564Y-74681389D01*
G37*
G36*
X108510564Y-74681389D02*
G01*
X108701833Y-74760615D01*
X108701835Y-74760616D01*
X108873973Y-74875635D01*
X109020365Y-75022027D01*
X109116583Y-75166027D01*
X109135385Y-75194167D01*
X109214611Y-75385436D01*
X109255000Y-75588484D01*
X109255000Y-75795516D01*
X109214611Y-75998564D01*
X109154964Y-76142564D01*
X109135384Y-76189835D01*
X109020365Y-76361973D01*
X108873973Y-76508365D01*
X108701835Y-76623384D01*
X108701834Y-76623385D01*
X108701833Y-76623385D01*
X108510564Y-76702611D01*
X108307516Y-76743000D01*
X108100484Y-76743000D01*
X107897436Y-76702611D01*
X107706167Y-76623385D01*
X107706166Y-76623385D01*
X107706165Y-76623384D01*
X107534027Y-76508365D01*
X107387635Y-76361973D01*
X107272616Y-76189835D01*
X107253036Y-76142564D01*
X107193389Y-75998564D01*
X107153000Y-75795516D01*
X107153000Y-75588484D01*
X107193389Y-75385436D01*
X107272615Y-75194167D01*
X107291418Y-75166027D01*
X107387635Y-75022027D01*
X107534027Y-74875635D01*
X107706165Y-74760616D01*
X107706167Y-74760615D01*
X107897436Y-74681389D01*
X108100484Y-74641000D01*
X108307516Y-74641000D01*
X108510564Y-74681389D01*
X108510564Y-74681389D01*
G37*
G36*
X176784295Y-72833634D02*
G01*
X176956696Y-72885932D01*
X177115584Y-72970859D01*
X177254850Y-73085152D01*
X177369143Y-73224418D01*
X177454070Y-73383306D01*
X177506368Y-73555707D01*
X177524026Y-73735001D01*
X177506368Y-73914295D01*
X177454070Y-74086696D01*
X177369143Y-74245584D01*
X177254850Y-74384850D01*
X177115584Y-74499143D01*
X176956696Y-74584070D01*
X176784295Y-74636368D01*
X176649932Y-74649601D01*
X176560070Y-74649601D01*
X176425707Y-74636368D01*
X176253306Y-74584070D01*
X176094418Y-74499143D01*
X175955152Y-74384850D01*
X175840859Y-74245584D01*
X175755932Y-74086696D01*
X175703634Y-73914295D01*
X175685976Y-73735001D01*
X175703634Y-73555707D01*
X175755932Y-73383306D01*
X175840859Y-73224418D01*
X175955152Y-73085152D01*
X176094418Y-72970859D01*
X176253306Y-72885932D01*
X176425707Y-72833634D01*
X176560070Y-72820401D01*
X176649932Y-72820401D01*
X176784295Y-72833634D01*
X176784295Y-72833634D01*
G37*
G36*
X174244295Y-72833634D02*
G01*
X174416696Y-72885932D01*
X174575584Y-72970859D01*
X174714850Y-73085152D01*
X174829143Y-73224418D01*
X174914070Y-73383306D01*
X174966368Y-73555707D01*
X174984026Y-73735001D01*
X174966368Y-73914295D01*
X174914070Y-74086696D01*
X174829143Y-74245584D01*
X174714850Y-74384850D01*
X174575584Y-74499143D01*
X174416696Y-74584070D01*
X174244295Y-74636368D01*
X174109932Y-74649601D01*
X174020070Y-74649601D01*
X173885707Y-74636368D01*
X173713306Y-74584070D01*
X173554418Y-74499143D01*
X173415152Y-74384850D01*
X173300859Y-74245584D01*
X173215932Y-74086696D01*
X173163634Y-73914295D01*
X173145976Y-73735001D01*
X173163634Y-73555707D01*
X173215932Y-73383306D01*
X173300859Y-73224418D01*
X173415152Y-73085152D01*
X173554418Y-72970859D01*
X173713306Y-72885932D01*
X173885707Y-72833634D01*
X174020070Y-72820401D01*
X174109932Y-72820401D01*
X174244295Y-72833634D01*
X174244295Y-72833634D01*
G37*
G36*
X174244295Y-70293634D02*
G01*
X174416696Y-70345932D01*
X174575584Y-70430859D01*
X174714850Y-70545152D01*
X174829143Y-70684418D01*
X174914070Y-70843306D01*
X174966368Y-71015707D01*
X174984026Y-71195001D01*
X174966368Y-71374295D01*
X174914070Y-71546696D01*
X174829143Y-71705584D01*
X174714850Y-71844850D01*
X174575584Y-71959143D01*
X174416696Y-72044070D01*
X174244295Y-72096368D01*
X174109932Y-72109601D01*
X174020070Y-72109601D01*
X173885707Y-72096368D01*
X173713306Y-72044070D01*
X173554418Y-71959143D01*
X173415152Y-71844850D01*
X173300859Y-71705584D01*
X173215932Y-71546696D01*
X173163634Y-71374295D01*
X173145976Y-71195001D01*
X173163634Y-71015707D01*
X173215932Y-70843306D01*
X173300859Y-70684418D01*
X173415152Y-70545152D01*
X173554418Y-70430859D01*
X173713306Y-70345932D01*
X173885707Y-70293634D01*
X174020070Y-70280401D01*
X174109932Y-70280401D01*
X174244295Y-70293634D01*
X174244295Y-70293634D01*
G37*
G36*
X176784295Y-70293634D02*
G01*
X176956696Y-70345932D01*
X177115584Y-70430859D01*
X177254850Y-70545152D01*
X177369143Y-70684418D01*
X177454070Y-70843306D01*
X177506368Y-71015707D01*
X177524026Y-71195001D01*
X177506368Y-71374295D01*
X177454070Y-71546696D01*
X177369143Y-71705584D01*
X177254850Y-71844850D01*
X177115584Y-71959143D01*
X176956696Y-72044070D01*
X176784295Y-72096368D01*
X176649932Y-72109601D01*
X176560070Y-72109601D01*
X176425707Y-72096368D01*
X176253306Y-72044070D01*
X176094418Y-71959143D01*
X175955152Y-71844850D01*
X175840859Y-71705584D01*
X175755932Y-71546696D01*
X175703634Y-71374295D01*
X175685976Y-71195001D01*
X175703634Y-71015707D01*
X175755932Y-70843306D01*
X175840859Y-70684418D01*
X175955152Y-70545152D01*
X176094418Y-70430859D01*
X176253306Y-70345932D01*
X176425707Y-70293634D01*
X176560070Y-70280401D01*
X176649932Y-70280401D01*
X176784295Y-70293634D01*
X176784295Y-70293634D01*
G37*
G36*
X170630257Y-67046299D02*
G01*
X170736580Y-67067448D01*
X171037043Y-67191904D01*
X171307452Y-67372586D01*
X171537416Y-67602550D01*
X171718098Y-67872959D01*
X171718099Y-67872961D01*
X171842554Y-68173423D01*
X171906001Y-68492390D01*
X171906001Y-68817612D01*
X171842554Y-69136579D01*
X171725513Y-69419143D01*
X171718098Y-69437043D01*
X171537416Y-69707452D01*
X171307452Y-69937416D01*
X171037043Y-70118098D01*
X170736580Y-70242554D01*
X170630257Y-70263703D01*
X170417612Y-70306001D01*
X170092390Y-70306001D01*
X169879745Y-70263703D01*
X169773422Y-70242554D01*
X169472959Y-70118098D01*
X169202550Y-69937416D01*
X168972586Y-69707452D01*
X168791904Y-69437043D01*
X168784490Y-69419143D01*
X168667448Y-69136579D01*
X168604001Y-68817612D01*
X168604001Y-68492390D01*
X168667448Y-68173423D01*
X168791903Y-67872961D01*
X168791904Y-67872959D01*
X168972586Y-67602550D01*
X169202550Y-67372586D01*
X169472959Y-67191904D01*
X169773422Y-67067448D01*
X169879745Y-67046299D01*
X170092390Y-67004001D01*
X170417612Y-67004001D01*
X170630257Y-67046299D01*
X170630257Y-67046299D01*
G37*
G36*
X95700257Y-67046299D02*
G01*
X95806580Y-67067448D01*
X96107043Y-67191904D01*
X96377452Y-67372586D01*
X96607416Y-67602550D01*
X96788098Y-67872959D01*
X96788099Y-67872961D01*
X96912554Y-68173423D01*
X96976001Y-68492390D01*
X96976001Y-68817612D01*
X96912554Y-69136579D01*
X96795513Y-69419143D01*
X96788098Y-69437043D01*
X96607416Y-69707452D01*
X96377452Y-69937416D01*
X96107043Y-70118098D01*
X95806580Y-70242554D01*
X95700257Y-70263703D01*
X95487612Y-70306001D01*
X95162390Y-70306001D01*
X94949745Y-70263703D01*
X94843422Y-70242554D01*
X94542959Y-70118098D01*
X94272550Y-69937416D01*
X94042586Y-69707452D01*
X93861904Y-69437043D01*
X93854490Y-69419143D01*
X93737448Y-69136579D01*
X93674001Y-68817612D01*
X93674001Y-68492390D01*
X93737448Y-68173423D01*
X93861903Y-67872961D01*
X93861904Y-67872959D01*
X94042586Y-67602550D01*
X94272550Y-67372586D01*
X94542959Y-67191904D01*
X94843422Y-67067448D01*
X94949745Y-67046299D01*
X95162390Y-67004001D01*
X95487612Y-67004001D01*
X95700257Y-67046299D01*
X95700257Y-67046299D01*
G37*
G36*
X121920295Y-67753634D02*
G01*
X122092696Y-67805932D01*
X122251584Y-67890859D01*
X122390850Y-68005152D01*
X122505143Y-68144418D01*
X122590070Y-68303306D01*
X122642368Y-68475707D01*
X122660026Y-68655001D01*
X122642368Y-68834295D01*
X122590070Y-69006696D01*
X122505143Y-69165584D01*
X122390850Y-69304850D01*
X122251584Y-69419143D01*
X122092696Y-69504070D01*
X121920295Y-69556368D01*
X121785932Y-69569601D01*
X121696070Y-69569601D01*
X121561707Y-69556368D01*
X121389306Y-69504070D01*
X121230418Y-69419143D01*
X121091152Y-69304850D01*
X120976859Y-69165584D01*
X120891932Y-69006696D01*
X120839634Y-68834295D01*
X120821976Y-68655001D01*
X120839634Y-68475707D01*
X120891932Y-68303306D01*
X120976859Y-68144418D01*
X121091152Y-68005152D01*
X121230418Y-67890859D01*
X121389306Y-67805932D01*
X121561707Y-67753634D01*
X121696070Y-67740401D01*
X121785932Y-67740401D01*
X121920295Y-67753634D01*
X121920295Y-67753634D01*
G37*
G36*
X119380295Y-67753634D02*
G01*
X119552696Y-67805932D01*
X119711584Y-67890859D01*
X119850850Y-68005152D01*
X119965143Y-68144418D01*
X120050070Y-68303306D01*
X120102368Y-68475707D01*
X120120026Y-68655001D01*
X120102368Y-68834295D01*
X120050070Y-69006696D01*
X119965143Y-69165584D01*
X119850850Y-69304850D01*
X119711584Y-69419143D01*
X119552696Y-69504070D01*
X119380295Y-69556368D01*
X119245932Y-69569601D01*
X119156070Y-69569601D01*
X119021707Y-69556368D01*
X118849306Y-69504070D01*
X118690418Y-69419143D01*
X118551152Y-69304850D01*
X118436859Y-69165584D01*
X118351932Y-69006696D01*
X118299634Y-68834295D01*
X118281976Y-68655001D01*
X118299634Y-68475707D01*
X118351932Y-68303306D01*
X118436859Y-68144418D01*
X118551152Y-68005152D01*
X118690418Y-67890859D01*
X118849306Y-67805932D01*
X119021707Y-67753634D01*
X119156070Y-67740401D01*
X119245932Y-67740401D01*
X119380295Y-67753634D01*
X119380295Y-67753634D01*
G37*
G36*
X116840295Y-67753634D02*
G01*
X117012696Y-67805932D01*
X117171584Y-67890859D01*
X117310850Y-68005152D01*
X117425143Y-68144418D01*
X117510070Y-68303306D01*
X117562368Y-68475707D01*
X117580026Y-68655001D01*
X117562368Y-68834295D01*
X117510070Y-69006696D01*
X117425143Y-69165584D01*
X117310850Y-69304850D01*
X117171584Y-69419143D01*
X117012696Y-69504070D01*
X116840295Y-69556368D01*
X116705932Y-69569601D01*
X116616070Y-69569601D01*
X116481707Y-69556368D01*
X116309306Y-69504070D01*
X116150418Y-69419143D01*
X116011152Y-69304850D01*
X115896859Y-69165584D01*
X115811932Y-69006696D01*
X115759634Y-68834295D01*
X115741976Y-68655001D01*
X115759634Y-68475707D01*
X115811932Y-68303306D01*
X115896859Y-68144418D01*
X116011152Y-68005152D01*
X116150418Y-67890859D01*
X116309306Y-67805932D01*
X116481707Y-67753634D01*
X116616070Y-67740401D01*
X116705932Y-67740401D01*
X116840295Y-67753634D01*
X116840295Y-67753634D01*
G37*
G36*
X114300295Y-67753634D02*
G01*
X114472696Y-67805932D01*
X114631584Y-67890859D01*
X114770850Y-68005152D01*
X114885143Y-68144418D01*
X114970070Y-68303306D01*
X115022368Y-68475707D01*
X115040026Y-68655001D01*
X115022368Y-68834295D01*
X114970070Y-69006696D01*
X114885143Y-69165584D01*
X114770850Y-69304850D01*
X114631584Y-69419143D01*
X114472696Y-69504070D01*
X114300295Y-69556368D01*
X114165932Y-69569601D01*
X114076070Y-69569601D01*
X113941707Y-69556368D01*
X113769306Y-69504070D01*
X113610418Y-69419143D01*
X113471152Y-69304850D01*
X113356859Y-69165584D01*
X113271932Y-69006696D01*
X113219634Y-68834295D01*
X113201976Y-68655001D01*
X113219634Y-68475707D01*
X113271932Y-68303306D01*
X113356859Y-68144418D01*
X113471152Y-68005152D01*
X113610418Y-67890859D01*
X113769306Y-67805932D01*
X113941707Y-67753634D01*
X114076070Y-67740401D01*
X114165932Y-67740401D01*
X114300295Y-67753634D01*
X114300295Y-67753634D01*
G37*
G36*
X111760295Y-67753634D02*
G01*
X111932696Y-67805932D01*
X112091584Y-67890859D01*
X112230850Y-68005152D01*
X112345143Y-68144418D01*
X112430070Y-68303306D01*
X112482368Y-68475707D01*
X112500026Y-68655001D01*
X112482368Y-68834295D01*
X112430070Y-69006696D01*
X112345143Y-69165584D01*
X112230850Y-69304850D01*
X112091584Y-69419143D01*
X111932696Y-69504070D01*
X111760295Y-69556368D01*
X111625932Y-69569601D01*
X111536070Y-69569601D01*
X111401707Y-69556368D01*
X111229306Y-69504070D01*
X111070418Y-69419143D01*
X110931152Y-69304850D01*
X110816859Y-69165584D01*
X110731932Y-69006696D01*
X110679634Y-68834295D01*
X110661976Y-68655001D01*
X110679634Y-68475707D01*
X110731932Y-68303306D01*
X110816859Y-68144418D01*
X110931152Y-68005152D01*
X111070418Y-67890859D01*
X111229306Y-67805932D01*
X111401707Y-67753634D01*
X111536070Y-67740401D01*
X111625932Y-67740401D01*
X111760295Y-67753634D01*
X111760295Y-67753634D01*
G37*
G36*
X109220295Y-67753634D02*
G01*
X109392696Y-67805932D01*
X109551584Y-67890859D01*
X109690850Y-68005152D01*
X109805143Y-68144418D01*
X109890070Y-68303306D01*
X109942368Y-68475707D01*
X109960026Y-68655001D01*
X109942368Y-68834295D01*
X109890070Y-69006696D01*
X109805143Y-69165584D01*
X109690850Y-69304850D01*
X109551584Y-69419143D01*
X109392696Y-69504070D01*
X109220295Y-69556368D01*
X109085932Y-69569601D01*
X108996070Y-69569601D01*
X108861707Y-69556368D01*
X108689306Y-69504070D01*
X108530418Y-69419143D01*
X108391152Y-69304850D01*
X108276859Y-69165584D01*
X108191932Y-69006696D01*
X108139634Y-68834295D01*
X108121976Y-68655001D01*
X108139634Y-68475707D01*
X108191932Y-68303306D01*
X108276859Y-68144418D01*
X108391152Y-68005152D01*
X108530418Y-67890859D01*
X108689306Y-67805932D01*
X108861707Y-67753634D01*
X108996070Y-67740401D01*
X109085932Y-67740401D01*
X109220295Y-67753634D01*
X109220295Y-67753634D01*
G37*
G36*
X106680295Y-67753634D02*
G01*
X106852696Y-67805932D01*
X107011584Y-67890859D01*
X107150850Y-68005152D01*
X107265143Y-68144418D01*
X107350070Y-68303306D01*
X107402368Y-68475707D01*
X107420026Y-68655001D01*
X107402368Y-68834295D01*
X107350070Y-69006696D01*
X107265143Y-69165584D01*
X107150850Y-69304850D01*
X107011584Y-69419143D01*
X106852696Y-69504070D01*
X106680295Y-69556368D01*
X106545932Y-69569601D01*
X106456070Y-69569601D01*
X106321707Y-69556368D01*
X106149306Y-69504070D01*
X105990418Y-69419143D01*
X105851152Y-69304850D01*
X105736859Y-69165584D01*
X105651932Y-69006696D01*
X105599634Y-68834295D01*
X105581976Y-68655001D01*
X105599634Y-68475707D01*
X105651932Y-68303306D01*
X105736859Y-68144418D01*
X105851152Y-68005152D01*
X105990418Y-67890859D01*
X106149306Y-67805932D01*
X106321707Y-67753634D01*
X106456070Y-67740401D01*
X106545932Y-67740401D01*
X106680295Y-67753634D01*
X106680295Y-67753634D01*
G37*
G36*
X104140295Y-67753634D02*
G01*
X104312696Y-67805932D01*
X104471584Y-67890859D01*
X104610850Y-68005152D01*
X104725143Y-68144418D01*
X104810070Y-68303306D01*
X104862368Y-68475707D01*
X104880026Y-68655001D01*
X104862368Y-68834295D01*
X104810070Y-69006696D01*
X104725143Y-69165584D01*
X104610850Y-69304850D01*
X104471584Y-69419143D01*
X104312696Y-69504070D01*
X104140295Y-69556368D01*
X104005932Y-69569601D01*
X103916070Y-69569601D01*
X103781707Y-69556368D01*
X103609306Y-69504070D01*
X103450418Y-69419143D01*
X103311152Y-69304850D01*
X103196859Y-69165584D01*
X103111932Y-69006696D01*
X103059634Y-68834295D01*
X103041976Y-68655001D01*
X103059634Y-68475707D01*
X103111932Y-68303306D01*
X103196859Y-68144418D01*
X103311152Y-68005152D01*
X103450418Y-67890859D01*
X103609306Y-67805932D01*
X103781707Y-67753634D01*
X103916070Y-67740401D01*
X104005932Y-67740401D01*
X104140295Y-67753634D01*
X104140295Y-67753634D01*
G37*
G36*
X101600295Y-67753634D02*
G01*
X101772696Y-67805932D01*
X101931584Y-67890859D01*
X102070850Y-68005152D01*
X102185143Y-68144418D01*
X102270070Y-68303306D01*
X102322368Y-68475707D01*
X102340026Y-68655001D01*
X102322368Y-68834295D01*
X102270070Y-69006696D01*
X102185143Y-69165584D01*
X102070850Y-69304850D01*
X101931584Y-69419143D01*
X101772696Y-69504070D01*
X101600295Y-69556368D01*
X101465932Y-69569601D01*
X101376070Y-69569601D01*
X101241707Y-69556368D01*
X101069306Y-69504070D01*
X100910418Y-69419143D01*
X100771152Y-69304850D01*
X100656859Y-69165584D01*
X100571932Y-69006696D01*
X100519634Y-68834295D01*
X100501976Y-68655001D01*
X100519634Y-68475707D01*
X100571932Y-68303306D01*
X100656859Y-68144418D01*
X100771152Y-68005152D01*
X100910418Y-67890859D01*
X101069306Y-67805932D01*
X101241707Y-67753634D01*
X101376070Y-67740401D01*
X101465932Y-67740401D01*
X101600295Y-67753634D01*
X101600295Y-67753634D01*
G37*
G36*
X174244295Y-67753634D02*
G01*
X174416696Y-67805932D01*
X174575584Y-67890859D01*
X174714850Y-68005152D01*
X174829143Y-68144418D01*
X174914070Y-68303306D01*
X174966368Y-68475707D01*
X174984026Y-68655001D01*
X174966368Y-68834295D01*
X174914070Y-69006696D01*
X174829143Y-69165584D01*
X174714850Y-69304850D01*
X174575584Y-69419143D01*
X174416696Y-69504070D01*
X174244295Y-69556368D01*
X174109932Y-69569601D01*
X174020070Y-69569601D01*
X173885707Y-69556368D01*
X173713306Y-69504070D01*
X173554418Y-69419143D01*
X173415152Y-69304850D01*
X173300859Y-69165584D01*
X173215932Y-69006696D01*
X173163634Y-68834295D01*
X173145976Y-68655001D01*
X173163634Y-68475707D01*
X173215932Y-68303306D01*
X173300859Y-68144418D01*
X173415152Y-68005152D01*
X173554418Y-67890859D01*
X173713306Y-67805932D01*
X173885707Y-67753634D01*
X174020070Y-67740401D01*
X174109932Y-67740401D01*
X174244295Y-67753634D01*
X174244295Y-67753634D01*
G37*
G36*
X176784295Y-67753634D02*
G01*
X176956696Y-67805932D01*
X177115584Y-67890859D01*
X177254850Y-68005152D01*
X177369143Y-68144418D01*
X177454070Y-68303306D01*
X177506368Y-68475707D01*
X177524026Y-68655001D01*
X177506368Y-68834295D01*
X177454070Y-69006696D01*
X177369143Y-69165584D01*
X177254850Y-69304850D01*
X177115584Y-69419143D01*
X176956696Y-69504070D01*
X176784295Y-69556368D01*
X176649932Y-69569601D01*
X176560070Y-69569601D01*
X176425707Y-69556368D01*
X176253306Y-69504070D01*
X176094418Y-69419143D01*
X175955152Y-69304850D01*
X175840859Y-69165584D01*
X175755932Y-69006696D01*
X175703634Y-68834295D01*
X175685976Y-68655001D01*
X175703634Y-68475707D01*
X175755932Y-68303306D01*
X175840859Y-68144418D01*
X175955152Y-68005152D01*
X176094418Y-67890859D01*
X176253306Y-67805932D01*
X176425707Y-67753634D01*
X176560070Y-67740401D01*
X176649932Y-67740401D01*
X176784295Y-67753634D01*
X176784295Y-67753634D01*
G37*
G36*
X133604295Y-67753634D02*
G01*
X133776696Y-67805932D01*
X133935584Y-67890859D01*
X134074850Y-68005152D01*
X134189143Y-68144418D01*
X134274070Y-68303306D01*
X134326368Y-68475707D01*
X134344026Y-68655001D01*
X134326368Y-68834295D01*
X134274070Y-69006696D01*
X134189143Y-69165584D01*
X134074850Y-69304850D01*
X133935584Y-69419143D01*
X133776696Y-69504070D01*
X133604295Y-69556368D01*
X133469932Y-69569601D01*
X133380070Y-69569601D01*
X133245707Y-69556368D01*
X133073306Y-69504070D01*
X132914418Y-69419143D01*
X132775152Y-69304850D01*
X132660859Y-69165584D01*
X132575932Y-69006696D01*
X132523634Y-68834295D01*
X132505976Y-68655001D01*
X132523634Y-68475707D01*
X132575932Y-68303306D01*
X132660859Y-68144418D01*
X132775152Y-68005152D01*
X132914418Y-67890859D01*
X133073306Y-67805932D01*
X133245707Y-67753634D01*
X133380070Y-67740401D01*
X133469932Y-67740401D01*
X133604295Y-67753634D01*
X133604295Y-67753634D01*
G37*
G36*
X131064295Y-67753634D02*
G01*
X131236696Y-67805932D01*
X131395584Y-67890859D01*
X131534850Y-68005152D01*
X131649143Y-68144418D01*
X131734070Y-68303306D01*
X131786368Y-68475707D01*
X131804026Y-68655001D01*
X131786368Y-68834295D01*
X131734070Y-69006696D01*
X131649143Y-69165584D01*
X131534850Y-69304850D01*
X131395584Y-69419143D01*
X131236696Y-69504070D01*
X131064295Y-69556368D01*
X130929932Y-69569601D01*
X130840070Y-69569601D01*
X130705707Y-69556368D01*
X130533306Y-69504070D01*
X130374418Y-69419143D01*
X130235152Y-69304850D01*
X130120859Y-69165584D01*
X130035932Y-69006696D01*
X129983634Y-68834295D01*
X129965976Y-68655001D01*
X129983634Y-68475707D01*
X130035932Y-68303306D01*
X130120859Y-68144418D01*
X130235152Y-68005152D01*
X130374418Y-67890859D01*
X130533306Y-67805932D01*
X130705707Y-67753634D01*
X130840070Y-67740401D01*
X130929932Y-67740401D01*
X131064295Y-67753634D01*
X131064295Y-67753634D01*
G37*
G36*
X128524295Y-67753634D02*
G01*
X128696696Y-67805932D01*
X128855584Y-67890859D01*
X128994850Y-68005152D01*
X129109143Y-68144418D01*
X129194070Y-68303306D01*
X129246368Y-68475707D01*
X129264026Y-68655001D01*
X129246368Y-68834295D01*
X129194070Y-69006696D01*
X129109143Y-69165584D01*
X128994850Y-69304850D01*
X128855584Y-69419143D01*
X128696696Y-69504070D01*
X128524295Y-69556368D01*
X128389932Y-69569601D01*
X128300070Y-69569601D01*
X128165707Y-69556368D01*
X127993306Y-69504070D01*
X127834418Y-69419143D01*
X127695152Y-69304850D01*
X127580859Y-69165584D01*
X127495932Y-69006696D01*
X127443634Y-68834295D01*
X127425976Y-68655001D01*
X127443634Y-68475707D01*
X127495932Y-68303306D01*
X127580859Y-68144418D01*
X127695152Y-68005152D01*
X127834418Y-67890859D01*
X127993306Y-67805932D01*
X128165707Y-67753634D01*
X128300070Y-67740401D01*
X128389932Y-67740401D01*
X128524295Y-67753634D01*
X128524295Y-67753634D01*
G37*
G36*
X125984295Y-67753634D02*
G01*
X126156696Y-67805932D01*
X126315584Y-67890859D01*
X126454850Y-68005152D01*
X126569143Y-68144418D01*
X126654070Y-68303306D01*
X126706368Y-68475707D01*
X126724026Y-68655001D01*
X126706368Y-68834295D01*
X126654070Y-69006696D01*
X126569143Y-69165584D01*
X126454850Y-69304850D01*
X126315584Y-69419143D01*
X126156696Y-69504070D01*
X125984295Y-69556368D01*
X125849932Y-69569601D01*
X125760070Y-69569601D01*
X125625707Y-69556368D01*
X125453306Y-69504070D01*
X125294418Y-69419143D01*
X125155152Y-69304850D01*
X125040859Y-69165584D01*
X124955932Y-69006696D01*
X124903634Y-68834295D01*
X124885976Y-68655001D01*
X124903634Y-68475707D01*
X124955932Y-68303306D01*
X125040859Y-68144418D01*
X125155152Y-68005152D01*
X125294418Y-67890859D01*
X125453306Y-67805932D01*
X125625707Y-67753634D01*
X125760070Y-67740401D01*
X125849932Y-67740401D01*
X125984295Y-67753634D01*
X125984295Y-67753634D01*
G37*
G36*
X166624295Y-67753634D02*
G01*
X166796696Y-67805932D01*
X166955584Y-67890859D01*
X167094850Y-68005152D01*
X167209143Y-68144418D01*
X167294070Y-68303306D01*
X167346368Y-68475707D01*
X167364026Y-68655001D01*
X167346368Y-68834295D01*
X167294070Y-69006696D01*
X167209143Y-69165584D01*
X167094850Y-69304850D01*
X166955584Y-69419143D01*
X166796696Y-69504070D01*
X166624295Y-69556368D01*
X166489932Y-69569601D01*
X166400070Y-69569601D01*
X166265707Y-69556368D01*
X166093306Y-69504070D01*
X165934418Y-69419143D01*
X165795152Y-69304850D01*
X165680859Y-69165584D01*
X165595932Y-69006696D01*
X165543634Y-68834295D01*
X165525976Y-68655001D01*
X165543634Y-68475707D01*
X165595932Y-68303306D01*
X165680859Y-68144418D01*
X165795152Y-68005152D01*
X165934418Y-67890859D01*
X166093306Y-67805932D01*
X166265707Y-67753634D01*
X166400070Y-67740401D01*
X166489932Y-67740401D01*
X166624295Y-67753634D01*
X166624295Y-67753634D01*
G37*
G36*
X164084295Y-67753634D02*
G01*
X164256696Y-67805932D01*
X164415584Y-67890859D01*
X164554850Y-68005152D01*
X164669143Y-68144418D01*
X164754070Y-68303306D01*
X164806368Y-68475707D01*
X164824026Y-68655001D01*
X164806368Y-68834295D01*
X164754070Y-69006696D01*
X164669143Y-69165584D01*
X164554850Y-69304850D01*
X164415584Y-69419143D01*
X164256696Y-69504070D01*
X164084295Y-69556368D01*
X163949932Y-69569601D01*
X163860070Y-69569601D01*
X163725707Y-69556368D01*
X163553306Y-69504070D01*
X163394418Y-69419143D01*
X163255152Y-69304850D01*
X163140859Y-69165584D01*
X163055932Y-69006696D01*
X163003634Y-68834295D01*
X162985976Y-68655001D01*
X163003634Y-68475707D01*
X163055932Y-68303306D01*
X163140859Y-68144418D01*
X163255152Y-68005152D01*
X163394418Y-67890859D01*
X163553306Y-67805932D01*
X163725707Y-67753634D01*
X163860070Y-67740401D01*
X163949932Y-67740401D01*
X164084295Y-67753634D01*
X164084295Y-67753634D01*
G37*
G36*
X161544295Y-67753634D02*
G01*
X161716696Y-67805932D01*
X161875584Y-67890859D01*
X162014850Y-68005152D01*
X162129143Y-68144418D01*
X162214070Y-68303306D01*
X162266368Y-68475707D01*
X162284026Y-68655001D01*
X162266368Y-68834295D01*
X162214070Y-69006696D01*
X162129143Y-69165584D01*
X162014850Y-69304850D01*
X161875584Y-69419143D01*
X161716696Y-69504070D01*
X161544295Y-69556368D01*
X161409932Y-69569601D01*
X161320070Y-69569601D01*
X161185707Y-69556368D01*
X161013306Y-69504070D01*
X160854418Y-69419143D01*
X160715152Y-69304850D01*
X160600859Y-69165584D01*
X160515932Y-69006696D01*
X160463634Y-68834295D01*
X160445976Y-68655001D01*
X160463634Y-68475707D01*
X160515932Y-68303306D01*
X160600859Y-68144418D01*
X160715152Y-68005152D01*
X160854418Y-67890859D01*
X161013306Y-67805932D01*
X161185707Y-67753634D01*
X161320070Y-67740401D01*
X161409932Y-67740401D01*
X161544295Y-67753634D01*
X161544295Y-67753634D01*
G37*
G36*
X159004295Y-67753634D02*
G01*
X159176696Y-67805932D01*
X159335584Y-67890859D01*
X159474850Y-68005152D01*
X159589143Y-68144418D01*
X159674070Y-68303306D01*
X159726368Y-68475707D01*
X159744026Y-68655001D01*
X159726368Y-68834295D01*
X159674070Y-69006696D01*
X159589143Y-69165584D01*
X159474850Y-69304850D01*
X159335584Y-69419143D01*
X159176696Y-69504070D01*
X159004295Y-69556368D01*
X158869932Y-69569601D01*
X158780070Y-69569601D01*
X158645707Y-69556368D01*
X158473306Y-69504070D01*
X158314418Y-69419143D01*
X158175152Y-69304850D01*
X158060859Y-69165584D01*
X157975932Y-69006696D01*
X157923634Y-68834295D01*
X157905976Y-68655001D01*
X157923634Y-68475707D01*
X157975932Y-68303306D01*
X158060859Y-68144418D01*
X158175152Y-68005152D01*
X158314418Y-67890859D01*
X158473306Y-67805932D01*
X158645707Y-67753634D01*
X158780070Y-67740401D01*
X158869932Y-67740401D01*
X159004295Y-67753634D01*
X159004295Y-67753634D01*
G37*
G36*
X156464295Y-67753634D02*
G01*
X156636696Y-67805932D01*
X156795584Y-67890859D01*
X156934850Y-68005152D01*
X157049143Y-68144418D01*
X157134070Y-68303306D01*
X157186368Y-68475707D01*
X157204026Y-68655001D01*
X157186368Y-68834295D01*
X157134070Y-69006696D01*
X157049143Y-69165584D01*
X156934850Y-69304850D01*
X156795584Y-69419143D01*
X156636696Y-69504070D01*
X156464295Y-69556368D01*
X156329932Y-69569601D01*
X156240070Y-69569601D01*
X156105707Y-69556368D01*
X155933306Y-69504070D01*
X155774418Y-69419143D01*
X155635152Y-69304850D01*
X155520859Y-69165584D01*
X155435932Y-69006696D01*
X155383634Y-68834295D01*
X155365976Y-68655001D01*
X155383634Y-68475707D01*
X155435932Y-68303306D01*
X155520859Y-68144418D01*
X155635152Y-68005152D01*
X155774418Y-67890859D01*
X155933306Y-67805932D01*
X156105707Y-67753634D01*
X156240070Y-67740401D01*
X156329932Y-67740401D01*
X156464295Y-67753634D01*
X156464295Y-67753634D01*
G37*
G36*
X99060295Y-67753634D02*
G01*
X99232696Y-67805932D01*
X99391584Y-67890859D01*
X99530850Y-68005152D01*
X99645143Y-68144418D01*
X99730070Y-68303306D01*
X99782368Y-68475707D01*
X99800026Y-68655001D01*
X99782368Y-68834295D01*
X99730070Y-69006696D01*
X99645143Y-69165584D01*
X99530850Y-69304850D01*
X99391584Y-69419143D01*
X99232696Y-69504070D01*
X99060295Y-69556368D01*
X98925932Y-69569601D01*
X98836070Y-69569601D01*
X98701707Y-69556368D01*
X98529306Y-69504070D01*
X98370418Y-69419143D01*
X98231152Y-69304850D01*
X98116859Y-69165584D01*
X98031932Y-69006696D01*
X97979634Y-68834295D01*
X97961976Y-68655001D01*
X97979634Y-68475707D01*
X98031932Y-68303306D01*
X98116859Y-68144418D01*
X98231152Y-68005152D01*
X98370418Y-67890859D01*
X98529306Y-67805932D01*
X98701707Y-67753634D01*
X98836070Y-67740401D01*
X98925932Y-67740401D01*
X99060295Y-67753634D01*
X99060295Y-67753634D01*
G37*
G36*
X138684295Y-67753634D02*
G01*
X138856696Y-67805932D01*
X139015584Y-67890859D01*
X139154850Y-68005152D01*
X139269143Y-68144418D01*
X139354070Y-68303306D01*
X139406368Y-68475707D01*
X139424026Y-68655001D01*
X139406368Y-68834295D01*
X139354070Y-69006696D01*
X139269143Y-69165584D01*
X139154850Y-69304850D01*
X139015584Y-69419143D01*
X138856696Y-69504070D01*
X138684295Y-69556368D01*
X138549932Y-69569601D01*
X138460070Y-69569601D01*
X138325707Y-69556368D01*
X138153306Y-69504070D01*
X137994418Y-69419143D01*
X137855152Y-69304850D01*
X137740859Y-69165584D01*
X137655932Y-69006696D01*
X137603634Y-68834295D01*
X137585976Y-68655001D01*
X137603634Y-68475707D01*
X137655932Y-68303306D01*
X137740859Y-68144418D01*
X137855152Y-68005152D01*
X137994418Y-67890859D01*
X138153306Y-67805932D01*
X138325707Y-67753634D01*
X138460070Y-67740401D01*
X138549932Y-67740401D01*
X138684295Y-67753634D01*
X138684295Y-67753634D01*
G37*
G36*
X141224295Y-67753634D02*
G01*
X141396696Y-67805932D01*
X141555584Y-67890859D01*
X141694850Y-68005152D01*
X141809143Y-68144418D01*
X141894070Y-68303306D01*
X141946368Y-68475707D01*
X141964026Y-68655001D01*
X141946368Y-68834295D01*
X141894070Y-69006696D01*
X141809143Y-69165584D01*
X141694850Y-69304850D01*
X141555584Y-69419143D01*
X141396696Y-69504070D01*
X141224295Y-69556368D01*
X141089932Y-69569601D01*
X141000070Y-69569601D01*
X140865707Y-69556368D01*
X140693306Y-69504070D01*
X140534418Y-69419143D01*
X140395152Y-69304850D01*
X140280859Y-69165584D01*
X140195932Y-69006696D01*
X140143634Y-68834295D01*
X140125976Y-68655001D01*
X140143634Y-68475707D01*
X140195932Y-68303306D01*
X140280859Y-68144418D01*
X140395152Y-68005152D01*
X140534418Y-67890859D01*
X140693306Y-67805932D01*
X140865707Y-67753634D01*
X141000070Y-67740401D01*
X141089932Y-67740401D01*
X141224295Y-67753634D01*
X141224295Y-67753634D01*
G37*
G36*
X143764295Y-67753634D02*
G01*
X143936696Y-67805932D01*
X144095584Y-67890859D01*
X144234850Y-68005152D01*
X144349143Y-68144418D01*
X144434070Y-68303306D01*
X144486368Y-68475707D01*
X144504026Y-68655001D01*
X144486368Y-68834295D01*
X144434070Y-69006696D01*
X144349143Y-69165584D01*
X144234850Y-69304850D01*
X144095584Y-69419143D01*
X143936696Y-69504070D01*
X143764295Y-69556368D01*
X143629932Y-69569601D01*
X143540070Y-69569601D01*
X143405707Y-69556368D01*
X143233306Y-69504070D01*
X143074418Y-69419143D01*
X142935152Y-69304850D01*
X142820859Y-69165584D01*
X142735932Y-69006696D01*
X142683634Y-68834295D01*
X142665976Y-68655001D01*
X142683634Y-68475707D01*
X142735932Y-68303306D01*
X142820859Y-68144418D01*
X142935152Y-68005152D01*
X143074418Y-67890859D01*
X143233306Y-67805932D01*
X143405707Y-67753634D01*
X143540070Y-67740401D01*
X143629932Y-67740401D01*
X143764295Y-67753634D01*
X143764295Y-67753634D01*
G37*
G36*
X148844295Y-67753634D02*
G01*
X149016696Y-67805932D01*
X149175584Y-67890859D01*
X149314850Y-68005152D01*
X149429143Y-68144418D01*
X149514070Y-68303306D01*
X149566368Y-68475707D01*
X149584026Y-68655001D01*
X149566368Y-68834295D01*
X149514070Y-69006696D01*
X149429143Y-69165584D01*
X149314850Y-69304850D01*
X149175584Y-69419143D01*
X149016696Y-69504070D01*
X148844295Y-69556368D01*
X148709932Y-69569601D01*
X148620070Y-69569601D01*
X148485707Y-69556368D01*
X148313306Y-69504070D01*
X148154418Y-69419143D01*
X148015152Y-69304850D01*
X147900859Y-69165584D01*
X147815932Y-69006696D01*
X147763634Y-68834295D01*
X147745976Y-68655001D01*
X147763634Y-68475707D01*
X147815932Y-68303306D01*
X147900859Y-68144418D01*
X148015152Y-68005152D01*
X148154418Y-67890859D01*
X148313306Y-67805932D01*
X148485707Y-67753634D01*
X148620070Y-67740401D01*
X148709932Y-67740401D01*
X148844295Y-67753634D01*
X148844295Y-67753634D01*
G37*
G36*
X151384295Y-67753634D02*
G01*
X151556696Y-67805932D01*
X151715584Y-67890859D01*
X151854850Y-68005152D01*
X151969143Y-68144418D01*
X152054070Y-68303306D01*
X152106368Y-68475707D01*
X152124026Y-68655001D01*
X152106368Y-68834295D01*
X152054070Y-69006696D01*
X151969143Y-69165584D01*
X151854850Y-69304850D01*
X151715584Y-69419143D01*
X151556696Y-69504070D01*
X151384295Y-69556368D01*
X151249932Y-69569601D01*
X151160070Y-69569601D01*
X151025707Y-69556368D01*
X150853306Y-69504070D01*
X150694418Y-69419143D01*
X150555152Y-69304850D01*
X150440859Y-69165584D01*
X150355932Y-69006696D01*
X150303634Y-68834295D01*
X150285976Y-68655001D01*
X150303634Y-68475707D01*
X150355932Y-68303306D01*
X150440859Y-68144418D01*
X150555152Y-68005152D01*
X150694418Y-67890859D01*
X150853306Y-67805932D01*
X151025707Y-67753634D01*
X151160070Y-67740401D01*
X151249932Y-67740401D01*
X151384295Y-67753634D01*
X151384295Y-67753634D01*
G37*
G36*
X136144295Y-67753634D02*
G01*
X136316696Y-67805932D01*
X136475584Y-67890859D01*
X136614850Y-68005152D01*
X136729143Y-68144418D01*
X136814070Y-68303306D01*
X136866368Y-68475707D01*
X136884026Y-68655001D01*
X136866368Y-68834295D01*
X136814070Y-69006696D01*
X136729143Y-69165584D01*
X136614850Y-69304850D01*
X136475584Y-69419143D01*
X136316696Y-69504070D01*
X136144295Y-69556368D01*
X136009932Y-69569601D01*
X135920070Y-69569601D01*
X135785707Y-69556368D01*
X135613306Y-69504070D01*
X135454418Y-69419143D01*
X135315152Y-69304850D01*
X135200859Y-69165584D01*
X135115932Y-69006696D01*
X135063634Y-68834295D01*
X135045976Y-68655001D01*
X135063634Y-68475707D01*
X135115932Y-68303306D01*
X135200859Y-68144418D01*
X135315152Y-68005152D01*
X135454418Y-67890859D01*
X135613306Y-67805932D01*
X135785707Y-67753634D01*
X135920070Y-67740401D01*
X136009932Y-67740401D01*
X136144295Y-67753634D01*
X136144295Y-67753634D01*
G37*
G36*
X153924295Y-67753634D02*
G01*
X154096696Y-67805932D01*
X154255584Y-67890859D01*
X154394850Y-68005152D01*
X154509143Y-68144418D01*
X154594070Y-68303306D01*
X154646368Y-68475707D01*
X154664026Y-68655001D01*
X154646368Y-68834295D01*
X154594070Y-69006696D01*
X154509143Y-69165584D01*
X154394850Y-69304850D01*
X154255584Y-69419143D01*
X154096696Y-69504070D01*
X153924295Y-69556368D01*
X153789932Y-69569601D01*
X153700070Y-69569601D01*
X153565707Y-69556368D01*
X153393306Y-69504070D01*
X153234418Y-69419143D01*
X153095152Y-69304850D01*
X152980859Y-69165584D01*
X152895932Y-69006696D01*
X152843634Y-68834295D01*
X152825976Y-68655001D01*
X152843634Y-68475707D01*
X152895932Y-68303306D01*
X152980859Y-68144418D01*
X153095152Y-68005152D01*
X153234418Y-67890859D01*
X153393306Y-67805932D01*
X153565707Y-67753634D01*
X153700070Y-67740401D01*
X153789932Y-67740401D01*
X153924295Y-67753634D01*
X153924295Y-67753634D01*
G37*
M02*
