M48
; DRILL file {KiCad 5.1.4-e60b266~84~ubuntu18.04.1} date Wed 23 Oct 2019 15:59:40 BST
; FORMAT={-:-/ absolute / metric / decimal}
; #@! TF.CreationDate,2019-10-23T15:59:40+01:00
; #@! TF.GenerationSoftware,Kicad,Pcbnew,5.1.4-e60b266~84~ubuntu18.04.1
; #@! TF.FileFunction,Plated,1,2,PTH
FMAT,2
METRIC
T1C0.800
T2C0.890
T3C1.000
T4C1.016
T5C2.010
T6C2.400
%
G90
G05
T1
X165.608Y-103.632
X168.148Y-101.092
X168.148Y-106.172
X124.968Y-98.044
X124.968Y-105.664
X127.508Y-98.044
X127.508Y-105.664
X130.048Y-98.044
X130.048Y-105.664
X132.588Y-98.044
X132.588Y-105.664
X165.608Y-79.756
X168.148Y-77.216
X168.148Y-82.296
X124.968Y-76.2
X124.968Y-83.82
X127.508Y-76.2
X127.508Y-83.82
X130.048Y-76.2
X130.048Y-83.82
X132.588Y-76.2
X132.588Y-83.82
T2
X92.964Y-101.6
X92.964Y-104.14
X92.964Y-80.772
X92.964Y-83.312
T3
X100.584Y-75.836
X100.584Y-84.836
X160.02Y-75.836
X160.02Y-84.836
X108.204Y-75.692
X108.204Y-84.692
X115.824Y-75.692
X115.824Y-84.692
X115.824Y-97.172
X115.824Y-106.172
X152.146Y-99.712
X152.146Y-108.712
X160.02Y-99.712
X160.02Y-108.712
X100.584Y-97.172
X100.584Y-106.172
X108.458Y-97.282
X108.458Y-106.282
X152.4Y-75.692
X152.4Y-84.692
T4
X98.881Y-68.655
X101.421Y-68.655
X103.961Y-68.655
X106.501Y-68.655
X108.025Y-116.915
X109.041Y-68.655
X110.565Y-116.915
X111.581Y-68.655
X113.105Y-116.915
X114.121Y-68.655
X115.645Y-116.915
X116.661Y-68.655
X118.185Y-116.915
X119.201Y-68.655
X120.725Y-116.915
X121.741Y-68.655
X123.265Y-116.915
X125.805Y-68.655
X125.805Y-116.915
X128.345Y-68.655
X130.885Y-68.655
X130.885Y-116.915
X133.425Y-68.655
X133.425Y-116.915
X135.965Y-68.655
X135.965Y-116.915
X138.505Y-68.655
X138.505Y-116.915
X141.045Y-68.655
X141.045Y-116.915
X143.585Y-68.655
X143.585Y-116.915
X143.712Y-88.975
X143.712Y-91.515
X143.712Y-94.055
X146.125Y-116.915
X146.252Y-88.975
X146.252Y-91.515
X146.252Y-94.055
X148.665Y-68.655
X148.665Y-116.915
X151.205Y-68.655
X153.745Y-68.655
X153.745Y-116.915
X156.285Y-68.655
X156.285Y-116.915
X158.825Y-68.655
X158.825Y-116.915
X161.365Y-68.655
X161.365Y-116.915
X163.905Y-68.655
X163.905Y-116.915
X166.445Y-68.655
X166.445Y-116.915
X168.985Y-116.915
X171.525Y-116.915
X174.065Y-68.655
X174.065Y-71.195
X174.065Y-73.735
X174.065Y-76.275
X174.065Y-78.815
X174.065Y-81.355
X174.065Y-83.895
X174.065Y-86.435
X174.065Y-88.975
X174.065Y-91.515
X174.065Y-94.055
X174.065Y-96.595
X174.065Y-99.135
X174.065Y-101.675
X174.065Y-104.215
X174.065Y-106.755
X174.065Y-109.295
X174.065Y-111.835
X176.605Y-68.655
X176.605Y-71.195
X176.605Y-73.735
X176.605Y-76.275
X176.605Y-78.815
X176.605Y-81.355
X176.605Y-83.895
X176.605Y-86.435
X176.605Y-88.975
X176.605Y-91.515
X176.605Y-94.055
X176.605Y-96.595
X176.605Y-99.135
X176.605Y-101.675
X176.605Y-104.215
X176.605Y-106.755
X176.605Y-109.295
X176.605Y-111.835
T5
X87.884Y-96.52
X87.884Y-106.68
X87.884Y-75.692
X87.884Y-85.852
T6
X83.058Y-128.016
X83.058Y-140.716
X138.938Y-128.016
X138.938Y-140.716
T0
M30
