G04 #@! TF.GenerationSoftware,KiCad,Pcbnew,5.1.4-e60b266~84~ubuntu18.04.1*
G04 #@! TF.CreationDate,2019-10-23T15:59:47+01:00*
G04 #@! TF.ProjectId,trans_switch_volt_amp,7472616e-735f-4737-9769-7463685f766f,rev?*
G04 #@! TF.SameCoordinates,Original*
G04 #@! TF.FileFunction,Other,Fab,Top*
%FSLAX46Y46*%
G04 Gerber Fmt 4.6, Leading zero omitted, Abs format (unit mm)*
G04 Created by KiCad (PCBNEW 5.1.4-e60b266~84~ubuntu18.04.1) date 2019-10-23 15:59:47*
%MOMM*%
%LPD*%
G04 APERTURE LIST*
%ADD10C,0.100000*%
%ADD11C,0.150000*%
G04 APERTURE END LIST*
D10*
X110204000Y-86692000D02*
X110204000Y-73692000D01*
X106204000Y-86692000D02*
X110204000Y-86692000D01*
X106204000Y-73692000D02*
X106204000Y-86692000D01*
X110204000Y-73692000D02*
X106204000Y-73692000D01*
X72964000Y-106600000D02*
X71964000Y-96600000D01*
X73964000Y-106600000D02*
X72964000Y-96600000D01*
X74964000Y-106600000D02*
X73964000Y-96600000D01*
X75964000Y-106600000D02*
X74964000Y-96600000D01*
X76964000Y-106600000D02*
X75964000Y-96600000D01*
X77964000Y-106600000D02*
X76964000Y-96600000D01*
X65894000Y-101600000D02*
G75*
G03X65894000Y-101600000I-1000000J0D01*
G01*
X71564000Y-96800000D02*
X59664000Y-96800000D01*
X59664000Y-96800000D02*
X59664000Y-106400000D01*
X59664000Y-106400000D02*
X71564000Y-106400000D01*
X80264000Y-95250000D02*
X71564000Y-95250000D01*
X71564000Y-95250000D02*
X71564000Y-107950000D01*
X71564000Y-107950000D02*
X80264000Y-107950000D01*
X95164000Y-108950000D02*
X95164000Y-94250000D01*
X95164000Y-94250000D02*
X80264000Y-94250000D01*
X80264000Y-94250000D02*
X80264000Y-108950000D01*
X80264000Y-108950000D02*
X95164000Y-108950000D01*
X78964000Y-106600000D02*
X77964000Y-96600000D01*
X78964000Y-85772000D02*
X77964000Y-75772000D01*
X80264000Y-88122000D02*
X95164000Y-88122000D01*
X80264000Y-73422000D02*
X80264000Y-88122000D01*
X95164000Y-73422000D02*
X80264000Y-73422000D01*
X95164000Y-88122000D02*
X95164000Y-73422000D01*
X71564000Y-87122000D02*
X80264000Y-87122000D01*
X71564000Y-74422000D02*
X71564000Y-87122000D01*
X80264000Y-74422000D02*
X71564000Y-74422000D01*
X59664000Y-85572000D02*
X71564000Y-85572000D01*
X59664000Y-75972000D02*
X59664000Y-85572000D01*
X71564000Y-75972000D02*
X59664000Y-75972000D01*
X65894000Y-80772000D02*
G75*
G03X65894000Y-80772000I-1000000J0D01*
G01*
X77964000Y-85772000D02*
X76964000Y-75772000D01*
X76964000Y-85772000D02*
X75964000Y-75772000D01*
X75964000Y-85772000D02*
X74964000Y-75772000D01*
X74964000Y-85772000D02*
X73964000Y-75772000D01*
X73964000Y-85772000D02*
X72964000Y-75772000D01*
X72964000Y-85772000D02*
X71964000Y-75772000D01*
X169750385Y-105524818D02*
G75*
G02X165668000Y-103632000I-1602385J1892818D01*
G01*
X169740547Y-101730897D02*
G75*
G03X165668000Y-103632000I-1592547J-1901103D01*
G01*
X169748000Y-105522000D02*
X169748000Y-101772000D01*
X169748000Y-81646000D02*
X169748000Y-77896000D01*
X169740547Y-77854897D02*
G75*
G03X165668000Y-79756000I-1592547J-1901103D01*
G01*
X169750385Y-81648818D02*
G75*
G02X165668000Y-79756000I-1602385J1892818D01*
G01*
X158020000Y-97712000D02*
X158020000Y-110712000D01*
X162020000Y-97712000D02*
X158020000Y-97712000D01*
X162020000Y-110712000D02*
X162020000Y-97712000D01*
X158020000Y-110712000D02*
X162020000Y-110712000D01*
X113824000Y-108172000D02*
X117824000Y-108172000D01*
X117824000Y-108172000D02*
X117824000Y-95172000D01*
X117824000Y-95172000D02*
X113824000Y-95172000D01*
X113824000Y-95172000D02*
X113824000Y-108172000D01*
X150146000Y-97712000D02*
X150146000Y-110712000D01*
X154146000Y-97712000D02*
X150146000Y-97712000D01*
X154146000Y-110712000D02*
X154146000Y-97712000D01*
X150146000Y-110712000D02*
X154146000Y-110712000D01*
X98584000Y-108172000D02*
X102584000Y-108172000D01*
X102584000Y-108172000D02*
X102584000Y-95172000D01*
X102584000Y-95172000D02*
X98584000Y-95172000D01*
X98584000Y-95172000D02*
X98584000Y-108172000D01*
X110458000Y-95282000D02*
X106458000Y-95282000D01*
X106458000Y-95282000D02*
X106458000Y-108282000D01*
X106458000Y-108282000D02*
X110458000Y-108282000D01*
X110458000Y-108282000D02*
X110458000Y-95282000D01*
X154400000Y-73692000D02*
X150400000Y-73692000D01*
X150400000Y-73692000D02*
X150400000Y-86692000D01*
X150400000Y-86692000D02*
X154400000Y-86692000D01*
X154400000Y-86692000D02*
X154400000Y-73692000D01*
X98584000Y-73836000D02*
X98584000Y-86836000D01*
X102584000Y-73836000D02*
X98584000Y-73836000D01*
X102584000Y-86836000D02*
X102584000Y-73836000D01*
X98584000Y-86836000D02*
X102584000Y-86836000D01*
X117824000Y-86692000D02*
X117824000Y-73692000D01*
X113824000Y-86692000D02*
X117824000Y-86692000D01*
X113824000Y-73692000D02*
X113824000Y-86692000D01*
X117824000Y-73692000D02*
X113824000Y-73692000D01*
X158020000Y-86836000D02*
X162020000Y-86836000D01*
X162020000Y-86836000D02*
X162020000Y-73836000D01*
X162020000Y-73836000D02*
X158020000Y-73836000D01*
X158020000Y-73836000D02*
X158020000Y-86836000D01*
X123698000Y-104029000D02*
X123698000Y-98679000D01*
X123698000Y-98679000D02*
X133858000Y-98679000D01*
X133858000Y-98679000D02*
X133858000Y-105029000D01*
X133858000Y-105029000D02*
X124698000Y-105029000D01*
X124698000Y-105029000D02*
X123698000Y-104029000D01*
X124698000Y-83185000D02*
X123698000Y-82185000D01*
X133858000Y-83185000D02*
X124698000Y-83185000D01*
X133858000Y-76835000D02*
X133858000Y-83185000D01*
X123698000Y-76835000D02*
X133858000Y-76835000D01*
X123698000Y-82185000D02*
X123698000Y-76835000D01*
D11*
X162546190Y-150518761D02*
X162689047Y-150566380D01*
X162927142Y-150566380D01*
X163022380Y-150518761D01*
X163069999Y-150471142D01*
X163117619Y-150375904D01*
X163117619Y-150280666D01*
X163069999Y-150185428D01*
X163022380Y-150137809D01*
X162927142Y-150090190D01*
X162736666Y-150042571D01*
X162641428Y-149994952D01*
X162593809Y-149947333D01*
X162546190Y-149852095D01*
X162546190Y-149756857D01*
X162593809Y-149661619D01*
X162641428Y-149614000D01*
X162736666Y-149566380D01*
X162974761Y-149566380D01*
X163117619Y-149614000D01*
X163450952Y-149899714D02*
X163689047Y-150566380D01*
X163927142Y-149899714D02*
X163689047Y-150566380D01*
X163593809Y-150804476D01*
X163546190Y-150852095D01*
X163450952Y-150899714D01*
X164308095Y-150566380D02*
X164308095Y-149899714D01*
X164308095Y-149994952D02*
X164355714Y-149947333D01*
X164450952Y-149899714D01*
X164593809Y-149899714D01*
X164689047Y-149947333D01*
X164736666Y-150042571D01*
X164736666Y-150566380D01*
X164736666Y-150042571D02*
X164784285Y-149947333D01*
X164879523Y-149899714D01*
X165022380Y-149899714D01*
X165117619Y-149947333D01*
X165165238Y-150042571D01*
X165165238Y-150566380D01*
X165641428Y-150566380D02*
X165641428Y-149566380D01*
X165641428Y-149947333D02*
X165736666Y-149899714D01*
X165927142Y-149899714D01*
X166022380Y-149947333D01*
X166069999Y-149994952D01*
X166117619Y-150090190D01*
X166117619Y-150375904D01*
X166069999Y-150471142D01*
X166022380Y-150518761D01*
X165927142Y-150566380D01*
X165736666Y-150566380D01*
X165641428Y-150518761D01*
X166689047Y-150566380D02*
X166593809Y-150518761D01*
X166546190Y-150471142D01*
X166498571Y-150375904D01*
X166498571Y-150090190D01*
X166546190Y-149994952D01*
X166593809Y-149947333D01*
X166689047Y-149899714D01*
X166831904Y-149899714D01*
X166927142Y-149947333D01*
X166974761Y-149994952D01*
X167022380Y-150090190D01*
X167022380Y-150375904D01*
X166974761Y-150471142D01*
X166927142Y-150518761D01*
X166831904Y-150566380D01*
X166689047Y-150566380D01*
X167593809Y-150566380D02*
X167498571Y-150518761D01*
X167450952Y-150423523D01*
X167450952Y-149566380D01*
X167736666Y-150661619D02*
X168498571Y-150661619D01*
X168736666Y-150566380D02*
X168736666Y-149566380D01*
X168736666Y-150042571D02*
X169308095Y-150042571D01*
X169308095Y-150566380D02*
X169308095Y-149566380D01*
X169784285Y-150566380D02*
X169784285Y-149899714D01*
X169784285Y-149566380D02*
X169736666Y-149614000D01*
X169784285Y-149661619D01*
X169831904Y-149614000D01*
X169784285Y-149566380D01*
X169784285Y-149661619D01*
X170689047Y-149899714D02*
X170689047Y-150709238D01*
X170641428Y-150804476D01*
X170593809Y-150852095D01*
X170498571Y-150899714D01*
X170355714Y-150899714D01*
X170260476Y-150852095D01*
X170689047Y-150518761D02*
X170593809Y-150566380D01*
X170403333Y-150566380D01*
X170308095Y-150518761D01*
X170260476Y-150471142D01*
X170212857Y-150375904D01*
X170212857Y-150090190D01*
X170260476Y-149994952D01*
X170308095Y-149947333D01*
X170403333Y-149899714D01*
X170593809Y-149899714D01*
X170689047Y-149947333D01*
X171165238Y-150566380D02*
X171165238Y-149566380D01*
X171593809Y-150566380D02*
X171593809Y-150042571D01*
X171546190Y-149947333D01*
X171450952Y-149899714D01*
X171308095Y-149899714D01*
X171212857Y-149947333D01*
X171165238Y-149994952D01*
X171974761Y-149899714D02*
X172212857Y-150566380D01*
X172450952Y-149899714D01*
X172974761Y-150566380D02*
X172879523Y-150518761D01*
X172831904Y-150471142D01*
X172784285Y-150375904D01*
X172784285Y-150090190D01*
X172831904Y-149994952D01*
X172879523Y-149947333D01*
X172974761Y-149899714D01*
X173117619Y-149899714D01*
X173212857Y-149947333D01*
X173260476Y-149994952D01*
X173308095Y-150090190D01*
X173308095Y-150375904D01*
X173260476Y-150471142D01*
X173212857Y-150518761D01*
X173117619Y-150566380D01*
X172974761Y-150566380D01*
X173879523Y-150566380D02*
X173784285Y-150518761D01*
X173736666Y-150423523D01*
X173736666Y-149566380D01*
X174117619Y-149899714D02*
X174498571Y-149899714D01*
X174260476Y-149566380D02*
X174260476Y-150423523D01*
X174308095Y-150518761D01*
X174403333Y-150566380D01*
X174498571Y-150566380D01*
X175260476Y-150566380D02*
X175260476Y-150042571D01*
X175212857Y-149947333D01*
X175117619Y-149899714D01*
X174927142Y-149899714D01*
X174831904Y-149947333D01*
X175260476Y-150518761D02*
X175165238Y-150566380D01*
X174927142Y-150566380D01*
X174831904Y-150518761D01*
X174784285Y-150423523D01*
X174784285Y-150328285D01*
X174831904Y-150233047D01*
X174927142Y-150185428D01*
X175165238Y-150185428D01*
X175260476Y-150137809D01*
X176165238Y-149899714D02*
X176165238Y-150709238D01*
X176117619Y-150804476D01*
X176069999Y-150852095D01*
X175974761Y-150899714D01*
X175831904Y-150899714D01*
X175736666Y-150852095D01*
X176165238Y-150518761D02*
X176069999Y-150566380D01*
X175879523Y-150566380D01*
X175784285Y-150518761D01*
X175736666Y-150471142D01*
X175689047Y-150375904D01*
X175689047Y-150090190D01*
X175736666Y-149994952D01*
X175784285Y-149947333D01*
X175879523Y-149899714D01*
X176069999Y-149899714D01*
X176165238Y-149947333D01*
X177022380Y-150518761D02*
X176927142Y-150566380D01*
X176736666Y-150566380D01*
X176641428Y-150518761D01*
X176593809Y-150423523D01*
X176593809Y-150042571D01*
X176641428Y-149947333D01*
X176736666Y-149899714D01*
X176927142Y-149899714D01*
X177022380Y-149947333D01*
X177069999Y-150042571D01*
X177069999Y-150137809D01*
X176593809Y-150233047D01*
X177260476Y-150661619D02*
X178022380Y-150661619D01*
X178117619Y-149566380D02*
X178689047Y-149566380D01*
X178403333Y-150566380D02*
X178403333Y-149566380D01*
X178927142Y-149899714D02*
X179165238Y-150566380D01*
X179403333Y-149899714D02*
X179165238Y-150566380D01*
X179069999Y-150804476D01*
X179022380Y-150852095D01*
X178927142Y-150899714D01*
X179784285Y-149899714D02*
X179784285Y-150899714D01*
X179784285Y-149947333D02*
X179879523Y-149899714D01*
X180069999Y-149899714D01*
X180165238Y-149947333D01*
X180212857Y-149994952D01*
X180260476Y-150090190D01*
X180260476Y-150375904D01*
X180212857Y-150471142D01*
X180165238Y-150518761D01*
X180069999Y-150566380D01*
X179879523Y-150566380D01*
X179784285Y-150518761D01*
X181069999Y-150518761D02*
X180974761Y-150566380D01*
X180784285Y-150566380D01*
X180689047Y-150518761D01*
X180641428Y-150423523D01*
X180641428Y-150042571D01*
X180689047Y-149947333D01*
X180784285Y-149899714D01*
X180974761Y-149899714D01*
X181069999Y-149947333D01*
X181117619Y-150042571D01*
X181117619Y-150137809D01*
X180641428Y-150233047D01*
X181498571Y-149661619D02*
X181546190Y-149614000D01*
X181641428Y-149566380D01*
X181879523Y-149566380D01*
X181974761Y-149614000D01*
X182022380Y-149661619D01*
X182069999Y-149756857D01*
X182069999Y-149852095D01*
X182022380Y-149994952D01*
X181450952Y-150566380D01*
X182069999Y-150566380D01*
X182260476Y-150661619D02*
X183022380Y-150661619D01*
X183831904Y-150471142D02*
X183784285Y-150518761D01*
X183641428Y-150566380D01*
X183546190Y-150566380D01*
X183403333Y-150518761D01*
X183308095Y-150423523D01*
X183260476Y-150328285D01*
X183212857Y-150137809D01*
X183212857Y-149994952D01*
X183260476Y-149804476D01*
X183308095Y-149709238D01*
X183403333Y-149614000D01*
X183546190Y-149566380D01*
X183641428Y-149566380D01*
X183784285Y-149614000D01*
X183831904Y-149661619D01*
X184403333Y-150566380D02*
X184308095Y-150518761D01*
X184260476Y-150471142D01*
X184212857Y-150375904D01*
X184212857Y-150090190D01*
X184260476Y-149994952D01*
X184308095Y-149947333D01*
X184403333Y-149899714D01*
X184546190Y-149899714D01*
X184641428Y-149947333D01*
X184689047Y-149994952D01*
X184736666Y-150090190D01*
X184736666Y-150375904D01*
X184689047Y-150471142D01*
X184641428Y-150518761D01*
X184546190Y-150566380D01*
X184403333Y-150566380D01*
X185165238Y-149899714D02*
X185165238Y-150899714D01*
X185165238Y-149947333D02*
X185260476Y-149899714D01*
X185450952Y-149899714D01*
X185546190Y-149947333D01*
X185593809Y-149994952D01*
X185641428Y-150090190D01*
X185641428Y-150375904D01*
X185593809Y-150471142D01*
X185546190Y-150518761D01*
X185450952Y-150566380D01*
X185260476Y-150566380D01*
X185165238Y-150518761D01*
X186069999Y-149899714D02*
X186069999Y-150899714D01*
X186069999Y-149947333D02*
X186165238Y-149899714D01*
X186355714Y-149899714D01*
X186450952Y-149947333D01*
X186498571Y-149994952D01*
X186546190Y-150090190D01*
X186546190Y-150375904D01*
X186498571Y-150471142D01*
X186450952Y-150518761D01*
X186355714Y-150566380D01*
X186165238Y-150566380D01*
X186069999Y-150518761D01*
X187355714Y-150518761D02*
X187260476Y-150566380D01*
X187069999Y-150566380D01*
X186974761Y-150518761D01*
X186927142Y-150423523D01*
X186927142Y-150042571D01*
X186974761Y-149947333D01*
X187069999Y-149899714D01*
X187260476Y-149899714D01*
X187355714Y-149947333D01*
X187403333Y-150042571D01*
X187403333Y-150137809D01*
X186927142Y-150233047D01*
X187831904Y-150566380D02*
X187831904Y-149899714D01*
X187831904Y-150090190D02*
X187879523Y-149994952D01*
X187927142Y-149947333D01*
X188022380Y-149899714D01*
X188117619Y-149899714D01*
X188308095Y-149566380D02*
X188879523Y-149566380D01*
X188593809Y-150566380D02*
X188593809Y-149566380D01*
X189355714Y-150566380D02*
X189260476Y-150518761D01*
X189212857Y-150471142D01*
X189165238Y-150375904D01*
X189165238Y-150090190D01*
X189212857Y-149994952D01*
X189260476Y-149947333D01*
X189355714Y-149899714D01*
X189498571Y-149899714D01*
X189593809Y-149947333D01*
X189641428Y-149994952D01*
X189689047Y-150090190D01*
X189689047Y-150375904D01*
X189641428Y-150471142D01*
X189593809Y-150518761D01*
X189498571Y-150566380D01*
X189355714Y-150566380D01*
X190117619Y-149899714D02*
X190117619Y-150899714D01*
X190117619Y-149947333D02*
X190212857Y-149899714D01*
X190403333Y-149899714D01*
X190498571Y-149947333D01*
X190546190Y-149994952D01*
X190593809Y-150090190D01*
X190593809Y-150375904D01*
X190546190Y-150471142D01*
X190498571Y-150518761D01*
X190403333Y-150566380D01*
X190212857Y-150566380D01*
X190117619Y-150518761D01*
X190784285Y-150661619D02*
X191546190Y-150661619D01*
X191736666Y-150518761D02*
X191879523Y-150566380D01*
X192117619Y-150566380D01*
X192212857Y-150518761D01*
X192260476Y-150471142D01*
X192308095Y-150375904D01*
X192308095Y-150280666D01*
X192260476Y-150185428D01*
X192212857Y-150137809D01*
X192117619Y-150090190D01*
X191927142Y-150042571D01*
X191831904Y-149994952D01*
X191784285Y-149947333D01*
X191736666Y-149852095D01*
X191736666Y-149756857D01*
X191784285Y-149661619D01*
X191831904Y-149614000D01*
X191927142Y-149566380D01*
X192165238Y-149566380D01*
X192308095Y-149614000D01*
X192736666Y-150566380D02*
X192736666Y-149899714D01*
X192736666Y-149994952D02*
X192784285Y-149947333D01*
X192879523Y-149899714D01*
X193022380Y-149899714D01*
X193117619Y-149947333D01*
X193165238Y-150042571D01*
X193165238Y-150566380D01*
X193165238Y-150042571D02*
X193212857Y-149947333D01*
X193308095Y-149899714D01*
X193450952Y-149899714D01*
X193546190Y-149947333D01*
X193593809Y-150042571D01*
X193593809Y-150566380D01*
X194498571Y-150566380D02*
X194498571Y-150042571D01*
X194450952Y-149947333D01*
X194355714Y-149899714D01*
X194165238Y-149899714D01*
X194069999Y-149947333D01*
X194498571Y-150518761D02*
X194403333Y-150566380D01*
X194165238Y-150566380D01*
X194069999Y-150518761D01*
X194022380Y-150423523D01*
X194022380Y-150328285D01*
X194069999Y-150233047D01*
X194165238Y-150185428D01*
X194403333Y-150185428D01*
X194498571Y-150137809D01*
X195117619Y-150566380D02*
X195022380Y-150518761D01*
X194974761Y-150423523D01*
X194974761Y-149566380D01*
X195641428Y-150566380D02*
X195546190Y-150518761D01*
X195498571Y-150423523D01*
X195498571Y-149566380D01*
X88531381Y-65265667D02*
X89007572Y-65265667D01*
X88436143Y-65551381D02*
X88769477Y-64551381D01*
X89102810Y-65551381D01*
X89436143Y-65551381D02*
X89436143Y-64884715D01*
X89436143Y-65075191D02*
X89483762Y-64979953D01*
X89531381Y-64932334D01*
X89626620Y-64884715D01*
X89721858Y-64884715D01*
X90483762Y-65551381D02*
X90483762Y-64551381D01*
X90483762Y-65503762D02*
X90388524Y-65551381D01*
X90198048Y-65551381D01*
X90102810Y-65503762D01*
X90055191Y-65456143D01*
X90007572Y-65360905D01*
X90007572Y-65075191D01*
X90055191Y-64979953D01*
X90102810Y-64932334D01*
X90198048Y-64884715D01*
X90388524Y-64884715D01*
X90483762Y-64932334D01*
X91388524Y-64884715D02*
X91388524Y-65551381D01*
X90959953Y-64884715D02*
X90959953Y-65408524D01*
X91007572Y-65503762D01*
X91102810Y-65551381D01*
X91245667Y-65551381D01*
X91340905Y-65503762D01*
X91388524Y-65456143D01*
X91864715Y-65551381D02*
X91864715Y-64884715D01*
X91864715Y-64551381D02*
X91817096Y-64599001D01*
X91864715Y-64646620D01*
X91912334Y-64599001D01*
X91864715Y-64551381D01*
X91864715Y-64646620D01*
X92340905Y-64884715D02*
X92340905Y-65551381D01*
X92340905Y-64979953D02*
X92388524Y-64932334D01*
X92483762Y-64884715D01*
X92626620Y-64884715D01*
X92721858Y-64932334D01*
X92769477Y-65027572D01*
X92769477Y-65551381D01*
X93388524Y-65551381D02*
X93293286Y-65503762D01*
X93245667Y-65456143D01*
X93198048Y-65360905D01*
X93198048Y-65075191D01*
X93245667Y-64979953D01*
X93293286Y-64932334D01*
X93388524Y-64884715D01*
X93531381Y-64884715D01*
X93626620Y-64932334D01*
X93674239Y-64979953D01*
X93721858Y-65075191D01*
X93721858Y-65360905D01*
X93674239Y-65456143D01*
X93626620Y-65503762D01*
X93531381Y-65551381D01*
X93388524Y-65551381D01*
X93912334Y-65646620D02*
X94674239Y-65646620D01*
X94912334Y-65551381D02*
X94912334Y-64551381D01*
X95150429Y-64551381D01*
X95293286Y-64599001D01*
X95388524Y-64694239D01*
X95436143Y-64789477D01*
X95483762Y-64979953D01*
X95483762Y-65122810D01*
X95436143Y-65313286D01*
X95388524Y-65408524D01*
X95293286Y-65503762D01*
X95150429Y-65551381D01*
X94912334Y-65551381D01*
X96340905Y-64884715D02*
X96340905Y-65551381D01*
X95912334Y-64884715D02*
X95912334Y-65408524D01*
X95959953Y-65503762D01*
X96055191Y-65551381D01*
X96198048Y-65551381D01*
X96293286Y-65503762D01*
X96340905Y-65456143D01*
X97198048Y-65503762D02*
X97102810Y-65551381D01*
X96912334Y-65551381D01*
X96817096Y-65503762D01*
X96769477Y-65408524D01*
X96769477Y-65027572D01*
X96817096Y-64932334D01*
X96912334Y-64884715D01*
X97102810Y-64884715D01*
X97198048Y-64932334D01*
X97245667Y-65027572D01*
X97245667Y-65122810D01*
X96769477Y-65218048D01*
X97436143Y-65646620D02*
X98198048Y-65646620D01*
X98388524Y-65503762D02*
X98531381Y-65551381D01*
X98769477Y-65551381D01*
X98864715Y-65503762D01*
X98912334Y-65456143D01*
X98959953Y-65360905D01*
X98959953Y-65265667D01*
X98912334Y-65170429D01*
X98864715Y-65122810D01*
X98769477Y-65075191D01*
X98579001Y-65027572D01*
X98483762Y-64979953D01*
X98436143Y-64932334D01*
X98388524Y-64837096D01*
X98388524Y-64741858D01*
X98436143Y-64646620D01*
X98483762Y-64599001D01*
X98579001Y-64551381D01*
X98817096Y-64551381D01*
X98959953Y-64599001D01*
X99388524Y-65551381D02*
X99388524Y-64551381D01*
X99817096Y-65551381D02*
X99817096Y-65027572D01*
X99769477Y-64932334D01*
X99674239Y-64884715D01*
X99531381Y-64884715D01*
X99436143Y-64932334D01*
X99388524Y-64979953D01*
X100293286Y-65551381D02*
X100293286Y-64884715D01*
X100293286Y-64551381D02*
X100245667Y-64599001D01*
X100293286Y-64646620D01*
X100340905Y-64599001D01*
X100293286Y-64551381D01*
X100293286Y-64646620D01*
X101150429Y-65503762D02*
X101055191Y-65551381D01*
X100864715Y-65551381D01*
X100769477Y-65503762D01*
X100721858Y-65408524D01*
X100721858Y-65027572D01*
X100769477Y-64932334D01*
X100864715Y-64884715D01*
X101055191Y-64884715D01*
X101150429Y-64932334D01*
X101198048Y-65027572D01*
X101198048Y-65122810D01*
X100721858Y-65218048D01*
X101769477Y-65551381D02*
X101674239Y-65503762D01*
X101626620Y-65408524D01*
X101626620Y-64551381D01*
X102579001Y-65551381D02*
X102579001Y-64551381D01*
X102579001Y-65503762D02*
X102483762Y-65551381D01*
X102293286Y-65551381D01*
X102198048Y-65503762D01*
X102150429Y-65456143D01*
X102102810Y-65360905D01*
X102102810Y-65075191D01*
X102150429Y-64979953D01*
X102198048Y-64932334D01*
X102293286Y-64884715D01*
X102483762Y-64884715D01*
X102579001Y-64932334D01*
X108656380Y-80358666D02*
X108180190Y-80692000D01*
X108656380Y-80930095D02*
X107656380Y-80930095D01*
X107656380Y-80549142D01*
X107704000Y-80453904D01*
X107751619Y-80406285D01*
X107846857Y-80358666D01*
X107989714Y-80358666D01*
X108084952Y-80406285D01*
X108132571Y-80453904D01*
X108180190Y-80549142D01*
X108180190Y-80930095D01*
X108084952Y-79787238D02*
X108037333Y-79882476D01*
X107989714Y-79930095D01*
X107894476Y-79977714D01*
X107846857Y-79977714D01*
X107751619Y-79930095D01*
X107704000Y-79882476D01*
X107656380Y-79787238D01*
X107656380Y-79596761D01*
X107704000Y-79501523D01*
X107751619Y-79453904D01*
X107846857Y-79406285D01*
X107894476Y-79406285D01*
X107989714Y-79453904D01*
X108037333Y-79501523D01*
X108084952Y-79596761D01*
X108084952Y-79787238D01*
X108132571Y-79882476D01*
X108180190Y-79930095D01*
X108275428Y-79977714D01*
X108465904Y-79977714D01*
X108561142Y-79930095D01*
X108608761Y-79882476D01*
X108656380Y-79787238D01*
X108656380Y-79596761D01*
X108608761Y-79501523D01*
X108561142Y-79453904D01*
X108465904Y-79406285D01*
X108275428Y-79406285D01*
X108180190Y-79453904D01*
X108132571Y-79501523D01*
X108084952Y-79596761D01*
X92416380Y-101933333D02*
X93130666Y-101933333D01*
X93273523Y-101980952D01*
X93368761Y-102076190D01*
X93416380Y-102219047D01*
X93416380Y-102314285D01*
X93416380Y-100933333D02*
X93416380Y-101504761D01*
X93416380Y-101219047D02*
X92416380Y-101219047D01*
X92559238Y-101314285D01*
X92654476Y-101409523D01*
X92702095Y-101504761D01*
X92416380Y-81105333D02*
X93130666Y-81105333D01*
X93273523Y-81152952D01*
X93368761Y-81248190D01*
X93416380Y-81391047D01*
X93416380Y-81486285D01*
X92511619Y-80676761D02*
X92464000Y-80629142D01*
X92416380Y-80533904D01*
X92416380Y-80295809D01*
X92464000Y-80200571D01*
X92511619Y-80152952D01*
X92606857Y-80105333D01*
X92702095Y-80105333D01*
X92844952Y-80152952D01*
X93416380Y-80724380D01*
X93416380Y-80105333D01*
X168745619Y-103717238D02*
X168698000Y-103812476D01*
X168602761Y-103907714D01*
X168459904Y-104050571D01*
X168412285Y-104145809D01*
X168412285Y-104241047D01*
X168650380Y-104193428D02*
X168602761Y-104288666D01*
X168507523Y-104383904D01*
X168317047Y-104431523D01*
X167983714Y-104431523D01*
X167793238Y-104383904D01*
X167698000Y-104288666D01*
X167650380Y-104193428D01*
X167650380Y-104002952D01*
X167698000Y-103907714D01*
X167793238Y-103812476D01*
X167983714Y-103764857D01*
X168317047Y-103764857D01*
X168507523Y-103812476D01*
X168602761Y-103907714D01*
X168650380Y-104002952D01*
X168650380Y-104193428D01*
X168650380Y-102812476D02*
X168650380Y-103383904D01*
X168650380Y-103098190D02*
X167650380Y-103098190D01*
X167793238Y-103193428D01*
X167888476Y-103288666D01*
X167936095Y-103383904D01*
X168745619Y-79841238D02*
X168698000Y-79936476D01*
X168602761Y-80031714D01*
X168459904Y-80174571D01*
X168412285Y-80269809D01*
X168412285Y-80365047D01*
X168650380Y-80317428D02*
X168602761Y-80412666D01*
X168507523Y-80507904D01*
X168317047Y-80555523D01*
X167983714Y-80555523D01*
X167793238Y-80507904D01*
X167698000Y-80412666D01*
X167650380Y-80317428D01*
X167650380Y-80126952D01*
X167698000Y-80031714D01*
X167793238Y-79936476D01*
X167983714Y-79888857D01*
X168317047Y-79888857D01*
X168507523Y-79936476D01*
X168602761Y-80031714D01*
X168650380Y-80126952D01*
X168650380Y-80317428D01*
X167745619Y-79507904D02*
X167698000Y-79460285D01*
X167650380Y-79365047D01*
X167650380Y-79126952D01*
X167698000Y-79031714D01*
X167745619Y-78984095D01*
X167840857Y-78936476D01*
X167936095Y-78936476D01*
X168078952Y-78984095D01*
X168650380Y-79555523D01*
X168650380Y-78936476D01*
X160472380Y-104378666D02*
X159996190Y-104712000D01*
X160472380Y-104950095D02*
X159472380Y-104950095D01*
X159472380Y-104569142D01*
X159520000Y-104473904D01*
X159567619Y-104426285D01*
X159662857Y-104378666D01*
X159805714Y-104378666D01*
X159900952Y-104426285D01*
X159948571Y-104473904D01*
X159996190Y-104569142D01*
X159996190Y-104950095D01*
X160472380Y-103426285D02*
X160472380Y-103997714D01*
X160472380Y-103712000D02*
X159472380Y-103712000D01*
X159615238Y-103807238D01*
X159710476Y-103902476D01*
X159758095Y-103997714D01*
X116276380Y-101838666D02*
X115800190Y-102172000D01*
X116276380Y-102410095D02*
X115276380Y-102410095D01*
X115276380Y-102029142D01*
X115324000Y-101933904D01*
X115371619Y-101886285D01*
X115466857Y-101838666D01*
X115609714Y-101838666D01*
X115704952Y-101886285D01*
X115752571Y-101933904D01*
X115800190Y-102029142D01*
X115800190Y-102410095D01*
X115371619Y-101457714D02*
X115324000Y-101410095D01*
X115276380Y-101314857D01*
X115276380Y-101076761D01*
X115324000Y-100981523D01*
X115371619Y-100933904D01*
X115466857Y-100886285D01*
X115562095Y-100886285D01*
X115704952Y-100933904D01*
X116276380Y-101505333D01*
X116276380Y-100886285D01*
X152598380Y-104378666D02*
X152122190Y-104712000D01*
X152598380Y-104950095D02*
X151598380Y-104950095D01*
X151598380Y-104569142D01*
X151646000Y-104473904D01*
X151693619Y-104426285D01*
X151788857Y-104378666D01*
X151931714Y-104378666D01*
X152026952Y-104426285D01*
X152074571Y-104473904D01*
X152122190Y-104569142D01*
X152122190Y-104950095D01*
X151598380Y-104045333D02*
X151598380Y-103426285D01*
X151979333Y-103759619D01*
X151979333Y-103616761D01*
X152026952Y-103521523D01*
X152074571Y-103473904D01*
X152169809Y-103426285D01*
X152407904Y-103426285D01*
X152503142Y-103473904D01*
X152550761Y-103521523D01*
X152598380Y-103616761D01*
X152598380Y-103902476D01*
X152550761Y-103997714D01*
X152503142Y-104045333D01*
X101036380Y-101838666D02*
X100560190Y-102172000D01*
X101036380Y-102410095D02*
X100036380Y-102410095D01*
X100036380Y-102029142D01*
X100084000Y-101933904D01*
X100131619Y-101886285D01*
X100226857Y-101838666D01*
X100369714Y-101838666D01*
X100464952Y-101886285D01*
X100512571Y-101933904D01*
X100560190Y-102029142D01*
X100560190Y-102410095D01*
X100369714Y-100981523D02*
X101036380Y-100981523D01*
X99988761Y-101219619D02*
X100703047Y-101457714D01*
X100703047Y-100838666D01*
X108910380Y-102020666D02*
X108434190Y-102354000D01*
X108910380Y-102592095D02*
X107910380Y-102592095D01*
X107910380Y-102211142D01*
X107958000Y-102115904D01*
X108005619Y-102068285D01*
X108100857Y-102020666D01*
X108243714Y-102020666D01*
X108338952Y-102068285D01*
X108386571Y-102115904D01*
X108434190Y-102211142D01*
X108434190Y-102592095D01*
X107910380Y-101115904D02*
X107910380Y-101592095D01*
X108386571Y-101639714D01*
X108338952Y-101592095D01*
X108291333Y-101496857D01*
X108291333Y-101258761D01*
X108338952Y-101163523D01*
X108386571Y-101115904D01*
X108481809Y-101068285D01*
X108719904Y-101068285D01*
X108815142Y-101115904D01*
X108862761Y-101163523D01*
X108910380Y-101258761D01*
X108910380Y-101496857D01*
X108862761Y-101592095D01*
X108815142Y-101639714D01*
X152852380Y-80358666D02*
X152376190Y-80692000D01*
X152852380Y-80930095D02*
X151852380Y-80930095D01*
X151852380Y-80549142D01*
X151900000Y-80453904D01*
X151947619Y-80406285D01*
X152042857Y-80358666D01*
X152185714Y-80358666D01*
X152280952Y-80406285D01*
X152328571Y-80453904D01*
X152376190Y-80549142D01*
X152376190Y-80930095D01*
X151852380Y-79501523D02*
X151852380Y-79692000D01*
X151900000Y-79787238D01*
X151947619Y-79834857D01*
X152090476Y-79930095D01*
X152280952Y-79977714D01*
X152661904Y-79977714D01*
X152757142Y-79930095D01*
X152804761Y-79882476D01*
X152852380Y-79787238D01*
X152852380Y-79596761D01*
X152804761Y-79501523D01*
X152757142Y-79453904D01*
X152661904Y-79406285D01*
X152423809Y-79406285D01*
X152328571Y-79453904D01*
X152280952Y-79501523D01*
X152233333Y-79596761D01*
X152233333Y-79787238D01*
X152280952Y-79882476D01*
X152328571Y-79930095D01*
X152423809Y-79977714D01*
X100782380Y-80502666D02*
X100306190Y-80836000D01*
X100782380Y-81074095D02*
X99782380Y-81074095D01*
X99782380Y-80693142D01*
X99830000Y-80597904D01*
X99877619Y-80550285D01*
X99972857Y-80502666D01*
X100115714Y-80502666D01*
X100210952Y-80550285D01*
X100258571Y-80597904D01*
X100306190Y-80693142D01*
X100306190Y-81074095D01*
X99782380Y-80169333D02*
X99782380Y-79502666D01*
X100782380Y-79931238D01*
X116276380Y-80358666D02*
X115800190Y-80692000D01*
X116276380Y-80930095D02*
X115276380Y-80930095D01*
X115276380Y-80549142D01*
X115324000Y-80453904D01*
X115371619Y-80406285D01*
X115466857Y-80358666D01*
X115609714Y-80358666D01*
X115704952Y-80406285D01*
X115752571Y-80453904D01*
X115800190Y-80549142D01*
X115800190Y-80930095D01*
X116276380Y-79882476D02*
X116276380Y-79692000D01*
X116228761Y-79596761D01*
X116181142Y-79549142D01*
X116038285Y-79453904D01*
X115847809Y-79406285D01*
X115466857Y-79406285D01*
X115371619Y-79453904D01*
X115324000Y-79501523D01*
X115276380Y-79596761D01*
X115276380Y-79787238D01*
X115324000Y-79882476D01*
X115371619Y-79930095D01*
X115466857Y-79977714D01*
X115704952Y-79977714D01*
X115800190Y-79930095D01*
X115847809Y-79882476D01*
X115895428Y-79787238D01*
X115895428Y-79596761D01*
X115847809Y-79501523D01*
X115800190Y-79453904D01*
X115704952Y-79406285D01*
X160472380Y-80906857D02*
X159996190Y-81240190D01*
X160472380Y-81478285D02*
X159472380Y-81478285D01*
X159472380Y-81097333D01*
X159520000Y-81002095D01*
X159567619Y-80954476D01*
X159662857Y-80906857D01*
X159805714Y-80906857D01*
X159900952Y-80954476D01*
X159948571Y-81002095D01*
X159996190Y-81097333D01*
X159996190Y-81478285D01*
X160472380Y-79954476D02*
X160472380Y-80525904D01*
X160472380Y-80240190D02*
X159472380Y-80240190D01*
X159615238Y-80335428D01*
X159710476Y-80430666D01*
X159758095Y-80525904D01*
X159472380Y-79335428D02*
X159472380Y-79240190D01*
X159520000Y-79144952D01*
X159567619Y-79097333D01*
X159662857Y-79049714D01*
X159853333Y-79002095D01*
X160091428Y-79002095D01*
X160281904Y-79049714D01*
X160377142Y-79097333D01*
X160424761Y-79144952D01*
X160472380Y-79240190D01*
X160472380Y-79335428D01*
X160424761Y-79430666D01*
X160377142Y-79478285D01*
X160281904Y-79525904D01*
X160091428Y-79573523D01*
X159853333Y-79573523D01*
X159662857Y-79525904D01*
X159567619Y-79478285D01*
X159520000Y-79430666D01*
X159472380Y-79335428D01*
X128230380Y-102615904D02*
X129039904Y-102615904D01*
X129135142Y-102568285D01*
X129182761Y-102520666D01*
X129230380Y-102425428D01*
X129230380Y-102234952D01*
X129182761Y-102139714D01*
X129135142Y-102092095D01*
X129039904Y-102044476D01*
X128230380Y-102044476D01*
X129230380Y-101044476D02*
X129230380Y-101615904D01*
X129230380Y-101330190D02*
X128230380Y-101330190D01*
X128373238Y-101425428D01*
X128468476Y-101520666D01*
X128516095Y-101615904D01*
X128230380Y-80771904D02*
X129039904Y-80771904D01*
X129135142Y-80724285D01*
X129182761Y-80676666D01*
X129230380Y-80581428D01*
X129230380Y-80390952D01*
X129182761Y-80295714D01*
X129135142Y-80248095D01*
X129039904Y-80200476D01*
X128230380Y-80200476D01*
X128325619Y-79771904D02*
X128278000Y-79724285D01*
X128230380Y-79629047D01*
X128230380Y-79390952D01*
X128278000Y-79295714D01*
X128325619Y-79248095D01*
X128420857Y-79200476D01*
X128516095Y-79200476D01*
X128658952Y-79248095D01*
X129230380Y-79819523D01*
X129230380Y-79200476D01*
M02*
